<svg width="84" height="84" viewBox="0 0 84 84" fill="none" xmlns="http://www.w3.org/2000/svg">
<path d="M13.6189 2.45648C35.5759 3.77851 45.4913 2 52.4092 2C58.8431 2 61.8703 22.7908 59.2263 28.9302C56.7332 34.7189 14.3093 34.9513 12.3341 32.6587C10.0501 30.0067 11.3707 18.9331 11.3707 15.1341M27.5619 67.8157C20.0967 61.9476 -16.398 66.8376 13.756 39.4365C14.1604 45.6915 14.5396 59.8268 14.2903 61.7845M44.1825 24.6324C44.1825 23.4688 44.1825 22.305 44.1825 21.1409M35.6033 24.9129C35.5302 23.9918 35.6035 21.8817 35.6035 21.1409M42.824 53.3085C83.9637 52.8194 90.2672 49.2333 73.0153 80.5301M65.5525 81.508C41.0013 80.5298 24.4128 89.3324 35.859 59.5025M36.3557 81.508C31.0304 77.6848 25.091 74.6476 19.9329 70.4234M47.3049 51.8415C47.3049 47.6478 47.1472 43.4785 46.9731 39.2902C49.0484 42.5202 51.0055 44.6225 53.4421 50.2111M8.7168 19.9569C7.46689 20.278 6.20787 20.2149 4.93314 20.3291M3.03842 17.3547C3.05513 19.6076 3.03795 21.8257 2.84938 24.047M63.3921 19.0274C64.3367 18.9312 65.2867 18.8102 66.2296 18.6558M67.1743 16.0533C67.4427 17.5286 67.3633 19.0247 67.3633 20.5148M49.0132 19.2569C42.8143 18.5845 36.8093 18.9059 30.8518 19.8283" stroke="white" stroke-width="3" stroke-linecap="round" stroke-linejoin="round"/>
</svg>
