<svg width="100" height="100" viewBox="0 0 100 100" fill="none" xmlns="http://www.w3.org/2000/svg">
<path fill-rule="evenodd" clip-rule="evenodd" d="M46.7974 0.0462514C34.1225 1.07125 23.4048 5.95351 14.6941 14.6703C8.14823 21.2204 4.28357 27.781 1.52288 37.0298C0.252263 41.2862 -0.0142192 43.4853 0.000570752 49.584C0.0227556 58.6423 1.43889 65.1449 4.87121 71.9461C6.69327 75.5567 8.00165 77.4927 11.0711 81.1198C15.5619 86.426 19.7287 89.9064 25.7057 93.3436C31.1447 96.4712 38.0952 98.8795 44.0243 99.6903C47.4524 100.159 54.2679 100.085 57.6258 99.542C68.7253 97.7478 79.9123 91.6491 87.2951 83.3675C92.8601 77.125 96.4931 70.6865 98.4002 63.686C99.9698 57.9241 100.013 57.5499 99.9983 49.7147C99.9854 42.5816 99.9661 42.3167 99.2478 39.5145C97.0121 30.7938 93.9561 24.5355 88.9968 18.5221C81.1365 8.9911 69.4825 2.3421 57.4937 0.548418C54.9889 0.173624 48.8091 -0.11643 46.7974 0.0462514ZM43.6282 7.86489C35.8141 9.19014 28.1357 12.6705 22.4105 17.4824C21.5154 18.2346 19.8016 19.9098 18.6018 21.205C6.22792 34.5658 3.72472 53.4065 12.1993 69.3981C18.5984 81.4739 30.1089 89.8745 43.363 92.1421C46.7547 92.7222 53.9724 92.7222 57.3617 92.1418C66.7747 90.5299 74.3688 86.4014 80.781 79.4103C87.5864 71.9903 91.8475 62.9186 92.7862 53.8524C93.776 44.2913 91.3703 34.6997 85.9651 26.6551C79.1773 16.5532 67.6243 9.40251 55.4279 7.75425C52.6844 7.38364 46.1018 7.44511 43.6282 7.86489ZM47.7218 26.9896C42.2353 27.5415 37.1938 29.3867 32.2899 32.6377C29.3129 34.6113 28.1526 35.6141 22.3677 41.2127C17.5773 45.8488 15.2624 47.8491 13.19 49.1428C12.7904 49.392 12.4664 49.6815 12.4695 49.7861C12.4724 49.8908 13.1496 50.4471 13.9739 51.0225C14.7981 51.5979 18.1528 54.66 21.429 57.8271C29.2851 65.4216 32.8611 68.2254 37.432 70.3732C42.9882 72.9844 49.4694 73.9809 54.4565 72.991C62.7972 71.3354 67.7199 68.2816 77.3634 58.7815C80.2942 55.8943 83.6185 52.8031 84.7507 51.912C85.883 51.0209 86.8094 50.1539 86.8094 49.9854C86.8094 49.8168 85.7992 48.8773 84.5645 47.8975C83.3299 46.918 80.4181 44.2186 78.094 41.8993C71.6403 35.4582 67.9169 32.5555 63.0008 30.1326C60.2354 28.7697 58.2377 28.0748 55.4427 27.5038C53.2818 27.0623 49.5011 26.8104 47.7218 26.9896ZM44.9487 31.9344C38.5547 33.2303 32.0524 36.9126 25.8404 42.7558C23.9119 44.5699 19.3305 49.5345 19.3305 49.8102C19.3305 50.2724 26.7605 57.6694 29.1824 59.6184C39.1967 67.6769 48.6314 70.3598 57.4937 67.6693C64.2374 65.6219 70.4317 60.979 78.8107 51.6912C80.1421 50.2153 80.5116 49.642 80.3383 49.3211C79.7531 48.2386 71.4992 40.3138 69.2464 38.6715C64.3832 35.1263 59.3755 32.7875 54.7634 31.9072C52.379 31.4521 47.258 31.4665 44.9487 31.9344ZM45.7577 37.8082C39.1999 40.2052 35.6709 46.5197 37.5471 52.4989C38.7871 56.4503 41.8893 59.246 45.9573 60.0782C48.7856 60.6565 52.0814 59.6187 54.6126 57.3527C56.8889 55.3147 58.0924 51.7349 57.3796 49.1229C56.9961 47.7171 55.6711 46.1839 54.8402 46.1839C53.777 46.1839 53.4001 47.0912 53.4001 49.6507C53.4001 52.3456 53.0776 53.2556 51.648 54.5941C48.1874 57.8344 42.6491 56.047 41.4942 51.317C40.5638 47.5065 42.3803 43.9634 46.1638 42.21C47.6096 41.5399 48.1196 41.4423 50.1487 41.4473C52.3143 41.4525 52.6125 41.5216 54.4486 42.4454C55.9289 43.19 56.6716 43.7641 57.424 44.7454C58.609 46.2909 59.4745 48.8299 59.4745 50.7609C59.4745 53.531 57.9371 56.9397 55.8814 58.7271C53.6016 60.7093 49.3801 62.05 46.3353 61.7584C43.0986 61.4487 44.8745 62.9246 48.3879 63.4644C54.082 64.3396 59.7487 61.2824 62.179 56.0245C62.8036 54.6736 63.4372 51.9052 63.4321 50.5486C63.4152 45.7581 59.9417 40.5499 55.3336 38.4055C53.3848 37.4987 53.0964 37.4399 50.2308 37.3638C47.7054 37.2966 46.9517 37.3716 45.7577 37.8082Z" fill="#8231FB"/>
</svg>
