<svg width="40" height="40" viewBox="0 0 40 40" fill="none" xmlns="http://www.w3.org/2000/svg">
<path d="M26.0076 12.8856H14.0181C13.5388 12.8856 13.1506 13.2359 13.1506 13.6684C13.1506 14.1009 13.5387 14.4513 14.0181 14.4513H26.0076C26.4869 14.4513 26.8751 14.101 26.8751 13.6684C26.8751 13.2359 26.4869 12.8856 26.0076 12.8856Z" fill="white"/>
<path d="M26.0076 20.3418H14.0181C13.5388 20.3418 13.1506 20.6921 13.1506 21.1247C13.1506 21.5572 13.5387 21.9075 14.0181 21.9075H26.0076C26.4869 21.9075 26.8751 21.5572 26.8751 21.1247C26.8751 20.6921 26.4869 20.3418 26.0076 20.3418Z" fill="white"/>
<path d="M11.9149 18.9226C11.5759 18.6167 11.0274 18.6167 10.6884 18.9226L8.04227 21.3089L6.77203 20.1642C6.43306 19.8583 5.88453 19.8583 5.54555 20.1642C5.20658 20.4685 5.20658 20.9651 5.54555 21.2711L7.42812 22.9699C7.5976 23.1229 7.81993 23.2002 8.04045 23.2002C8.26278 23.2002 8.4833 23.1229 8.65278 22.9699L11.9113 20.0294C12.2502 19.7251 12.2502 19.2285 11.9113 18.9226H11.9149Z" fill="white"/>
<path d="M20.5729 27.7955H14.0232C13.5439 27.7955 13.1557 28.1458 13.1557 28.5784C13.1557 29.0109 13.5439 29.3612 14.0232 29.3612H20.5729C21.0522 29.3612 21.4404 29.0109 21.4404 28.5784C21.4404 28.1458 21.0522 27.7955 20.5729 27.7955Z" fill="white"/>
<path d="M26.7746 5.96658H27.4106C29.0836 5.96658 30.4468 7.19015 30.4468 8.69335V21.8337C30.4468 22.2663 30.8349 22.6166 31.3142 22.6166C31.7935 22.6166 32.1817 22.2663 32.1817 21.8337V8.69335C32.1817 6.32676 30.0422 4.40275 27.4123 4.40275H26.7763C26.297 4.40275 25.9088 4.75305 25.9088 5.18559C25.9088 5.61814 26.297 5.96844 26.7763 5.96844L26.7746 5.96658Z" fill="white"/>
<path d="M20.3396 34.3196H4.75635C3.09067 34.3196 1.73295 33.0961 1.73295 31.5912V8.69331C1.73295 7.19015 3.08881 5.96654 4.75635 5.96654H5.39238C5.87166 5.96654 6.25986 5.61624 6.25986 5.1837C6.25986 4.75116 5.87169 4.40086 5.39238 4.40086H4.75635C2.1339 4.40086 0 6.32668 0 8.69146V31.5894C0 33.9559 2.13404 35.8816 4.75635 35.8816H20.3415C20.8208 35.8816 21.209 35.5313 21.209 35.0988C21.209 34.6663 20.8208 34.316 20.3415 34.316L20.3396 34.3196Z" fill="white"/>
<path d="M23.1664 7.81191C23.6457 7.81191 24.0339 7.46161 24.0339 7.02907V3.27607C24.0339 2.84356 23.6457 2.49323 23.1664 2.49323H19.5598C19.1935 1.06572 17.7739 0 16.0845 0C14.4078 0 12.9973 1.04926 12.6201 2.49323H8.99895C8.51968 2.49323 8.13147 2.84353 8.13147 3.27607V7.02907C8.13147 7.46158 8.51964 7.81191 8.99895 7.81191H23.1664ZM9.86657 4.05891H13.3875C13.8668 4.05891 14.2495 3.65434 14.2495 3.2218C14.2495 2.30903 15.0732 1.56732 16.0829 1.56732C17.0943 1.56732 17.9162 2.31067 17.9217 3.14286C17.9162 3.17904 17.9107 3.24153 17.9107 3.27771C17.9107 3.71023 18.2989 4.06055 18.7782 4.06055H22.2991V6.24787H9.86683L9.86657 4.05891Z" fill="white"/>
<path d="M31.3089 24.312C26.5161 24.312 22.6159 27.8298 22.6159 32.1552C22.6159 36.4803 26.514 40 31.3089 40C36.1016 40 40 36.4822 40 32.1552C40 27.8301 36.1018 24.312 31.3089 24.312ZM31.3089 38.4342C27.4727 38.4342 24.3509 35.617 24.3509 32.1552C24.3509 28.6933 27.4727 25.8778 31.3089 25.8778C35.1451 25.8778 38.2649 28.6934 38.2649 32.1552C38.2649 35.617 35.145 38.4342 31.3089 38.4342Z" fill="white"/>
<path d="M34.4893 29.2855C34.1503 28.9796 33.6018 28.9796 33.2628 29.2855L31.3073 31.0502L29.3537 29.2855C29.0147 28.9796 28.4662 28.9796 28.1272 29.2855C27.7883 29.5898 27.7883 30.0864 28.1272 30.3923L30.0808 32.157L28.1272 33.9216C27.7883 34.2259 27.7883 34.7225 28.1272 35.0285C28.2967 35.1814 28.519 35.2587 28.7396 35.2587C28.9619 35.2587 29.1824 35.1814 29.3519 35.0285L31.3055 33.2638L33.261 35.0285C33.4304 35.1814 33.6528 35.2587 33.8733 35.2587C34.0956 35.2587 34.3161 35.1814 34.4856 35.0285C34.8246 34.7242 34.8246 34.2275 34.4856 33.9216L32.5302 32.157L34.4856 30.3923C34.8246 30.0881 34.8246 29.5914 34.4856 29.2855H34.4893Z" fill="white"/>
<path d="M6.22175 12.3311L7.50472 13.4906L6.22175 14.65C5.88278 14.9543 5.88278 15.4509 6.22175 15.7568C6.39123 15.9098 6.61356 15.9871 6.83408 15.9871C7.05641 15.9871 7.27692 15.9098 7.44641 15.7568L8.72938 14.5974L10.0142 15.7568C10.1837 15.9098 10.406 15.9871 10.6265 15.9871C10.8488 15.9871 11.0694 15.9098 11.2388 15.7568C11.5778 15.4526 11.5778 14.9559 11.2388 14.65L9.95405 13.4906L11.2388 12.3311C11.5778 12.0269 11.5778 11.5302 11.2388 11.2243C10.8999 10.9184 10.3513 10.9184 10.0124 11.2243L8.72756 12.3837L7.44459 11.2243C7.10562 10.9184 6.55709 10.9184 6.21811 11.2243C5.87914 11.5286 5.87914 12.0252 6.21811 12.3311H6.22175Z" fill="white"/>
<path d="M11.2408 26.1342C10.9018 25.8316 10.3533 25.8299 10.0143 26.1358L8.7313 27.2936L7.45014 26.1358C7.11117 25.8299 6.56264 25.8316 6.22366 26.1342C5.88469 26.4401 5.88469 26.9351 6.22184 27.241L7.50663 28.4004L6.22184 29.5599C5.88469 29.8658 5.88469 30.3608 6.22366 30.6667C6.39314 30.818 6.61548 30.8953 6.83599 30.8953C7.05832 30.8953 7.28065 30.818 7.45014 30.6651L8.7313 29.5073L10.0143 30.6651C10.1838 30.818 10.4061 30.8953 10.6284 30.8953C10.8508 30.8953 11.0713 30.818 11.2408 30.6667C11.5797 30.3608 11.5797 29.8658 11.2426 29.5599L9.95778 28.4004L11.2426 27.241C11.5797 26.9351 11.5797 26.4401 11.2408 26.1342Z" fill="white"/>
</svg>
