<svg width="40" height="40" viewBox="0 0 40 40" fill="none" xmlns="http://www.w3.org/2000/svg">
<path d="M20 0C16.0444 0 12.1776 1.17298 8.8886 3.37061C5.59962 5.56823 3.03617 8.69181 1.52242 12.3463C0.00866568 16.0008 -0.387401 20.0222 0.384303 23.9018C1.15601 27.7814 3.06082 31.3451 5.85787 34.1421C8.65492 36.9392 12.2186 38.844 16.0982 39.6157C19.9778 40.3874 23.9992 39.9913 27.6537 38.4776C31.3082 36.9638 34.4318 34.4004 36.6294 31.1114C38.827 27.8224 40 23.9556 40 20C40 17.3736 39.4827 14.7728 38.4776 12.3463C37.4725 9.91982 35.9993 7.71503 34.1421 5.85786C32.285 4.00069 30.0802 2.5275 27.6537 1.52241C25.2272 0.517315 22.6264 0 20 0ZM29.66 13.1L21.66 25.1C21.4986 25.3489 21.2839 25.5588 21.0314 25.7144C20.7789 25.8701 20.4949 25.9676 20.2 26H20C19.7368 26.0015 19.4759 25.9511 19.2322 25.8515C18.9885 25.752 18.7669 25.6054 18.58 25.42L12.58 19.42C12.2034 19.0434 11.9918 18.5326 11.9918 18C11.9918 17.4674 12.2034 16.9566 12.58 16.58C12.9566 16.2034 13.4674 15.9918 14 15.9918C14.5326 15.9918 15.0434 16.2034 15.42 16.58L19.68 20.86L26.34 10.86C26.6526 10.4719 27.0988 10.2145 27.5913 10.1382C28.0837 10.0619 28.5869 10.1722 29.0023 10.4474C29.4177 10.7227 29.7154 11.1431 29.837 11.6264C29.9587 12.1096 29.8956 12.6209 29.66 13.06V13.1Z" fill="white"/>
</svg>
