<svg width="40" height="40" viewBox="0 0 40 40" fill="none" xmlns="http://www.w3.org/2000/svg">
<path d="M4.28571 30.6667V32H2.85714V30.6667H4.28571ZM11.4286 21.3333H10V22.6667H11.4286V21.3333ZM15.7143 17.3333H14.2857V18.6667H15.7143V17.3333ZM10 12H8.57143V13.3333H10V12ZM11.4286 28H10V29.3333H11.4286V28ZM32.8571 18.6667H31.4286V20H32.8571V18.6667ZM40 22.6667H38.5714V24H40V22.6667ZM35.7143 2.66667H34.2857V4H35.7143V2.66667ZM25.7143 10.6667H24.2857V12H25.7143V10.6667ZM22.8571 2C22.8571 2.368 23.1771 2.66667 23.5714 2.66667C23.9657 2.66667 24.2857 2.368 24.2857 2C24.2857 1.632 23.9657 1.33333 23.5714 1.33333C23.1771 1.33333 22.8571 1.632 22.8571 2ZM23.5714 0C24.7543 0 25.7143 0.894667 25.7143 2C25.7143 3.10533 24.7543 4 23.5714 4C22.3886 4 21.4286 3.10533 21.4286 2C21.4286 0.894667 22.3886 0 23.5714 0ZM32.8571 11.3333C32.8571 11.7013 33.1771 12 33.5714 12C33.9657 12 34.2857 11.7013 34.2857 11.3333C34.2857 10.9653 33.9657 10.6667 33.5714 10.6667C33.1771 10.6667 32.8571 10.9653 32.8571 11.3333ZM33.5714 9.33333C34.7543 9.33333 35.7143 10.228 35.7143 11.3333C35.7143 12.4387 34.7543 13.3333 33.5714 13.3333C32.3886 13.3333 31.4286 12.4387 31.4286 11.3333C31.4286 10.228 32.3886 9.33333 33.5714 9.33333ZM1.42857 15.3333C1.42857 15.7013 1.74857 16 2.14286 16C2.53714 16 2.85714 15.7013 2.85714 15.3333C2.85714 14.9653 2.53714 14.6667 2.14286 14.6667C1.74857 14.6667 1.42857 14.9653 1.42857 15.3333ZM2.14286 13.3333C3.32571 13.3333 4.28571 14.228 4.28571 15.3333C4.28571 16.4387 3.32571 17.3333 2.14286 17.3333C0.96 17.3333 0 16.4387 0 15.3333C0 14.228 0.96 13.3333 2.14286 13.3333ZM11.4286 38C11.4286 38.368 11.7486 38.6667 12.1429 38.6667C12.5371 38.6667 12.8571 38.368 12.8571 38C12.8571 37.632 12.5371 37.3333 12.1429 37.3333C11.7486 37.3333 11.4286 37.632 11.4286 38ZM12.1429 36C13.3257 36 14.2857 36.8947 14.2857 38C14.2857 39.1053 13.3257 40 12.1429 40C10.96 40 10 39.1053 10 38C10 36.8947 10.96 36 12.1429 36Z" fill="white"/>
<path d="M35.7143 26.6667C34.9314 26.6667 34.2229 26.9627 33.7057 27.4387L25.4686 22.4067C25.6243 22.0787 25.7143 21.716 25.7143 21.3333C25.7143 19.8613 24.4357 18.6667 22.8571 18.6667C22.6929 18.6667 22.5357 18.6867 22.3786 18.712L20.5643 15.24C21.0971 14.7547 21.4286 14.0813 21.4286 13.3333C21.4286 11.8613 20.15 10.6667 18.5714 10.6667C18.2957 10.6667 18.0343 10.7147 17.7829 10.7827L16.2943 8.56133C16.8171 8.07867 17.1429 7.408 17.1429 6.66667C17.1429 5.19467 15.8643 4 14.2857 4C13.0671 4 12.0343 4.716 11.6229 5.71867L5.69 5.11333C5.56857 3.74533 4.35429 2.66667 2.85714 2.66667C1.27857 2.66667 0 3.86133 0 5.33333C0 6.80533 1.27857 8 2.85714 8C4.01429 8 5.00571 7.35467 5.45429 6.43067L11.4686 7.044C11.6671 8.336 12.8457 9.33333 14.2857 9.33333C14.5529 9.33333 14.8071 9.288 15.0529 9.224L16.5471 11.4533C16.0329 11.9347 15.7143 12.6 15.7143 13.3333C15.7143 14.8053 16.9929 16 18.5714 16C18.8314 16 19.08 15.9573 19.32 15.896L21.0786 19.2627C20.4257 19.7507 20 20.492 20 21.3333C20 22.2787 20.53 23.104 21.3243 23.5773L20.2629 26.6907C20.1757 26.684 20.09 26.6667 20 26.6667C18.4214 26.6667 17.1429 27.8613 17.1429 29.3333C17.1429 30.8053 18.4214 32 20 32C20.7214 32 21.3729 31.7413 21.8771 31.3293L27.2229 34.0667C27.1743 34.26 27.1429 34.46 27.1429 34.6667C27.1429 36.1387 28.4214 37.3333 30 37.3333C31.5786 37.3333 32.8571 36.1387 32.8571 34.6667C32.8571 34.192 32.7129 33.7507 32.4786 33.364L34.3186 31.6467C34.7329 31.8653 35.2043 32 35.7143 32C37.2929 32 38.5714 30.8053 38.5714 29.3333C38.5714 27.8613 37.2929 26.6667 35.7143 26.6667ZM2.85714 6.66667C2.07 6.66667 1.42857 6.068 1.42857 5.33333C1.42857 4.59867 2.07 4 2.85714 4C3.64429 4 4.28571 4.59867 4.28571 5.33333C4.28571 6.068 3.64429 6.66667 2.85714 6.66667ZM12.8571 6.66667C12.8571 5.932 13.4986 5.33333 14.2857 5.33333C15.0729 5.33333 15.7143 5.932 15.7143 6.66667C15.7143 7.40133 15.0729 8 14.2857 8C13.4986 8 12.8571 7.40133 12.8571 6.66667ZM17.1429 13.3333C17.1429 12.5987 17.7843 12 18.5714 12C19.3586 12 20 12.5987 20 13.3333C20 14.068 19.3586 14.6667 18.5714 14.6667C17.7843 14.6667 17.1429 14.068 17.1429 13.3333ZM24.2857 21.3333C24.2857 22.068 23.6443 22.6667 22.8571 22.6667C22.07 22.6667 21.4286 22.068 21.4286 21.3333C21.4286 20.5987 22.07 20 22.8571 20C23.6443 20 24.2857 20.5987 24.2857 21.3333ZM20 30.6667C19.2129 30.6667 18.5714 30.068 18.5714 29.3333C18.5714 28.5987 19.2129 28 20 28C20.7871 28 21.4286 28.5987 21.4286 29.3333C21.4286 30.068 20.7871 30.6667 20 30.6667ZM22.6829 30.2227C22.7886 29.9427 22.8571 29.6467 22.8571 29.3333C22.8571 28.4187 22.3629 27.6133 21.6114 27.1333L22.6857 23.984C22.7429 23.9867 22.7986 24 22.8571 24C23.5043 24 24.0943 23.792 24.5743 23.4533L32.9843 28.5907C32.91 28.828 32.8571 29.0733 32.8571 29.3333C32.8571 29.8453 33.02 30.3187 33.2871 30.724L31.49 32.4C31.0557 32.1507 30.5486 32 30 32C29.1586 32 28.41 32.3453 27.8871 32.8867L22.6829 30.2227ZM30 36C29.2129 36 28.5714 35.4013 28.5714 34.6667C28.5714 33.932 29.2129 33.3333 30 33.3333C30.7871 33.3333 31.4286 33.932 31.4286 34.6667C31.4286 35.4013 30.7871 36 30 36ZM35.7143 30.6667C34.9271 30.6667 34.2857 30.068 34.2857 29.3333C34.2857 28.5987 34.9271 28 35.7143 28C36.5014 28 37.1429 28.5987 37.1429 29.3333C37.1429 30.068 36.5014 30.6667 35.7143 30.6667Z" fill="white"/>
</svg>
