<svg width="40" height="40" viewBox="0 0 40 40" fill="none" xmlns="http://www.w3.org/2000/svg">
<path d="M34.1422 5.85783C30.3646 2.08035 25.3423 0 20 0C14.6577 0 9.63539 2.08035 5.85783 5.85783C2.08026 9.6353 0 14.6577 0 20C0 25.3423 2.08035 30.3646 5.85783 34.1422C9.6353 37.9197 14.6577 40 20 40C25.3423 40 30.3646 37.9197 34.1422 34.1422C37.9197 30.3647 40 25.3423 40 20C40 14.6577 37.9197 9.63539 34.1422 5.85783ZM20 38.2609C9.93096 38.2609 1.73913 30.069 1.73913 20C1.73913 9.93096 9.93096 1.73913 20 1.73913C30.069 1.73913 38.2609 9.93096 38.2609 20C38.2609 30.069 30.069 38.2609 20 38.2609Z" fill="white"/>
<path d="M36.2876 20.7407C36.9783 19.8181 37.2683 18.6816 37.1044 17.5409C36.8284 15.6213 35.2854 14.1316 33.4062 13.8782C33.8074 13.269 34.049 12.5649 34.1025 11.8175C34.1848 10.6679 33.8144 9.55504 33.0596 8.68399C32.2395 7.73756 31.0505 7.19478 29.7972 7.19478C29.1603 7.19478 28.5365 7.3366 27.968 7.60304C27.9728 7.12851 27.8991 6.65425 27.746 6.19599C27.5939 5.74051 27.1013 5.49399 26.6458 5.64678C26.1903 5.79886 25.9444 6.29147 26.0966 6.74695C26.2635 7.24695 26.2732 7.77895 26.1244 8.28565C25.7254 9.64425 24.2984 10.4261 22.9397 10.0347C22.9299 10.0318 22.9201 10.0288 22.9101 10.0258C21.5581 9.61869 20.7831 8.19112 21.1815 6.83425C21.5818 5.47156 23.0159 4.6886 24.3777 5.08825C24.4019 5.09538 24.4256 5.10347 24.4493 5.11138L24.4678 5.11747C24.9231 5.26843 25.4156 5.0213 25.5667 4.5653C25.7177 4.1093 25.4705 3.61747 25.0145 3.46643L24.9978 3.46095C24.9554 3.44686 24.9128 3.43286 24.8687 3.41982C22.9754 2.86399 21.0008 3.67225 19.9992 5.26634C19.2217 4.03669 17.8474 3.24408 16.349 3.24408C15.9384 3.24408 15.5288 3.30321 15.1319 3.41982C13.2395 3.97547 12.0155 5.72191 12.0338 7.60338C11.4649 7.3366 10.8407 7.1946 10.2034 7.1946C8.95015 7.1946 7.76102 7.73738 6.94093 8.68382C6.18615 9.55495 5.8158 10.6677 5.89806 11.8173C5.95145 12.5644 6.19302 13.2683 6.59389 13.8772C5.2018 14.0627 3.95954 14.9218 3.30815 16.2244C3.09337 16.6539 3.26745 17.1763 3.69702 17.3911C4.12667 17.6056 4.64893 17.4317 4.86371 17.0023C5.36058 16.0084 6.43293 15.4462 7.53371 15.6052C8.93876 15.8072 9.91763 17.1142 9.71684 18.519L9.71632 18.5231C9.61806 19.2033 9.26093 19.8047 8.71067 20.2167C8.15989 20.6289 7.48145 20.8025 6.8005 20.7042C5.9665 20.5843 5.2425 20.0616 4.86371 19.3063C4.64832 18.8769 4.12589 18.7035 3.69658 18.9187C3.26728 19.134 3.09371 19.6565 3.30902 20.0858C3.76284 20.9908 4.51398 21.6943 5.41632 22.0959C3.98128 23.3141 3.46232 25.3836 4.28189 27.1783C4.98189 28.711 6.52328 29.7015 8.20893 29.7015C8.42919 29.7015 8.64711 29.6841 8.86206 29.651C8.64884 30.3484 8.61537 31.092 8.77458 31.8241C9.01954 32.9503 9.6885 33.9136 10.6581 34.5367C11.3557 34.9851 12.1613 35.2222 12.9876 35.2222C14.0611 35.2222 15.0707 34.8291 15.849 34.1388C16.3616 35.9491 18.028 37.2799 20.0003 37.2799C21.9729 37.2799 23.6393 35.9489 24.1518 34.1383C24.9411 34.8374 25.9588 35.2236 27.0082 35.2236C27.4634 35.2236 27.9244 35.1511 28.3748 35.0007C28.8303 34.8485 29.0761 34.3559 28.924 33.9004C28.7719 33.4451 28.2797 33.1987 27.8237 33.3513C26.7066 33.724 25.4809 33.2919 24.843 32.2993C24.4711 31.7206 24.3468 31.0316 24.493 30.3594C24.6393 29.6871 25.0385 29.112 25.6174 28.74C26.1962 28.3682 26.8851 28.244 27.5575 28.39C28.2297 28.5363 28.8048 28.9356 29.1768 29.5143C29.5997 30.1724 29.7003 30.9768 29.453 31.7211C29.3015 32.1769 29.5481 32.669 30.0039 32.8206C30.4596 32.9723 30.9519 32.7256 31.1034 32.2697C31.3902 31.4071 31.3968 30.4962 31.1389 29.6512C31.3539 29.6842 31.5717 29.7016 31.792 29.7016C33.4776 29.7016 35.019 28.7111 35.719 27.1783C36.5381 25.3847 36.0202 23.3167 34.5871 22.0981C35.254 21.8027 35.8383 21.3409 36.2876 20.7407ZM17.5631 11.7001C17.5675 11.6988 17.5715 11.6973 17.5759 11.696C18.3455 11.471 19.1588 11.3497 20.0001 11.3497C20.8415 11.3497 21.6549 11.471 22.4245 11.696C22.4288 11.6973 22.4329 11.6988 22.4373 11.7001C22.4414 11.7013 22.4455 11.7023 22.4496 11.7035C25.3975 12.5753 27.6941 14.9787 28.4137 17.9881C25.9566 16.2809 23.0374 15.3583 20.0001 15.3583C16.9629 15.3583 14.0437 16.2809 11.5866 17.9881C12.3061 14.9787 14.6027 12.5754 17.5505 11.7036C17.5547 11.7023 17.5589 11.7012 17.5631 11.7001ZM17.0975 20C17.0975 18.3996 18.3997 17.0974 20.0001 17.0974C21.6006 17.0974 22.9028 18.3996 22.9028 20C22.9028 21.6004 21.6006 22.9026 20.0001 22.9026C18.3997 22.9026 17.0975 21.6004 17.0975 20ZM15.9475 22.2594C14.4482 21.7696 13.0438 21.0079 11.801 20C13.0438 18.992 14.4482 18.2303 15.9475 17.7406C15.5729 18.4097 15.3584 19.1802 15.3584 20C15.3584 20.8198 15.5729 21.5903 15.9475 22.2594ZM24.0528 17.7406C25.5521 18.2303 26.9565 18.9921 28.1993 20C26.9565 21.008 25.5521 21.7697 24.0528 22.2594C24.4274 21.5903 24.6419 20.8198 24.6419 20C24.6419 19.1802 24.4274 18.4097 24.0528 17.7406ZM11.5866 22.0119C14.0437 23.7191 16.9629 24.6417 20.0001 24.6417C23.0374 24.6417 25.9566 23.7191 28.4137 22.0119C27.5044 25.8145 24.0775 28.6503 20.0001 28.6503C15.9228 28.6503 12.4959 25.8145 11.5866 22.0119ZM28.1117 9.56304C28.5801 9.1573 29.1786 8.93391 29.7971 8.93391C30.5455 8.93391 31.2555 9.25799 31.7451 9.82295C32.1957 10.3429 32.4168 11.0072 32.3677 11.6935C32.3186 12.3797 32.0052 13.0058 31.4853 13.4563C31.017 13.862 30.4185 14.0855 29.8001 14.0855C29.0516 14.0855 28.3415 13.7614 27.852 13.1963C26.922 12.1229 27.0384 10.493 28.1117 9.56304ZM15.6217 5.0886C15.8595 5.01878 16.1042 4.98338 16.3488 4.98338C17.4831 4.98338 18.4988 5.74451 18.8188 6.83434C19.0126 7.49451 18.9377 8.1906 18.608 8.79443C18.2814 9.39278 17.7429 9.82912 17.0909 10.0256C17.0818 10.0283 17.0728 10.0311 17.0636 10.0338C16.8287 10.1018 16.5873 10.1367 16.3458 10.1367C15.2115 10.1367 14.1959 9.37556 13.8759 8.28573C13.476 6.92295 14.2591 5.48869 15.6217 5.0886ZM8.25519 9.82286C8.74476 9.25791 9.45476 8.93382 10.2032 8.93382C10.8217 8.93382 11.4202 9.15721 11.8885 9.56295C12.9619 10.4929 13.0784 12.1229 12.1483 13.1963C11.6588 13.7613 10.9487 14.0854 10.2002 14.0854C9.5818 14.0854 8.98328 13.8619 8.51502 13.4562C7.9951 13.0056 7.68163 12.3796 7.63258 11.6934C7.58354 11.0072 7.80458 10.3428 8.25519 9.82286ZM5.86371 26.4559C5.27371 25.1641 5.84476 23.6329 7.13667 23.0429C7.47606 22.8879 7.83537 22.8093 8.2045 22.8093C9.21111 22.8093 10.1316 23.4007 10.5496 24.3159C10.8355 24.9417 10.8604 25.6414 10.6201 26.286C10.3795 26.9306 9.9025 27.443 9.27667 27.7288C8.93728 27.8838 8.57798 27.9624 8.20885 27.9624C7.20206 27.9624 6.28154 27.3711 5.86371 26.4559ZM15.1575 32.2996C14.6812 33.0406 13.87 33.4831 12.9875 33.4831C12.4952 33.4831 12.0148 33.3416 11.5981 33.0738C11.0194 32.7018 10.6201 32.1267 10.4737 31.4544C10.3275 30.7823 10.4518 30.0932 10.8237 29.5143C11.3001 28.7733 12.1113 28.3308 12.9938 28.3308C13.4861 28.3308 13.9665 28.4723 14.3832 28.7401C15.578 29.508 15.9253 31.1047 15.1575 32.2996ZM20.0001 35.541C18.5799 35.541 17.4244 34.3855 17.4244 32.9652C17.4244 31.545 18.5799 30.3895 20.0001 30.3895C21.4204 30.3895 22.5759 31.545 22.5759 32.9652C22.5759 34.3855 21.4204 35.541 20.0001 35.541ZM34.1366 26.4559C33.7187 27.371 32.7981 27.9624 31.7915 27.9624C31.4224 27.9624 31.0631 27.8839 30.7237 27.7288C30.0979 27.443 29.6208 26.9306 29.3803 26.286C29.1399 25.6414 29.1648 24.9417 29.4508 24.3159C29.8688 23.4007 30.7893 22.8093 31.7959 22.8093C32.165 22.8093 32.5243 22.8878 32.8637 23.0429C34.1555 23.6329 34.7266 25.1641 34.1366 26.4559ZM34.8954 19.6984C34.4831 20.2492 33.8809 20.6063 33.2 20.7043C33.0769 20.722 32.9521 20.7309 32.829 20.7309C31.5598 20.7309 30.4661 19.782 30.2841 18.5233L30.2836 18.5191C30.0828 17.1143 31.0617 15.8073 32.4668 15.6053C32.5898 15.5876 32.7147 15.5786 32.8377 15.5786C34.1076 15.5786 35.2018 16.5285 35.3829 17.7882C35.4808 18.4693 35.3076 19.1476 34.8954 19.6984Z" fill="white"/>
<path d="M19.9999 18.2143C19.0153 18.2143 18.2142 19.0154 18.2142 20C18.2142 20.9846 19.0153 21.7857 19.9999 21.7857C20.9845 21.7857 21.7857 20.9846 21.7857 20C21.7857 19.0154 20.9845 18.2143 19.9999 18.2143Z" fill="white"/>
</svg>
