<svg width="40" height="40" viewBox="0 0 40 40" fill="none" xmlns="http://www.w3.org/2000/svg">
<path d="M17.0016 22.9919L34.5138 5.48609M17.4993 23.7791L21.4703 31.7211C22.4299 33.6403 22.9097 34.6 23.5141 34.8572C24.0387 35.0806 24.6384 35.04 25.1283 34.7484C25.6927 34.4123 26.0394 33.3969 26.7328 31.3663L34.2356 9.3936C34.8399 7.62426 35.1419 6.73958 34.9351 6.15434C34.7552 5.64522 34.3548 5.24474 33.8458 5.06486C33.2604 4.8581 32.3758 5.16019 30.6063 5.76435L8.63365 13.2672C6.60301 13.9606 5.58768 14.3073 5.25157 14.8718C4.95988 15.3616 4.91946 15.9613 5.14277 16.4857C5.4001 17.0902 6.35972 17.5701 8.27896 18.5296L16.2209 22.5007C16.5372 22.6588 16.6953 22.7378 16.8322 22.8434C16.9539 22.9372 17.0628 23.0462 17.1565 23.1677C17.2622 23.3047 17.3412 23.4629 17.4993 23.7791Z" stroke="white" stroke-width="2" stroke-linecap="round" stroke-linejoin="round"/>
</svg>
