<svg width="40" height="40" viewBox="0 0 40 40" fill="none" xmlns="http://www.w3.org/2000/svg">
<path d="M37.7419 1.29036C37.2516 1.29036 36.8005 1.45158 36.4296 1.71808C36.0309 1.07683 35.3251 0.645179 34.516 0.645179C34.0257 0.645179 33.5747 0.806406 33.2037 1.0729C32.8051 0.431655 32.0994 0 31.2903 0C30.0452 0 29.0322 1.01288 29.0322 2.25813V9.65871C27.4767 8.81424 25.8142 8.38705 24.0741 8.38705C20.4877 8.38705 17.8832 9.99865 16.3303 11.3509C15.7561 11.8503 15.449 12.5742 15.487 13.3367C15.5258 14.1045 15.9077 14.8013 16.5361 15.2457C17.4728 15.9082 18.7386 15.8399 19.6135 15.0805C20.5161 14.2973 22.0218 13.3644 24.0741 13.3644C26.6696 13.3644 28.4096 15.2579 29.0322 16.0638V22.6464C28.4096 23.4523 26.6696 25.3451 24.0741 25.3451C22.0213 25.3451 20.5154 24.4122 19.6135 23.6303C18.738 22.869 17.4715 22.8032 16.5361 23.4645C15.9077 23.909 15.5251 24.6058 15.487 25.3735C15.449 26.1361 15.7561 26.8599 16.3303 27.3593C17.8839 28.7109 20.4877 30.3225 24.0741 30.3225C25.1012 30.3225 26.1141 30.169 27.0968 29.8657V40H38.0645V27.567C39.267 26.7244 40 25.3405 40 23.8708V3.54808C40 2.30324 38.9871 1.29036 37.7419 1.29036ZM38.7097 23.8711C38.7097 25.0105 38.0909 26.0781 37.0948 26.6576L36.7741 26.844V38.7099H28.387V27.9872L27.4973 28.3524C26.3973 28.8039 25.2457 29.0324 24.074 29.0324C20.8869 29.0324 18.5637 27.5937 17.1772 26.3859C16.9037 26.1472 16.7572 25.802 16.7752 25.4375C16.7939 25.0673 16.9778 24.7311 17.281 24.5169C17.73 24.1983 18.3417 24.2338 18.7674 24.604C19.8351 25.5305 21.6228 26.6344 24.0739 26.6344C27.4784 26.6344 29.6236 24.035 30.1996 23.2377L30.3222 23.07V15.6402L30.1996 15.4712C29.6236 14.6744 27.4783 12.0737 24.0739 12.0737C21.6242 12.0737 19.8358 13.1782 18.7674 14.1053C18.3422 14.4744 17.7312 14.5099 17.281 14.1918C16.9778 13.9776 16.7939 13.6414 16.7752 13.2711C16.7572 12.9072 16.9037 12.5615 17.1772 12.3228C18.5643 11.1163 20.8869 9.67755 24.074 9.67755C25.9315 9.67755 27.694 10.237 29.314 11.3408L30.3224 12.0285V2.25813C30.3224 1.72459 30.7566 1.29036 31.2901 1.29036C31.8237 1.29036 32.2579 1.72459 32.2579 2.25813V15.484H33.5483V2.9033C33.5483 2.36977 33.9825 1.93554 34.516 1.93554C35.0496 1.93554 35.4838 2.36977 35.4838 2.9033V15.484H36.7741V3.54835C36.7741 3.01481 37.2084 2.58058 37.7419 2.58058C38.2754 2.58058 38.7097 3.01481 38.7097 3.54835V23.8711Z" fill="white"/>
<path d="M13.5484 27.097H9.70905L10.1045 26.1931C10.2496 25.8628 10.3227 25.5157 10.3227 25.1616C10.3227 23.7383 9.16522 22.5809 7.74196 22.5809C6.3187 22.5809 5.16126 23.7383 5.16126 25.1616C5.16126 25.5157 5.23415 25.8628 5.37939 26.1931L5.77487 27.097H1.93552C0.868452 27.097 0 26.2285 0 25.1614V21.3221L0.903813 21.7175C1.23412 21.8626 1.58123 21.9357 1.93539 21.9357C3.35865 21.9357 4.51609 20.7782 4.51609 19.355C4.51609 17.9317 3.35865 16.7742 1.93539 16.7742C1.58123 16.7742 1.23412 16.8471 0.903813 16.9924L0 17.3879V13.5485C0 12.4814 0.868452 11.6129 1.93552 11.6129H3.92578C3.88907 11.4006 3.87091 11.1852 3.87091 10.9678C3.87091 8.83293 5.607 7.09683 7.74182 7.09683C9.87664 7.09683 11.6127 8.83293 11.6127 10.9678C11.6127 11.1852 11.5947 11.4006 11.5579 11.6129H13.5484C14.6155 11.6129 15.4839 12.4814 15.4839 13.5485V15.5388C15.6962 15.502 15.9116 15.4839 16.1291 15.4839C18.2639 15.4839 20 17.22 20 19.3548C20 21.4897 18.2639 23.2258 16.1291 23.2258C15.9116 23.2258 15.6962 23.2077 15.4839 23.1709V25.1612C15.4839 26.2285 14.6155 27.097 13.5484 27.097Z" fill="white"/>
</svg>
