<svg xmlns="http://www.w3.org/2000/svg" version="1.1" xmlns:xlink="http://www.w3.org/1999/xlink" width="400" height="400"><svg width="400" height="400" viewBox="0 0 400 400" fill="none" xmlns="http://www.w3.org/2000/svg">
<path fill-rule="evenodd" clip-rule="evenodd" d="M187.19 0.185006C136.49 4.28499 93.6193 23.8141 58.7763 58.6812C32.5929 84.8817 17.1343 111.124 6.0915 148.119C1.00905 165.145 -0.0568766 173.941 0.00228301 198.336C0.0910225 234.569 5.75556 260.579 19.4848 287.784C26.7731 302.227 32.0066 309.971 44.2843 324.479C62.2477 345.704 78.9149 359.626 102.823 373.375C124.579 385.885 152.381 395.518 176.097 398.761C189.81 400.636 217.072 400.339 230.503 398.168C274.901 390.991 319.649 366.596 349.181 333.47C371.44 308.5 385.973 282.746 393.601 254.744C399.879 231.697 400.05 230.199 399.993 198.859C399.942 170.326 399.865 169.267 396.991 158.058C388.048 123.175 375.825 98.1421 355.987 74.0883C324.546 35.9644 277.93 9.36838 229.975 2.19367C219.956 0.694496 195.237 -0.465719 187.19 0.185006ZM174.513 31.4595C143.256 36.7605 112.543 50.6821 89.6418 69.9297C86.0616 72.9385 79.2065 79.6393 74.4072 84.82C24.9117 138.263 14.8989 213.626 48.7974 277.592C74.3934 325.896 120.435 359.498 173.452 368.568C187.019 370.889 215.89 370.889 229.447 368.567C267.099 362.12 297.475 345.606 323.124 317.641C350.346 287.961 367.39 251.674 371.145 215.41C375.104 177.165 365.481 138.799 343.86 106.62C316.709 66.2126 270.497 37.61 221.712 31.017C210.737 29.5346 184.407 29.7804 174.513 31.4595ZM190.887 107.958C168.941 110.166 148.775 117.547 129.159 130.551C117.251 138.445 112.611 142.456 89.4707 164.851C70.3093 183.395 61.0498 191.397 52.76 196.571C51.1617 197.568 49.8654 198.726 49.8781 199.145C49.8897 199.563 52.5984 201.788 55.8955 204.09C59.1926 206.391 72.6113 218.64 85.7162 231.308C117.141 261.686 131.444 272.901 149.728 281.493C171.953 291.938 197.878 295.924 217.826 291.964C251.189 285.342 270.88 273.126 309.454 235.126C321.177 223.577 334.474 211.212 339.003 207.648C343.532 204.084 347.238 200.616 347.238 199.942C347.238 199.267 343.197 195.509 338.258 191.59C333.319 187.672 321.672 176.875 312.376 167.597C286.561 141.833 271.668 130.222 252.003 120.53C240.942 115.079 232.951 112.299 221.771 110.015C213.127 108.249 198.004 107.242 190.887 107.958ZM179.795 127.738C154.219 132.921 128.21 147.651 103.362 171.023C95.6476 178.28 77.3218 198.138 77.3218 199.241C77.3218 201.089 107.042 230.678 116.73 238.474C156.787 270.708 194.526 281.439 229.975 270.677C256.95 262.488 281.727 243.916 315.243 206.765C320.568 200.861 322.046 198.568 321.353 197.284C319.012 192.954 285.997 161.255 276.986 154.686C257.533 140.505 237.502 131.15 219.054 127.629C209.516 125.808 189.032 125.866 179.795 127.738ZM183.031 151.233C156.8 160.821 142.684 186.079 150.189 209.996C155.148 225.801 167.557 236.984 183.829 240.313C195.143 242.626 208.326 238.475 218.45 229.411C227.556 221.259 232.37 206.94 229.518 196.491C227.985 190.868 222.684 184.736 219.361 184.736C215.108 184.736 213.6 188.365 213.6 198.603C213.6 209.383 212.31 213.022 206.592 218.377C192.75 231.338 170.597 224.188 165.977 205.268C162.255 190.026 169.521 175.853 184.655 168.84C190.438 166.16 192.478 165.769 200.595 165.789C209.257 165.81 210.45 166.086 217.794 169.781C223.716 172.76 226.686 175.056 229.696 178.982C234.436 185.163 237.898 195.32 237.898 203.044C237.898 214.124 231.749 227.759 223.525 234.908C214.406 242.837 197.521 248.2 185.341 247.034C172.395 245.795 179.498 251.698 193.552 253.858C216.328 257.358 238.995 245.129 248.716 224.098C251.214 218.695 253.749 207.621 253.729 202.194C253.661 183.032 239.767 162.2 221.334 153.622C213.539 149.995 212.385 149.76 200.923 149.455C190.822 149.186 187.807 149.487 183.031 151.233Z" fill="#A571FF"></path>
</svg><style>@media (prefers-color-scheme: light) { :root { filter: none; } }
@media (prefers-color-scheme: dark) { :root { filter: none; } }
</style></svg>