<svg width="80" height="80" viewBox="0 0 80 80" fill="none" xmlns="http://www.w3.org/2000/svg">
<path d="M14.3533 79.6871H5.30473V77.1963H7.68622L7.55213 77.0429C5.28327 74.5521 4.15153 71.3129 4.15153 67.3129C4.10325 66.3313 4.01743 65.3436 3.87797 64.3558L2.65504 63.8098L0.611465 62.7976C0.203821 62.4847 0 62.0184 0 61.3988C0 60.9816 0.069728 60.6196 0.203821 60.3068C0.520281 59.3252 1.01911 58.8282 1.7003 58.8282L4.15153 59.6074C4.65035 58.5153 5.31009 57.638 6.12538 56.9632L6.3292 56.8098C6.3292 56.7055 6.23801 56.6564 6.05565 56.6564C5.55682 56.6564 5.19209 56.2699 4.96681 55.4908C4.78445 54.9755 4.69326 54.4785 4.69326 54.0123C4.69326 53.3374 4.93999 52.8957 5.44418 52.6871C6.84948 52.3742 8.25478 52.2209 9.66007 52.2209C11.1136 52.2209 12.4492 52.3006 13.6721 52.454L13.9457 52.5337C14.2192 52.5828 14.5357 52.6749 14.9004 52.8037C15.2652 52.9325 15.4422 53.362 15.4422 54.0859C15.4422 55.8528 14.8039 56.7301 13.538 56.7301L13.2645 56.8098C14.171 57.5399 14.8951 58.4724 15.4422 59.6135L17.8237 58.8344C18.2742 58.8344 18.639 58.9632 18.9125 59.2209C19.4113 59.8405 19.6634 60.546 19.6634 61.319C19.6634 61.4233 19.6527 61.6319 19.6312 61.9386C19.6098 62.2515 19.4167 62.5337 19.052 62.7976L17.0084 63.8098L15.7157 64.4356C15.5816 65.3681 15.5012 66.2638 15.4797 67.1227C15.4583 67.9816 15.4207 68.7976 15.3778 69.5767C15.1954 71.0798 14.7878 72.4847 14.1549 73.7791C13.6131 75.1288 12.8622 76.2699 11.9075 77.2025H14.3587V79.6871H14.3533ZM14.3533 79.7669H5.30473V77.2761H7.68622L7.55213 77.1227C5.28327 74.6319 4.15153 71.3926 4.15153 67.3926C4.10325 66.4049 4.01743 65.4233 3.87797 64.4356L2.65504 63.8896L0.611465 62.8773C0.203821 62.5644 0 62.0982 0 61.4785C0 61.0613 0.069728 60.6994 0.203821 60.3865C0.520281 59.3988 1.01911 58.908 1.7003 58.908L4.15153 59.6871C4.65035 58.5951 5.31009 57.7178 6.12538 57.0429L6.3292 56.8896C6.3292 56.7853 6.23801 56.7362 6.05565 56.7362C5.55682 56.7362 5.19209 56.3497 4.96681 55.5706C4.78445 55.0552 4.69326 54.5583 4.69326 54.092C4.69326 53.4172 4.93999 52.9755 5.44418 52.7669C6.84948 52.454 8.25478 52.3006 9.66007 52.3006C11.1136 52.3006 12.4492 52.3804 13.6721 52.5337L13.9457 52.6135C14.2192 52.6687 14.5357 52.7546 14.9004 52.8834C15.2652 53.0123 15.4422 53.4417 15.4422 54.1656C15.4422 55.9325 14.8039 56.8098 13.538 56.8098L13.2645 56.8896C14.171 57.6196 14.8951 58.5521 15.4422 59.6933L17.8237 58.9141C18.2742 58.9141 18.639 59.0429 18.9125 59.3006C19.4113 59.9202 19.6634 60.6258 19.6634 61.3988C19.6634 61.5031 19.6527 61.7117 19.6312 62.0184C19.6098 62.3313 19.4167 62.6135 19.052 62.8773L17.0084 63.8896L15.7157 64.5092C15.5816 65.4417 15.5012 66.3374 15.4797 67.1963C15.4583 68.0491 15.4207 68.8712 15.3778 69.6503C15.1954 71.1534 14.7878 72.5583 14.1549 73.8528C13.6131 75.2025 12.8622 76.3436 11.9075 77.2761H14.3587V79.7669H14.3533ZM3.59906 63.0368C3.50788 62.7239 3.46497 62.3865 3.46497 62.0245C3.46497 61.5583 3.55615 61.092 3.73852 60.6258C3.51324 60.5215 3.26115 60.4479 2.9876 60.3926C2.17231 60.0798 1.71639 59.9264 1.62521 59.9264C1.16929 60.2393 0.944016 60.7055 0.944016 61.3251L1.01374 61.8712L3.59906 63.0368ZM3.59906 63.1104C3.50788 62.7975 3.46497 62.4601 3.46497 62.0982C3.46497 61.6319 3.55615 61.1656 3.73852 60.6994C3.51324 60.5951 3.26115 60.5153 2.9876 60.4663C2.17231 60.1534 1.71639 60 1.62521 60C1.16929 60.3129 0.944016 60.7791 0.944016 61.3988L1.01374 61.9448L3.59906 63.1104ZM24.6946 25.9939C22.7422 25.9939 19.9745 25.1656 16.3916 23.5031H10.4056C6.45793 23.5031 3.75997 22 2.31177 18.9877C1.53939 17.4294 1.1532 15.8773 1.1532 14.319C1.1532 12.7607 1.53939 11.2086 2.31177 9.65031C3.76534 6.69325 6.41502 5.21473 10.2715 5.21473L16.3969 5.29448C19.5722 3.58282 22.179 2.72393 24.2226 2.72393C26.4915 2.72393 27.7358 4.25767 27.9665 7.31288C27.6929 10.4233 26.6041 11.9816 24.7 11.9816C22.7476 11.9816 19.9799 11.1534 16.3969 9.4908H8.90915C6.14147 9.80368 4.75763 11.3558 4.75763 14.1595C4.75763 16.9632 6.14147 18.6503 8.90915 19.2209H16.3916C19.5669 17.5644 22.1737 16.7362 24.2172 16.7362C26.4861 16.7362 27.7305 18.2699 27.9611 21.3252C27.6876 24.4356 26.5987 25.9939 24.6946 25.9939ZM24.6946 26.0736C22.7422 26.0736 19.9745 25.2454 16.3916 23.5828H10.4056C6.45793 23.5828 3.75997 22.0798 2.31177 19.0675C1.53939 17.5092 1.1532 15.9571 1.1532 14.3988C1.1532 12.8405 1.53939 11.2883 2.31177 9.73006C3.76534 6.77301 6.41502 5.29448 10.2715 5.29448L16.3969 5.37423C19.5722 3.66258 22.179 2.80368 24.2226 2.80368C26.4915 2.80368 27.7358 4.33742 27.9665 7.39264C27.6929 10.5031 26.6041 12.0614 24.7 12.0614C22.7476 12.0614 19.9799 11.2331 16.3969 9.57055H8.90915C6.14147 9.88344 4.75763 11.4356 4.75763 14.2393C4.75763 17.0429 6.14147 18.7301 8.90915 19.3006H16.3916C19.5669 17.638 22.1737 16.8098 24.2172 16.8098C26.4861 16.8098 27.7305 18.3436 27.9611 21.3988C27.6876 24.5153 26.5987 26.0736 24.6946 26.0736ZM67.76 41.092L63.6782 35.0982C62.8629 36.4479 61.9993 37.7423 61.0929 38.9877L58.5773 35.1718L55.992 39.0614L53.6105 35.1718L51.0949 39.0614L48.6436 35.1718L46.1924 39.0614L43.6768 35.1718L41.2256 39.0614L38.71 35.1718L36.2588 39.0675L33.7432 35.2515C32.9279 36.4969 32.1341 37.7669 31.3617 39.0675C30.5464 37.7178 29.6829 36.4233 28.7764 35.1779L26.3949 39.0675L23.9437 35.1779C23.0801 36.4233 22.2434 37.7178 21.4281 39.0675C20.6557 37.773 19.8404 36.5276 18.9769 35.3313L15.9142 41.092L13.463 40.1595L18.9071 30.2761L21.4227 34.2454L23.9383 30.3558L26.3895 34.2454L28.771 30.3558L31.3564 34.2454L33.7378 30.3558L36.2534 34.1718C37.117 32.9264 37.9323 31.6564 38.7047 30.3558C39.5199 31.7055 40.362 33 41.2202 34.2454L43.6715 30.3558L46.1227 34.2454C46.9863 33 47.823 31.7055 48.6383 30.3558C49.4536 31.7055 50.2957 33 51.1539 34.2454L53.6051 30.3558L55.9866 34.2454C56.8502 33 57.6654 31.7301 58.4378 30.4294L61.0929 34.319L63.6782 30.5092L64.8367 32.2209C67.9638 36.7853 69.7124 39.4049 70.0771 40.0798L67.76 41.092ZM67.76 41.1656L63.6782 35.1718C62.8629 36.5215 61.9993 37.816 61.0929 39.0614L58.5773 35.2454L55.992 39.135L53.6105 35.2454L51.0949 39.135L48.6436 35.2454L46.1924 39.135L43.6768 35.2454L41.2256 39.135L38.71 35.2454L36.2588 39.135L33.7432 35.319C32.9279 36.5644 32.1341 37.8344 31.3617 39.135C30.5464 37.7853 29.6829 36.4908 28.7764 35.2454L26.3949 39.135L23.9437 35.2454C23.0801 36.4908 22.2434 37.7853 21.4281 39.135C20.6557 37.8405 19.8404 36.5951 18.9769 35.3988L15.9142 41.1595L13.463 40.227L18.9071 30.3436L21.4227 34.3129L23.9383 30.4233L26.3895 34.3129L28.771 30.4233L31.3564 34.3129L33.7378 30.4233L36.2534 34.2393C37.117 32.9939 37.9323 31.7239 38.7047 30.4233C39.5199 31.773 40.362 33.0675 41.2202 34.3129L43.6715 30.4233L46.1227 34.3129C46.9863 33.0675 47.823 31.773 48.6383 30.4233C49.4536 31.773 50.2957 33.0675 51.1539 34.3129L53.6051 30.4233L55.9866 34.3129C56.8502 33.0675 57.6654 31.7975 58.4378 30.5031L61.0929 34.3926L63.6782 30.5828L64.8367 32.2945C67.9638 36.8589 69.7124 39.4785 70.0771 40.1534L67.76 41.1656ZM15.9839 63.1104L17.6842 62.3313C17.7754 62.227 17.9095 62.1472 18.0919 62.0982C18.2742 62.0491 18.478 61.9448 18.7033 61.7853L18.773 61.319C18.773 60.5399 18.4995 60.0736 17.9578 59.9202L15.9142 60.6196C16.0483 61.0368 16.118 61.4785 16.118 61.9448C16.118 62.3068 16.0751 62.6994 15.9839 63.1104ZM15.9839 63.1902L17.6842 62.411C17.7754 62.3067 17.9095 62.2331 18.0919 62.1779C18.2742 62.1288 18.478 62.0245 18.7033 61.865L18.773 61.3988C18.773 60.6196 18.4995 60.1534 17.9578 60L15.9142 60.6994C16.0483 61.1166 16.118 61.5583 16.118 62.0245C16.118 62.3865 16.0751 62.7791 15.9839 63.1902ZM42.588 79.9203H16.0536C16.1877 79.3006 16.531 78.9877 17.0727 78.9877C17.6145 78.9877 18.1294 78.8712 18.6014 78.638C19.0788 78.4049 19.6312 78.2086 20.2695 78.0552V77.6687C20.2695 75.8528 20.881 74.7607 22.1039 74.3988L21.0848 65.8405C21.0848 64.4908 21.8786 63.7914 23.4663 63.7423C24.0992 63.7423 24.8287 64.1841 25.644 65.0675L31.1525 70.0491C29.9296 65.0184 29.168 62.1902 28.8729 61.5644C28.5779 60.9448 28.4331 60.2147 28.4331 59.3865V59.2331C28.4331 59.1288 28.4117 59.0798 28.3634 59.0798C28.0898 59.0798 27.3067 59.7791 26.0141 61.1779C24.7214 62.5767 23.756 63.2761 23.123 63.2761C22.2595 63.2761 20.8327 61.0982 18.8374 56.7423L16.8636 55.2638C16.4988 54.9018 16.3218 54.5092 16.3218 54.0982L16.3916 53.7117L17.2068 52.2331C17.0727 51.9202 17.003 51.6626 17.003 51.454C17.003 51.2454 17.0727 51.092 17.2068 50.9877C18.3869 52.1841 19.1539 53.454 19.5186 54.7975C19.701 55.3681 20.3232 56.3129 21.3905 57.638C22.4579 58.9632 23.123 59.9877 23.3966 60.7117C24.936 58.7914 26.5505 57.0061 28.2293 55.3436C28.7281 54.3068 29.9993 53.7853 32.0375 53.7853L31.9035 52.8528H30.8146C30.4499 52.8528 30.2729 52.6319 30.2729 52.1902C30.2729 51.7485 30.2139 51.4908 30.1012 51.411C29.9886 51.3313 29.9296 51.2699 29.9296 51.2147C29.9296 51.1656 29.9725 51.0859 30.0637 50.9816L30.1334 50.9018C29.9993 50.9018 29.9081 50.8528 29.8599 50.7485C29.8599 50.6442 29.9296 50.5399 30.0637 50.4356C29.9296 50.2822 29.7901 50.1779 29.6561 50.1227C29.522 50.0736 29.4522 49.9939 29.4522 49.8896C29.4522 49.7362 29.522 49.5276 29.6561 49.2699C30.0208 48.4417 30.3587 47.7914 30.6752 47.3252C31.174 45.2515 32.0107 44.135 33.1908 43.9816L34.2796 43.9018C36.7737 43.9018 38.0235 44.9632 38.0235 47.092C38.0235 48.4908 37.7606 49.5706 37.2404 50.319C36.7201 51.0736 36.1623 51.6012 35.5722 51.9141V53.7791H35.7063C38.2917 53.7791 40.6946 57.3313 42.9206 64.4417C42.9206 65.0123 42.6041 65.3742 41.9658 65.5337C41.1022 65.5337 39.359 65.0184 36.7254 63.9755C36.6343 65.7423 36.5645 67.7362 36.5216 69.9693C36.8864 70.9571 37.0634 71.9387 37.0634 72.9264C37.0634 73.9141 36.8595 74.8957 36.4519 75.8834C36.7254 75.6258 36.999 75.4969 37.2672 75.4969C37.6748 75.4969 37.9913 75.9141 38.2219 76.7423C38.4955 77.8834 39.0158 78.454 39.7881 78.454L40.7429 78.3006C41.5206 78.2884 42.1321 78.8344 42.588 79.9203ZM42.588 80H16.0536C16.1877 79.3804 16.531 79.0675 17.0727 79.0675C17.6145 79.0675 18.1294 78.9509 18.6014 78.7178C19.0788 78.4847 19.6312 78.2883 20.2695 78.135V77.7485C20.2695 75.9325 20.881 74.8405 22.1039 74.4785L21.0848 65.9203C21.0848 64.5706 21.8786 63.8712 23.4663 63.8221C24.0992 63.8221 24.8287 64.2638 25.644 65.1472L31.1525 70.1288C29.9296 65.0982 29.168 62.2699 28.8729 61.6442C28.5779 61.0184 28.4331 60.2945 28.4331 59.4663V59.3129C28.4331 59.2086 28.4117 59.1595 28.3634 59.1595C28.0898 59.1595 27.3067 59.8589 26.0141 61.2577C24.7214 62.6565 23.756 63.3558 23.123 63.3558C22.2595 63.3558 20.8327 61.1779 18.8374 56.816L16.8636 55.3374C16.4988 54.9755 16.3218 54.5828 16.3218 54.1718L16.3916 53.7853L17.2068 52.3068C17.0727 51.9939 17.003 51.7362 17.003 51.5276C17.003 51.319 17.0727 51.1656 17.2068 51.0613C18.3869 52.2577 19.1539 53.5276 19.5186 54.8712C19.701 55.4417 20.3232 56.3865 21.3905 57.7117C22.4579 59.0368 23.123 60.0614 23.3966 60.7853C24.936 58.865 26.5505 57.0798 28.2293 55.4172C28.7281 54.3804 29.9993 53.8589 32.0375 53.8589L31.9035 52.9264H30.8146C30.4499 52.9264 30.2729 52.7055 30.2729 52.2638C30.2729 51.8221 30.2139 51.5644 30.1012 51.4847C29.9886 51.4049 29.9296 51.3436 29.9296 51.2883C29.9296 51.2393 29.9725 51.1595 30.0637 51.0552L30.1334 50.9755C29.9993 50.9755 29.9081 50.9264 29.8599 50.8221C29.8599 50.7178 29.9296 50.6135 30.0637 50.5092C29.9296 50.3558 29.7901 50.2515 29.6561 50.1963C29.522 50.1472 29.4522 50.0675 29.4522 49.9632C29.4522 49.8098 29.522 49.6012 29.6561 49.3436C30.0208 48.5153 30.3587 47.865 30.6752 47.3988C31.174 45.3252 32.0107 44.2086 33.1908 44.0552L34.2796 43.9755C36.7737 43.9755 38.0235 45.0368 38.0235 47.1656C38.0235 48.5644 37.7606 49.6442 37.2404 50.3926C36.7201 51.1472 36.1623 51.6748 35.5722 51.9877V53.8528H35.7063C38.2917 53.8528 40.6946 57.4049 42.9206 64.5153C42.9206 65.0859 42.6041 65.4479 41.9658 65.6074C41.1022 65.6074 39.359 65.092 36.7254 64.0491C36.6343 65.816 36.5645 67.8098 36.5216 70.0429C36.8864 71.0307 37.0634 72.0123 37.0634 73C37.0634 73.9877 36.8595 74.9693 36.4519 75.9571C36.7254 75.6994 36.999 75.5706 37.2672 75.5706C37.6748 75.5706 37.9913 75.9877 38.2219 76.8159C38.4955 77.9571 39.0158 78.5276 39.7881 78.5276L40.7429 78.3742C41.5206 78.3681 42.1321 78.908 42.588 80ZM23.9437 9.65031C25.3061 9.65031 25.9873 8.90184 25.9873 7.39264V7.15951C25.9873 5.76074 25.3275 5.06135 24.0134 5.06135C22.3346 5.06135 20.4304 5.81595 18.301 7.31902C20.3822 8.87117 22.2648 9.65031 23.9437 9.65031ZM23.9437 9.73006C25.3061 9.73006 25.9873 8.97546 25.9873 7.47239V7.23926C25.9873 5.84049 25.3275 5.1411 24.0134 5.1411C22.3346 5.1411 20.4304 5.89571 18.301 7.39877C20.3822 8.95092 22.2648 9.73006 23.9437 9.73006ZM23.9437 23.6564C25.3061 23.6564 25.9873 22.908 25.9873 21.3988V21.1656C25.9873 19.7117 25.3275 18.9877 24.0134 18.9877C22.3346 18.9877 20.4304 19.7669 18.301 21.3252C20.3822 22.8834 22.2648 23.6564 23.9437 23.6564ZM23.9437 23.7362C25.3061 23.7362 25.9873 22.9877 25.9873 21.4785V21.2454C25.9873 19.7914 25.3275 19.0675 24.0134 19.0675C22.3346 19.0675 20.4304 19.8466 18.301 21.4049C20.3822 22.9571 22.2648 23.7362 23.9437 23.7362ZM56.464 28.638L42.1804 19.6135C40.8662 20.908 39.4824 21.5583 38.0288 21.5583C36.5753 21.5583 35.229 20.9264 33.9792 19.6503C32.7295 18.3804 32.0858 16.6012 32.0429 14.319C32.0429 11.9816 32.6436 10.1718 33.8451 8.87117C35.0466 7.57669 36.4412 6.92638 38.0288 6.92638C39.7506 6.92638 41.1612 7.60123 42.2447 8.95092L56.464 0L57.1452 1.6319L43.1995 10.4233C43.65 11.3558 43.9236 12.3681 44.0148 13.4601V13.3067H57.7566V15.1718H44.0148V15.092C43.9236 16.2883 43.65 17.3252 43.1995 18.2025L57.1452 26.9202L56.464 28.638ZM56.464 28.7178L42.1804 19.6933C40.8662 20.9877 39.4824 21.638 38.0288 21.638C36.5753 21.638 35.229 21.0061 33.9792 19.7301C32.7295 18.4601 32.0858 16.681 32.0429 14.3988C32.0429 12.0614 32.6436 10.2515 33.8451 8.95092C35.0466 7.65644 36.4412 7.00614 38.0288 7.00614C39.7506 7.00614 41.1612 7.68098 42.2447 9.03067L56.464 0.0797553L57.1452 1.71166L43.1995 10.5031C43.65 11.4356 43.9236 12.4479 44.0148 13.5399V13.3865H57.7566V15.2515H44.0148V15.1718C43.9236 16.3681 43.65 17.4049 43.1995 18.2822L57.1452 27L56.464 28.7178ZM37.9591 20.2331C39.2732 20.1841 40.4318 19.6258 41.4294 18.5583C42.4271 17.4969 42.9259 16.0798 42.9259 14.319C42.9259 12.6564 42.47 11.2454 41.5635 10.0798C40.6571 8.91411 39.477 8.33129 38.0235 8.33129C36.7094 8.33129 35.5722 8.86503 34.6229 9.92638C33.6681 10.9877 33.1961 12.454 33.1961 14.3252C33.1961 16.1902 33.6842 17.6196 34.6604 18.6074C35.6366 19.589 36.7362 20.1288 37.9591 20.2331ZM37.9591 20.3129C39.2732 20.2638 40.4318 19.7055 41.4294 18.638C42.4271 17.5767 42.9259 16.1595 42.9259 14.3988C42.9259 12.7362 42.47 11.3252 41.5635 10.1595C40.6571 8.99387 39.477 8.41104 38.0235 8.41104C36.7094 8.41104 35.5722 8.94479 34.6229 10.0061C33.6681 11.0675 33.1961 12.5337 33.1961 14.4049C33.1961 16.2699 33.6842 17.6994 34.6604 18.6871C35.6366 19.6626 36.7362 20.2086 37.9591 20.3129ZM37.9591 15.9571C37.1438 15.8528 36.7094 15.2822 36.6664 14.2454C36.7094 13.2086 37.1438 12.6626 37.9591 12.6135C38.8227 12.6626 39.2947 13.2086 39.3859 14.2454C39.2947 15.2822 38.8227 15.8528 37.9591 15.9571ZM37.9591 16.0307C37.1438 15.9264 36.7094 15.3558 36.6664 14.319C36.7094 13.2822 37.1438 12.7362 37.9591 12.6871C38.8227 12.7423 39.2947 13.2822 39.3859 14.319C39.2947 15.362 38.8227 15.9325 37.9591 16.0307ZM70.0717 79.9203H43.6071C44.0577 78.8282 44.6745 78.2883 45.4415 78.2883L46.3962 78.4417C47.1204 78.4417 47.646 77.8712 47.9625 76.7301C48.1877 75.9018 48.5096 75.4847 48.9172 75.4847C49.1425 75.4847 49.416 75.6135 49.7325 75.8712C49.3248 74.8834 49.121 73.9018 49.121 72.9141C49.121 71.9325 49.3034 70.9448 49.6628 69.9571C49.6145 65.4969 49.0942 61.6564 48.0965 58.4417C47.6406 59.4785 46.7127 61.1411 45.3074 63.4233C45.6239 65.1902 45.7848 67.6258 45.7848 70.7362C46.2353 71.6196 46.466 72.7362 46.466 74.0798C46.466 75.3742 46.3533 76.0245 46.1281 76.0245C45.9028 76.0245 45.7419 75.5092 45.6507 74.4663C44.5619 74.4663 44.0201 74.0798 44.0201 73.3006C44.0201 72.5767 44.1542 71.6933 44.4278 70.6564C44.0201 67.6503 43.7466 65.1595 43.6125 63.1841C44.1113 61.5215 45.3342 58.9018 47.2866 55.3252C47.9678 54.2883 49.0781 53.7669 50.6175 53.7669V51.9018C50.0275 51.589 49.4697 51.0491 48.9494 50.2699C48.4291 49.4908 48.1663 48.4294 48.1663 47.0798C48.1663 44.9509 49.416 43.8896 51.9102 43.8896L52.9293 43.9693C54.1522 44.1227 55.0158 45.2393 55.5146 47.3129C55.831 47.7791 56.169 48.4049 56.5337 49.1779C56.6678 49.4908 56.7375 49.7239 56.7375 49.8773C56.7375 50.0307 56.6678 50.1227 56.5337 50.1472C56.3996 50.1718 56.2601 50.2638 56.1261 50.4172C56.2172 50.4724 56.2601 50.546 56.2601 50.6503V50.7301C56.2601 50.8344 56.1904 50.8834 56.0563 50.8834C56.0563 50.9325 56.0885 50.9877 56.1582 51.0368C56.228 51.0859 56.2601 51.1656 56.2601 51.2699C56.2601 51.3252 56.2011 51.3742 56.0885 51.4233C55.9759 51.4724 55.9169 51.7362 55.9169 52.2025C55.9169 52.6687 55.6916 52.9018 55.2357 52.9018C54.828 52.9018 54.5116 52.8773 54.2809 52.8221L54.1468 53.9877C56.1904 54.0429 57.5957 54.5583 58.3627 55.546C60.1328 56.3742 61.8545 57.3129 63.5334 58.3497C62.2622 56.9509 61.1948 55.4969 60.3366 53.9939C59.7466 53.9448 59.1673 53.8896 58.6041 53.8405C58.0355 53.7914 57.7513 53.1411 57.7513 51.8957C56.8877 51.8466 56.4586 51.6626 56.4586 51.3497C56.4586 51.092 56.936 50.9632 57.8854 50.9632C59.2477 50.9632 60.2454 51.5337 60.8783 52.6749C64.5954 55.8896 66.4566 58.5092 66.4566 60.5337V60.8466C64.236 60.7975 62.3855 60.4172 60.9105 59.7178C59.4355 59.0184 58.3574 58.6442 57.6815 58.589L57.7513 59.3681C57.7513 60.1963 57.5903 60.9264 57.2739 61.546C56.9574 62.1656 56.2065 64.9939 55.0265 70.0307L60.535 65.0491C61.3503 64.1656 62.0744 63.7239 62.7127 63.7239C64.2521 63.773 65.0245 64.5031 65.0245 65.9018L64.0697 74.3865C65.2927 74.8037 65.9041 75.8896 65.9041 77.6564V78.0429C66.4941 78.1963 67.0251 78.3926 67.5025 78.6258C67.9799 78.8589 68.4412 78.9755 68.8971 78.9755H69.1706C69.6426 78.9877 69.9376 79.3006 70.0717 79.9203ZM70.0717 80H43.6071C44.0577 78.908 44.6745 78.3681 45.4415 78.3681L46.3962 78.5215C47.1204 78.5215 47.646 77.9509 47.9625 76.8098C48.1877 75.9816 48.5096 75.5644 48.9172 75.5644C49.1425 75.5644 49.416 75.6933 49.7325 75.9509C49.3248 74.9632 49.121 73.9816 49.121 72.9939C49.121 72.0061 49.3034 71.0245 49.6628 70.0368C49.6145 65.5767 49.0942 61.7362 48.0965 58.5215C47.6406 59.5583 46.7127 61.2209 45.3074 63.5031C45.6239 65.2699 45.7848 67.7055 45.7848 70.8159C46.2353 71.6994 46.466 72.816 46.466 74.1657C46.466 75.4601 46.3533 76.1104 46.1281 76.1104C45.9028 76.1104 45.7419 75.5951 45.6507 74.5522C44.5619 74.5522 44.0201 74.1656 44.0201 73.3865C44.0201 72.6626 44.1542 71.7791 44.4278 70.7423C44.0201 67.7362 43.7466 65.2454 43.6125 63.2699C44.1113 61.6074 45.3342 58.9877 47.2866 55.411C47.9678 54.3742 49.0781 53.8528 50.6175 53.8528V51.9877C50.0275 51.6748 49.4697 51.1288 48.9494 50.3558C48.4291 49.5767 48.1663 48.5153 48.1663 47.1656C48.1663 45.0368 49.416 43.9755 51.9102 43.9755L52.9293 44.0552C54.1522 44.2086 55.0158 45.3252 55.5146 47.3988C55.831 47.865 56.169 48.4908 56.5337 49.2638C56.6678 49.5767 56.7375 49.8098 56.7375 49.9632C56.7375 50.1166 56.6678 50.2086 56.5337 50.2331C56.3996 50.2577 56.2601 50.3497 56.1261 50.5031C56.2172 50.5583 56.2601 50.6319 56.2601 50.7362V50.816C56.2601 50.9202 56.1904 50.9693 56.0563 50.9693C56.0563 51.0184 56.0885 51.0736 56.1582 51.1227C56.228 51.1779 56.2601 51.2515 56.2601 51.3558C56.2601 51.4049 56.2011 51.4601 56.0885 51.5092C55.9759 51.5583 55.9169 51.8221 55.9169 52.2883C55.9169 52.7546 55.6916 52.9877 55.2357 52.9877C54.828 52.9877 54.5116 52.9632 54.2809 52.908L54.1468 54.0736C56.1904 54.1288 57.5957 54.6442 58.3627 55.6319C60.1328 56.4601 61.8545 57.3988 63.5334 58.4356C62.2622 57.0368 61.1948 55.5828 60.3366 54.0798C59.7466 54.0307 59.1673 53.9755 58.6041 53.9264C58.0355 53.8773 57.7513 53.227 57.7513 51.9816C56.8877 51.9325 56.4586 51.7485 56.4586 51.4356C56.4586 51.1779 56.936 51.0491 57.8854 51.0491C59.2477 51.0491 60.2454 51.6196 60.8783 52.7607C64.5954 55.9755 66.4566 58.5951 66.4566 60.6196V60.9325C64.236 60.8834 62.3855 60.5031 60.9105 59.8037C59.4355 59.1043 58.3574 58.7301 57.6815 58.6749L57.7513 59.454C57.7513 60.2822 57.5903 61.0123 57.2739 61.6319C56.9574 62.2515 56.2065 65.0798 55.0265 70.1166L60.535 65.135C61.3503 64.2515 62.0744 63.8098 62.7127 63.8098C64.2521 63.865 65.0245 64.589 65.0245 65.9877L64.0697 74.4724C65.2927 74.8896 65.9041 75.9755 65.9041 77.7423V78.1288C66.4941 78.2822 67.0251 78.4785 67.5025 78.7117C67.9799 78.9448 68.4412 79.0613 68.8971 79.0613H69.1706C69.6426 79.0675 69.9376 79.3804 70.0717 80ZM75.1083 28.7178H66.0597V27.3926C66.0597 23.7607 66.714 20.9877 68.0335 19.0675C69.53 16.9939 70.5867 15.5644 71.1981 14.7853C71.8096 14.0061 72.1153 13.2025 72.1153 12.3742V12.2209C70.3936 11.184 68.1891 10.6626 65.5179 10.6626C63.7479 10.6626 61.6829 10.7914 59.3282 11.0491C59.2853 11.1043 59.2156 11.1288 59.1244 11.1288C58.8508 11.1288 58.7167 10.5092 58.7167 9.2638C59.3979 8.17178 60.6101 7.44785 62.3587 7.08589C64.1019 6.72393 65.0245 6.51534 65.1157 6.46626C66.3386 5.42945 67.5669 4.20859 68.7898 2.80982C70.1039 1.71779 71.7399 1.17791 73.6869 1.17791H74.3681C77.361 1.3865 78.8575 3.71779 78.8575 8.18405C78.8575 9.42945 78.6537 10.546 78.2461 11.5276C77.522 13.1902 76.5458 15.184 75.3228 17.5215C74.6845 18.7178 74.3681 20.3252 74.3681 22.3436C74.3574 24.1534 74.6095 26.2822 75.1083 28.7178ZM75.1083 28.7975H66.0597V27.4724C66.0597 23.8405 66.714 21.0675 68.0335 19.1472C69.53 17.0736 70.5867 15.6442 71.1981 14.865C71.8096 14.0859 72.1153 13.2822 72.1153 12.454V12.3006C70.3936 11.2638 68.1891 10.7423 65.5179 10.7423C63.7479 10.7423 61.6829 10.8712 59.3282 11.1288C59.2853 11.1779 59.2156 11.2086 59.1244 11.2086C58.8508 11.2086 58.7167 10.5828 58.7167 9.34356C59.3979 8.25153 60.6101 7.52761 62.3587 7.16565C64.1019 6.80368 65.0245 6.59509 65.1157 6.54601C66.3386 5.5092 67.5669 4.28834 68.7898 2.88957C70.1039 1.79755 71.7399 1.25767 73.6869 1.25767H74.3681C77.361 1.46626 78.8575 3.79754 78.8575 8.2638C78.8575 9.5092 78.6537 10.6258 78.2461 11.6074C77.522 13.2699 76.5458 15.2638 75.3228 17.6012C74.6845 18.7975 74.3681 20.4049 74.3681 22.4233C74.3574 24.2331 74.6095 26.3558 75.1083 28.7975ZM72.8609 79.6871C72.6785 79.6871 72.5069 79.5951 72.3513 79.4172C72.1904 79.2393 72.1153 78.9632 72.1153 78.6012C72.0724 76.9939 72.0456 74.865 72.0456 72.2209C71.5468 71.1288 70.8119 70.3681 69.8357 69.9264C68.8595 69.4847 67.8726 69.1841 66.875 69.0307L66.6711 69.1104C66.4888 69.1104 66.2849 69.0614 66.0597 68.9571C65.8344 68.8528 65.7218 68.6994 65.7218 68.4908C65.7218 68.3374 65.8129 68.1779 65.9953 68.0245C66.5853 67.9202 67.1968 67.8712 67.8297 67.8712C68.6933 67.8712 69.53 67.9755 70.3453 68.1841H70.415C70.5491 68.1841 70.6886 68.2209 70.8227 68.3006C70.9568 68.3804 71.1391 68.4969 71.3644 68.6503C71.5897 68.8037 71.7935 68.8834 71.9759 68.8834C72.0188 68.8834 72.067 68.8344 72.1099 68.7301L72.0402 68.3436C71.1338 66.5276 69.4066 65.4908 66.8696 65.2331C66.5531 65.2331 66.2796 65.1841 66.0543 65.0798C65.829 64.9755 65.7164 64.8221 65.7164 64.6135C65.7164 64.1963 66.4405 63.9939 67.8941 63.9939C69.3476 63.9939 70.7529 64.3558 72.1099 65.0859V51.6994C72.1099 51.0245 72.0778 50.2699 72.008 49.4417C71.9383 48.6135 71.6809 47.8589 71.2249 47.184C70.5437 46.5644 69.3637 46.1718 67.6849 46.0184C67.5025 46.0184 67.347 45.9939 67.2075 45.9387L67.0734 46.0184C66.8481 46.0184 66.6765 45.9387 66.5639 45.7853C66.4512 45.6319 66.3922 45.4724 66.3922 45.319C66.3922 45.2699 66.3922 45.135 66.3922 44.9325C66.3922 44.7239 67.052 44.6196 68.3661 44.6196C69.4066 44.6196 70.4096 44.8528 71.359 45.319C72.6731 45.9386 73.4026 47.135 73.5367 48.8957C73.5796 51.7485 73.6064 54.6258 73.6064 57.5337C73.6064 61.1656 73.585 63.681 73.5367 65.0798C74.8991 64.3558 76.3044 63.9877 77.7526 63.9877C78.1173 63.9877 78.4552 64.0123 78.7717 64.0675L78.9755 63.9877C79.1579 63.9877 79.3724 64.0552 79.6245 64.1841C79.8713 64.3129 80 64.454 80 64.6135C80 64.7178 79.9571 64.8466 79.8659 65L78.4391 65.3129C77.4844 65.4172 76.535 65.6994 75.5803 66.1718C74.2662 66.9018 73.6064 67.8589 73.6064 69.0491C74.9205 68.3252 76.2829 67.9571 77.6882 67.9571C78.643 67.9571 79.2652 67.9939 79.5602 68.0736C79.8552 68.1534 80 68.2945 80 68.5031C80 68.6074 79.9571 68.7362 79.8659 68.8896C79.5012 68.9939 79.1203 69.0736 78.7073 69.1227C77.6185 69.3804 76.5726 69.7362 75.5803 70.1718C74.5826 70.6135 73.9497 71.3251 73.6762 72.3129C73.585 73.3006 73.5421 74.2577 73.5421 75.1902L73.6118 78.6933C73.6118 79.0061 73.5313 79.2515 73.3758 79.4356C73.2149 79.6012 73.0432 79.6871 72.8609 79.6871ZM72.8609 79.7669C72.6785 79.7669 72.5069 79.6749 72.3513 79.4969C72.1904 79.319 72.1153 79.0429 72.1153 78.681C72.0724 77.0736 72.0456 74.9448 72.0456 72.3006C71.5468 71.2086 70.8119 70.4479 69.8357 70.0061C68.8595 69.5644 67.8726 69.2638 66.875 69.1104L66.6711 69.1902C66.4888 69.1902 66.2849 69.1411 66.0597 69.0368C65.8344 68.9325 65.7218 68.7791 65.7218 68.5706C65.7218 68.4172 65.8129 68.2577 65.9953 68.1043C66.5853 68 67.1968 67.9509 67.8297 67.9509C68.6933 67.9509 69.53 68.0552 70.3453 68.2638H70.415C70.5491 68.2638 70.6886 68.3006 70.8227 68.3804C70.9568 68.4601 71.1391 68.5767 71.3644 68.7301C71.5897 68.8834 71.7935 68.9632 71.9759 68.9632C72.0188 68.9632 72.067 68.9141 72.1099 68.8098L72.0402 68.4233C71.1338 66.6074 69.4066 65.5705 66.8696 65.3129C66.5531 65.3129 66.2796 65.2638 66.0543 65.1595C65.829 65.0552 65.7164 64.9018 65.7164 64.6933C65.7164 64.2761 66.4405 64.0736 67.8941 64.0736C69.3476 64.0736 70.7529 64.4356 72.1099 65.1657V51.7791C72.1099 51.1043 72.0778 50.3497 72.008 49.5215C71.9383 48.6933 71.6809 47.9387 71.2249 47.2638C70.5437 46.6442 69.3637 46.2515 67.6849 46.0982C67.5025 46.0982 67.347 46.0736 67.2075 46.0184L67.0734 46.0982C66.8481 46.0982 66.6765 46.0184 66.5639 45.865C66.4512 45.7117 66.3922 45.5521 66.3922 45.3988C66.3922 45.3497 66.3922 45.2147 66.3922 45.0123C66.3922 44.8037 67.052 44.6994 68.3661 44.6994C69.4066 44.6994 70.4096 44.9325 71.359 45.3988C72.6731 46.0184 73.4026 47.2147 73.5367 48.9755C73.5796 51.8282 73.6064 54.7055 73.6064 57.6135C73.6064 61.2454 73.585 63.7607 73.5367 65.1595C74.8991 64.4356 76.3044 64.0675 77.7526 64.0675C78.1173 64.0675 78.4552 64.092 78.7717 64.1472L78.9755 64.0675C79.1579 64.0675 79.3724 64.135 79.6245 64.2638C79.8713 64.3926 80 64.5337 80 64.6933C80 64.7975 79.9571 64.9264 79.8659 65.0798L78.4391 65.3926C77.4844 65.4969 76.535 65.7791 75.5803 66.2515C74.2662 66.9816 73.6064 67.9386 73.6064 69.1288C74.9205 68.4049 76.2829 68.0368 77.6882 68.0368C78.643 68.0368 79.2652 68.0736 79.5602 68.1534C79.8552 68.2331 80 68.3742 80 68.5828C80 68.6871 79.9571 68.816 79.8659 68.9693C79.5012 69.0736 79.1203 69.1534 78.7073 69.2025C77.6185 69.4601 76.5726 69.816 75.5803 70.2515C74.5826 70.6933 73.9497 71.4049 73.6762 72.3926C73.585 73.3804 73.5421 74.3374 73.5421 75.2699L73.6118 78.773C73.6118 79.0859 73.5313 79.3313 73.3758 79.5153C73.2149 79.6749 73.0432 79.7669 72.8609 79.7669Z" fill="white"/>
</svg>
