<svg width="192" height="210" viewBox="0 0 192 210" fill="none" xmlns="http://www.w3.org/2000/svg">
<path d="M46.6306 77.8183L50.1007 77.4425C50.4688 77.378 50.851 77.378 51.2191 77.4425C51.6453 77.5742 52.0066 77.8063 52.2515 78.1057C52.3224 78.3881 52.2506 78.6807 52.0508 78.9236C51.6686 79.2551 51.2565 79.5653 50.8176 79.852C50.3875 80.2278 49.986 80.6257 49.4698 81.0678C50.072 81.5762 50.6456 81.9742 51.1044 82.4384C51.696 83.0101 52.2146 83.6246 52.653 84.2731C53.2266 85.1574 52.653 85.7542 51.4485 85.6879C50.7352 85.6202 50.0269 85.5243 49.3264 85.4005C49.3416 86.2263 49.5156 87.0457 49.8426 87.8321C49.8426 88.4069 50.1294 88.9816 50.1867 89.5564C50.227 89.8175 50.1451 90.0811 49.9559 90.2999C49.7667 90.5187 49.4825 90.6783 49.1543 90.7501C48.8298 90.8313 48.4796 90.8277 48.1581 90.7397C47.8366 90.6518 47.5617 90.4845 47.3763 90.2637C47.0438 89.9088 46.7374 89.5398 46.4586 89.1585C45.8757 88.3318 45.1199 87.5849 44.2217 86.9479C43.2314 87.964 42.5369 89.1326 42.1855 90.3743C42.0065 90.9427 41.7164 91.4868 41.3252 91.988C41.1574 92.1634 40.9272 92.2975 40.6626 92.3741C40.398 92.4508 40.1102 92.4667 39.8341 92.4199C39.558 92.3732 39.3054 92.2657 39.1069 92.1106C38.9084 91.9555 38.7724 91.7593 38.7155 91.5459C38.5582 90.9775 38.5582 90.39 38.7155 89.8216C39.0022 88.5837 39.4037 87.3679 39.7766 85.9753H37.4536C37.121 85.9832 36.7909 85.929 36.4913 85.8174C36.1917 85.7058 35.9315 85.54 35.7329 85.3342C35.601 85.2513 35.4947 85.1468 35.4217 85.0282C35.3486 84.9097 35.3107 84.7801 35.3107 84.6489C35.3107 84.5177 35.3486 84.3881 35.4217 84.2696C35.4947 84.1511 35.601 84.0466 35.7329 83.9637C36.5933 83.4331 37.5683 82.9468 38.6007 82.4384C38.2853 81.5984 37.2529 81.5541 36.6506 81.1341C36.0484 80.7141 35.7903 80.5152 35.991 80.0068C36.0764 79.7971 36.238 79.6108 36.4565 79.4697C36.6751 79.3287 36.9415 79.2389 37.2242 79.2109L41.2965 78.6141C41.886 77.3016 42.3461 75.9567 42.673 74.5909C42.8205 74.0184 43.1906 73.4941 43.7341 73.0877C43.9145 72.938 44.1443 72.829 44.3988 72.7722C44.6534 72.7153 44.9232 72.7129 45.1795 72.7651C45.4357 72.8173 45.6687 72.9222 45.8536 73.0686C46.0384 73.215 46.1683 73.3973 46.2291 73.5961C46.3892 74.103 46.4757 74.622 46.4872 75.1435C46.5733 75.9835 46.5733 76.7793 46.6306 77.8183Z" fill="#F7F5E9"/>
<path d="M40.6942 207.092L42.0995 203.046C41.4399 202.759 40.7516 202.494 40.1207 202.184C39.6404 201.944 39.1893 201.67 38.7728 201.366C38.6732 201.264 38.6084 201.143 38.5841 201.016C38.5599 200.889 38.577 200.76 38.6338 200.639C38.6907 200.519 38.7856 200.411 38.91 200.326C39.0344 200.24 39.1844 200.18 39.3464 200.151C39.9199 200.151 40.4935 200.151 41.0671 200.151C41.6406 200.151 42.3576 200.151 43.2179 199.996C42.8451 199.244 42.5296 198.647 42.2429 198.028C42.0357 197.695 41.9093 197.336 41.8701 196.967C41.8885 196.829 41.9438 196.694 42.0326 196.572C42.1214 196.451 42.2418 196.344 42.3863 196.26C42.5525 196.201 42.7336 196.17 42.9168 196.17C43.1 196.17 43.2811 196.201 43.4473 196.26C43.9225 196.506 44.373 196.78 44.7952 197.078L45.9997 197.719C47.5196 196.083 48.1792 194.182 49.7279 192.591C50.1165 192.794 50.4206 193.079 50.6038 193.413C50.787 193.746 50.8413 194.113 50.7603 194.469C50.7603 195.508 50.7603 196.547 50.7603 197.586C50.7971 197.848 50.8643 198.107 50.961 198.36C52.3376 198.603 52.9398 197.697 54.0869 197.432C54.2877 197.432 54.7465 197.631 54.8612 197.83C55.019 198.165 55.019 198.533 54.8612 198.869C54.2877 199.62 53.5994 200.327 52.8825 201.079C53.37 201.742 54.4024 201.897 55.1193 202.361C55.8363 202.825 56.0657 202.848 56.4959 203.135C56.6275 203.22 56.7266 203.331 56.7827 203.456C56.8389 203.581 56.8498 203.715 56.8145 203.845C56.7791 203.974 56.6988 204.094 56.582 204.19C56.4653 204.287 56.3166 204.358 56.1518 204.395C55.7044 204.498 55.2419 204.558 54.7752 204.572L52.0508 204.749C52.653 205.765 53.2266 206.628 53.6854 207.512C54.1443 208.396 54.173 209.347 53.4273 209.457C52.6817 209.568 51.9361 208.971 51.4485 208.44C50.9249 207.735 50.211 207.124 49.355 206.65C48.6381 206.65 48.6381 207.269 48.3513 207.622C47.8351 208.308 47.4049 209.059 46.86 209.833C46.7216 209.911 46.5617 209.964 46.3926 209.987C46.2235 210.01 46.0498 210.003 45.885 209.966C45.5982 209.966 45.3401 209.59 45.168 209.347C44.996 209.103 45.168 208.927 45.168 208.705C45.168 207.821 44.9386 206.959 44.8239 205.92C44.1135 206.403 43.3453 206.832 42.5297 207.202C42.0421 207.335 41.4399 207.158 40.6942 207.092Z" fill="#F7F5E9"/>
<path d="M102.209 160.758L100.689 159.675C100.259 159.388 99.8567 159.078 99.4844 158.747C99.2979 158.573 99.1959 158.354 99.1959 158.128C99.1959 157.902 99.2979 157.683 99.4844 157.509C99.6477 157.381 99.8449 157.281 100.063 157.216C100.28 157.151 100.513 157.123 100.746 157.133C101.584 157.276 102.4 157.483 103.184 157.752L104.618 158.261C104.966 157.917 105.282 157.555 105.564 157.177C105.908 156.647 106.166 156.094 106.482 155.542C106.797 154.989 107.113 154.259 108.145 154.171C109.178 154.083 109.78 154.812 110.267 155.431L110.984 156.404C111.185 156.647 111.386 156.89 111.701 157.222C112.36 156.94 113.04 156.689 113.737 156.47C114.191 156.36 114.668 156.315 115.143 156.337C115.262 156.35 115.377 156.382 115.48 156.431C115.582 156.481 115.67 156.546 115.738 156.623C115.805 156.7 115.851 156.787 115.872 156.879C115.893 156.971 115.889 157.065 115.86 157.155C115.343 158.194 114.799 159.211 114.196 160.294C114.77 162.063 117.064 163.301 117.322 165.356C114.856 166.02 112.82 164.936 110.353 165.091C110.083 165.241 109.859 165.436 109.7 165.662C109.542 165.888 109.451 166.139 109.436 166.395C109.264 167.191 109.034 167.987 108.776 168.761C108.776 168.938 108.375 169.181 108.174 169.159C107.993 169.152 107.817 169.117 107.654 169.056C107.491 168.995 107.346 168.91 107.227 168.805C106.834 168.138 106.498 167.451 106.224 166.749C105.88 165.997 105.622 165.224 105.306 164.539L102.065 164.914C101.684 164.947 101.3 164.947 100.918 164.914C100.726 164.896 100.542 164.841 100.383 164.756C100.224 164.671 100.093 164.557 100.003 164.425C99.9132 164.292 99.8659 164.145 99.8654 163.995C99.8649 163.846 99.9113 163.699 100.001 163.566C100.359 163.049 100.751 162.548 101.176 162.063C101.463 161.532 101.807 161.201 102.209 160.758Z" fill="#F7F5E9"/>
<path d="M188.616 6.99199C189.608 7.42654 190.566 7.90634 191.484 8.42885C191.648 8.55273 191.778 8.70065 191.867 8.8639C191.955 9.02715 192.001 9.20242 192 9.37939C192.001 9.6052 191.893 9.82328 191.697 9.99092C191.501 10.1586 191.23 10.2637 190.939 10.2857C190.041 10.3307 189.141 10.3307 188.243 10.2857C188.243 11.59 189.792 12.4963 189.907 13.69C188.042 14.7732 187.469 13.0268 186.121 12.7615C185.777 13.2037 185.433 13.69 185.031 14.1321C184.959 14.2054 184.866 14.2648 184.759 14.3057C184.652 14.3466 184.534 14.3679 184.415 14.3679C184.295 14.3679 184.177 14.3466 184.071 14.3057C183.964 14.2648 183.87 14.2054 183.798 14.1321C183.368 13.4247 183.024 12.6731 182.565 11.811C181.504 12.0321 181.217 12.8279 180.557 13.27C180.417 13.3534 180.252 13.4091 180.077 13.4322C179.902 13.4553 179.722 13.4452 179.554 13.4026C179.428 13.3103 179.333 13.1954 179.278 13.0682C179.223 12.941 179.209 12.8053 179.238 12.6731C179.496 12.1205 179.898 11.59 180.213 11.0594C180.529 10.5289 180.672 10.131 180.988 9.51203C180.099 9.35729 179.382 9.22465 178.693 9.06991C178.234 8.95141 177.791 8.79581 177.374 8.6057C177.225 8.54302 177.098 8.45373 177.003 8.3453C176.908 8.23688 176.848 8.11249 176.829 7.98256C176.809 7.85264 176.83 7.72098 176.89 7.59862C176.95 7.47626 177.047 7.36678 177.173 7.27936C177.45 7.08366 177.747 6.90619 178.062 6.74883L179.066 6.2404C178.835 5.99701 178.652 5.72891 178.521 5.4446C178.39 5.11315 178.39 4.75919 178.521 4.42774C178.779 4.02984 179.353 4.14037 179.812 4.273C180.271 4.40563 181.332 4.75932 182.106 5.02459C182.565 3.63194 182.966 2.34981 183.397 1.06769C183.515 0.787688 183.659 0.514391 183.827 0.249784C184.027 -0.0375891 184.83 -0.126012 185.06 0.249784C185.463 0.65131 185.782 1.09879 186.006 1.57612C186.35 2.41613 186.551 3.30035 186.867 4.29511C187.392 4.13895 187.928 4.0061 188.473 3.89721C189.016 3.779 189.573 3.70491 190.136 3.67615C190.566 3.67615 191.025 4.20668 190.796 4.49406C190.107 5.20144 189.448 5.99724 188.616 6.99199Z" fill="#F7F5E9"/>
<path d="M151.994 98.5533C152.654 98.4207 153.199 98.266 153.743 98.1996C153.888 98.1911 154.033 98.2099 154.165 98.2544C154.298 98.2989 154.415 98.3677 154.505 98.4548C154.596 98.542 154.657 98.6448 154.684 98.7545C154.712 98.8641 154.704 98.9772 154.661 99.0839C154.346 99.6807 153.973 100.278 153.629 100.874C156.267 102.179 156.238 102.466 153.629 103.549L152.482 104.036C152.482 104.522 152.768 105.008 152.883 105.494C153.053 105.992 153.14 106.505 153.141 107.02C153.114 107.159 153.046 107.291 152.941 107.406C152.837 107.521 152.699 107.616 152.539 107.683C152.37 107.714 152.194 107.714 152.024 107.683C151.855 107.653 151.697 107.592 151.564 107.506C151.221 107.266 150.922 106.991 150.675 106.688L149.098 107.462C147.864 106.821 149.098 105.716 148.094 105.008C147.48 105.322 146.837 105.603 146.172 105.848C145.997 105.882 145.813 105.881 145.638 105.847C145.463 105.812 145.301 105.744 145.169 105.649C145.083 105.527 145.039 105.39 145.039 105.251C145.039 105.112 145.083 104.976 145.169 104.853C145.656 104.345 146.287 103.881 146.861 103.394C146.689 102.886 146.058 103.107 145.714 102.952C145.259 102.823 144.825 102.652 144.423 102.444C144.115 102.191 143.932 101.862 143.907 101.515C143.907 101.317 144.337 101.051 144.652 100.941C145.241 100.791 145.846 100.68 146.459 100.609L146.631 98.8849L148.581 99.6144C148.725 99.6144 148.954 99.4597 148.954 99.3491C148.954 98.6418 149.155 97.8902 149.356 97.1386C149.556 96.387 149.757 96.188 150.445 96.2986C151.134 96.4091 151.105 96.7628 151.306 97.0501C151.571 97.5409 151.801 98.0428 151.994 98.5533Z" fill="#F7F5E9"/>
<path d="M14.9987 113.276C15.3574 113.334 15.7117 113.408 16.0597 113.497C17.1208 113.939 17.4076 114.403 16.7193 115.044C16.4145 115.321 16.2027 115.651 16.1026 116.006C16.0026 116.36 16.0174 116.729 16.1458 117.078C16.245 117.435 16.245 117.804 16.1458 118.161C16.1113 118.345 16.0148 118.518 15.8659 118.665C15.7171 118.811 15.5211 118.924 15.2975 118.993C15.0739 119.063 14.8307 119.086 14.592 119.06C14.3534 119.034 14.1277 118.96 13.9376 118.846C13.5361 118.647 13.1919 118.382 12.8191 118.161C12.4048 117.922 11.974 117.701 11.5286 117.498L9.03361 118.515C8.23062 118.824 7.62838 118.758 7.22689 118.36C7.0477 118.187 6.95007 117.973 6.95007 117.752C6.95007 117.531 7.0477 117.317 7.22689 117.144C7.22689 116.967 7.51367 116.79 7.71441 116.503C7.23119 116.274 6.77957 116.007 6.36654 115.707C6.16792 115.599 6.01632 115.448 5.93166 115.272C5.84699 115.096 5.83323 114.905 5.89218 114.723C5.95112 114.542 6.08002 114.378 6.26193 114.254C6.44384 114.129 6.67026 114.05 6.91143 114.027C7.73339 113.891 8.56736 113.802 9.40642 113.762C10.1807 112.811 11.0698 111.772 11.9588 110.734C12.2742 110.358 12.6184 109.96 13.3066 110.07C13.5893 110.117 13.845 110.232 14.036 110.4C14.2271 110.567 14.3434 110.777 14.3677 110.999C14.5972 111.706 14.7979 112.436 14.9987 113.276Z" fill="#F7F5E9"/>
<path d="M174.306 190.579C174.019 191.662 172.786 191.839 171.983 192.546C171.983 192.878 172.155 193.298 172.212 193.718C172.336 194.295 172.403 194.879 172.413 195.464C172.406 195.593 172.356 195.719 172.267 195.829C172.179 195.939 172.055 196.029 171.908 196.092C171.761 196.154 171.595 196.186 171.428 196.184C171.26 196.183 171.095 196.148 170.95 196.083C170.376 195.819 169.821 195.531 169.287 195.221L167.738 196.658L166.735 195.398C166.304 195.221 166.075 195.553 165.76 195.663C165.444 195.774 164.756 195.928 164.44 195.663C164.297 195.525 164.192 195.365 164.133 195.194C164.074 195.022 164.061 194.844 164.096 194.668C164.353 194.086 164.679 193.524 165.071 192.988C164.641 192.613 164.182 192.259 163.781 191.861C163.614 191.753 163.494 191.609 163.434 191.448C163.375 191.287 163.379 191.115 163.447 190.956C163.515 190.797 163.643 190.657 163.815 190.554C163.987 190.451 164.195 190.391 164.412 190.38C164.794 190.358 165.177 190.358 165.559 190.38H166.792C167.217 189.906 167.707 189.468 168.255 189.076C168.541 188.877 169.402 188.81 169.488 188.943C170.405 190.137 172.04 190.07 173.474 190.358C173.76 190.41 174.038 190.484 174.306 190.579Z" fill="#F7F5E9"/>
<path d="M41.5259 119.576C40.7229 120.062 40.0347 120.548 39.2317 120.946C39.073 121.012 38.8956 121.047 38.7155 121.047C38.5353 121.047 38.3579 121.012 38.1993 120.946C38.0849 120.844 38.0002 120.724 37.9507 120.594C37.9013 120.465 37.8882 120.328 37.9125 120.195C38.0326 119.792 38.2055 119.399 38.4287 119.023C37.968 118.926 37.5248 118.785 37.1095 118.603C36.7653 118.404 36.3352 118.095 36.3352 117.807C36.3576 117.635 36.4282 117.469 36.5421 117.32C36.656 117.172 36.8104 117.044 36.9948 116.945C37.523 116.729 38.0809 116.558 38.6581 116.437C39.0309 115.619 39.3751 114.779 39.7766 113.961C39.9778 113.548 40.2581 113.16 40.6082 112.811C40.7373 112.704 40.8992 112.622 41.0793 112.575C41.2594 112.527 41.452 112.515 41.6398 112.539C41.8276 112.563 42.0046 112.623 42.155 112.713C42.3053 112.803 42.4242 112.92 42.501 113.055C42.8738 113.718 43.1892 114.425 43.5334 115.11C43.6785 115.367 43.8413 115.618 44.0209 115.862L46.2578 116.68C45.8081 117.084 45.4407 117.539 45.168 118.028C45.111 118.536 45.111 119.046 45.168 119.554C45.1776 119.703 45.1365 119.852 45.0487 119.986C44.961 120.119 44.8296 120.233 44.6675 120.315C44.5054 120.398 44.3183 120.447 44.1244 120.456C43.9306 120.466 43.7368 120.437 43.5621 120.372C43.0172 120.15 42.2715 119.863 41.5259 119.576Z" fill="#F7F5E9"/>
<path d="M8.20194 143.03C8.20194 143.848 8.37401 144.511 8.37401 145.24C8.4054 145.463 8.33337 145.688 8.17066 145.874C8.00795 146.06 7.76506 146.196 7.48499 146.257C7.01542 146.248 6.56653 146.106 6.22315 145.859C5.76103 145.536 5.33862 145.181 4.96131 144.798L2.58103 145.926C2.38028 145.638 2.00747 145.351 2.00747 145.086C2.07342 144.597 2.20804 144.115 2.40896 143.649L0 141.836C0.487528 140.068 2.35161 141.173 3.35534 140.687C4.35907 140.2 4.15833 138.476 5.70695 138.012C7.39895 138.299 7.02614 139.471 7.42763 140.466C8.31665 140.598 9.23435 140.709 10.1234 140.863C10.2353 140.889 10.3363 140.937 10.4163 141.003C10.4962 141.068 10.5521 141.149 10.5784 141.237C10.6046 141.324 10.6002 141.416 10.5656 141.502C10.531 141.587 10.4675 141.665 10.3815 141.726C10.0373 141.969 9.60717 142.168 9.23435 142.389L8.20194 143.03Z" fill="#F7F5E9"/>
<path d="M130.944 180.742C132.034 180.322 132.78 180.41 133.296 180.919C133.501 181.201 133.808 181.431 134.18 181.58C134.552 181.729 134.972 181.791 135.389 181.759C135.877 181.759 136.221 182.201 136.078 182.577C135.839 183.083 135.561 183.577 135.246 184.058C135.561 184.699 135.906 185.384 136.192 186.069C136.299 186.297 136.315 186.544 136.238 186.779C136.161 187.014 135.994 187.226 135.76 187.387C135.526 187.549 135.235 187.653 134.923 187.686C134.612 187.719 134.295 187.679 134.013 187.573L132.78 187.153C131.919 187.55 131.489 188.523 130.313 188.081C129.138 187.639 129.797 186.887 129.625 186.29C129.625 186.29 129.625 186.136 129.625 186.423C129.109 185.008 126.471 185.207 127.015 183.461L130.342 182.643L130.944 180.742Z" fill="#F7F5E9"/>
<path d="M106.711 110.601C106.883 111.839 105.22 111.64 104.646 112.458C104.646 112.657 104.905 112.988 105.077 113.32C105.249 113.651 105.421 113.961 105.535 114.226C105.191 114.801 104.761 115.066 104.102 114.889C103.442 114.713 102.582 114.359 101.635 114.027C101.409 114.527 101.141 115.014 100.832 115.486C100.605 115.797 100.238 116.033 99.7999 116.149C99.5126 116.186 99.2178 116.141 98.97 116.024C98.7222 115.906 98.5382 115.723 98.452 115.508C98.3896 115.119 98.3896 114.726 98.452 114.337L96.2151 113.43L97.3622 112.259L97.1328 111.043L99.2836 110.645C99.5275 110.208 99.7288 109.757 99.8859 109.297C99.8859 108.766 100.087 108.169 100.861 108.125C101.635 108.081 101.951 108.611 102.266 109.098C102.582 109.584 102.811 109.849 103.098 110.291L106.711 110.601Z" fill="#F7F5E9"/>
<path d="M70.3761 171.214L72.2975 171.944C71.5302 172.91 71.1975 174.045 71.3512 175.171C71.3512 175.68 71.3512 176.232 70.5769 176.652C69.4871 176.652 68.7415 175.879 67.709 175.636C67.5357 175.664 67.3705 175.716 67.2215 175.79C66.7627 176.188 66.3038 176.586 65.5295 176.277C65.2946 176.143 65.1208 175.956 65.0331 175.741C64.9455 175.526 64.9486 175.296 65.042 175.083C65.1198 174.725 65.2251 174.37 65.3574 174.022C65.313 173.886 65.2555 173.753 65.1854 173.624C64.8125 173.138 63.8375 172.806 64.0956 172.165C64.3537 171.524 65.7303 171.657 66.7627 171.413C67.0208 171.06 67.3362 170.618 67.6804 170.175C68.0245 169.733 68.3686 169.358 68.9709 169.534C69.4513 169.735 69.8414 170.043 70.0893 170.419C70.2406 170.67 70.3374 170.939 70.3761 171.214Z" fill="#F7F5E9"/>
<path d="M118.928 56.0885C118.652 56.448 118.335 56.7883 117.982 57.1054C117.854 57.2173 117.686 57.2983 117.5 57.3386C117.313 57.3788 117.115 57.3766 116.931 57.3322C116.746 57.2878 116.581 57.2031 116.457 57.0883C116.334 56.9736 116.255 56.8336 116.232 56.6854C116.232 56.199 116.06 55.6906 115.974 55.138L113.25 54.3201C112.762 54.1874 112.39 53.8779 112.619 53.48C112.717 53.3254 112.853 53.1872 113.021 53.0734C113.188 52.9596 113.383 52.8724 113.594 52.8169C114.542 52.6945 115.501 52.628 116.462 52.6179C117.523 52.0211 117.121 50.7389 118.785 50.4074L119.932 51.6011H121.653C122.513 52.3748 121.653 52.8611 121.308 53.5685L121.681 54.2758C121.887 54.6142 122.069 54.9611 122.226 55.3148C122.269 55.457 122.267 55.6051 122.22 55.7465C122.173 55.888 122.082 56.0185 121.955 56.127C121.828 56.2356 121.669 56.3189 121.492 56.3699C121.314 56.4209 121.124 56.4382 120.936 56.4201C120.651 56.3741 120.372 56.3075 120.104 56.2211L118.928 56.0885Z" fill="#F7F5E9"/>
<path d="M55.4061 89.5343C56.0838 89.7131 56.745 89.9272 57.3849 90.1753C59.3924 91.0153 61.3712 91.8774 63.3213 92.7617C70.1754 95.8786 77.0868 98.9512 83.8835 102.112C87.3536 103.704 90.6515 105.494 94.0069 107.197C94.3816 107.371 94.7042 107.604 94.9533 107.882C95.0172 107.997 95.0501 108.121 95.0501 108.247C95.0501 108.372 95.0172 108.496 94.9533 108.611C94.8648 108.721 94.7427 108.813 94.5978 108.879C94.4529 108.944 94.2894 108.981 94.1216 108.987C93.3702 108.837 92.6401 108.63 91.9421 108.368C86.3785 106.158 80.987 103.947 75.6816 101.383L56.6106 92.5406C55.8447 92.1742 55.133 91.7442 54.4884 91.2585C54.284 91.125 54.1527 90.9369 54.1208 90.7319C54.0889 90.5269 54.1588 90.3202 54.3164 90.1532C54.6276 89.8974 54.9969 89.6876 55.4061 89.5343Z" fill="#F7F5E9"/>
<path d="M10.7256 148.667C11.2027 148.81 11.6327 149.033 11.9847 149.32C12.3367 149.606 12.6021 149.95 12.7618 150.325C14.5685 153.198 16.4326 156.028 18.2106 158.924C24.4624 169.092 30.6856 179.283 36.8801 189.496C37.683 190.844 38.4 192.215 39.1456 193.585C39.3054 193.77 39.3783 193.991 39.3522 194.213C39.3261 194.434 39.2026 194.641 39.0022 194.801C38.6007 195.088 37.9412 194.801 37.3963 194.226C36.8514 193.652 36.1631 192.546 35.6182 191.684C31.5173 185.053 27.3876 178.421 23.344 171.789C19.3004 165.157 15.3141 158.327 11.2992 151.585C10.9432 151.057 10.6642 150.501 10.4675 149.927C10.4563 149.498 10.5436 149.072 10.7256 148.667Z" fill="#F7F5E9"/>
<path d="M60.4248 80.9794C60.3377 80.6688 60.3581 80.346 60.484 80.0433C60.6098 79.7407 60.8366 79.4689 61.1417 79.2552L65.8163 77.0446L105.392 59.3601C106.127 59.0218 106.894 58.7262 107.686 58.4759C107.916 58.4759 108.776 59.0949 109.006 59.2938C109.068 59.3858 109.101 59.4883 109.101 59.5922C109.101 59.6962 109.068 59.7986 109.006 59.8907C108.552 60.2615 108.042 60.5882 107.486 60.8633C104.274 62.337 101.033 63.8107 97.7637 65.2844L63.35 80.2941C62.7027 80.6172 62.0216 80.8982 61.3138 81.1341C61.1704 81.1341 60.7403 81.0015 60.4248 80.9794Z" fill="#F7F5E9"/>
<path d="M128.449 50.2968C127.99 50.2968 127.56 50.2968 127.36 50.0537C127.277 49.9387 127.233 49.8094 127.233 49.6779C127.233 49.5464 127.277 49.417 127.36 49.3021C127.949 48.7226 128.601 48.1827 129.31 47.6884C135.045 43.7536 140.781 39.8188 146.517 35.9282C155.388 29.8123 164.354 23.7186 173.417 17.6469C174.313 17.0227 175.272 16.4536 176.284 15.9448C176.543 15.8121 177.202 15.9448 177.518 16.2321C177.833 16.5195 177.69 16.8069 177.518 16.9616C176.812 17.6016 176.045 18.2001 175.223 18.7522C166.62 24.647 158.016 30.5418 149.413 36.4366C143.219 40.6367 136.967 44.8147 130.744 48.9705C129.998 49.4126 129.195 49.8547 128.449 50.2968Z" fill="#F7F5E9"/>
<path d="M112.074 112.281C112.246 111.949 112.074 111.176 112.217 111.087C113.147 110.762 114.105 110.489 115.085 110.269C122.685 108.744 130.285 107.263 138.028 105.848C138.666 105.73 139.322 105.678 139.978 105.693C140.179 105.693 140.752 106.379 140.81 106.556C140.867 106.732 140.81 107.064 140.609 107.13C139.767 107.454 138.895 107.727 137.999 107.948C134.214 108.722 130.399 109.473 126.528 110.159L115.372 112.237C114.29 112.438 113.164 112.453 112.074 112.281Z" fill="#F7F5E9"/>
<path d="M95.6128 161.532C96.2438 161.532 96.4732 161.377 96.6739 161.532C97.0623 161.588 97.4267 161.718 97.735 161.908C97.8212 161.983 97.8851 162.071 97.9221 162.167C97.959 162.263 97.9683 162.364 97.9492 162.464C97.93 162.563 97.883 162.657 97.8113 162.741C97.7396 162.824 97.645 162.895 97.5343 162.947C96.7419 163.402 95.8858 163.788 94.9819 164.096C91.4545 165.356 87.9271 166.572 84.371 167.766C82.0481 168.562 79.6965 169.313 77.3449 169.976C76.9581 170.136 76.5198 170.205 76.0831 170.175C75.604 170.077 75.1867 169.85 74.9072 169.534C74.8501 169.393 74.8439 169.242 74.8893 169.098C74.9348 168.954 75.0302 168.822 75.1653 168.716C75.8332 168.29 76.5649 167.926 77.3449 167.633L89.189 163.544L93.8061 162.063L95.6128 161.532Z" fill="#F7F5E9"/>
<path d="M140.523 185.318C141.142 185.373 141.755 185.461 142.358 185.583L158.418 189.584C159.052 189.753 159.651 189.991 160.196 190.292C160.337 190.378 160.45 190.49 160.524 190.617C160.599 190.743 160.634 190.882 160.626 191.021C160.571 191.202 160.426 191.359 160.222 191.459C160.018 191.558 159.772 191.591 159.536 191.552C158.965 191.503 158.4 191.421 157.844 191.308C152.309 189.96 146.746 188.589 141.211 187.197C140.842 187.123 140.5 186.987 140.207 186.799C139.921 186.556 139.576 186.18 139.634 185.915C139.691 185.649 140.265 185.495 140.523 185.318Z" fill="#F7F5E9"/>
<path d="M55.9797 194.315C55.6642 194.116 55.1193 193.961 55.0333 193.718C54.9431 193.284 55.0127 192.84 55.2341 192.436C55.6705 191.629 56.1586 190.84 56.6966 190.07C58.7328 186.887 60.7976 183.704 62.8624 180.565C63.2538 180.063 63.7154 179.596 64.239 179.172C64.3634 179.124 64.501 179.099 64.6405 179.099C64.78 179.099 64.9175 179.124 65.042 179.172C65.3001 179.305 65.6442 179.615 65.6155 179.836C65.5514 180.338 65.387 180.83 65.128 181.295C64.3824 182.599 63.6081 183.859 62.8051 185.119C61.1991 187.639 59.5645 190.159 57.9298 192.657C57.6175 193.114 57.2425 193.544 56.8114 193.939C56.5557 194.091 56.2763 194.217 55.9797 194.315Z" fill="#F7F5E9"/>
<path d="M5.87901 134.806C5.89479 133.992 5.98102 133.18 6.13712 132.375C6.99746 129.125 7.88648 125.898 8.80418 122.648C8.8884 122.218 9.10469 121.808 9.4351 121.455C9.60951 121.345 9.812 121.264 10.0294 121.219C10.2468 121.173 10.4742 121.163 10.6969 121.189C10.8697 121.237 11.025 121.317 11.1497 121.421C11.2745 121.524 11.3651 121.65 11.4139 121.786C11.5282 122.217 11.5282 122.66 11.4139 123.091C10.5822 126.495 9.75056 129.877 8.86154 133.281C8.68482 133.847 8.42505 134.396 8.08723 134.917C7.8578 135.337 7.39895 135.757 6.76804 135.558C6.13712 135.359 6.05108 134.939 5.87901 134.806Z" fill="#F7F5E9"/>
<path d="M41.0097 110.314C40.5322 109.13 40.4827 107.869 40.8663 106.666C41.4399 103.372 42.1568 100.034 42.8451 96.7849C42.9675 96.2074 43.1793 95.6434 43.476 95.1049C43.5721 94.9886 43.703 94.8917 43.8577 94.8225C44.0124 94.7533 44.1864 94.7137 44.3651 94.707C44.7835 94.8411 45.1283 95.0834 45.3401 95.3922C45.4565 95.6726 45.4565 95.974 45.3401 96.2544C44.6518 99.9239 43.9636 103.571 43.2179 107.307C43.0152 108.183 42.7374 109.047 42.3863 109.894C42.3404 109.996 42.2664 110.09 42.1692 110.168C42.072 110.246 41.954 110.308 41.8233 110.347C41.6925 110.387 41.5521 110.405 41.4117 110.399C41.2712 110.393 41.1341 110.364 41.0097 110.314Z" fill="#F7F5E9"/>
<path d="M128.076 180.344C128.076 181.029 127.302 181.449 126.872 181.206C126.255 180.855 125.688 180.455 125.18 180.012C123.029 177.957 120.907 175.857 118.813 173.779C117.695 172.673 116.577 171.568 115.515 170.441C114.454 169.313 114.655 168.849 115.2 168.694C115.745 168.54 116.605 168.96 117.093 169.402C118.613 170.817 120.133 172.231 121.624 173.668C123.574 175.569 125.524 177.47 127.36 179.393C127.639 179.691 127.879 180.01 128.076 180.344Z" fill="#F7F5E9"/>
<path d="M33.9836 118.625C33.9836 119.465 33.3527 119.598 32.7217 119.532C30.915 119.333 29.0796 119.134 27.2729 118.868C24.9786 118.515 22.6844 118.117 20.3615 117.697C19.9193 117.597 19.5023 117.44 19.1283 117.233C19.0737 117.111 19.0737 116.978 19.1283 116.857C19.1283 116.746 19.1283 116.525 19.1283 116.525C19.5812 116.376 20.0695 116.3 20.5622 116.304L29.8826 117.476C30.8985 117.618 31.9037 117.803 32.8938 118.028C33.2938 118.184 33.6611 118.385 33.9836 118.625Z" fill="#F7F5E9"/>
</svg>
