<svg width="162" height="70" viewBox="0 0 162 70" fill="none" xmlns="http://www.w3.org/2000/svg">
<path d="M17.46 6.1697L19.7619 6.28442C20.2419 6.29236 20.7205 6.32302 21.1942 6.37619C21.3866 6.40005 21.5652 6.45995 21.7093 6.54903C21.8534 6.6381 21.9573 6.75273 22.0089 6.87973C22.0606 7.00674 22.0579 7.14097 22.0013 7.26701C21.9446 7.39304 21.8362 7.50576 21.6886 7.59222C20.647 8.36303 19.3972 8.99369 18.0057 9.45067C17.539 9.59851 17.0938 9.77517 16.6757 9.97838C16.8973 10.3914 17.0679 10.7355 17.2554 11.1256C17.4867 11.4976 17.6748 11.8812 17.8181 12.2728C17.8809 12.4216 17.8744 12.5798 17.7994 12.7261C17.7245 12.8724 17.5847 12.9997 17.399 13.091C17.2132 13.1822 16.9904 13.233 16.7605 13.2364C16.5306 13.2398 16.3046 13.1958 16.113 13.1102C15.5162 12.9381 14.9536 12.7202 14.4079 12.5481C13.4872 12.9381 13.6406 13.5117 13.4531 13.9935C13.3408 14.3924 13.1457 14.7785 12.8734 15.1407C12.7616 15.2724 12.6121 15.3878 12.4335 15.4804C12.255 15.5729 12.051 15.6408 11.8333 15.6799C11.6073 15.6689 11.387 15.6278 11.185 15.5588C10.983 15.4899 10.8034 15.3946 10.6568 15.2784C10.1596 14.7204 9.71539 14.1419 9.32679 13.5461C9.07103 13.2135 8.78117 12.8808 8.40605 12.399C7.63876 12.8234 6.99083 13.1905 6.32585 13.5461C6.12489 13.6889 5.85028 13.7744 5.55849 13.785C5.26671 13.7957 4.97994 13.7307 4.75718 13.6035C4.55323 13.4801 4.42854 13.3082 4.40946 13.1241C4.39037 12.94 4.47837 12.7582 4.65487 12.6169C4.99589 12.0204 5.3028 11.4124 5.67792 10.7241C5.19948 10.4912 4.69818 10.2804 4.17745 10.0931C3.37606 9.86366 2.47237 9.71452 1.72213 9.50803C0.971896 9.30153 0 9.17534 0 8.61322C0 7.83313 1.0401 7.85607 1.87559 7.71841C3.13475 7.52544 4.26962 7.0673 5.11524 6.41061C4.45026 5.90584 3.78528 5.44697 3.2226 4.9422C3.02747 4.72991 2.95468 4.47689 3.01799 4.23094C3.13735 3.82942 3.71708 3.79501 4.17745 3.8409C5.02999 3.9212 5.88253 4.08181 6.87148 4.23094C7.17378 3.93561 7.43085 3.62043 7.63876 3.29024C8.20144 2.29219 8.5254 1.31707 9.10513 0.34196C9.16358 0.252871 9.25478 0.175262 9.37014 0.116444C9.4855 0.0576263 9.62121 0.019537 9.7645 0.00576508C9.90778 -0.00800685 10.0539 0.00299206 10.1891 0.0377255C10.3244 0.0724589 10.4442 0.129783 10.5374 0.204297C10.9051 0.571264 11.2355 0.954535 11.5263 1.35149C12.2254 2.26924 12.8904 3.20994 13.5895 4.13917C13.7065 4.24991 13.844 4.35015 13.9987 4.43744C14.7831 4.19653 15.5674 3.93267 16.3688 3.71471C16.5255 3.67312 16.6951 3.65822 16.8624 3.67133C17.0297 3.68444 17.1897 3.72515 17.328 3.78985C17.4664 3.85454 17.5788 3.94122 17.6554 4.04219C17.7319 4.14315 17.7703 4.25528 17.7669 4.3686C17.7328 4.96514 17.5794 5.52727 17.46 6.1697Z" fill="#F7F5E9"/>
<path d="M150.047 58.1949C150.525 57.2198 150.917 56.497 151.258 55.7628C151.599 55.0286 151.974 54.0191 152.4 53.1587C152.488 53.0527 152.614 52.9628 152.765 52.8969C152.917 52.8309 153.09 52.7908 153.27 52.7801C153.453 52.7932 153.628 52.8367 153.78 52.9068C153.932 52.9769 154.055 53.0714 154.139 53.1816C154.48 53.847 154.651 54.5583 154.958 55.2236C155.265 55.889 155.776 56.8068 156.22 57.6327L159.306 57.0018C159.8 58.0343 158.283 58.6079 158.47 59.56C158.999 59.7092 159.63 59.8698 160.175 60.0648C160.619 60.1919 161.042 60.3495 161.437 60.5351C161.608 60.5986 161.75 60.6917 161.849 60.8047C161.948 60.9177 162 61.0464 162 61.1776C162 61.3087 161.948 61.4375 161.849 61.5505C161.75 61.6634 161.608 61.7565 161.437 61.82C160.874 62.0724 160.261 62.2559 159.732 62.4854C159.203 62.7148 158.76 62.8639 158.163 63.1049C158.543 64.1384 159.26 65.1023 160.261 65.9269C158.436 66.2023 157.26 65.4681 155.793 65.296C154.77 65.8925 154.6 66.8447 154.088 67.5904C153.713 68.1066 153.491 68.7376 153.167 69.2194C152.843 69.7012 152.161 70.1027 151.684 69.9765C151.426 69.8902 151.209 69.7579 151.055 69.594C150.902 69.4301 150.819 69.241 150.814 69.0473C150.627 68.1525 150.422 67.2577 150.166 66.3744C150.029 66.0904 149.846 65.8173 149.621 65.5598C148.342 65.3878 147.387 66.535 146.432 65.3878C146.688 64.9518 147.012 64.4471 147.353 63.862C145.546 63.3113 143.943 62.8181 142.238 62.2789C142.085 62.2133 141.959 62.1237 141.87 62.0177C141.781 61.9117 141.731 61.7926 141.726 61.6709C141.767 61.5512 141.847 61.439 141.959 61.3419C142.07 61.2449 142.212 61.1653 142.374 61.1087C142.83 61.0103 143.298 60.9411 143.772 60.9022C144.608 60.7416 145.477 60.581 146.245 60.386C146.582 60.2755 146.897 60.1367 147.183 59.973C147.438 58.9635 145.801 58.1834 146.62 57.0477C147.131 57.1968 147.626 57.3345 148.103 57.4951C148.581 57.6557 149.109 57.8507 150.047 58.1949Z" fill="#F7F5E9"/>
<path d="M97.8716 31.8553C98.4173 30.7655 98.9458 29.7445 99.5767 28.6432L97.4454 28.1384C97.7352 27.7025 97.9739 27.3239 98.2468 26.8995C97.4965 26.1308 96.1666 25.6031 95.7573 24.7313C95.9619 24.215 96.4735 24.215 96.9338 24.1921L99.8154 24.0888C99.9007 23.4808 99.9518 22.9416 100.054 22.2419C100.451 22.3085 100.838 22.3967 101.214 22.5057C101.533 22.6281 101.83 22.7743 102.1 22.9417C102.816 21.7027 103.379 20.5555 104.232 19.4198C106.516 20.2228 106.312 21.8403 107.471 23.0105L109.176 22.8384C110.063 23.1711 109.381 23.5956 109.568 23.9856C109.802 24.076 110.055 24.1417 110.319 24.1806C111.461 24.2609 112.621 24.2839 113.729 24.3756C113.864 24.3977 113.989 24.4417 114.093 24.5036C114.197 24.5656 114.277 24.6438 114.326 24.7313C114.37 24.9722 114.272 25.2151 114.053 25.4081C113.234 25.8326 112.348 26.1767 111.563 26.5553C111.563 26.7618 111.563 26.8421 111.563 26.888C112.91 27.9205 112.859 28.0352 110.813 28.3335C110.596 28.3934 110.39 28.4704 110.199 28.5629C110.557 29.2627 110.967 29.9739 111.291 30.6967C111.45 31.0702 111.542 31.4554 111.563 31.8439C111.563 32.1421 110.864 32.406 110.489 32.2454C110.164 32.1154 109.861 31.9615 109.586 31.7865C108.75 31.2588 107.88 30.7081 107.028 30.1001L105.323 31.58L103.618 30.169C102.185 30.8802 100.804 31.58 99.4062 32.2569C98.8947 32.383 98.3491 32.3716 97.8716 31.8553Z" fill="#F7F5E9"/>
<path d="M147.387 40.4019C147.524 40.8379 147.66 41.2738 147.762 41.7097C147.885 41.9491 147.926 42.204 147.882 42.4554C147.736 42.6824 147.484 42.8715 147.166 42.9946C147.033 43.0224 146.893 43.0286 146.757 43.0126C146.62 42.9967 146.492 42.959 146.381 42.9028C145.924 42.5967 145.497 42.271 145.102 41.9277C144.335 42.3407 143.687 42.7192 143.005 43.0749C142.664 43.247 141.897 42.9372 141.965 42.6504C142.118 41.8933 142.34 41.1476 142.579 40.2872C141.8 40.0495 141.043 39.7814 140.311 39.4842C140.178 39.412 140.074 39.3185 140.009 39.2123C139.943 39.1061 139.918 38.9905 139.936 38.8762C140.022 38.7681 140.143 38.6747 140.291 38.6032C140.439 38.5316 140.609 38.4837 140.789 38.4632C141.624 38.4058 142.494 38.4632 143.431 38.4632C143.737 37.9236 144.084 37.3951 144.472 36.88C144.573 36.78 144.707 36.6969 144.864 36.6372C145.021 36.5776 145.195 36.5429 145.375 36.5359C145.557 36.5556 145.73 36.603 145.881 36.6746C146.032 36.7462 146.156 36.84 146.245 36.9489C146.486 37.437 146.68 37.9351 146.825 38.4402L149.331 38.8073C149.689 39.8972 147.66 39.6333 147.387 40.4019Z" fill="#F7F5E9"/>
<path d="M93.4555 22.5172C93.1315 22.7352 92.8416 23.1023 92.5006 23.1252C91.78 23.1428 91.0601 23.0808 90.3693 22.9417C82.4748 21.7142 74.5632 20.5325 66.6857 19.2018C53.71 17.0107 40.7514 14.7163 27.7758 12.4448C26.4771 12.2128 25.2106 11.9057 23.9905 11.5271C23.7347 11.4583 23.6154 10.9764 23.6665 10.7126C23.7177 10.4487 24.2121 10.3111 24.485 10.334C25.5819 10.4051 26.6702 10.5277 27.7417 10.7011C48.3731 14.0968 69.1069 17.2057 89.5508 21.152C90.608 21.3471 91.6651 21.565 92.6882 21.8289C92.9781 21.9092 93.1315 22.2074 93.4555 22.5172Z" fill="#F7F5E9"/>
<path d="M114.888 28.0008C115.182 27.9714 115.481 27.9714 115.775 28.0008C116.793 28.2113 117.795 28.4563 118.776 28.735C122.374 29.8248 125.971 30.972 129.586 32.1192C133.201 33.2664 136.406 34.4709 139.817 35.664C140.959 36.0655 141.419 36.5015 141.027 36.7424C140.635 36.9833 139.748 36.8686 139.152 36.7424C133.082 34.8954 127.011 33.0599 120.975 31.1785C119.134 30.6049 117.378 29.9166 115.622 29.2512C115.224 29.0777 114.897 28.8414 114.667 28.5629C114.564 28.4138 114.786 28.1843 114.888 28.0008Z" fill="#F7F5E9"/>
<path d="M145.017 44.3941C145.955 44.3253 146.279 44.5547 146.398 44.853C146.944 46.1149 147.489 47.3768 147.967 48.6388C148.444 49.9007 148.939 51.3691 149.382 52.7342C149.621 53.4914 149.74 54.2485 149.894 55.0286C149.894 55.2466 149.382 55.5793 149.041 55.5104C148.7 55.4416 148.291 55.3269 148.223 55.1778C147.756 54.3618 147.369 53.5264 147.063 52.6769C146.415 50.6463 145.938 48.6158 145.256 46.5968C144.863 45.8934 144.78 45.1285 145.017 44.3941Z" fill="#F7F5E9"/>
</svg>
