<svg width="60" height="82" viewBox="0 0 60 82" fill="none" xmlns="http://www.w3.org/2000/svg">
<path d="M58.3426 56.6375C57.5326 55.5716 56.4471 54.9135 55.108 54.6685V46.2956C57.9159 41.7059 59.5404 36.295 59.5404 30.5052C59.5404 13.9603 46.2887 0.5 30.0002 0.5C13.7116 0.5 0.459897 13.9603 0.459897 30.5052C0.459897 36.2948 2.08425 41.7054 4.89199 46.2951V54.6687C3.55269 54.9137 2.46735 55.5718 1.65742 56.6377C0.54217 58.1055 0 60.3017 0 63.3515C0 66.3285 0.516075 69.1536 1.45315 71.3063C2.97479 74.8021 5.04191 75.3239 6.13872 75.3239C7.23552 75.3239 9.30265 74.8019 10.8241 71.3063C11.7612 69.1536 12.2773 66.3285 12.2773 63.3515C12.2773 60.3017 11.7351 58.1056 10.6198 56.6379C9.80991 55.5719 8.72458 54.9138 7.38527 54.6689V49.786C12.5587 56.0365 20.1909 60.119 28.7543 60.4818V64.3161C26.5957 66.5466 25.4067 69.4916 25.4067 72.6231C25.4067 75.7896 26.6207 78.7664 28.8249 81.0055C29.1495 81.3352 29.5748 81.5 30.0002 81.5C30.4255 81.5 30.851 81.3352 31.1754 81.0055C33.3797 78.7664 34.5936 75.7896 34.5936 72.6231C34.5936 69.4921 33.4049 66.5475 31.2472 64.3173V60.4818C39.8099 60.1187 47.4415 56.0364 52.6147 49.7865V54.6689C51.2754 54.9138 50.1901 55.5719 49.3802 56.6379C48.2649 58.1056 47.7227 60.3017 47.7227 63.3515C47.7227 66.3285 48.2388 69.1536 49.1759 71.3063C50.6975 74.8021 52.7646 75.3239 53.8613 75.3239C54.9579 75.3239 57.0252 74.8019 58.5468 71.3063C59.4839 69.1536 60 66.3285 60 63.3515C60 60.3015 59.458 58.1055 58.3426 56.6375ZM4.89199 58.1779V70.7459C4.10384 69.3959 3.32399 66.9169 3.32399 63.3513C3.32416 59.8556 4.08672 58.6175 4.89199 58.1779ZM8.95295 63.3513C8.95295 66.9169 8.17327 69.3957 7.38511 70.7458V58.1779C8.19039 58.6175 8.95295 59.8558 8.95295 63.3513ZM48.466 46.1323V49.2623H45.3862C43.2433 49.2623 41.1501 48.9144 39.1462 48.2293C39.9401 45.9402 40.3669 43.5061 40.4016 41.0688C42.7992 41.0335 45.1947 40.6005 47.4487 39.7949C48.1233 41.8304 48.466 43.9564 48.466 46.1323ZM30.0003 57.0317L27.8218 54.8178C26.3057 53.2778 25.0681 51.5291 24.1295 49.607C26.2848 48.5573 28.2806 47.1421 30.0003 45.4445C31.7203 47.1422 33.7159 48.5575 35.8711 49.6072C34.9329 51.5286 33.6951 53.2776 32.1787 54.8181L30.0003 57.0317ZM11.5347 14.8782V11.7482H14.6145C16.7574 11.7482 18.8506 12.0962 20.8546 12.7814C20.0606 15.0712 19.634 17.5051 19.5991 19.9415C17.2015 19.9772 14.8058 20.4097 12.5518 21.2152C11.8772 19.1796 11.5347 17.0538 11.5347 14.8782ZM31.6852 43.5779C32.5411 42.5175 33.2981 41.3826 33.9474 40.1857C35.2394 40.5654 36.5652 40.8242 37.9107 40.9597C37.8881 43.1048 37.5216 45.2479 36.8355 47.2673C34.9445 46.3309 33.1937 45.0782 31.6852 43.5779ZM23.165 47.2672C22.4789 45.2482 22.1124 43.1046 22.0898 40.9596C23.4351 40.8242 24.7611 40.5654 26.0531 40.1855C26.7026 41.3828 27.4595 42.5176 28.3153 43.5779C26.8071 45.078 25.0562 46.3309 23.165 47.2672ZM28.315 17.4325C27.4605 18.4907 26.7033 19.6255 26.0521 20.8252C24.7601 20.4453 23.4346 20.1865 22.09 20.0511C22.1128 17.9069 22.4793 15.7637 23.1654 13.7435C25.0558 14.6795 26.8065 15.932 28.315 17.4325ZM36.8361 13.743C37.5216 15.7637 37.8881 17.9072 37.9107 20.0511C36.5657 20.1867 35.24 20.4455 33.9486 20.8252C33.2974 19.6257 32.54 18.4907 31.6855 17.4325C33.194 15.932 34.945 14.6791 36.8361 13.743ZM35.8296 29.1853C35.7613 29.3241 35.6888 29.4647 35.6147 29.6055C35.4719 28.6824 35.1124 27.8317 34.5917 27.1076C34.7402 27.1535 34.8907 27.2016 35.0444 27.2536C35.5183 27.412 35.9881 27.5928 36.4517 27.7903C36.2617 28.2615 36.0554 28.7281 35.8296 29.1853ZM35.6147 31.4045C35.6901 31.5473 35.7624 31.6873 35.8296 31.8235L35.8304 31.8271C36.0556 32.2829 36.2619 32.7488 36.4515 33.2202C35.9876 33.4177 35.5164 33.599 35.0392 33.7584C34.8887 33.8094 34.7394 33.8572 34.5913 33.9029C35.1122 33.1788 35.4717 32.328 35.6147 31.4045ZM35.8281 24.8498C35.7626 24.8276 35.6971 24.8057 35.6318 24.7844C35.6112 24.7194 35.5902 24.6546 35.569 24.5899C35.4114 24.1036 35.2352 23.6197 35.0426 23.1414C35.9378 22.8992 36.8503 22.7217 37.7739 22.6103C37.664 23.5481 37.4892 24.4746 37.2505 25.3834C36.7806 25.1879 36.3053 25.0091 35.8281 24.8498ZM32.6728 23.9521C32.8673 24.4241 33.0458 24.9028 33.2023 25.3863C33.2525 25.5392 33.2996 25.691 33.3446 25.8413C32.6316 25.3123 31.7939 24.9472 30.8847 24.8023C31.0172 24.7307 31.1548 24.6585 31.3027 24.5834C31.7487 24.3549 32.2072 24.1454 32.6728 23.9521ZM30.0002 33.7461C28.2409 33.7461 26.8095 32.2922 26.8095 30.5052C26.8095 28.7182 28.2409 27.2643 30.0002 27.2643C31.7595 27.2643 33.1909 28.7182 33.1909 30.5052C33.1909 32.2922 31.7595 33.7461 30.0002 33.7461ZM26.6561 25.8411C26.7013 25.6902 26.7486 25.5374 26.7998 25.3812C26.9554 24.9007 27.1334 24.4233 27.3277 23.9521C27.7936 24.1456 28.2532 24.3556 28.7016 24.5852C28.8472 24.6592 28.9833 24.7311 29.1153 24.8025C28.2065 24.9473 27.3689 25.3123 26.6561 25.8411ZM24.3858 29.6052C24.3115 29.4642 24.2391 29.3232 24.1703 29.1835C23.9454 28.7283 23.7395 28.263 23.55 27.7925C24.1563 27.5344 24.7761 27.3075 25.405 27.1132C24.8865 27.8359 24.5284 28.6844 24.3858 29.6052ZM24.1703 31.8271L24.1711 31.8235C24.2381 31.6873 24.3104 31.5475 24.3858 31.4047C24.5286 32.328 24.8883 33.1787 25.409 33.9027C25.2604 33.8568 25.11 33.8087 24.9564 33.7567C24.4826 33.5984 24.0127 33.4175 23.5491 33.22C23.7388 32.7492 23.9449 32.2831 24.1703 31.8271ZM24.4332 24.585C24.4114 24.6516 24.39 24.7181 24.3689 24.7842C23.8219 24.9624 23.282 25.1644 22.7509 25.3854C22.5118 24.4763 22.3368 23.5491 22.227 22.6103C23.1502 22.7219 24.0627 22.8993 24.9581 23.1416C24.7656 23.6189 24.5899 24.1014 24.4332 24.585ZM21.3088 28.9189C21.5038 29.392 21.7147 29.8594 21.9413 30.3176C21.9717 30.3794 22.0044 30.4422 22.0358 30.5045C22.0044 30.5666 21.9715 30.6296 21.9413 30.691L21.9406 30.6941C21.7142 31.1523 21.5035 31.6194 21.3088 32.0914C20.5077 31.6201 19.739 31.0901 19.008 30.5055C19.7385 29.9209 20.5072 29.3906 21.3088 28.9189ZM22.7502 35.6271C23.2199 35.8226 23.6952 36.0014 24.1724 36.1608C24.2379 36.1829 24.3034 36.2048 24.3687 36.2261C24.3895 36.2916 24.4106 36.3571 24.432 36.4226C24.5909 36.9107 24.7673 37.3938 24.9589 37.8693C24.0636 38.1115 23.1507 38.2888 22.2266 38.4004C22.3367 37.4624 22.5115 36.5359 22.7502 35.6271ZM27.3285 37.0577C27.1349 36.5882 26.9564 36.1099 26.7982 35.6242C26.748 35.4713 26.7009 35.3195 26.6559 35.1691C27.3684 35.6977 28.2055 36.0625 29.1138 36.2077C28.9747 36.2833 28.8359 36.3571 28.6979 36.4272C28.2547 36.6541 27.7959 36.8636 27.3285 37.0577ZM33.3393 35.1728C33.1478 35.8116 32.9246 36.4412 32.6705 37.057C32.2031 36.8629 31.7442 36.6532 31.2991 36.4253C31.1635 36.3564 31.0253 36.283 30.8867 36.2077C31.7929 36.063 32.6279 35.6994 33.3393 35.1728ZM35.632 36.2261C35.6958 36.2052 35.7596 36.1839 35.8231 36.1624C36.3033 36.0021 36.7801 35.8228 37.2503 35.6271C37.489 36.5357 37.6638 37.4622 37.7737 38.4004C36.8491 38.2888 35.9358 38.1112 35.0402 37.8689C35.2578 37.3295 35.4566 36.7815 35.632 36.2261ZM38.6917 32.0914C38.497 31.6192 38.2863 31.1523 38.0601 30.6943L38.0594 30.691C38.0292 30.6296 37.9963 30.5666 37.9648 30.5045C37.9961 30.4429 38.0285 30.3806 38.0586 30.3195C38.2856 29.8601 38.4969 29.392 38.6918 28.9189C39.4933 29.3904 40.2618 29.9205 40.9926 30.5055C40.2617 31.0901 39.4931 31.6199 38.6917 32.0914ZM31.5619 21.6765C31.0938 21.8754 30.6331 22.0903 30.184 22.3203C30.1217 22.352 30.0603 22.3834 30.0002 22.4146C29.9412 22.3839 29.881 22.3532 29.82 22.3221C29.3689 22.0912 28.9072 21.8758 28.4386 21.6767C28.9042 20.861 29.4259 20.0803 30.0003 19.3399C30.5746 20.08 31.0965 20.8608 31.5619 21.6765ZM19.7071 22.4712C19.8407 23.838 20.0958 25.1847 20.47 26.4953C19.2921 27.1545 18.1747 27.9237 17.1295 28.7943C15.6534 27.2622 14.4205 25.4835 13.4984 23.5623C15.4867 22.8661 17.5966 22.4942 19.7071 22.4712ZM17.1299 32.2172C18.1758 33.0878 19.2934 33.8568 20.4701 34.5152C20.0958 35.8265 19.8407 37.1727 19.7073 38.5391C17.5964 38.5162 15.4872 38.1439 13.4992 37.447C14.4212 35.526 15.6541 33.7479 17.1299 32.2172ZM28.4391 39.3333C28.9088 39.1336 29.3696 38.919 29.8163 38.6902C29.8773 38.6593 29.9385 38.6278 30.0002 38.5955C30.0607 38.6273 30.1208 38.6582 30.1803 38.6884C30.6293 38.9182 31.0908 39.1332 31.5612 39.3333C31.0966 40.1477 30.5751 40.9283 30 41.67C29.4254 40.9287 28.9039 40.148 28.4391 39.3333ZM40.2934 38.5395C40.1598 37.1725 39.9047 35.826 39.5305 34.5152C40.7076 33.8565 41.8249 33.0877 42.8708 32.2172C44.3467 33.7483 45.5798 35.5267 46.5021 37.4482C44.5138 38.1444 42.4039 38.5167 40.2934 38.5395ZM42.8708 28.7943C41.8253 27.9234 40.7076 27.154 39.5303 26.4953C39.9047 25.184 40.1598 23.8378 40.2934 22.4714C42.4046 22.4943 44.5134 22.8666 46.5014 23.5635C45.5795 25.4842 44.3464 27.2627 42.8708 28.7943ZM48.466 14.8782C48.466 17.0547 48.1235 19.181 47.449 21.2162C45.1957 20.4099 42.8002 19.9762 40.4016 19.941C40.3667 17.5058 39.9404 15.0718 39.1472 12.7814C41.1509 12.0962 43.2438 11.748 45.3862 11.748H48.466V14.8782ZM30.0002 15.566C28.2802 13.8681 26.2846 12.4529 24.1294 11.4033C25.0681 9.4804 26.3057 7.73071 27.8217 6.19087L30.0002 3.97827L32.1787 6.19087C33.6946 7.73071 34.9324 9.48023 35.871 11.4033C33.7156 12.453 31.7198 13.8685 30.0002 15.566ZM11.1951 24.5422C12.2287 26.7315 13.6216 28.7585 15.2921 30.5057C13.6221 32.2515 12.2291 34.2784 11.1951 36.4682C9.30464 35.5169 7.58207 34.26 6.06392 32.7191L3.88494 30.5047L6.06359 28.2917C7.58024 26.7512 9.30265 25.4943 11.1951 24.5422ZM11.5347 46.1323C11.5347 43.9558 11.8772 41.8295 12.5517 39.7943C14.805 40.6007 17.2008 41.0342 19.5991 41.0695C19.634 43.5068 20.0606 45.9409 20.8544 48.2293C18.8508 48.9144 16.7576 49.2623 14.6146 49.2623H11.5348L11.5347 46.1323ZM48.8054 36.4682C47.7714 34.2784 46.3784 32.2513 44.7084 30.5058C46.3788 28.759 47.7716 26.7316 48.8054 24.5423C50.6978 25.4943 52.4203 26.7512 53.9369 28.2917L56.1156 30.5047L53.9372 32.7184C52.4186 34.2598 50.696 35.5169 48.8054 36.4682ZM55.6999 26.501C53.948 24.7214 51.9516 23.277 49.7548 22.1942C50.5536 19.847 50.9591 17.3918 50.9591 14.878V14.5269C53.5585 18.0359 55.3236 22.2159 55.956 26.761L55.6999 26.501ZM45.3862 9.21568C42.9115 9.21568 40.4942 9.62761 38.1831 10.4397C37.1152 8.20646 35.6928 6.17889 33.9418 4.40033L33.6863 4.14085C38.1606 4.78322 42.2756 6.57579 45.7301 9.21568H45.3862ZM26.0589 4.40033C24.3077 6.17905 22.8853 8.20679 21.8178 10.4391C19.5068 9.62761 17.0895 9.21568 14.6143 9.21568H14.2703C17.7247 6.57579 21.8399 4.78322 26.3142 4.14085L26.0589 4.40033ZM10.2462 22.194C8.04844 23.2773 6.05229 24.7216 4.30063 26.501L4.04433 26.7613C4.67675 22.2161 6.44188 18.0359 9.04137 14.5267V14.878C9.04153 17.3915 9.44708 19.8465 10.2462 22.194ZM4.30112 34.5098C6.05511 36.2899 8.05144 37.7344 10.2459 38.8162C9.44708 41.1633 9.04154 43.6187 9.04154 46.1323V46.4835C6.44205 42.9745 4.67692 38.7942 4.0445 34.249L4.30112 34.5098ZM14.6145 51.7947C17.0896 51.7947 19.5071 51.3827 21.8179 50.5712C22.8853 52.8025 24.3076 54.8294 26.0587 56.6082L26.316 56.8697C21.8412 56.2275 17.7256 54.4349 14.2708 51.7947H14.6145ZM33.9416 56.6085C35.6933 54.8293 37.1157 52.802 38.1827 50.5714C40.4937 51.3829 42.911 51.7948 45.3862 51.7948H45.7297C42.2749 54.4349 38.1595 56.2276 33.6847 56.8697L33.9416 56.6085ZM49.7543 38.8164C51.9497 37.734 53.9459 36.2896 55.7 34.5092L55.9558 34.2492C55.3234 38.7942 53.5583 42.9743 50.959 46.4833V46.1323C50.9591 43.619 50.5536 41.1638 49.7543 38.8164ZM30.0002 77.1233C29.1733 75.7874 28.7307 74.2397 28.7307 72.6229C28.7307 71.0061 29.1733 69.4585 30.0002 68.1226C30.8271 69.4585 31.2697 71.0061 31.2697 72.6229C31.2697 74.2397 30.8271 75.7875 30.0002 77.1233ZM52.6149 58.1779V70.7458C51.8267 69.3957 51.0471 66.9167 51.0471 63.3513C51.0471 59.8558 51.8096 58.6175 52.6149 58.1779ZM55.108 70.7459V58.1779C55.9133 58.6175 56.676 59.8556 56.676 63.3513C56.6758 66.9169 55.8962 69.3959 55.108 70.7459Z" fill="white"/>
</svg>
