<svg width="80" height="80" viewBox="0 0 80 80" fill="none" xmlns="http://www.w3.org/2000/svg">
<path d="M25.8824 0.00168068C25.7647 0.312598 25.6303 0.640323 25.5294 0.993256C24.9412 2.83019 24.6723 5.0083 25.4454 6.5881C25.5294 6.75952 25.5798 6.80322 25.6471 6.93599C26.4706 6.25197 27.8319 5.39821 29.8151 5.45871C31.4622 5.50745 32.8235 6.47045 33.6134 7.66538C34.4034 8.86032 34.7731 10.2805 34.8403 11.6989C34.9076 13.1157 34.6891 14.5392 34.084 15.7829C33.479 17.0265 32.3529 18.1694 30.8067 18.3878C28.2689 18.7576 26.437 17.3627 25.5126 16.7576C25.3613 16.6736 25.2941 16.6568 25.2101 16.6064C25.1597 16.6904 25.1429 16.6904 25.0588 16.8921C24.9748 17.0601 24.9076 18.2702 25.2605 19.85C25.395 20.4214 25.5462 21.0433 25.7479 21.6819C29.2101 21.5979 32.605 21.8668 35.042 22.8079C36.2857 23.2785 37.1597 23.6987 37.7647 24.5726C38.3697 25.4465 38.2185 26.6062 37.9664 27.2616C37.479 28.5725 36.874 29.312 37.0588 30.9926C37.1429 31.6313 37.3277 31.8329 37.7311 32.0514C38.1345 32.2699 38.8235 32.3876 39.563 32.2699C41.042 32.0682 42.4034 31.0599 42.5546 30.0179C42.7731 28.5221 42.4538 28.5557 41.8992 27.8666C41.7647 27.6818 41.563 27.4633 41.4118 27.0431C41.2605 26.6062 41.2941 25.9003 41.5462 25.4465C42.0336 24.539 42.6387 24.2869 43.5798 23.7827C45.0588 22.976 46.7059 23.144 48.5042 23.4298C49.7647 23.6314 51.126 23.9508 52.5042 24.3037C52.1176 22.7743 51.7647 21.2617 51.5462 19.85C51.2605 17.9509 51.1429 16.203 52 14.6568C52.3025 14.1358 52.5378 13.7358 52.8403 13.3863C53.126 13.0367 53.479 12.6518 54.1681 12.5056C54.8571 12.3577 55.5798 12.7241 55.8824 13.0115C56.2017 13.2989 56.3361 13.5325 56.4706 13.7358C56.7395 14.1358 56.958 14.4384 57.1597 14.5728C57.3613 14.7241 57.5126 14.8417 58.1345 14.7409C58.5546 14.6904 58.958 14.4047 59.3277 13.7997C59.7143 13.2014 59.9832 12.309 60.0336 11.4435C60.0672 10.5779 59.8992 9.75946 59.5966 9.27207C59.3109 8.78637 59.0588 8.57629 58.4034 8.53932C57.5294 8.4889 57.1765 8.6536 56.9748 8.78301C56.7731 8.91074 56.6891 9.0351 56.521 9.32249C56.4202 9.46535 56.4034 9.67375 55.8655 10.0468C55.5966 10.2334 55.042 10.4048 54.5882 10.3073C54.1176 10.2082 53.8655 9.97626 53.6975 9.8082C53.042 9.14098 52.958 8.70066 52.437 7.61329C51.1765 4.98981 51.3109 2.1613 51.7647 0L25.8824 0.00168068ZM54.9748 0.00168068C54.5378 1.82853 54.2353 4.36798 55.1597 6.30239C55.1765 6.32424 55.1765 6.33096 55.1933 6.35281C55.2437 6.31751 55.2773 6.27886 55.3277 6.24525C56.1176 5.73938 57.2101 5.44022 58.5714 5.51921C60.1681 5.60997 61.4958 6.54776 62.2017 7.72757C62.9076 8.90569 63.1261 10.2721 63.042 11.6098C62.9748 12.9476 62.605 14.2703 61.8992 15.4131C61.1933 16.5391 60.0504 17.5307 58.5714 17.7324C57.2941 17.9173 56.1345 17.5811 55.3613 17.0265C55.042 16.7912 54.8067 16.5391 54.5882 16.2871C54.4202 16.7744 54.3193 17.9005 54.5378 19.413C54.7899 21.0601 55.3109 23.0768 55.8487 25.1272C55.8487 25.144 55.8487 25.1608 55.8655 25.1608C57.3277 25.5474 58.7563 25.8835 60.0336 26.0852C61.7479 26.3541 63.1597 26.3373 63.8319 26.0852C64.1681 25.9675 64.2857 25.8835 64.4202 25.7995C64.4202 25.7826 64.4202 25.7826 64.4034 25.7658C63.7479 24.8415 62.0336 22.9256 62.2353 20.0685C62.3529 18.4383 63.479 17.1106 64.7731 16.5728C65.4286 16.3039 66.1176 16.1694 66.8067 16.1358C67.5126 16.1022 68.2185 16.1526 68.9244 16.2871C70.3193 16.5391 71.6975 17.0938 72.8571 17.9173C74.0168 18.7408 75.0084 19.8836 75.2269 21.413C75.563 23.7323 74.3361 25.3457 73.6639 26.1524L73.6975 26.186C74.6891 26.6566 76.9244 26.4213 78.8403 25.7995C79.2437 25.6818 79.6303 25.5306 80 25.3961V0.00168068H54.9748ZM67.2941 19.1609C66.7395 19.1609 66.2521 19.245 65.9328 19.3626C65.4286 19.5811 65.2941 19.6819 65.2605 20.2702C65.1429 21.8836 66.0168 22.8079 66.8739 24.018C67.0924 24.3205 67.3109 24.6398 67.479 25.06C67.6639 25.4969 67.7647 26.1356 67.5798 26.7406C67.1765 27.9675 66.1513 28.4549 64.874 28.9254C63.2605 29.5305 61.479 29.3792 59.5462 29.0767C58.6218 28.9254 57.6639 28.7238 56.6891 28.4885C56.9076 29.4296 57.1092 30.3708 57.2437 31.2783C57.5462 33.2279 57.6639 35.043 56.9244 36.6564C56.4034 37.816 56.2353 38.4715 55.2773 39.0933C54.8067 39.3958 53.916 39.4462 53.4286 39.2277C52.958 39.0093 52.7731 38.774 52.5882 38.5891C51.8824 37.8664 51.7311 37.3454 50 37.4463C49.3782 37.4799 49.1933 37.6479 48.9412 38.1521C48.6891 38.6395 48.5546 39.4966 48.6387 40.3874C48.7395 41.2949 49.042 42.2025 49.4286 42.7739C49.7983 43.3621 50.1008 43.4966 50.3193 43.4966C51.4958 43.5134 52.1345 42.942 53.2437 42.3705C53.7983 42.068 54.7227 41.7151 55.6975 42.1016C56.6555 42.4882 57.1597 43.2781 57.6471 44.2697C58.4706 45.9671 58.8235 48.3536 58.9412 51.009C59.0924 50.9922 59.2605 50.9586 59.4118 50.925C61.2941 50.6057 63.042 50.4544 64.6555 51.0426C65.2941 51.2779 65.7815 51.4964 66.2353 51.7989C66.6723 52.1014 67.1597 52.572 67.3109 53.2611C67.4622 53.9669 67.1933 54.5888 66.958 54.9585C66.7227 55.3451 66.4706 55.5803 66.2353 55.8324C65.2773 56.7904 64.4874 57.3786 64.6723 58.7063C64.7395 59.1769 65.042 59.6139 65.7647 60.034C66.4706 60.471 67.5294 60.7903 68.5882 60.8744C69.6471 60.9584 70.6891 60.8071 71.3614 60.5214C72.0168 60.2357 72.2017 60.0004 72.2521 59.6475C72.437 58.4206 71.7479 57.7148 70.8908 56.5719C70.4706 56.0005 69.8655 55.261 69.9664 54.1014C70.0672 52.9417 70.958 52.1014 72.0672 51.4628C74.5714 50.051 77.4958 50.6393 79.7479 51.3619C79.8319 51.3956 79.916 51.4124 80 51.446V28.6061C79.916 28.6397 79.8487 28.6565 79.7647 28.6902C77.563 29.396 74.8067 30.0851 72.3698 28.8918C71.8824 28.6565 71.479 28.4212 71.1092 28.1019C70.7395 27.7658 70.3866 27.2952 70.2857 26.6902C70.2017 26.0852 70.4034 25.5474 70.5882 25.2112C70.7899 24.8751 70.9916 24.6398 71.1597 24.4213C71.8992 23.581 72.437 23.1945 72.2353 21.85C72.1849 21.4466 71.8319 20.892 71.1092 20.371C70.3866 19.8668 69.3613 19.4466 68.3698 19.2618C68 19.1946 67.6303 19.1609 67.2941 19.1609ZM26.7731 24.707H26.6723L26.8908 25.3961C27.5126 27.4129 28.1513 29.4801 28.5042 31.396C28.8403 33.3119 28.9916 35.1102 28.1681 36.7236C27.8824 37.295 27.6134 37.732 27.2773 38.1353C26.9412 38.5219 26.4202 38.9588 25.6639 38.9925C24.9244 39.0261 24.3697 38.6227 24.0672 38.3202C23.7815 38.0345 23.5966 37.7824 23.4286 37.5303C23.0588 37.0261 22.7395 36.5891 22.3866 36.337C22.0504 36.0681 21.7479 35.9169 21.0084 36.0009C20.4874 36.0681 20.084 36.3539 19.6639 37.0429C19.2605 37.7488 18.9748 38.7908 18.9076 39.8496C18.8571 40.9084 19.042 41.9672 19.3613 42.6562C19.6807 43.3453 19.9832 43.5806 20.3866 43.631C21.7311 43.8327 22.4874 43.1436 23.6471 42.3369C24.2185 41.9336 24.9244 41.379 26.0672 41.463C27.2101 41.547 28.0672 42.4378 28.6555 43.4966C29.479 45.0091 29.2773 46.673 28.9748 48.5217C28.6555 50.3536 28.1008 52.4039 27.5462 54.4543C27.5126 54.572 27.479 54.6728 27.4454 54.7904C30.3866 54.6224 33.1429 54.1182 34.4706 53.4627C34.4874 53.4627 34.4874 53.4627 34.4874 53.4459C34 52.6896 33.7143 51.6308 33.7815 50.3031C33.8487 48.6897 34.7563 47.362 35.8824 46.5889C37.0084 45.8158 38.3361 45.4965 39.6471 45.4461C40.958 45.3957 42.2521 45.6142 43.3613 46.2192C44.4874 46.8242 45.4958 47.9839 45.5294 49.4628C45.563 51.1939 44.8908 52.4375 44.5378 53.009C44.7059 53.1434 44.9412 53.3115 45.3109 53.5132C45.6303 53.698 46.7563 53.8325 48.2689 53.5804C49.7815 53.3451 51.6639 52.8409 53.5966 52.3199C54.3697 52.1182 55.1429 51.8997 55.916 51.6981C55.7983 48.9586 55.3782 46.5217 54.9244 45.5974C54.7899 45.2948 54.6891 45.1772 54.605 45.0764C53.9664 45.4125 52.4706 46.5553 50.2689 46.5217C48.7731 46.5049 47.6134 45.5301 46.8908 44.4377C46.1849 43.3453 45.7647 42.0344 45.6303 40.7067C45.4958 39.3622 45.6134 37.9841 46.2521 36.7572C46.8908 35.5303 48.2185 34.522 49.8319 34.4211C51.7815 34.3203 53.1429 35.127 53.9664 35.7824C54.0336 35.6312 54.1008 35.5808 54.1849 35.3959C54.437 34.8245 54.521 33.4464 54.2521 31.7321C54.0672 30.5052 53.7479 29.0935 53.3782 27.6482C51.4286 27.144 49.563 26.6566 48.0336 26.4213C46.4706 26.1692 45.2941 26.3036 45.0252 26.4381C44.874 26.5221 44.8403 26.5725 44.7227 26.6398C45.2101 27.4129 45.7983 28.7238 45.5462 30.4548C45.1261 33.3119 42.4706 34.9253 39.9832 35.2782C38.7395 35.4463 37.4286 35.3287 36.2857 34.7068C35.1429 34.085 34.2185 32.8413 34.0504 31.3287C33.7647 28.7238 34.8908 26.8583 35.1261 26.2028C35.0084 26.1188 34.7059 25.9171 33.9664 25.6314C32.4706 25.06 29.6975 24.7238 26.7731 24.707ZM23.5294 24.8415C20.3697 25.0936 17.4454 25.7658 16.3025 26.3877C16 26.5557 15.8655 26.6734 15.7647 26.7742C16.2017 27.4297 17.563 29.0095 17.3613 31.3456C17.2437 32.8077 16.1681 33.9337 15.0084 34.4379C13.8487 34.9589 12.5563 35.0598 11.2639 34.9085C9.97311 34.7404 8.67563 34.3035 7.57647 33.5304C6.47731 32.7405 5.56303 31.5136 5.37311 29.9842C5.20504 28.6397 5.51261 27.4801 6.03866 26.6734C6.23361 26.3709 6.44706 26.1356 6.65546 25.9339C6.63025 25.9171 6.62857 25.9171 6.60168 25.9003C5.05714 25.1104 2.83025 25.2785 0.951261 25.7995C0.613445 25.8835 0.30084 25.9843 0 26.0852V54.0342C0.297479 54.135 0.608404 54.2358 0.942857 54.3199C2.81513 54.8409 5.04202 55.0257 6.61513 54.2358C6.92605 54.0846 7.04706 53.9837 7.21345 53.8661C6.59496 53.093 5.48067 51.5132 5.73277 49.1603C5.90252 47.5973 6.87899 46.3536 8.0521 45.6478C9.22521 44.9419 10.5832 44.673 11.9227 44.673C13.2605 44.673 14.5882 44.9587 15.7479 45.6142C16.8908 46.2528 17.916 47.3788 18.1176 48.8578C18.4034 51.0426 17.2437 52.5552 16.6218 53.2947C16.7227 53.3619 16.7395 53.3955 16.9244 53.4964C18 54.1014 21.0588 54.6896 24.3025 54.8073C24.4202 54.4207 24.521 54.051 24.6218 53.6644C25.1765 51.614 25.7143 49.6141 25.9832 48.0175C26.2521 46.4041 26.1345 45.194 26 44.9587C25.8655 44.7066 25.8151 44.6562 25.7647 44.589C25.6807 44.6394 25.563 44.6898 25.3782 44.8243C24.4202 45.4797 22.5714 47.0091 19.9496 46.6225C18.3697 46.4041 17.2269 45.2108 16.6218 43.9335C16.0168 42.6394 15.8151 41.1605 15.8992 39.6983C15.9664 38.2362 16.3193 36.7572 17.0588 35.5135C17.7983 34.2531 19.0588 33.1775 20.6891 32.9926C22.1176 32.8413 23.3613 33.2783 24.2017 33.9169C24.8067 34.3539 25.1933 34.8413 25.5126 35.2614C25.7311 34.7404 25.8151 33.5304 25.5126 31.9338C25.2269 30.2868 24.6218 28.3036 24 26.3036C23.8487 25.8163 23.6807 25.3289 23.5294 24.8415ZM11.9076 47.6982C11.0235 47.6982 10.158 47.8998 9.60672 48.236C9.05546 48.5721 8.80504 48.8914 8.74118 49.4796C8.56807 51.1098 9.13781 51.4292 9.86555 52.3535C10.0487 52.5888 10.2622 52.8577 10.4269 53.2947C10.5933 53.7316 10.6202 54.4207 10.3815 54.9585C9.90756 56.0173 9.11765 56.3702 7.96639 56.9585C5.30756 58.2694 2.37143 57.8492 0.137815 57.2442C0.0907563 57.2274 0.0470588 57.2106 0 57.1938V80H22.9076C22.4706 78.0337 22.3866 75.5631 23.6639 73.3111C24.2185 72.3363 24.4706 71.7817 25.1933 71.2607C25.5462 70.9918 26.2353 70.7733 26.7731 70.9078C27.3109 71.0254 27.5798 71.2775 27.7479 71.4287C28.084 71.7313 28.1849 71.8489 28.3697 71.9329C28.5546 72.017 28.8067 72.1178 29.479 72.0338C29.7479 72.0002 30.1681 71.7481 30.5714 71.0254C30.9916 70.3195 31.3109 69.2607 31.395 68.2187C31.479 67.1935 31.3109 66.1852 31.0252 65.5969C30.7395 65.0087 30.5378 64.8238 29.9496 64.7902C29.1765 64.7398 28.8403 64.9247 28.5042 65.1936C28.1681 65.4625 27.8824 65.8995 27.6134 66.37C27.4622 66.5885 27.3445 66.8238 27.0924 67.1263C26.9748 67.2776 26.8067 67.4624 26.4874 67.6305C26.1849 67.8154 25.6471 67.9162 25.2101 67.7986C24.3193 67.5801 24.1008 67.0423 23.8824 66.6557C23.6639 66.2524 23.479 65.8154 23.2437 65.2104C22.6387 63.5802 22.8067 61.7651 23.1429 59.7987C23.2605 59.1601 23.395 58.4878 23.5462 57.8156C20.3529 57.6979 17.4286 57.2442 15.4454 56.1518C14.437 55.5803 13.6437 55.093 13.358 53.9837C13.2168 53.4291 13.3412 52.8241 13.5261 52.4544C13.7076 52.0678 13.916 51.8325 14.084 51.614C14.8067 50.7569 15.2773 50.5048 15.1092 49.2443C15.0588 48.8914 14.8571 48.5721 14.2689 48.2528C13.4756 47.8998 12.6336 47.6982 11.9076 47.6982ZM75.563 53.6812C74.7731 53.6812 74.0672 53.8157 73.5462 54.1014C73.2605 54.2694 73.1765 54.3535 73.0924 54.4039C73.1429 54.4879 73.1765 54.5888 73.3109 54.7736C74 55.6812 75.6303 57.4795 75.2437 60.0844C75.0252 61.6474 73.8151 62.7735 72.5378 63.3113C71.2437 63.8491 69.7983 64.0003 68.3361 63.8827C66.8908 63.765 65.4454 63.3785 64.2017 62.639C62.9748 61.8995 61.8824 60.6895 61.6807 59.1097C61.3277 56.5551 62.9076 54.8745 63.8151 53.9669C63.7311 53.9333 63.7311 53.9333 63.6134 53.8829C62.958 53.6476 61.5798 53.6308 59.916 53.9165C59.6134 53.9669 59.2941 54.0173 58.9748 54.0846C58.9076 57.7316 58.4706 61.4122 57.479 63.9499C56.9916 65.2104 56.5714 66.1179 55.563 66.6557C55.042 66.9246 54.4202 66.9919 53.9328 66.9078C53.4622 66.807 53.1092 66.6389 52.7899 66.4709C51.5294 65.7986 50.6891 65.0423 48.9244 65.1096C48.3025 65.1264 48.2521 65.2272 48.0504 65.6978C47.8655 66.1684 47.7815 67.0759 47.9664 68.0171C48.1345 68.9582 48.5378 69.933 49.0084 70.5716C49.4622 71.2103 49.8824 71.3951 50.0672 71.4119C51.1933 71.4287 51.2605 71.0422 52.1008 70.3363C52.3025 70.1515 52.5714 69.9162 53.042 69.7649C53.5126 69.6137 54.1849 69.6809 54.6387 69.9162C55.563 70.4036 55.8992 71.059 56.4874 72.101C57.8824 74.5715 57.5294 77.4622 57.0252 79.7143C57.0084 79.8151 56.9748 79.8992 56.958 80H80V54.656C79.6303 54.5215 79.2437 54.3703 78.8403 54.2526C77.7647 53.8997 76.5882 53.698 75.563 53.6812Z" fill="white"/>
</svg>
