<svg width="162" height="210" viewBox="0 0 162 210" fill="none" xmlns="http://www.w3.org/2000/svg">
<path d="M55.1441 165.789C54.4135 165.259 54.4891 164.861 54.9173 164.552C55.8998 163.822 56.9075 163.071 57.9403 162.341L86.2555 144.414C95.7275 138.556 104.897 132.632 114.319 126.641C123.74 120.651 132.734 115.345 142.029 109.708C142.422 109.455 142.834 109.226 143.264 109.023C143.768 108.78 144.422 108.78 144.574 109.023C144.725 109.266 144.574 109.686 144.221 109.929C143.868 110.173 143.138 110.814 142.584 111.189C132.356 118.042 121.927 124.652 111.397 131.084C104.242 135.505 97.1046 139.926 89.9838 144.347L60.9381 162.474C59.0235 163.579 57.0838 164.684 55.1441 165.789Z" fill="#F7F5E9"/>
<path d="M25.4182 136.323C24.8388 136.102 24.738 135.771 25.0151 135.439C25.715 134.575 26.472 133.749 27.2823 132.963C32.7992 128.078 38.3666 123.215 43.9087 118.329C53.9852 109.487 64.0618 100.645 74.1384 91.8032C79.1767 87.3821 84.5928 83.1379 89.8327 78.8274L92.3518 76.86C93.1075 77.0811 93.2839 77.4126 92.8304 77.8326C90.4373 80.0432 88.0944 82.4968 85.6005 84.7074C76.456 92.8421 67.3871 100.623 58.3434 108.537C54.3883 111.985 50.4584 115.456 46.4782 118.882C40.4826 124.055 34.4367 129.205 28.4159 134.356C27.5557 135.161 26.5411 135.827 25.4182 136.323Z" fill="#F7F5E9"/>
<path d="M21.715 145.895C21.06 148.702 20.531 151.266 19.9012 153.808C18.0203 161.177 16.1057 168.545 14.1576 175.914C12.6965 181.418 11.1346 186.966 9.59794 192.404C9.40277 193.088 9.11523 193.748 8.74143 194.372C8.74143 194.571 8.13683 194.814 7.98569 194.747C7.63632 194.598 7.36569 194.337 7.22994 194.018C7.20383 193.672 7.264 193.325 7.40628 193.001C8.74143 187.895 10.0766 182.833 11.4117 177.704C13.9309 167.58 16.9035 157.611 19.9012 147.619C20.128 146.934 20.3547 146.248 20.6066 145.585C20.6066 145.431 21.0852 145.254 21.1608 145.298C21.3839 145.467 21.5715 145.669 21.715 145.895Z" fill="#F7F5E9"/>
<path d="M13.5026 197.046C13.7066 196.76 13.9339 196.486 14.1828 196.228L21.7402 189.973C24.5617 187.762 27.4335 185.353 30.2801 183.054C33.9581 180.106 37.6444 177.159 41.3391 174.212C42.2345 173.501 43.1766 172.836 44.1606 172.222C44.3117 172.112 44.74 172.222 44.9919 172.355C45.2438 172.487 45.1179 172.797 44.9919 172.929C44.6049 173.381 44.1751 173.802 43.7071 174.189L31.1114 184.689C26.98 188.035 22.8402 191.387 18.692 194.747C17.508 195.72 16.1729 196.604 15.0141 197.511C14.4347 197.931 14.2332 197.864 13.5026 197.046Z" fill="#F7F5E9"/>
<path d="M78.3958 44.7632C77.8163 44.6305 77.6148 44.3432 77.8163 43.9453C78.3454 42.84 78.8744 41.7347 79.479 40.6516C82.6195 35.1547 85.7936 29.6505 89.0013 24.1389C90.0846 22.2379 91.1678 20.3368 92.3266 18.4579C92.7297 17.7947 92.9816 16.9989 94.0144 16.6011C94.1656 16.8221 94.4931 17.0432 94.4427 17.2421C94.3347 17.6505 94.1652 18.0445 93.9389 18.4137C89.5388 26.1505 85.0967 33.8874 80.6126 41.6242C80.0644 42.7654 79.3164 43.8245 78.3958 44.7632Z" fill="#F7F5E9"/>
<path d="M124.546 79.4021C122.027 79.0926 118.954 78.7611 116.032 78.3411C113.11 77.9211 109.86 77.3684 106.786 76.86C105.838 76.6963 104.904 76.4747 103.99 76.1968C103.814 76.1968 103.663 75.7547 103.663 75.5116C103.663 75.2684 103.94 75.1579 104.141 75.1137C104.618 75.058 105.101 75.058 105.577 75.1137C111.976 75.8432 118.349 76.6389 124.672 77.7884C125.366 77.9456 126.041 78.1603 126.688 78.4295C126.783 78.4851 126.86 78.5609 126.913 78.6497C126.966 78.7386 126.992 78.8377 126.99 78.9379C126.972 79.0392 126.923 79.1342 126.847 79.2122C126.772 79.2903 126.673 79.3484 126.562 79.38C125.891 79.4176 125.218 79.425 124.546 79.4021Z" fill="#F7F5E9"/>
<path d="M136.034 83.5358C136.915 82.9832 137.319 83.3368 137.671 83.7347C138.654 84.8621 139.636 85.9453 140.568 87.1168C142.483 89.4821 144.347 91.8695 146.211 94.2568C146.632 94.7737 146.987 95.3297 147.269 95.9147C147.303 96.0416 147.297 96.1742 147.253 96.2986C147.209 96.423 147.127 96.5347 147.017 96.6221C146.88 96.6807 146.729 96.7112 146.576 96.7112C146.424 96.7112 146.273 96.6807 146.136 96.6221C145.753 96.3785 145.421 96.0795 145.153 95.7379C143.289 93.3505 141.425 90.9632 139.586 88.5537C138.729 87.4484 137.923 86.3432 137.067 85.1716C136.714 84.7295 136.386 84.1547 136.034 83.5358Z" fill="#F7F5E9"/>
<path d="M106.786 11.2074C107.356 11.1536 107.93 11.1536 108.5 11.2074L121.649 13.0421L122.556 13.3074C122.959 13.3074 123.337 13.5947 123.312 14.0147C123.287 14.4347 122.859 14.5895 122.43 14.5895C122.029 14.6336 121.623 14.6336 121.221 14.5895C116.871 13.9263 112.513 13.2411 108.147 12.5337C107.688 12.4268 107.26 12.2387 106.887 11.9811C106.887 11.9811 106.837 11.5168 106.786 11.2074Z" fill="#F7F5E9"/>
<path d="M92.9312 70.7368C92.1503 70.5379 91.848 69.9189 91.4197 69.4105C84.5928 61.2758 82.5775 58.6674 81.7966 56.8989C82.1633 56.8424 82.5384 56.8424 82.905 56.8989C83.1569 56.8989 83.3333 57.2747 83.5348 57.5179L92.377 68.3716C92.7801 68.88 93.1327 69.4326 93.5106 69.9853C93.6618 70.1621 93.6114 70.1842 92.9312 70.7368Z" fill="#F7F5E9"/>
<path d="M157.446 104.624C158.303 105.663 159.714 106.172 160.142 107.321C160.079 107.572 159.919 107.797 159.69 107.958C159.461 108.119 159.176 108.206 158.882 108.205C158.555 108.227 158.227 108.227 157.9 108.205C156.212 108.205 156.212 108.205 155.784 109.797C155.633 110.283 155.557 110.769 155.356 111.234C155.154 111.698 154.902 112.096 154.65 112.582C154.201 112.502 153.788 112.308 153.462 112.026C153.135 111.743 152.909 111.384 152.811 110.991C152.509 110.106 152.181 109.244 151.829 108.382C151.654 108.09 151.443 107.815 151.199 107.564C150.569 108.294 150.015 108.891 149.461 109.487C149.203 109.754 148.926 110.005 148.629 110.239C148.352 110.438 147.672 110.239 147.622 109.952C147.546 109.468 147.546 108.977 147.622 108.493C147.622 107.807 148 107.144 148.176 106.481C147.395 106.147 146.518 106.023 145.657 106.127C145.264 106.173 144.866 106.173 144.473 106.127C144.12 105.995 143.692 105.729 143.642 105.464C143.649 105.3 143.698 105.14 143.785 104.994C143.873 104.849 143.996 104.723 144.145 104.624C145.506 103.718 146.891 102.878 148.252 101.994C148.392 101.887 148.512 101.76 148.604 101.618L146.261 99.4074C146.261 98.6337 146.765 98.4347 147.37 98.4568C147.974 98.4789 148.806 98.4568 149.662 98.6337L150.418 97.1084C150.872 96.1358 151.35 95.1632 151.778 94.1684C151.955 93.7705 152.03 93.3063 152.66 93.3726C153.29 93.4389 153.416 93.9032 153.517 94.301C153.869 95.4726 154.146 96.6442 154.449 97.7495C155.356 98.0368 155.658 97.2632 156.262 97.1747C156.867 97.0863 157.169 97.3295 157.144 97.6832C157.144 98.4347 156.943 99.1863 156.817 100.071L160.696 101.109C161.003 101.172 161.299 101.269 161.578 101.397C161.694 101.466 161.792 101.556 161.864 101.661C161.936 101.767 161.981 101.885 161.995 102.007C162.009 102.129 161.993 102.253 161.947 102.369C161.901 102.485 161.827 102.591 161.729 102.679C161.335 102.918 160.923 103.132 160.495 103.32L157.446 104.624Z" fill="#F7F5E9"/>
<path d="M96.4076 4.73053C97.0374 3.09474 97.5916 1.70211 98.171 0.309474C98.171 0.309474 98.4229 0.154737 98.7 0C99.4306 1.70211 99.6825 3.49263 100.64 5.21684L103.159 4.02316C103.286 4.06096 103.402 4.12236 103.5 4.20318C103.597 4.284 103.674 4.38232 103.724 4.49145C103.774 4.60057 103.797 4.71792 103.791 4.83548C103.784 4.95304 103.749 5.06804 103.688 5.17263C103.486 5.76947 103.184 6.34421 102.882 7.02947C103.31 7.27263 103.688 7.51579 104.091 7.71474C104.494 7.91368 104.721 7.86947 104.998 7.95789C105.275 8.04632 106.031 8.4 106.056 8.99684C106.053 9.2487 105.965 9.49413 105.804 9.70249C105.642 9.91084 105.415 10.0729 105.149 10.1684C104.67 10.4116 104.141 10.6105 103.638 10.8537L102.58 11.3179C102.252 12.3568 103.612 13.5284 102.176 14.4126L100.438 13.8821L99.3802 16.4905C99.2039 16.8884 99.0527 17.2863 98.8512 17.6621C98.7885 17.7537 98.6999 17.8294 98.5939 17.882C98.488 17.9346 98.3683 17.9622 98.2466 17.9622C98.1249 17.9622 98.0052 17.9346 97.8993 17.882C97.7933 17.8294 97.7047 17.7537 97.642 17.6621C97.2641 16.8884 96.9366 16.0926 96.584 15.2968C96.2313 14.5011 96.1053 13.9484 95.8282 13.2632C94.7954 13.2632 94.4427 14.0147 93.7121 14.2137C93.4297 14.3156 93.1129 14.3156 92.8304 14.2137C92.7186 14.1213 92.6329 14.0072 92.5804 13.8805C92.5279 13.7538 92.51 13.6181 92.5281 13.4842C92.8304 12.6 93.2083 11.76 93.6114 10.8316C92.7282 10.3368 91.7811 9.93612 90.7899 9.63789C90.1098 9.28421 89.9586 8.84211 90.2861 8.11263L94.2412 6.91895C93.9641 6.45474 93.7121 6.03474 93.5106 5.61474C93.3487 5.26899 93.2468 4.90387 93.2083 4.53158C93.1837 4.39277 93.204 4.2507 93.2668 4.12148C93.3296 3.99226 93.4324 3.88106 93.5635 3.80051C93.6946 3.71995 93.8489 3.67326 94.0087 3.66573C94.1686 3.6582 94.3277 3.69013 94.4679 3.75789C94.7538 3.89219 95.0313 4.03977 95.2992 4.2L96.4076 4.73053Z" fill="#F7F5E9"/>
<path d="M16.45 200.406C15.6187 201.998 13.9309 202.197 12.9484 203.302C13.2759 203.656 13.6538 203.987 13.9561 204.363C14.2584 204.739 14.1072 205.115 13.3011 205.269L12.7972 205.402C12.9736 206.087 13.1751 206.773 13.2759 207.458C13.3384 207.876 13.3384 208.3 13.2759 208.718C13.2468 208.84 13.1812 208.954 13.0858 209.047C12.9904 209.14 12.8687 209.209 12.733 209.247C12.5973 209.285 12.4525 209.291 12.3133 209.264C12.1741 209.237 12.0456 209.178 11.9407 209.094C11.2858 208.652 10.6812 208.187 10.0514 207.745C9.78332 207.578 9.50587 207.423 9.22007 207.281L8.51471 208.541L7.22994 207.789C7.10398 207.789 6.90245 207.789 6.80169 207.789C5.88131 208.75 4.71632 209.507 3.40084 210C2.59472 208.386 4.38331 207.237 4.28254 205.8C3.90467 205.314 3.40084 205.645 2.97259 205.645C1.96493 205.645 1.71302 205.269 2.11608 204.452L2.51914 203.965C1.91455 202.926 0.403063 202.727 0 201.512C1.23438 200.981 2.51914 201.313 3.62757 201.114C3.62757 201.114 3.62757 200.981 3.62757 200.915C3.62757 198.704 3.62757 198.704 5.94518 199.588C6.7765 198.771 6.7765 197.643 7.25513 196.693C7.37027 196.621 7.50129 196.571 7.6397 196.547C7.77811 196.523 7.92081 196.524 8.05857 196.551C8.19632 196.578 8.32605 196.63 8.43935 196.704C8.55264 196.778 8.64698 196.872 8.71624 196.98C9.1193 197.511 9.47198 198.063 9.82466 198.572C11.6384 198.572 11.6384 198.572 11.7392 200.406H16.45Z" fill="#F7F5E9"/>
<path d="M77.3125 46.8853C77.6904 46.8853 77.9171 46.8853 78.1438 46.7526C78.3706 46.62 79.0759 46.4432 79.4538 46.8632C79.8317 47.2832 79.4538 47.7916 79.1263 48.1674L78.1942 49.14C78.5721 50.1126 78.95 51.0411 79.2774 51.9695C79.4198 52.37 79.4879 52.7879 79.479 53.2074C79.4696 53.3075 79.4325 53.404 79.3711 53.4887C79.3097 53.5735 79.2256 53.6438 79.1263 53.6937C78.8434 53.7933 78.5275 53.7933 78.2446 53.6937C77.9171 53.4947 77.7408 53.1411 77.4637 52.8979C77.1866 52.6547 76.8087 52.3232 76.456 51.9916L75.0705 53.4505C74.6878 53.4016 74.3395 53.2298 74.0928 52.9685C73.8462 52.7071 73.7188 52.3748 73.7353 52.0358C73.7353 51.1958 73.7353 50.3558 73.7353 49.8253C73.3575 48.6758 71.5941 48.8747 71.7704 47.6147L73.9369 47.261C73.9369 46.5979 74.088 45.9789 74.2392 45.36C74.2891 45.2327 74.3686 45.1159 74.4727 45.0169C74.5768 44.918 74.7031 44.8391 74.8438 44.7853C74.9962 44.7583 75.1539 44.7643 75.3032 44.8028C75.4524 44.8413 75.5887 44.9112 75.7003 45.0063C76.2545 45.4705 76.7079 46.1337 77.3125 46.8853Z" fill="#F7F5E9"/>
<path d="M95.1229 75.0032C94.4175 74.4284 93.3091 74.8042 92.9312 73.8979C92.9688 73.6557 93.1089 73.4349 93.3236 73.2792C93.5383 73.1236 93.8119 73.0445 94.09 73.0579C94.6239 73.0708 95.1433 72.904 95.5414 72.5916C95.9396 72.2792 96.1864 71.8449 96.2313 71.3779C96.2597 71.1704 96.3278 70.9686 96.4328 70.7811C96.584 70.5379 96.7603 70.2284 96.987 70.1842C97.1391 70.1805 97.2902 70.2064 97.4295 70.2599C97.5689 70.3133 97.693 70.3932 97.7932 70.4937C98.1161 70.8668 98.4106 71.2581 98.6748 71.6653C99.5565 71.8421 100.589 70.9137 101.194 72.2842L100.665 73.0579L99.9596 74.0747C100.337 74.8042 100.766 75.5558 101.144 76.2853C101.204 76.3773 101.243 76.4793 101.256 76.5849C101.27 76.6905 101.259 76.7974 101.223 76.899C101.188 77.0007 101.129 77.0948 101.05 77.1755C100.972 77.2563 100.875 77.322 100.766 77.3684L98.2466 76.0421C97.6168 76.7495 97.113 77.3684 96.5084 77.9432C96.3995 78.0349 96.2674 78.1028 96.1229 78.1412C95.9785 78.1796 95.8257 78.1875 95.6771 78.1642C95.5463 78.0946 95.4337 78.0015 95.3469 77.891C95.2601 77.7805 95.2009 77.6552 95.1732 77.5232C95.0977 76.7495 95.1229 75.9095 95.1229 75.0032Z" fill="#F7F5E9"/>
<path d="M126.159 15.4737L125.554 14.9874C124.597 14.3021 124.622 13.8821 125.554 13.5505C126.008 13.3958 126.486 13.3295 127.015 13.1968C127.292 12.6663 127.544 12.0695 127.872 11.5168C127.941 11.4063 128.044 11.3141 128.168 11.2499C128.292 11.1858 128.433 11.1519 128.577 11.1519C128.721 11.1519 128.862 11.1858 128.987 11.2499C129.111 11.3141 129.213 11.4063 129.282 11.5168C129.726 12.1909 130.129 12.8845 130.492 13.5947L132.834 13.8821C133.212 15.2526 131.449 15.12 131.121 15.9158C131.254 16.6032 131.338 17.2972 131.373 17.9937C131.373 18.2368 130.97 18.5905 130.668 18.7011C130.366 18.8116 130.038 18.7011 129.837 18.4358C129.469 18.0516 129.132 17.6453 128.829 17.22L126.31 18.3916C125.579 18.2147 125.604 17.7284 125.63 17.3305C125.769 16.7039 125.946 16.0841 126.159 15.4737Z" fill="#F7F5E9"/>
<path d="M48.1912 172.067L48.8714 169.989C48.2164 169.68 47.5866 169.415 46.982 169.083C46.8948 169.013 46.8251 168.927 46.7775 168.832C46.7298 168.737 46.7051 168.634 46.7049 168.531C46.7135 168.419 46.7552 168.311 46.826 168.218C46.8967 168.125 46.9939 168.05 47.108 168C47.9645 167.823 48.8462 167.713 49.8539 167.536L51.2898 165.502C52.5745 165.502 52.2218 166.497 52.5241 166.961L55.0433 167.691C54.741 168.884 53.3807 168.906 52.7509 169.901C52.7509 170.166 52.7509 170.586 52.7509 170.984C52.7509 171.382 52.7509 171.78 52.4234 171.891C52.2371 171.938 52.041 171.949 51.8493 171.923C51.6576 171.896 51.4751 171.832 51.315 171.736C50.4836 171.117 49.9294 171.272 49.3248 171.979C49.1737 172.156 48.7706 172.2 48.4683 172.266C48.166 172.333 48.4179 172.156 48.1912 172.067Z" fill="#F7F5E9"/>
<path d="M20.1531 139.131C20.6066 138.202 20.9089 137.473 21.2868 136.787C21.346 136.695 21.4321 136.619 21.5361 136.566C21.6401 136.512 21.7584 136.484 21.8788 136.484C21.9992 136.484 22.1174 136.512 22.2214 136.566C22.3254 136.619 22.4115 136.695 22.4708 136.787C22.7731 137.185 23.0502 137.627 23.3525 138.114H25.393L24.3097 139.816C24.3097 140.567 25.3426 141.363 24.5113 142.38L22.6723 142.048C22.3957 142.247 22.1426 142.469 21.9165 142.712C21.5891 143.065 21.2364 143.419 20.7326 143.198C20.5696 143.109 20.431 142.989 20.3265 142.848C20.2221 142.707 20.1543 142.547 20.128 142.38C20.1311 142.064 20.0242 141.755 19.8216 141.495C19.619 141.234 19.3303 141.034 18.9943 140.921C18.1126 140.567 18.2134 139.993 19.1455 139.551L20.1531 139.131Z" fill="#F7F5E9"/>
<path d="M132.557 81.7895C131.247 82.4305 131.247 82.4305 130.038 82.1211L130.416 80.441L129.56 79.8C129.257 79.5347 129.005 79.2474 129.282 78.8716C129.56 78.4958 129.937 78.5842 130.366 78.6947H131.121C131.424 78.2747 131.676 77.8547 131.978 77.4568C132.28 77.0589 133.187 76.9705 133.338 77.4568C133.425 77.8984 133.699 78.2947 134.106 78.5655C134.513 78.8363 135.022 78.9615 135.53 78.9158C135.832 79.8442 134.673 79.9105 134.522 80.5295C134.371 81.1484 135.505 82.0547 134.522 82.5853C133.54 83.1158 133.263 81.9663 132.557 81.7895Z" fill="#F7F5E9"/>
</svg>
