<svg width="84" height="100" viewBox="0 0 84 100" fill="none" xmlns="http://www.w3.org/2000/svg">
<path fill-rule="evenodd" clip-rule="evenodd" d="M14.7707 0.36908C13.3623 0.74067 11.3211 3.35907 11.3117 4.80668C11.3078 5.34633 10.7774 7.35505 10.1333 9.26995C9.12523 12.2646 8.79873 12.759 7.80054 12.8015C4.64934 12.9364 3.96139 13.0848 2.98142 13.8406C1.90787 14.6687 0.0173438 20.4088 0.000108002 22.8918C-0.0141731 25.0102 1.38734 26.1072 4.49816 26.4107C7.01409 26.6567 7.30415 26.8 7.52476 27.9059C7.98865 30.2307 10.9813 52.1269 14.264 77.2115C16.4322 93.7823 16.9823 96.5239 18.4247 97.9514C19.1476 98.6666 20.559 99.4611 21.5611 99.7174C22.7213 100.014 30.7773 100.081 43.7352 99.9009L64.0872 99.6189L65.7724 97.8753C66.8425 96.768 67.4571 95.6603 67.4566 94.841C67.4556 94.131 67.8781 90.7143 68.3947 87.2482C68.9118 83.782 69.8139 77.3749 70.4 73.0101C72.6569 56.1971 74.5001 42.9782 76.1124 32.0466L76.921 26.5615L78.4683 26.5148C83.1407 26.3743 83.901 25.1932 83.0057 19.4616C82.6566 17.2255 82.0021 14.8625 81.551 14.2099C80.8251 13.16 80.3952 13.0237 77.8064 13.0237H74.8822L74.3169 11.0397C74.0057 9.94824 73.3576 7.63748 72.8765 5.90371C71.764 1.89605 70.8702 0.623032 68.9068 0.250976C66.7893 -0.15049 16.3224 -0.0403214 14.7707 0.36908ZM15.5557 4.73759C15.4655 5.05876 14.8997 6.86162 14.2984 8.74385C13.6972 10.6265 13.3529 12.3071 13.5337 12.4784C13.7144 12.6502 26.6181 12.8649 42.2081 12.956L70.5541 13.1217L70.2503 12.0223C70.0833 11.4178 69.5677 9.39973 69.1043 7.53852L68.2622 4.15406H41.9909C21.3892 4.15406 15.6837 4.28011 15.5557 4.73759ZM4.75079 19.5521C4.30019 21.0889 3.93135 22.4544 3.93135 22.5865C3.93135 22.7186 20.913 22.8269 41.6684 22.8269H79.4054L79.1001 21.0763C78.9322 20.1137 78.7923 18.7478 78.7894 18.042L78.7839 16.7582H5.57023L4.75079 19.5521ZM11.4949 27.3784C11.6284 27.8279 12.0967 30.8212 12.5354 34.0306C15.89 58.5704 18.6438 79.1899 19.7056 87.715C20.4142 93.4074 20.9894 95.4862 21.9516 95.8363C22.3771 95.9913 31.4357 96.1178 42.0821 96.1178C59.8182 96.1178 61.5206 96.0491 62.4124 95.3008C63.4224 94.4526 63.5756 93.5657 66.5086 71.6097C67.0577 67.5016 67.8244 62.0398 68.213 59.4723C68.601 56.9048 69.0472 53.6487 69.2043 52.2366C69.3614 50.8245 69.8075 47.4634 70.1966 44.7675C71.3125 37.029 72.3821 28.5931 72.3821 27.5325V26.5615H41.8171C12.9432 26.5615 11.2654 26.6067 11.4949 27.3784Z" fill="#E0D0FF"/>
<path fill-rule="evenodd" clip-rule="evenodd" d="M40.8768 38.0401C37.1867 38.4204 33.7958 39.692 30.4975 41.9324C28.4952 43.2924 27.7149 43.9835 23.824 47.8416C20.6021 51.0365 19.0451 52.415 17.6512 53.3065C17.3825 53.4782 17.1645 53.6777 17.1666 53.7498C17.1686 53.8219 17.624 54.2053 18.1784 54.6018C18.7328 54.9984 20.9891 57.1086 23.1927 59.2911C28.4766 64.5246 30.8817 66.4568 33.956 67.9369C37.6931 69.7364 42.0522 70.4231 45.4065 69.7409C51.0163 68.6 54.3273 66.4955 60.8134 59.9488C62.7846 57.9591 65.0205 55.8289 65.782 55.2148C66.5435 54.6007 67.1666 54.0033 67.1666 53.8872C67.1666 53.7709 66.4872 53.1235 65.6567 52.4483C64.8263 51.7734 62.8679 49.9131 61.3047 48.3148C56.9641 43.8761 54.4598 41.8758 51.1533 40.206C49.2933 39.2668 47.9497 38.7879 46.0698 38.3945C44.6164 38.0902 42.0736 37.9167 40.8768 38.0401ZM39.0117 41.4477C34.7112 42.3408 30.3378 44.8784 26.1597 48.9051C24.8626 50.1552 21.7812 53.5765 21.7812 53.7664C21.7812 54.0849 26.7786 59.1824 28.4075 60.5255C35.143 66.0788 41.4886 67.9277 47.4493 66.0736C51.985 64.6627 56.1512 61.4631 61.7868 55.0627C62.6823 54.0456 62.9308 53.6505 62.8142 53.4294C62.4206 52.6834 56.8692 47.2222 55.354 46.0905C52.083 43.6473 48.7149 42.0356 45.6129 41.429C44.0092 41.1153 40.5649 41.1253 39.0117 41.4477ZM39.5558 45.4955C35.1451 47.1474 32.7716 51.4989 34.0335 55.6193C34.8675 58.3423 36.954 60.2689 39.6901 60.8424C41.5923 61.2409 43.809 60.5257 45.5115 58.9641C47.0425 57.5597 47.852 55.0928 47.3725 53.2928C47.1146 52.324 46.2234 51.2674 45.6646 51.2674C44.9494 51.2674 44.696 51.8927 44.696 53.6565C44.696 55.5137 44.4791 56.1407 43.5175 57.0632C41.19 59.2961 37.465 58.0644 36.6882 54.8048C36.0624 52.1789 37.2842 49.7372 39.829 48.5289C40.8013 48.0671 41.1443 47.9999 42.5091 48.0033C43.9657 48.0069 44.1663 48.0545 45.4012 48.6911C46.3968 49.2042 46.8963 49.5999 47.4024 50.2761C48.1994 51.3411 48.7815 53.0909 48.7815 54.4216C48.7815 56.3305 47.7475 58.6795 46.3648 59.9113C44.8315 61.2773 41.9922 62.2012 39.9443 62.0002C37.7674 61.7868 38.9618 62.8039 41.3248 63.1759C45.1546 63.779 48.9659 61.6722 50.6005 58.0489C51.0206 57.118 51.4468 55.2101 51.4434 54.2752C51.432 50.974 49.0958 47.3849 45.9964 45.9072C44.6857 45.2823 44.4917 45.2417 42.5644 45.1893C40.8658 45.1429 40.3589 45.1947 39.5558 45.4955Z" fill="#E0D0FF"/>
</svg>
