<svg width="40" height="30" viewBox="0 0 40 30" fill="none" xmlns="http://www.w3.org/2000/svg">
<path fill-rule="evenodd" clip-rule="evenodd" d="M0 12.3793V24.7224H6.77466H13.5494L13.6031 25.0603C13.6913 25.6154 14.0994 26.6458 14.4377 27.1674C15.0584 28.1246 16.2234 29.0673 17.3487 29.5227C19.1099 30.2355 21.4568 30.1421 23.0705 29.2949C24.7997 28.3871 26.037 26.7699 26.31 25.0603L26.3641 24.7224H29.5951H32.8261V24.1896V23.6568L29.61 23.6382L26.3939 23.6197L26.2701 23.0861C26.0426 22.1051 25.7361 21.4572 25.1426 20.7028C24.9579 20.468 23.7164 19.2836 22.3838 18.0708L19.9606 15.8657L18.8502 16.8789L17.7398 17.892L18.1482 18.2647L18.5566 18.6373L19.2613 17.9982L19.9661 17.359L22.0882 19.3155C24.3257 21.3784 24.5633 21.6529 24.9304 22.5998C25.1978 23.2894 25.2633 24.5122 25.0726 25.254C24.6345 26.9591 23.1958 28.3139 21.326 28.7819C20.578 28.9692 19.3854 28.9848 18.6742 28.8167C16.9621 28.412 15.4776 27.135 14.9486 25.6117C14.8055 25.1995 14.7757 24.948 14.7757 24.1532C14.7757 22.5201 15.1238 21.8277 16.6814 20.3631L17.6513 19.451L17.2469 19.082L16.8424 18.7129L16.017 19.4588C14.4917 20.8374 13.9994 21.5847 13.6512 23.0505L13.516 23.6197L7.34284 23.6379L1.16958 23.6561V16.1984V8.7407L1.87733 8.65476C3.18569 8.49575 4.6465 7.96538 5.74442 7.25053C6.33022 6.86905 7.11134 6.21987 7.34565 5.91957L7.51399 5.70386L7.12927 5.39681C6.91766 5.22791 6.70659 5.08904 6.66012 5.08826C6.61372 5.08741 6.46636 5.21091 6.33279 5.36266C6.00656 5.73303 5.02887 6.44319 4.41125 6.75828C3.53766 7.20407 2.54352 7.506 1.57893 7.61848L1.16958 7.66629V7.12489C1.16958 6.62019 1.18151 6.58135 1.34501 6.5519C2.81587 6.28731 3.91161 5.84893 4.80213 5.16879C5.88274 4.34353 6.65006 3.17763 6.96967 1.87506L7.15056 1.1383L7.68053 1.11703C7.97207 1.10529 8.23811 1.12129 8.27179 1.1526C8.35312 1.22815 8.14782 2.28293 7.94462 2.83322C7.85566 3.07418 7.68077 3.459 7.55609 3.68837C7.43141 3.91773 7.32935 4.12661 7.32935 4.15258C7.32935 4.21334 8.14548 4.6599 8.25659 4.6599C8.36248 4.6599 8.73074 3.99621 8.9868 3.34375C9.18601 2.83614 9.3878 2.04822 9.47412 1.44066L9.52215 1.10273H19.9594H30.3966L30.4377 1.29837C30.4602 1.40601 30.5023 1.6701 30.531 1.8853C30.7947 3.86174 32.3152 6.06591 34.2518 7.27948C35.4199 8.01148 36.9749 8.558 38.2416 8.68179L38.752 8.73166V16.1934V23.6552H37.5434H36.3349V24.1901V24.725L38.1477 24.7059L39.9605 24.6868L39.9803 12.3434L40 0L20 0.0180706L0 0.0361409V12.3793ZM0.0381282 12.379C0.0381282 19.1874 0.0472509 21.9622 0.0584789 18.5451C0.0697068 15.128 0.0697068 9.55743 0.0584789 6.16608C0.0472509 2.77474 0.0381282 5.57054 0.0381282 12.379ZM1.16958 3.29843V5.4942L1.57417 5.42712C2.58999 5.25865 3.62171 4.74947 4.39566 4.03462C5.09982 3.38416 5.50146 2.7519 5.76796 1.87456C6.02847 1.01671 6.27579 1.10273 3.54772 1.10273H1.16958V3.29843ZM31.6466 1.13552C31.4909 1.27752 31.9688 2.95751 32.3758 3.6989C33.5385 5.81698 35.8356 7.33184 38.3132 7.61428L38.752 7.6643V7.12389C38.752 6.62027 38.7401 6.58135 38.5765 6.5519C36.7897 6.2304 35.7875 5.77721 34.709 4.8029C33.7977 3.97956 33.2078 2.96448 32.9103 1.70745L32.7755 1.1383L32.2321 1.11767C31.9333 1.10635 31.6697 1.11439 31.6466 1.13552ZM33.9957 1.19806C33.9957 1.47594 34.3397 2.45388 34.5909 2.88999C34.9528 3.51841 35.7956 4.34758 36.4637 4.73261C37.0449 5.06756 37.7526 5.32844 38.3474 5.42712L38.752 5.4942V3.29843V1.10273H36.3738C34.4381 1.10273 33.9957 1.12044 33.9957 1.19806ZM2.41713 2.7746V3.30818H3.00191H3.5867V2.7746V2.24102H3.00191H2.41713V2.7746ZM36.3349 2.7746V3.30818H36.9196H37.5044V2.7746V2.24102H36.9196H36.3349V2.7746ZM11.7684 3.38487C11.5355 3.54452 11.354 3.70558 11.3652 3.74286C11.3764 3.78021 11.736 4.23667 12.1645 4.75723L12.9433 5.70379V7.20948V8.71509H13.5281H14.1129V7.20948V5.70379L14.8918 4.75723C15.3202 4.23667 15.6798 3.78021 15.691 3.74286C15.7099 3.67969 14.9214 3.09475 14.8172 3.09475C14.7913 3.09475 14.4953 3.43175 14.1595 3.8436C13.7347 4.36487 13.5222 4.5719 13.4606 4.5248C13.4119 4.48759 13.1266 4.15158 12.8264 3.77815C12.5262 3.40479 12.2606 3.09823 12.2362 3.09702C12.2117 3.09574 12.0012 3.22529 11.7684 3.38487ZM27.5839 5.02622L27.563 6.75053L26.3658 5.06492L25.1685 3.37932H24.5919H24.0153V6.0472V8.71509H24.6001H25.1849V7.11436C25.1849 6.23395 25.2112 5.51412 25.2434 5.51476C25.2756 5.51541 25.8106 6.23666 26.4324 7.11756L27.563 8.71914L28.1478 8.69936L28.7326 8.67951V6.01163V3.34375L28.1687 3.3229L27.6048 3.30199L27.5839 5.02622ZM19.3921 4.41994C19.3618 4.44754 19.337 4.68758 19.337 4.95323V5.43622L18.7717 5.45714L18.2064 5.47805L18.1835 5.99385L18.1606 6.50964H18.7488H19.337V7.04321V7.57679H19.9608H20.5846V7.04321V6.50964H21.1728H21.761L21.7381 5.99385L21.7151 5.47805L21.1532 5.45721L20.5913 5.43636L20.5684 4.92363L20.5456 4.4109L19.9963 4.39027C19.6943 4.37896 19.4224 4.39233 19.3921 4.41994ZM5.38005 11.3087V11.8454H5.96827H6.55649L6.53357 11.3296L6.51065 10.8138L5.94535 10.7929L5.38005 10.772V11.3087ZM7.71921 11.3087V11.8454H8.30743H8.89565L8.87272 11.3296L8.8498 10.8138L8.2845 10.7929L7.71921 10.772V11.3087ZM10.0584 11.3087V11.8454H10.6466H11.2348L11.2119 11.3296L11.189 10.8138L10.6237 10.7929L10.0584 10.772V11.3087ZM12.3975 11.3087V11.8454H12.9857H13.574L13.551 11.3296L13.5281 10.8138L12.9628 10.7929L12.3975 10.772V11.3087ZM14.7367 11.3087V11.8454H15.3249H15.9131L15.8902 11.3296L15.8673 10.8138L15.302 10.7929L14.7367 10.772V11.3087ZM17.0758 11.3087V11.8454H17.664H18.2523L18.2293 11.3296L18.2064 10.8138L17.6411 10.7929L17.0758 10.772V11.3087ZM19.415 11.3087V11.8454H20.0032H20.5914L20.5685 11.3296L20.5456 10.8138L19.9803 10.7929L19.415 10.772V11.3087ZM21.7541 11.3087V11.8454H22.3424H22.9306L22.9076 11.3296L22.8847 10.8138L22.3194 10.7929L21.7541 10.772V11.3087ZM24.0933 11.3087V11.8454H24.6815H25.2697L25.2468 11.3296L25.2239 10.8138L24.6586 10.7929L24.0933 10.772V11.3087ZM26.4324 11.3087V11.8454H27.0207H27.6089L27.586 11.3296L27.563 10.8138L26.9977 10.7929L26.4324 10.772V11.3087ZM28.7716 11.3087V11.8454H29.3598H29.948L29.9251 11.3296L29.9022 10.8138L29.3369 10.7929L28.7716 10.772V11.3087ZM31.1107 11.3087V11.8454H31.699H32.2872L32.2643 11.3296L32.2413 10.8138L31.676 10.7929L31.1107 10.772V11.3087ZM33.4239 10.8257C33.3953 10.8517 33.3719 11.0919 33.3719 11.3593V11.8454H33.9567H34.5415V11.3118V10.7783H34.0087C33.7156 10.7783 33.4525 10.7996 33.4239 10.8257ZM4.14857 13.4995L4.17149 14.0153L4.73679 14.0362L5.30208 14.0571V13.5204V12.9837H4.71386H4.12564L4.14857 13.4995ZM6.48772 13.4995L6.51065 14.0153L7.07594 14.0362L7.64124 14.0571V13.5204V12.9837H7.05302H6.4648L6.48772 13.4995ZM8.82688 13.4995L8.8498 14.0153L9.4151 14.0362L9.98039 14.0571V13.5204V12.9837H9.39217H8.80395L8.82688 13.4995ZM11.166 13.4995L11.189 14.0153L11.7542 14.0362L12.3195 14.0571V13.5204V12.9837H11.7313H11.1431L11.166 13.4995ZM13.5052 13.4995L13.5281 14.0153L14.0934 14.0362L14.6587 14.0571V13.5204V12.9837H14.0705H13.4823L13.5052 13.4995ZM15.8443 13.4995L15.8673 14.0153L16.4326 14.0362L16.9979 14.0571V13.5204V12.9837H16.4096H15.8214L15.8443 13.4995ZM18.1835 13.4995L18.2064 14.0153L18.7717 14.0362L19.337 14.0571V13.5204V12.9837H18.7488H18.1606L18.1835 13.4995ZM20.5226 13.4995L20.5456 14.0153H21.1304H21.7151L21.7381 13.4995L21.761 12.9837H21.1304H20.4997L20.5226 13.4995ZM22.8618 13.4995L22.8847 14.0153H23.4695H24.0543L24.0772 13.4995L24.1001 12.9837H23.4695H22.8389L22.8618 13.4995ZM25.201 13.4995L25.2239 14.0153H25.8087H26.3935L26.4164 13.4995L26.4393 12.9837H25.8087H25.178L25.201 13.4995ZM27.5401 13.4995L27.563 14.0153H28.1478H28.7326L28.7555 13.4995L28.7785 12.9837H28.1478H27.5172L27.5401 13.4995ZM29.8793 13.4995L29.9022 14.0153H30.487H31.0718L31.0947 13.4995L31.1176 12.9837H30.487H29.8563L29.8793 13.4995ZM32.2184 13.4995L32.2413 14.0153H32.8261H33.4109L33.4338 13.4995L33.4568 12.9837H32.8261H32.1955L32.2184 13.4995ZM34.5576 13.4995L34.5805 14.0153L35.1458 14.0362L35.7111 14.0571V13.5204V12.9837H35.1229H34.5346L34.5576 13.4995ZM5.14614 16.7914C3.89188 17.1071 3.0409 18.1418 3.0409 19.3511C3.0409 20.596 3.90771 21.6163 5.22294 21.9193C5.92656 22.0813 6.51657 22.016 7.22767 21.6973C8.18532 21.2681 8.73237 20.5123 8.79452 19.5327C8.85526 18.5747 8.47218 17.7894 7.67367 17.2353C6.98035 16.7541 5.9873 16.5797 5.14614 16.7914ZM32.9636 16.862C31.1529 17.4689 30.5169 19.6089 31.7309 21.0102C32.242 21.6002 33.1821 22.0189 33.9957 22.0189C34.4454 22.0189 35.1732 21.8157 35.5832 21.5756C36.0388 21.3089 36.5033 20.7928 36.6906 20.3454L36.827 20.0194L36.4867 19.703C36.174 19.4122 36.1146 19.3865 35.7533 19.3851C35.1006 19.3825 34.4798 19.0354 34.1684 18.4988C34.0984 18.3782 34.0378 18.0866 34.0303 17.8341C34.0176 17.4056 34.0009 17.3692 33.6782 17.0693C33.4919 16.896 33.3205 16.7566 33.2972 16.7593C33.274 16.7621 33.1238 16.8083 32.9636 16.862ZM5.36041 17.8518C4.6178 18.0937 4.21048 18.6287 4.21048 19.3623C4.21048 19.9264 4.44463 20.3407 4.93421 20.6429C5.82878 21.195 6.97278 20.9384 7.44139 20.0803C8.14376 18.7942 6.82004 17.3765 5.36041 17.8518ZM32.5138 18.5483C32.2963 18.888 32.2755 18.9728 32.2972 19.4295C32.3172 19.8512 32.3588 19.9844 32.5487 20.2344C33.0706 20.9215 34.0961 21.1342 34.8748 20.7166C35.2881 20.4949 35.2938 20.4205 34.9026 20.3535C34.5414 20.2916 33.7701 19.8245 33.5054 19.5073C33.2529 19.2046 32.906 18.5517 32.9049 18.377C32.9032 18.1191 32.7437 18.1889 32.5138 18.5483ZM19.5647 20.4592C17.767 20.7133 17.0079 22.7264 18.2443 23.9608C18.744 24.4596 19.2426 24.6638 19.9608 24.6638C20.6714 24.6638 21.1785 24.4587 21.6625 23.9755C22.5089 23.1305 22.5144 21.98 21.676 21.143C21.1031 20.5712 20.3951 20.3418 19.5647 20.4592ZM19.6243 21.5546C19.0868 21.7264 18.7912 22.0882 18.7912 22.574C18.7912 23.3278 19.7973 23.8512 20.512 23.4693C20.925 23.2486 21.0914 22.9853 21.0914 22.5525C21.0914 22.126 20.9223 21.8517 20.5374 21.6539C20.1924 21.4766 19.9503 21.4503 19.6243 21.5546ZM33.9957 24.1888V24.7224H34.5805H35.1653V24.1888V23.6552H34.5805H33.9957V24.1888ZM15.8443 24.669L15.8673 25.1848L16.4326 25.2057L16.9979 25.2267V24.6899V24.1532H16.4096H15.8214L15.8443 24.669ZM22.8618 24.669L22.8847 25.1848L23.45 25.2057L24.0153 25.2267V24.6899V24.1532H23.4271H22.8389L22.8618 24.669ZM17.6216 26.8211V27.3547H19.9608H22.2999V26.8211V26.2875H19.9608H17.6216V26.8211Z" fill="white"/>
</svg>
