<svg width="192" height="210" viewBox="0 0 192 210" fill="none" xmlns="http://www.w3.org/2000/svg">
<path d="M181.302 195.929C180.826 194.825 179.667 194.008 179.311 192.838C180.823 192.976 182.302 193.265 183.709 193.699C183.917 193.235 184.095 192.86 184.303 192.484C184.511 192.109 184.838 191.557 185.165 191.115C185.165 191.115 185.551 190.983 185.73 190.983C185.908 190.983 186.027 191.137 186.057 191.248C186.294 192.021 186.502 192.794 186.77 193.456C186.886 193.778 187.025 194.095 187.186 194.405L189.712 193.743C189.801 193.766 189.882 193.803 189.948 193.852C190.015 193.901 190.066 193.961 190.098 194.027C190.129 194.092 190.14 194.163 190.13 194.232C190.12 194.302 190.089 194.368 190.039 194.428C189.623 195.156 189.177 195.885 188.761 196.636C189.177 197.099 189.95 197.077 190.484 197.32C191.012 197.593 191.518 197.888 192 198.203C192 198.667 191.643 198.822 191.317 198.976L188.939 200.014C189.117 200.301 189.266 200.522 189.415 200.721C189.563 200.919 189.831 201.229 190.009 201.494C190.124 201.587 190.187 201.709 190.187 201.836C190.187 201.962 190.124 202.085 190.009 202.178C189.892 202.241 189.752 202.275 189.608 202.275C189.464 202.275 189.323 202.241 189.207 202.178L187.869 201.604L186.859 201.162C186.205 201.516 186.086 202.046 185.73 202.465C185.373 202.885 185.017 203.326 184.6 203.702C184.535 203.784 184.441 203.852 184.329 203.9C184.217 203.947 184.09 203.972 183.962 203.972C183.833 203.972 183.706 203.947 183.594 203.9C183.482 203.852 183.388 203.784 183.323 203.702C183.23 203.506 183.15 203.307 183.085 203.106L182.283 200.566C181.896 200.434 181.748 200.566 181.51 200.765C181.193 201 180.833 201.201 180.44 201.361C180.325 201.404 180.198 201.426 180.069 201.426C179.94 201.426 179.813 201.404 179.697 201.361C179.598 201.292 179.524 201.205 179.482 201.108C179.44 201.011 179.433 200.908 179.459 200.809C179.729 200.26 180.036 199.722 180.381 199.197C179.965 198.755 179.311 198.689 178.776 198.468C178.265 198.284 177.769 198.078 177.29 197.85C177.17 197.794 177.075 197.713 177.015 197.617C176.955 197.522 176.933 197.415 176.951 197.311C176.97 197.206 177.029 197.108 177.12 197.028C177.212 196.947 177.333 196.888 177.468 196.857C178.285 196.582 179.143 196.382 180.024 196.26C180.467 196.191 180.897 196.079 181.302 195.929Z" fill="#F7F5E9"/>
<path d="M63.9497 69.9335C63.7417 69.0281 64.544 68.2994 64.544 67.4604C63.8308 66.7538 62.3747 67.0408 61.5723 66.3342C61.6193 66.1208 61.7479 65.9219 61.9429 65.7614C62.1379 65.6008 62.3909 65.4854 62.6719 65.4289L64.0685 65.0314C64.6594 64.9172 65.1886 64.6704 65.5841 64.3248C65.344 63.8312 65.0352 63.3576 64.6629 62.9116C64.5866 62.8313 64.5373 62.7385 64.5189 62.6412C64.5006 62.5438 64.5137 62.4446 64.5573 62.3517C64.6009 62.2589 64.6737 62.1751 64.7695 62.1074C64.8654 62.0396 64.9817 61.9898 65.1086 61.9621L67.07 62.4258C67.9912 61.6309 68.1992 60.6372 69.1799 59.8644C69.477 60.0411 69.8039 60.1515 69.9228 60.3281C70.1823 60.7072 70.3817 61.1073 70.5171 61.5205C70.669 61.985 70.9091 62.4311 71.2303 62.8454L72.9242 62.2492C73.6671 62.6687 73.6968 62.6908 73.4294 63.1324C73.1619 63.5741 73.1322 63.6624 72.9539 63.9715C73.4896 64.2841 74.1453 64.462 74.8261 64.4794C75.6591 64.6261 76.4396 64.9048 77.1143 65.2964C77.1143 65.7601 77.1143 66.003 76.6388 66.1355L74.9449 66.7096C74.2793 66.9071 73.6501 67.1668 73.0728 67.4824L73.6968 68.4982C73.6968 68.6748 73.994 68.8736 73.994 69.0502C74.0186 69.2539 73.9449 69.4574 73.786 69.6243C73.786 69.6243 73.3402 69.6243 73.1619 69.6243C72.9836 69.6243 72.2704 69.3152 71.7058 69.1164C71.4835 69.7016 71.2156 70.2767 70.9034 70.8388C70.5496 71.4041 70.1424 71.9501 69.6851 72.4728C69.6386 72.5229 69.5765 72.5639 69.504 72.5922C69.4315 72.6205 69.3509 72.6352 69.269 72.6352C69.1871 72.6352 69.1065 72.6205 69.034 72.5922C68.9616 72.5639 68.8994 72.5229 68.853 72.4728C68.2289 71.3467 67.6049 70.2647 66.9214 69.0723C66.0002 69.2048 65.1384 69.8672 63.9497 69.9335Z" fill="#F7F5E9"/>
<path d="M23.2672 206.948L21.9002 207.566C21.6327 207.566 21.3059 207.411 21.3653 207.213C21.4247 207.014 21.5139 206.815 21.5733 206.616L21.9002 205.733C21.395 204.982 19.9092 205.049 19.7903 204.165C20.771 203.481 22.0488 203.834 23.1483 203.503C23.1483 203.106 22.9106 202.752 22.7917 202.399C22.6728 202.046 22.554 202.068 22.5837 201.913C22.6171 201.716 22.7312 201.531 22.9106 201.383C22.9579 201.345 23.0153 201.315 23.0793 201.294C23.1432 201.273 23.2122 201.262 23.282 201.262C23.3518 201.262 23.4209 201.273 23.4848 201.294C23.5488 201.315 23.6062 201.345 23.6535 201.383C24.0398 201.56 24.3964 201.759 24.8125 201.979C25.3474 201.67 25.4365 201.184 25.7337 200.809C25.8625 200.577 26.0218 200.355 26.2092 200.147C26.2966 200.114 26.3934 200.096 26.4915 200.096C26.5896 200.096 26.6863 200.114 26.7738 200.147C26.9802 200.285 27.1166 200.472 27.1601 200.677C27.1601 200.964 27.1601 201.273 27.1601 201.56C27.2421 201.855 27.3615 202.143 27.5167 202.421L29.2997 201.935C29.3836 201.919 29.4718 201.921 29.5548 201.939C29.6378 201.958 29.7123 201.993 29.7704 202.04C29.8286 202.088 29.868 202.147 29.8846 202.21C29.9011 202.273 29.8941 202.338 29.8643 202.399C29.5969 202.863 29.2997 203.282 28.9431 203.834C30.1318 204.099 31.4691 203.989 32.4497 204.74C31.7365 205.976 30.0426 206.197 28.7648 206.948C28.7648 207.522 29.1511 207.985 29.2403 208.515C29.2432 208.577 29.2288 208.638 29.1981 208.695C29.1674 208.752 29.1211 208.804 29.062 208.847C28.9881 208.874 28.9067 208.888 28.8242 208.888C28.7418 208.888 28.6604 208.874 28.5865 208.847L26.8332 207.941C25.8823 208.471 25.912 209.377 25.3176 209.951C25.2491 209.98 25.1724 209.996 25.0936 209.999C25.0148 210.003 24.9361 209.992 24.8639 209.968C24.7917 209.945 24.7279 209.909 24.6777 209.864C24.6275 209.818 24.5922 209.765 24.5747 209.708L23.2672 206.948Z" fill="#F7F5E9"/>
<path d="M147.9 177.734C148.174 178.096 148.412 178.473 148.613 178.86C148.656 178.93 148.678 179.005 148.678 179.081C148.678 179.157 148.656 179.233 148.613 179.302C148.566 179.34 148.509 179.37 148.445 179.391C148.381 179.412 148.312 179.423 148.242 179.423C148.172 179.423 148.103 179.412 148.039 179.391C147.975 179.37 147.918 179.34 147.87 179.302L145.642 178.308L144.453 179.501C143.621 179.346 143.829 178.75 143.532 178.463L141.273 179.236C141.095 179.236 140.827 179.236 140.56 179.059L142.016 177.204C141.628 177.1 141.25 176.975 140.887 176.829C140.811 176.802 140.748 176.759 140.703 176.707C140.659 176.654 140.635 176.593 140.635 176.531C140.635 176.468 140.659 176.408 140.703 176.355C140.748 176.302 140.811 176.26 140.887 176.233C141.164 176.144 141.453 176.077 141.749 176.034C140.946 175.57 140.233 175.151 139.55 174.709C139.479 174.653 139.427 174.587 139.396 174.514C139.365 174.442 139.357 174.365 139.371 174.289C139.371 174.289 139.728 174.113 139.906 174.135L142.462 174.466L142.878 173.141L144.156 173.517L144.988 171.75C145.233 171.891 145.452 172.054 145.642 172.236C145.929 172.637 146.187 173.05 146.414 173.472H146.741C147.068 173.318 147.425 173.031 147.781 173.34C147.875 173.57 147.875 173.816 147.781 174.047C147.708 174.259 147.609 174.466 147.484 174.665L149.534 175.327C149.634 175.367 149.717 175.426 149.775 175.498C149.833 175.57 149.863 175.652 149.863 175.736C149.863 175.82 149.833 175.902 149.775 175.974C149.717 176.046 149.634 176.105 149.534 176.144L148.97 176.409L148.613 176.652C148.875 176.826 149.114 177.018 149.326 177.226C149.379 177.293 149.406 177.37 149.406 177.447C149.406 177.525 149.379 177.601 149.326 177.668C149.168 177.764 148.966 177.811 148.762 177.8C148.613 177.845 148.316 177.602 147.9 177.734Z" fill="#F7F5E9"/>
<path d="M105.88 195.267L106.594 195.708C106.594 196.238 105.851 196.172 105.583 196.503L106.564 198.314C106.523 198.373 106.467 198.426 106.398 198.47C106.33 198.513 106.25 198.546 106.165 198.566C106.079 198.587 105.989 198.595 105.899 198.589C105.81 198.584 105.723 198.565 105.643 198.535L103.77 198.115L103.414 198.27C102.552 199.087 102.463 199.065 101.839 198.115L101.66 197.961L100.888 198.358C100.576 198.534 100.236 198.682 99.8775 198.8C99.6301 198.876 99.3522 198.876 99.1048 198.8C98.8374 198.8 98.8968 198.446 99.1048 198.248L99.6695 197.431L98.4213 196.79L99.3426 195.951L98.5105 195.51C98.2133 195.355 97.9756 195.2 98.0647 194.891C98.1539 194.582 98.5402 194.472 98.9563 194.45H100.234L99.7586 193.434C100.472 192.838 100.947 193.434 101.482 193.434C102.433 192.926 101.839 191.999 102.433 191.226C103.265 191.623 103.592 192.286 104.246 192.794L105.643 192.197C106.088 192.727 105.643 193.213 105.643 193.765L106.683 194.008C107.01 194.604 106.148 194.803 105.88 195.267Z" fill="#F7F5E9"/>
<path d="M4.07003 192.727L2.28702 193.633C1.75211 193.633 1.72239 193.279 1.81155 193.036C1.9007 192.794 2.10871 192.506 2.22758 192.219C2.34645 191.932 2.37617 191.756 2.46532 191.447H1.06862L2.04928 190.63C1.60353 190.188 0.920037 190.166 0.385132 189.901C-0.149773 189.636 0.0285283 189.68 0.0285283 189.57C0.0498269 189.472 0.0977019 189.378 0.169231 189.295C0.240761 189.211 0.334445 189.14 0.444566 189.084C0.757765 188.995 1.09017 188.951 1.42522 188.951H3.00022C2.97846 188.819 2.97846 188.686 3.00022 188.554V188.112H3.89173C4.42664 187.627 4.12947 186.81 4.87239 186.368C5.79362 186.633 5.55588 187.317 5.91248 187.781H6.74456L7.19031 188.532L8.94361 188.068C9.01757 188.048 9.09646 188.039 9.1752 188.043C9.25395 188.046 9.3308 188.062 9.40079 188.089C9.47079 188.116 9.53239 188.154 9.5816 188.2C9.63082 188.246 9.66656 188.299 9.68654 188.355C9.18135 189.018 8.23041 189.437 7.5172 190.144L8.55729 190.85C8.37899 191.38 7.60635 190.85 7.22003 191.358L7.54692 192.374C7.54692 192.727 7.99267 193.059 7.54692 193.522C6.56626 193.522 6.03135 192.97 5.37758 192.44C5.34545 192.612 5.29577 192.782 5.22899 192.948C5.22899 193.081 5.02098 193.279 4.84267 193.301C4.66437 193.323 4.45635 193.081 4.3672 192.904L4.07003 192.727Z" fill="#F7F5E9"/>
<path d="M40.2356 192.374L43.029 192.264C43.2964 191.932 43.5044 191.557 43.8313 191.204C43.9959 191.057 44.2297 190.962 44.4851 190.939C44.4851 190.939 44.812 191.137 44.8714 191.27C45.0794 191.8 45.228 192.308 45.4063 192.816C46.2087 193.213 47.3082 192.816 47.962 193.456C47.3676 193.942 46.4167 194.03 45.6143 194.494V196.459C45.5614 196.502 45.4971 196.536 45.4255 196.559C45.3539 196.583 45.2765 196.595 45.1983 196.595C45.1201 196.595 45.0427 196.583 44.9711 196.559C44.8994 196.536 44.8351 196.502 44.7823 196.459C44.4256 196.062 44.1285 195.62 43.7719 195.178C42.7912 195.178 42.3455 195.951 41.3945 196.062C41.0082 195.222 42.1077 194.715 42.1374 193.853C41.6323 193.434 40.6516 193.169 40.2356 192.374Z" fill="#F7F5E9"/>
<path d="M96.9949 25.5722C97.3055 25.5328 97.613 25.4812 97.9162 25.4176C98.243 25.4176 98.5699 25.2631 98.8077 25.4176C99.0454 25.5722 98.8077 25.9034 98.3916 26.1463C98.3064 26.2702 98.2069 26.3884 98.0945 26.4996L97.619 26.7867C97.619 27.0517 97.7973 27.3166 97.8567 27.5816C97.9303 27.7853 97.9898 27.9917 98.035 28.1999C98.0576 28.284 98.0467 28.3711 98.0037 28.4507C97.9607 28.5302 97.8875 28.5988 97.793 28.648C97.6984 28.6971 97.5867 28.7248 97.4714 28.7276C97.356 28.7303 97.2421 28.7081 97.1435 28.6636L95.4497 27.9349C94.677 28.1336 94.2313 28.7961 93.2209 28.5532L93.6072 27.3387C93.0981 27.0825 92.6117 26.8023 92.1511 26.4996C92.0775 26.4496 92.0242 26.3852 91.9972 26.3138C91.9702 26.2424 91.9707 26.1668 91.9985 26.0956C92.0263 26.0244 92.0804 25.9604 92.1546 25.9108C92.2289 25.8612 92.3203 25.8281 92.4185 25.8151L94.261 25.506C94.5879 24.9539 94.885 24.4019 95.2119 23.894C95.2656 23.8276 95.339 23.7712 95.4266 23.7291C95.5142 23.687 95.6135 23.6603 95.7171 23.6511C95.8272 23.653 95.9346 23.6764 96.0286 23.7191C96.1225 23.7617 96.1996 23.8221 96.252 23.894C96.5492 24.2915 96.7275 24.9098 96.9949 25.5722Z" fill="#F7F5E9"/>
<path d="M42.4049 26.3009C41.9976 26.0851 41.6103 25.849 41.2459 25.5943C41.156 25.5237 41.0861 25.4404 41.0401 25.3494C40.9942 25.2584 40.9732 25.1615 40.9785 25.0643C41.0391 24.9756 41.1229 24.8968 41.2249 24.8323C41.327 24.7679 41.4452 24.7191 41.5728 24.689C41.8481 24.6535 42.1296 24.6535 42.4049 24.689H43.445C43.7719 24.2915 44.069 23.894 44.4256 23.5187C44.7822 23.1433 44.812 23.2537 44.9606 23.2978C45.1945 23.3788 45.3909 23.5094 45.5252 23.6732C45.6258 23.9106 45.6954 24.1546 45.7332 24.4019C46.1789 24.4019 46.5653 24.5344 46.9219 24.6227C47.0034 24.6388 47.0778 24.6706 47.1373 24.7151C47.1968 24.7595 47.2394 24.8149 47.2605 24.8756C47.2817 24.9363 47.2808 25.0001 47.2578 25.0604C47.2349 25.1207 47.1907 25.1755 47.1299 25.2189C46.7823 25.4633 46.4151 25.6919 46.0304 25.9034C46.0304 26.3671 46.2087 26.875 46.2384 27.3608C46.2964 27.5572 46.2964 27.7606 46.2384 27.957C46.1933 28.0235 46.1274 28.0809 46.0462 28.1244C45.965 28.168 45.8709 28.1964 45.7718 28.2072C45.6727 28.218 45.5716 28.211 45.4769 28.1867C45.3823 28.1623 45.2969 28.1214 45.228 28.0674L44.2176 27.0517C43.653 27.2946 43.1775 27.5154 42.7021 27.692C42.6282 27.7193 42.5468 27.7334 42.4643 27.7334C42.3818 27.7334 42.3005 27.7193 42.2266 27.692C42.0939 27.5743 42.0204 27.426 42.0186 27.2725C42.1012 26.9395 42.2307 26.6138 42.4049 26.3009Z" fill="#F7F5E9"/>
<path d="M112.567 156.779L111.556 157.331C111.509 157.369 111.451 157.4 111.388 157.42C111.324 157.441 111.255 157.452 111.185 157.452C111.115 157.452 111.046 157.441 110.982 157.42C110.918 157.4 110.861 157.369 110.813 157.331C110.64 157.181 110.527 156.997 110.486 156.801C110.531 156.591 110.601 156.384 110.694 156.183C110.338 156.006 110.011 155.852 109.714 155.675C109.605 155.625 109.518 155.552 109.464 155.466C109.411 155.38 109.392 155.284 109.411 155.19C109.43 155.096 109.486 155.008 109.571 154.937C109.657 154.866 109.768 154.816 109.892 154.792C110.308 154.792 110.754 154.615 111.2 154.527L111.794 154.372C112.121 153.953 112.418 153.533 112.745 153.158C112.811 153.089 112.898 153.034 112.999 152.995C113.099 152.957 113.211 152.937 113.324 152.937C113.438 152.937 113.549 152.957 113.65 152.995C113.751 153.034 113.838 153.089 113.904 153.158C114.201 153.401 113.904 153.864 114.528 153.997C114.872 154.068 115.21 154.157 115.538 154.262C115.538 154.858 114.974 155.035 114.677 155.432C114.379 155.83 114.855 156.47 114.885 157C114.899 157.085 114.881 157.171 114.834 157.249C114.786 157.327 114.711 157.394 114.615 157.442C114.52 157.49 114.409 157.517 114.293 157.521C114.178 157.525 114.064 157.505 113.963 157.464C113.518 157.265 113.131 157.044 112.567 156.779Z" fill="#F7F5E9"/>
<path d="M95.1228 137.193C94.3501 137.193 93.9638 138.165 92.9831 137.612L93.5775 136.243C93.324 136.049 93.0561 135.864 92.7751 135.691C92.4482 135.471 91.9133 135.316 92.0916 134.919C92.2699 134.521 92.8346 134.632 93.2803 134.609H94.261C94.469 134.278 94.7067 133.903 94.9742 133.55C95.0228 133.475 95.0988 133.412 95.1934 133.368C95.288 133.324 95.3974 133.3 95.5091 133.3C95.6207 133.3 95.7301 133.324 95.8247 133.368C95.9193 133.412 95.9953 133.475 96.044 133.55C96.1456 133.7 96.235 133.855 96.3114 134.013L96.5492 134.344C97.2327 134.455 97.9756 133.969 98.6888 134.477C98.3916 135.228 97.2624 135.471 96.7275 136.243C96.8316 136.564 96.911 136.888 96.9652 137.215C96.9672 137.317 96.9419 137.418 96.8909 137.513C96.8399 137.608 96.7642 137.694 96.668 137.767C96.5421 137.852 96.3779 137.9 96.2074 137.9C96.037 137.9 95.8727 137.852 95.7468 137.767L95.1228 137.193Z" fill="#F7F5E9"/>
<path d="M81.3341 44.1646C81.2081 44.0421 81.1262 43.8977 81.0964 43.7451C81.0964 42.8398 80.7398 42.2877 79.3728 42.3319C79.1945 42.3319 79.0162 42.1552 78.8973 42.089C78.8847 42.0322 78.8881 41.974 78.907 41.9182C78.926 41.8623 78.9603 41.81 79.0077 41.7644C79.0551 41.7189 79.1146 41.681 79.1825 41.6533C79.2504 41.6256 79.3253 41.6085 79.4025 41.6032L81.1261 41.3824C81.1261 40.9408 81.1261 40.5433 81.3044 40.1238C81.3299 40.0434 81.3852 39.97 81.4641 39.9119C81.5429 39.8537 81.6421 39.8131 81.7504 39.7947C81.8587 39.7763 81.9717 39.7809 82.0768 39.8078C82.1818 39.8347 82.2745 39.883 82.3445 39.9471C82.5525 40.1017 82.7011 40.2783 82.8794 40.4329L83.4143 40.7862C83.8196 40.6422 84.2364 40.5168 84.6624 40.4108C84.6624 40.4108 85.0487 40.4108 85.0784 40.4108C85.1212 40.4801 85.1433 40.5554 85.1433 40.6316C85.1433 40.7078 85.1212 40.7832 85.0784 40.8524C84.8407 41.1174 84.5435 41.3603 84.2166 41.6694C84.5435 42.0669 84.8704 42.4644 85.1676 42.8618C85.4648 43.2593 85.4945 43.3697 85.1676 43.5464C84.8921 43.6725 84.568 43.7269 84.2464 43.7009C83.7312 43.5991 83.2251 43.4738 82.7308 43.3255C82.077 43.5022 82.3445 44.4075 81.3341 44.1646Z" fill="#F7F5E9"/>
<path d="M60.1162 39.7484C59.403 40.0134 59.1653 40.8083 58.0954 40.4108L58.3332 38.8651C58.079 38.7582 57.8401 38.6324 57.62 38.4897C57.4102 38.364 57.2551 38.195 57.1742 38.004C57.1742 37.6948 57.5308 37.6065 57.8577 37.5623C58.0438 37.5567 58.2265 37.5235 58.3951 37.4647C58.5637 37.4058 58.7147 37.3225 58.8393 37.2196C58.964 37.1168 59.0596 36.9964 59.1207 36.8656C59.1817 36.7349 59.207 36.5964 59.195 36.4583C59.1815 36.3481 59.1815 36.2372 59.195 36.1271C59.2729 36.0753 59.3663 36.0382 59.4675 36.0188C59.5687 35.9994 59.6746 35.9983 59.7765 36.0156C59.8783 36.0329 59.9731 36.0681 60.0529 36.1182C60.1327 36.1683 60.1952 36.2319 60.2351 36.3037C60.4611 36.5334 60.66 36.7772 60.8294 37.0324C61.3643 37.2311 61.8398 37.0324 62.345 37.0324C62.612 37.0352 62.8674 37.1143 63.0582 37.2532C63.2959 37.5182 63.0582 37.7169 62.761 37.8936L61.7209 38.5339C61.8931 38.8945 62.0321 39.2634 62.1369 39.638C62.1454 39.7221 62.1266 39.8064 62.0824 39.8841C62.0381 39.9617 61.9695 40.0304 61.8823 40.0844C61.7951 40.1384 61.6918 40.1761 61.5811 40.1945C61.4703 40.2129 61.3552 40.2113 61.2454 40.19L60.6214 39.9913L60.1162 39.7484Z" fill="#F7F5E9"/>
<path d="M53.0436 9.87244L51.8252 8.83462C51.817 8.7556 51.8309 8.67617 51.866 8.60133C51.9011 8.5265 51.9567 8.45788 52.0293 8.3998C52.1019 8.34172 52.1899 8.29544 52.2877 8.26387C52.3856 8.23229 52.4911 8.21611 52.5978 8.21635C52.9542 8.20263 53.3113 8.20263 53.6676 8.21635L55.2426 6.6265C56.3719 6.89147 55.7478 7.57599 55.9855 8.01762C57.7686 8.393 57.7983 8.45924 56.461 9.43082V9.60747C56.461 9.89452 56.461 10.2699 56.6393 10.6453C56.8176 11.0207 56.6393 11.1752 56.4313 11.3298C56.2233 11.4844 55.6884 11.3298 55.3615 11.1311L54.5591 10.6453L52.895 11.4402C52.895 11.2194 52.5681 11.0207 52.5978 10.8661C52.7239 10.5295 52.8727 10.1979 53.0436 9.87244Z" fill="#F7F5E9"/>
<path d="M73.4591 3.40263V4.68335C73.4794 4.78791 73.4486 4.89442 73.3723 4.98355C73.296 5.07268 73.1791 5.13852 73.0431 5.16913C72.9632 5.18957 72.8785 5.19773 72.7942 5.19312C72.7099 5.18851 72.6278 5.17123 72.5527 5.14232C72.4777 5.11342 72.4114 5.07349 72.3577 5.02495C72.3041 4.97642 72.2643 4.9203 72.2407 4.86C72.0624 4.63918 71.9138 4.41837 71.795 4.24172C70.9034 4.02091 70.1308 4.88208 69.1799 4.24172L70.2497 3.00517L69.269 2.21025C69.2786 2.13079 69.3113 2.05383 69.3649 1.98467C69.4184 1.91551 69.4914 1.85579 69.579 1.80961C69.6665 1.76344 69.7665 1.73192 69.872 1.71722C69.9776 1.70252 70.0861 1.70499 70.1902 1.72446L71.3492 1.74654C71.765 1.28196 72.1136 0.786068 72.3893 0.267096C72.3893 0.134609 72.7756 -0.0199599 72.8945 0.00212139C73.0134 0.0242026 73.3997 0.245015 73.4294 0.399584C73.463 0.83349 73.463 1.26847 73.4294 1.70238L75.0935 2.25441C74.9152 2.89477 73.994 2.87268 73.4591 3.40263Z" fill="#F7F5E9"/>
<path d="M139.698 196.393C139.473 196.493 139.234 196.574 138.985 196.636C138.909 196.664 138.824 196.676 138.739 196.671C138.654 196.667 138.573 196.645 138.503 196.609C138.433 196.573 138.378 196.524 138.342 196.466C138.307 196.409 138.293 196.345 138.301 196.282C138.301 195.951 138.301 195.62 138.301 195.377C138.237 195.268 138.158 195.164 138.064 195.068C136.935 194.229 136.964 194.14 138.569 193.809C138.569 193.809 138.569 193.809 138.747 193.809C138.926 193.809 138.747 192.86 139.639 192.749C140.53 192.639 140.352 193.368 140.709 193.743C141.025 193.723 141.343 193.723 141.66 193.743C142.254 193.743 142.402 194.141 142.046 194.472C141.689 194.803 141.541 194.891 141.243 195.134C141.392 195.554 141.541 195.951 141.66 196.349C141.679 196.434 141.667 196.521 141.625 196.602C141.584 196.683 141.514 196.754 141.423 196.808C141.332 196.862 141.224 196.897 141.108 196.909C140.993 196.922 140.876 196.911 140.768 196.879C140.4 196.731 140.043 196.569 139.698 196.393Z" fill="#F7F5E9"/>
<path d="M89.7737 8.83462L91.4676 9.34249C91.3887 9.51716 91.2565 9.67588 91.0813 9.8062C90.7561 9.96192 90.4069 10.088 90.0412 10.1816C90.007 10.5674 89.9375 10.951 89.8331 11.3298C89.8331 11.4623 89.5063 11.5727 89.328 11.6169C89.1621 11.6163 89.0028 11.5689 88.8822 11.4844C88.6903 11.2432 88.5215 10.9924 88.377 10.7336C87.4558 10.5349 86.6534 11.2636 85.7322 10.8661C85.5836 10.292 86.5643 10.2037 86.594 9.67371C86.6116 9.62302 86.6116 9.56983 86.594 9.51914C86.2077 8.83462 86.2077 8.83462 87.0398 8.68005H87.5747L88.2879 7.86305C88.4662 7.64223 88.6742 7.42142 89.0902 7.46559C89.5063 7.50975 89.6251 7.84097 89.6548 8.1501C89.6846 8.45924 89.744 8.54757 89.7737 8.83462Z" fill="#F7F5E9"/>
<path d="M71.3492 72.6936C71.9435 72.6936 72.003 73.069 72.0921 73.334L73.5185 76.9553C75.7473 82.9393 78.0058 88.9233 80.1751 94.9073C82.9883 102.68 85.7916 110.453 88.585 118.225C90.1105 122.494 91.6162 126.749 93.102 130.988C93.2796 131.43 93.4186 131.88 93.518 132.335C93.487 132.496 93.382 132.644 93.2209 132.755C93.1566 132.777 93.087 132.789 93.0162 132.791C92.9453 132.793 92.8747 132.785 92.8083 132.766C92.742 132.748 92.6812 132.719 92.6296 132.683C92.578 132.647 92.5365 132.604 92.5077 132.556C92.1213 131.673 91.7053 130.811 91.4081 129.928C88.169 121.096 84.9893 112.263 81.7798 103.431C80.086 98.6832 78.3327 93.9579 76.6685 89.2104C74.8855 84.1096 73.1619 78.9868 71.4086 73.8639C71.2171 73.4891 71.1962 73.078 71.3492 72.6936Z" fill="#F7F5E9"/>
<path d="M95.9846 195.487C95.5388 195.487 95.0336 195.487 94.5284 195.487C92.3294 195.487 90.1303 195.487 87.9015 195.487C86.7723 195.487 85.6728 195.333 84.5435 195.311L72.3299 195.024C69.3582 195.024 66.3865 194.737 63.4148 194.604H63.0285C60.2053 194.604 57.3822 194.45 54.5888 194.339C53.1624 194.339 51.7657 194.163 50.369 194.074C50.2375 194.068 50.1103 194.037 50.0007 193.982C49.891 193.928 49.8027 193.853 49.745 193.765C49.953 193.412 50.3393 193.456 50.6365 193.456C53.4596 193.456 56.2827 193.456 59.1058 193.456C61.9289 193.456 64.3063 193.456 66.9214 193.655L76.9063 194.008H78.4218C81.869 194.008 85.3162 194.141 88.7633 194.273C91.0218 194.273 93.2803 194.56 95.5091 194.715C95.9846 194.847 96.252 195.024 95.9846 195.487Z" fill="#F7F5E9"/>
<path d="M178.152 194.096C177.884 194.096 177.647 194.361 177.528 194.317C177.147 194.245 176.785 194.126 176.458 193.964C173.486 192.396 170.277 190.85 167.216 189.261L152.863 181.665C152.209 181.333 151.615 180.958 150.991 180.583C150.812 180.479 150.661 180.352 150.545 180.207C150.485 180.094 150.485 179.968 150.545 179.854C150.545 179.854 150.872 179.699 150.961 179.854C151.323 179.972 151.671 180.112 152.001 180.273C154.259 181.4 156.518 182.482 158.747 183.652C164.215 186.478 169.653 189.349 175.091 192.197C175.923 192.639 176.755 193.081 177.558 193.566C177.786 193.723 177.985 193.901 178.152 194.096Z" fill="#F7F5E9"/>
<path d="M116.905 158.457C117.132 158.541 117.351 158.637 117.559 158.744L123.294 162.079C126.801 164.154 130.337 166.252 133.844 168.372C136.013 169.697 138.123 171.11 140.233 172.479C140.233 172.479 140.53 172.655 140.56 172.766C140.62 172.917 140.62 173.078 140.56 173.23C140.491 173.257 140.415 173.271 140.337 173.271C140.259 173.271 140.183 173.257 140.114 173.23C139.855 173.157 139.614 173.052 139.401 172.92C136.845 171.463 134.29 170.028 131.793 168.504L120.144 161.394C119.075 160.732 118.035 160.025 116.965 159.318C116.757 159.178 116.594 159.004 116.489 158.81C116.489 158.81 116.489 158.59 116.489 158.501C116.489 158.413 116.697 158.501 116.905 158.457Z" fill="#F7F5E9"/>
<path d="M143.383 195.465C143.561 195.311 143.651 195.2 143.799 195.156C143.964 195.122 144.139 195.122 144.304 195.156L149.861 195.487H150.515L156.072 195.752L164.987 196.282L170.396 196.658C171.555 196.658 172.743 196.901 173.902 197.055C174.378 197.055 174.348 197.055 174.348 197.74C172.957 197.872 171.549 197.872 170.158 197.74C168.642 197.74 167.186 197.453 165.641 197.342L155.508 196.614C153.011 196.437 150.485 196.194 147.959 195.995L144.423 195.708C144.061 195.67 143.71 195.588 143.383 195.465Z" fill="#F7F5E9"/>
<path d="M60.978 42.6852C60.978 42.6852 61.3346 42.7956 61.394 42.8839C61.5801 43.1364 61.7295 43.4029 61.8398 43.6788C63.5931 48.3601 65.1681 53.0855 66.6242 57.8108C66.8025 58.385 66.9808 58.937 67.1294 59.5111C67.2019 59.6686 67.2019 59.8394 67.1294 59.9969C67.0872 60.0682 67.0259 60.1324 66.9493 60.1855C66.8727 60.2387 66.7823 60.2797 66.6836 60.306C66.6143 60.3314 66.538 60.3445 66.4608 60.3445C66.3835 60.3445 66.3072 60.3314 66.2379 60.306C66.0066 59.9739 65.8176 59.6265 65.6733 59.2682C63.8605 54.0791 62.0478 48.89 60.6214 43.6568C60.5619 43.453 60.5619 43.2422 60.6214 43.0385C60.6214 43.0385 60.8294 42.7735 60.978 42.6852Z" fill="#F7F5E9"/>
<path d="M108.614 195.951C108.861 195.803 109.13 195.677 109.417 195.576C109.803 195.576 110.219 195.576 110.605 195.576L113.31 195.421H114.647L119.55 195.222L127.811 194.847L132.566 194.67C133.268 194.538 134.004 194.538 134.706 194.67C134.805 194.707 134.891 194.759 134.958 194.824C135.025 194.89 135.071 194.965 135.092 195.046C135.092 195.046 134.854 195.289 134.676 195.399C134.498 195.51 134.468 195.399 134.349 195.399L128.109 195.664L123.562 195.841H119.491L113.399 195.995C112.121 195.995 110.813 195.995 109.506 195.995C109.268 196.238 109.03 196.084 108.614 195.951Z" fill="#F7F5E9"/>
<path d="M98.3619 139.114C98.5996 139.114 98.8077 139.114 98.8968 139.224C99.1305 139.415 99.3395 139.622 99.5209 139.843C103.146 144.038 106.712 148.278 110.011 152.65C110.159 152.822 110.279 153.008 110.368 153.202C110.426 153.353 110.426 153.514 110.368 153.666C110.368 153.82 109.892 153.666 109.684 153.511L109.268 153.114C105.563 148.903 102.027 144.605 98.6591 140.218C98.4688 140.009 98.3281 139.778 98.243 139.534C98.0944 139.379 98.2727 139.224 98.3619 139.114Z" fill="#F7F5E9"/>
<path d="M21.5436 202.068C21.3653 202.068 21.187 202.222 21.0978 202.2C20.8402 202.115 20.6 202.004 20.3846 201.869C16.4917 199.352 12.9554 196.592 9.30022 193.92C9.05127 193.747 8.84066 193.545 8.67616 193.324C8.624 193.256 8.59653 193.18 8.59653 193.103C8.59653 193.025 8.624 192.949 8.67616 192.882C8.77271 192.845 8.87967 192.826 8.98819 192.826C9.09671 192.826 9.20366 192.845 9.30022 192.882C9.70253 193.032 10.073 193.226 10.3997 193.456C13.3714 195.664 16.0162 197.696 18.8096 199.837C19.6417 200.456 20.4441 201.118 21.2464 201.759C21.3584 201.854 21.4579 201.958 21.5436 202.068Z" fill="#F7F5E9"/>
<path d="M84.4247 39.7484C84.2464 39.5496 84.0383 39.4172 84.0681 39.2847C84.0881 39.0824 84.1694 38.8862 84.3058 38.7106C84.7813 38.0481 85.2567 37.3636 85.7916 36.7232C87.6341 34.5151 89.5063 32.307 91.3784 30.0989C91.6465 29.8369 91.9558 29.5997 92.2996 29.3923C92.369 29.3669 92.4452 29.3538 92.5225 29.3538C92.5998 29.3538 92.6761 29.3669 92.7454 29.3923C92.7454 29.3923 93.0129 29.6131 92.9831 29.7014C92.8654 29.9754 92.7162 30.2413 92.5374 30.4963C91.8242 31.4017 91.1704 32.3291 90.3978 33.2123C88.7039 35.2217 86.9506 37.2311 85.1973 39.2405C84.959 39.4253 84.7005 39.5951 84.4247 39.7484Z" fill="#F7F5E9"/>
<path d="M53.519 12.4118C53.4099 12.7164 53.2606 13.0122 53.0733 13.295C51.2903 15.9669 49.4775 18.6166 47.5756 21.2664C47.284 21.6736 46.9246 22.052 46.5058 22.3925C46.3893 22.4322 46.2626 22.4528 46.1344 22.4528C46.0062 22.4528 45.8795 22.4322 45.7629 22.3925C45.6962 22.3763 45.6352 22.3493 45.5842 22.3135C45.5332 22.2777 45.4935 22.234 45.4679 22.1855C45.4424 22.1369 45.4316 22.0848 45.4363 22.0328C45.4411 21.9808 45.4613 21.9302 45.4955 21.8846C45.6708 21.3975 45.9096 20.9241 46.2087 20.4714C48.17 18.0204 50.1016 15.459 52.0332 12.8976C52.1864 12.6696 52.387 12.4609 52.6275 12.2793C52.9247 12.0806 53.2516 12.1247 53.519 12.4118Z" fill="#F7F5E9"/>
<path d="M47.219 27.8466C47.5162 27.8466 47.7539 27.8466 47.9025 27.8466C48.2049 27.9551 48.4771 28.1049 48.7049 28.2882L52.8058 31.6446C53.6973 32.3732 54.6186 33.124 55.4804 33.8527C56.3421 34.5814 56.7582 35.023 57.3525 35.6192C57.4913 35.7531 57.574 35.9143 57.5903 36.0829C57.6035 36.1429 57.5968 36.2044 57.5709 36.2621C57.5451 36.3198 57.5007 36.372 57.4417 36.4141C57.2634 36.4141 56.9662 36.5466 56.8473 36.4141C56.4633 36.2453 56.1132 36.0372 55.8072 35.7958C54.5294 34.7359 53.2516 33.5877 52.0332 32.5941C50.8148 31.6004 49.5964 30.3859 48.4077 29.2819C47.8472 28.8902 47.437 28.3949 47.219 27.8466Z" fill="#F7F5E9"/>
<path d="M77.7978 41.537C77.3119 41.7241 76.7472 41.7637 76.2228 41.6474L68.5261 40.3446L64.9303 39.7484C64.559 39.6571 64.2006 39.5387 63.8605 39.3951C63.8017 39.3576 63.7571 39.3094 63.7311 39.2551C63.705 39.2009 63.6984 39.1426 63.7119 39.0859C63.7365 39.029 63.7789 38.9773 63.8358 38.9351C63.8927 38.8928 63.9623 38.8613 64.0388 38.843C64.3144 38.8097 64.5954 38.8097 64.8709 38.843C68.7341 39.4834 72.5973 39.9692 76.3714 40.8524C76.7531 40.9225 77.1223 41.0263 77.4709 41.1616C77.6492 41.1395 77.7086 41.3603 77.7978 41.537Z" fill="#F7F5E9"/>
<path d="M89.8034 12.6768C89.9817 12.6768 90.2789 12.6768 90.3383 12.8534C90.6008 13.1798 90.8103 13.5282 90.9624 13.8912L94.261 22.7237C94.349 22.9623 94.4087 23.2061 94.4393 23.4524C94.4351 23.514 94.4078 23.5735 94.3606 23.6243C94.3133 23.675 94.2479 23.7149 94.1718 23.7395C94.1086 23.7666 94.0368 23.7809 93.9638 23.7809C93.8908 23.7809 93.819 23.7666 93.7558 23.7395C93.5812 23.5752 93.4501 23.3879 93.3695 23.1874C92.1511 20.1402 90.9327 17.093 89.744 14.0237C89.6164 13.8104 89.5554 13.5785 89.5657 13.3452C89.576 13.1119 89.6573 12.8834 89.8034 12.6768Z" fill="#F7F5E9"/>
<path d="M85.4945 7.88513C85.2775 7.90695 85.0576 7.90695 84.8407 7.88513C84.5731 7.82303 84.3144 7.74168 84.0681 7.64224L75.9553 4.57294C75.7022 4.47334 75.4632 4.35497 75.2421 4.21964C75.0976 4.15144 74.9949 4.04385 74.956 3.91999C74.9171 3.79613 74.9452 3.66588 75.0341 3.5572C75.1263 3.47569 75.2534 3.42023 75.3941 3.40013C75.5348 3.38002 75.6805 3.3965 75.8067 3.4468C76.3714 3.64553 76.936 3.84426 77.4709 4.06507L84.5435 7.04604C84.9596 7.22269 85.5242 7.3331 85.4945 7.88513Z" fill="#F7F5E9"/>
<path d="M67.5751 3.13766C68.1101 3.53512 68.1695 3.68969 67.8723 3.86634L67.3374 4.1534L59.4624 7.39934C59.2737 7.4861 59.0747 7.56 58.8681 7.62015C58.7338 7.65798 58.5868 7.66341 58.4481 7.63566C58.3094 7.60792 58.186 7.54841 58.0954 7.46559C58.0207 7.35376 58.0069 7.22486 58.0567 7.10563C58.1065 6.98639 58.2161 6.88598 58.3629 6.82523L58.4818 6.6265C61.4832 5.43411 64.544 4.41837 67.5751 3.13766Z" fill="#F7F5E9"/>
<path d="M30.9639 200.942C31.0525 200.789 31.1728 200.647 31.3205 200.522C31.8851 200.125 32.4794 199.749 33.0738 199.374L38.6606 195.863C38.8828 195.74 39.1351 195.65 39.4035 195.598C39.4035 195.598 39.6115 195.598 39.6709 195.598C39.6906 195.633 39.7007 195.67 39.7007 195.708C39.7007 195.746 39.6906 195.784 39.6709 195.819C39.5689 196.008 39.4174 196.181 39.2252 196.327L33.2818 200.125C32.6459 200.533 31.9813 200.916 31.2908 201.273C31.3502 201.494 30.9639 201.295 30.9639 200.942Z" fill="#F7F5E9"/>
</svg>
