<svg width="99" height="104" viewBox="0 0 99 104" fill="none" xmlns="http://www.w3.org/2000/svg">
<path d="M98.6646 66.2965L98.3385 65.7621C97.5887 64.533 96.215 62.5036 96.1702 62.5588C96.1539 62.5788 96.0521 62.8133 95.9439 63.08C95.6572 63.7866 94.96 65.2417 94.6281 65.826L94.3407 66.332L94.1693 67.3731C93.1947 73.2914 91.0721 78.6579 87.8941 83.2391C87.3192 84.0678 86.2963 85.3801 85.7348 86.0091C84.2781 87.6412 83.1534 88.706 81.4898 90.0281C81.394 90.1043 81.299 90.1615 81.2788 90.1551C81.2586 90.1488 81.242 90.1637 81.242 90.1884C81.242 90.2343 80.3909 90.8631 80.3401 90.8548C80.3246 90.8523 80.2915 90.8762 80.2666 90.908C80.1744 91.0254 79.1471 91.6681 79.0995 91.6381C79.0724 91.6211 79.0625 91.6275 79.0776 91.6523C79.1101 91.7059 78.2468 92.2092 77.2555 92.7145C76.8654 92.9135 76.5344 93.0923 76.5201 93.1119C76.5058 93.1316 76.4482 93.4329 76.3923 93.7816M75.6333 96.1474C75.8023 95.3411 76.1627 93.317 76.1412 93.2952C76.1342 93.2881 75.7733 93.426 75.3391 93.6015C74.4401 93.9652 73.5872 94.2626 72.7415 94.5072C72.1999 94.6639 72.1286 94.6982 71.7434 94.9878C69.7081 96.5173 67.1148 98.0735 64.8857 99.1029C63.7902 99.6088 63.8928 99.5636 63.0482 99.9115C61.2961 100.633 59.0096 101.338 57.1469 101.731C54.79 102.227 52.8906 102.428 50.5407 102.428C47.7103 102.429 45.3854 102.114 42.858 101.388C42.2662 101.218 41.2988 100.901 41.0412 100.793C40.9956 100.773 40.7812 100.903 40.4287 101.163C39.6104 101.767 37.9535 102.878 37.0315 103.442M36.3246 103.5C37.8418 102.597 40.5483 100.769 40.55 100.647C40.5502 100.627 40.4316 100.562 40.2864 100.501C39.4758 100.16 39.1735 100.02 38.4069 99.6307C37.9427 99.3948 37.3914 99.0988 37.1819 98.973C36.8227 98.7571 36.7661 98.7386 36.1885 98.648C30.0574 97.6862 24.1321 95.2085 19.5146 91.676C16.7368 89.551 14.3283 86.995 12.5654 84.3013C11.8504 83.2088 11.0877 81.8567 10.6908 80.9781C10.5928 80.7611 10.4963 80.5836 10.4765 80.5836C10.3868 80.5835 1.64457 78.5692 1.64457 76.6773M10.3269 80.2161C10.3269 80.1995 10.2134 79.9065 10.0746 79.565C9.76673 78.8073 9.28584 77.3705 9.10817 76.6773C8.98535 76.1983 8.95595 76.1367 8.64901 75.7155C7.4401 74.0567 6.02983 71.6916 5.06877 69.7114C1.78681 62.9491 0.631702 55.7113 1.77714 49.0864C2.01439 47.7144 2.44056 46.0301 2.83538 44.9043L3.01446 44.3936L2.82567 44.1422C2.54741 43.7716 1.46776 42.1651 1.03805 41.4823L0.664551 40.8889M22.9854 12.5759C22.9091 13.0318 22.8422 13.4082 22.8367 13.4126C22.8312 13.4169 22.4285 13.6278 21.9419 13.8812C17.2069 16.3467 13.1558 20.2652 10.1585 25.2789C7.65507 29.4663 5.99847 34.0638 5.1563 39.1615L4.98384 40.2052L4.70213 40.702C4.31856 41.3784 3.67388 42.7193 3.3801 43.4517C3.13923 44.0523 3.13764 44.0547 3.05783 43.9499C2.81905 43.6365 1.83703 42.1761 1.43432 41.5355C1.17888 41.129 0.902069 40.6926 0.819221 40.5656L0.668589 40.3347M39.6233 57.7519C38.9153 59.2141 27.6246 60.9388 27.1863 62.2046C27.0936 62.4724 27.0021 62.7173 26.983 62.7489C26.957 62.7915 26.8155 62.7482 26.4301 62.5797C22.034 60.6588 17.893 58.2322 14.2629 55.4499C13.9697 55.2252 13.7298 55.0187 13.7298 54.9912C13.7298 54.9182 14.6817 53.6901 15.2996 52.9659C16.3764 51.7037 18.1899 49.9359 19.5322 48.8398C20.4672 48.0764 22.1232 46.8575 22.6052 46.5779C22.6373 46.5592 22.7279 46.7307 22.8513 47.0438C23.5013 48.6928 24.4509 50.4883 25.4703 51.996C26.3848 53.3486 27.226 54.3711 28.5089 55.6896C29.0644 56.2606 29.5189 56.7422 29.5189 56.76C29.5189 56.7778 39.867 57.2483 39.6233 57.7519ZM39.6233 57.7519C39.5728 57.8032 38.2939 56.023 37.7112 55.0903C37.497 54.7474 37.3288 54.4461 37.3375 54.4206C37.3462 54.3952 37.4112 54.203 37.482 53.9934C37.5528 53.7839 37.6276 53.6124 37.6482 53.6124C37.6689 53.6124 37.6857 53.6312 37.6857 53.6542C37.6857 53.7227 38.2864 54.6283 38.5464 54.9518C38.6791 55.1169 38.9051 55.3766 39.0485 55.529C39.2742 55.769 39.3132 55.8371 39.3389 56.0371C39.3552 56.1641 39.4299 56.5977 39.5048 57.0008C39.5798 57.4039 39.6331 57.7418 39.6233 57.7519ZM67.1997 0.500003C67.0749 0.557178 66.5236 0.828371 65.9746 1.1027C63.5335 2.32255 61.1333 3.78887 58.9544 5.39162L58.4037 5.79661L57.4676 5.48389C55.4973 4.82569 53.4082 4.4009 51.0929 4.18772C50.2579 4.11087 47.354 4.11021 46.4651 4.18669C43.6548 4.42855 41.0892 4.9582 38.4344 5.84469C34.7955 7.05969 31.2235 8.91732 27.9783 11.2822C27.5926 11.5633 27.2506 11.8099 27.2184 11.8302C27.1862 11.8505 26.8484 11.9582 26.4678 12.0696C25.6046 12.3223 24.6049 12.673 23.8809 12.9773C23.5756 13.1056 23.291 13.2213 23.2484 13.2342C23.1568 13.2621 24.5952 6.79064 25.8975 5.84469M98.6007 28.5197C98.5656 28.506 98.0908 28.34 97.5458 28.1508C95.3359 27.3837 93.1437 26.7918 90.8607 26.3456C90.1008 26.1971 88.9417 25.9948 88.851 25.9947C88.8311 25.9947 88.7309 25.8128 88.6282 25.5906C88.1406 24.5343 87.3831 23.2059 86.6069 22.046C81.9933 15.1511 74.0698 10.1103 64.9056 8.23999C64.0444 8.06417 62.8034 7.84489 62.6692 7.84471C62.623 7.84466 62.3311 7.69816 62.0205 7.5192C61.2576 7.07949 60.2658 6.58413 59.4299 6.22524C58.7442 5.93082 58.739 5.92754 58.8401 5.84695C58.8962 5.8022 59.2832 5.52219 59.7001 5.22467M98.6646 65.6845L98.4236 65.2944C98.0425 64.6774 97.1239 63.2933 96.695 62.6895C96.4401 62.3307 96.3128 62.1124 96.3317 62.066C96.435 61.8115 96.7908 60.6903 96.9405 60.1474C98.6312 54.0194 98.2343 47.1673 95.8032 40.5144C94.5902 37.1949 92.8106 33.8312 90.7508 30.9646L90.3563 30.4156L90.1288 29.608C89.8779 28.7174 89.5759 27.8342 89.2328 26.9877C89.1093 26.6828 89.0065 26.4104 89.0044 26.3821C88.9965 26.2774 91.2736 26.7114 93.1705 27.1763C94.7563 27.5649 97.6588 28.4622 98.4577 28.8108M1.66571 55.9349C1.83431 59.0819 2.58325 62.7284 3.67906 65.738C4.86315 68.9901 6.16571 71.5599 8.13736 74.5335C8.70051 75.3829 8.87287 75.6149 8.81471 75.4452C8.72251 75.1765 8.47411 73.6021 8.3757 72.6631C8.31517 72.0857 8.24058 70.2555 8.26367 69.9152C8.27316 69.7755 8.29221 69.3598 8.30601 68.9915C8.3467 67.9059 8.49883 66.6739 8.74288 65.4535L8.8824 64.7559L8.64974 64.2839C7.56705 62.0878 6.50391 59.1059 5.83559 56.3907C5.10276 53.4135 4.6113 49.6808 4.61039 47.0851L4.61016 46.4923L4.30391 46.1087C4.04761 45.7877 3.44639 45.002 3.2684 44.7556C3.212 44.6774 3.13977 44.8594 2.84178 45.8305C1.89071 48.9299 1.47964 52.4617 1.66571 55.9349ZM3.69194 44.818C4.46262 45.8396 4.5431 45.9429 4.56897 45.9444C4.58371 45.9453 4.6088 45.4108 4.62468 44.7568C4.64923 43.7472 4.75789 42.1275 4.8617 41.2241L4.8896 40.9813L4.71982 41.2814C4.46779 41.7271 3.92274 42.8954 3.61268 43.6545C3.46259 44.022 3.34 44.3294 3.34031 44.3376C3.34063 44.3459 3.49884 44.5621 3.69194 44.818ZM4.88625 48.1397C5.15602 53.7465 6.48835 59.1784 8.77664 64.0013C8.88258 64.2246 8.97151 64.3628 8.98453 64.3245C8.99705 64.2878 9.04061 64.1226 9.08131 63.9575C9.12201 63.7924 9.24682 63.3572 9.35862 62.9903C10.1326 60.4508 11.2877 58.0238 12.8002 55.7594L13.2633 55.0661L12.6005 54.5271C10.0494 52.453 7.29872 49.7368 5.23093 47.25C5.03583 47.0154 4.86742 46.8235 4.85662 46.8235C4.83225 46.8235 4.84047 47.1874 4.88625 48.1397ZM5.24776 46.8004C6.96352 48.8669 9.00517 50.9803 11.0529 52.8095C11.6266 53.3221 13.2449 54.6755 13.2626 54.6576C13.2687 54.6514 13.1817 54.409 13.0693 54.119C12.0033 51.3675 11.363 48.4262 11.1394 45.2532C11.0718 44.2931 11.0724 41.9591 11.1405 40.9582C11.3193 38.333 11.7589 35.8355 12.5016 33.2255C12.6022 32.8715 12.6762 32.5733 12.6658 32.5627C12.6401 32.5366 11.9275 33.0355 11.2288 33.5688C9.51215 34.8792 7.90492 36.5244 6.57487 38.3326C6.03432 39.0675 5.3101 40.1901 5.244 40.3956C5.11777 40.7879 4.90158 43.4525 4.85548 45.1839L4.82595 46.2924L5.24776 46.8004ZM5.37331 39.5481C5.39472 39.5235 5.57153 39.2644 5.76626 38.9723C6.59942 37.7224 7.42848 36.7044 8.53431 35.5733C9.75766 34.3221 10.9914 33.2893 12.3315 32.3949L12.8615 32.0412L12.9616 31.7312C13.5579 29.8852 14.5303 27.6004 15.5111 25.7407C17.3081 22.3334 19.5533 19.1761 22.0647 16.5247L22.5277 16.0358L22.6006 15.3924C22.6406 15.0386 22.6998 14.5412 22.7321 14.2872C22.7644 14.0332 22.7838 13.8169 22.7752 13.8066C22.7485 13.7745 21.6818 14.3316 20.9221 14.7744C16.8579 17.1432 13.2669 20.7326 10.5744 25.1172C8.5501 28.4137 6.99732 32.1744 6.04552 36.0858C5.80978 37.0545 5.63514 37.9117 5.35892 39.4558C5.34495 39.5338 5.35116 39.5736 5.37331 39.5481ZM8.608 71.9011C8.68127 73.0292 8.87088 74.3564 9.12913 75.5496C9.26084 76.1582 9.26157 76.1594 10.0632 77.1721C10.7481 78.0373 11.8386 79.2902 12.5558 80.0357L13.1173 80.6194L13.7978 80.6721C15.4236 80.798 15.844 80.8173 17.5409 80.8444C19.8714 80.8816 21.7108 80.7997 24.0865 80.5532C24.5049 80.5098 24.8316 80.459 24.8124 80.4402C24.7933 80.4215 24.4992 80.2811 24.1588 80.1283C21.8196 79.0779 19.4601 77.5747 17.4048 75.8255C15.4212 74.1372 13.4596 71.9945 11.9212 69.8354C10.995 68.5356 9.82095 66.615 9.1956 65.3767C9.16003 65.3064 9.11593 65.2648 9.09755 65.2844C9.0485 65.3366 8.84569 66.5042 8.74243 67.3289C8.56526 68.7438 8.51467 70.4644 8.608 71.9011ZM9.31275 65.089C9.37645 65.216 9.55203 65.5486 9.70294 65.828C12.0442 70.1629 15.1515 73.8519 18.8113 76.6415C19.9944 77.5432 21.3716 78.4257 22.7213 79.1466C23.6313 79.6328 25.0035 80.2536 25.054 80.2022C25.0666 80.1894 25.0458 79.9322 25.0077 79.6307C24.8291 78.2184 24.783 77.3881 24.7821 75.5727C24.781 72.9609 24.9624 71.0304 25.4411 68.5622C25.519 68.161 25.5751 67.8264 25.5658 67.8187C25.5565 67.8109 25.3106 67.6861 25.0192 67.5412C21.7562 65.9194 18.6184 63.2406 16.3597 60.1486C15.4478 58.9003 14.7147 57.6812 13.9906 56.2092C13.5552 55.3241 13.5259 55.2775 13.4537 55.3548C13.3133 55.5052 12.4767 56.814 12.073 57.5149C11.1293 59.1535 10.2695 61.0926 9.73869 62.7798C9.54359 63.4 9.19215 64.6962 9.19478 64.786C9.19592 64.8257 9.249 64.962 9.31275 65.089ZM9.75552 77.8357C10.0138 78.6226 10.3332 79.4818 10.5902 80.0812C10.6963 80.3287 10.6239 80.3057 11.7308 80.4441C12.8252 80.581 12.7764 80.6097 12.2979 80.1102C12.0729 79.8752 11.7671 79.5473 11.6183 79.3814C11.4695 79.2155 11.2548 78.9765 11.1411 78.8503C10.9488 78.6368 9.94463 77.4231 9.61387 77.0044C9.53357 76.9028 9.46782 76.8508 9.46773 76.8889C9.4676 76.927 9.59713 77.353 9.75552 77.8357ZM11.2266 81.438C12.6717 84.2728 14.3318 86.5356 16.6648 88.8504C21.1805 93.3308 27.2323 96.5154 34.0787 98.0141C34.6959 98.1492 36.0829 98.4104 36.1833 98.4104C36.2198 98.4104 35.9786 98.2228 35.6472 97.9935C33.1027 96.2328 30.9311 94.0034 29.211 91.386L28.7983 90.758L28.1718 90.5383C22.8668 88.6779 17.6434 85.3935 13.4434 81.2773L13.0889 80.93L11.9802 80.7914C11.303 80.7068 10.8717 80.6708 10.8724 80.699C10.873 80.7244 11.0324 81.057 11.2266 81.438ZM11.3306 44.2372C11.4249 47.3966 11.9957 50.4416 13.0405 53.3584C13.275 54.0129 13.4878 54.5392 13.5392 54.5915C13.5629 54.6156 13.6615 54.5219 13.7775 54.365C15.8247 51.596 18.8675 48.7238 22.01 46.5941C22.2845 46.408 22.5163 46.2498 22.5251 46.2424C22.534 46.2349 22.4385 45.9106 22.3129 45.5217C21.4708 42.9126 21.1053 40.5688 21.1081 37.7946C21.1112 34.799 21.5923 31.9799 22.5789 29.1763L22.7597 28.6627L22.5437 28.6948C22.1173 28.7583 20.9699 29.0062 20.294 29.181C18.4627 29.6545 16.7046 30.3203 15.0237 31.1767C14.0093 31.6935 13.0509 32.2662 13.0012 32.3851C12.9129 32.5967 12.5404 33.9214 12.3487 34.7058C11.5583 37.9401 11.2335 40.9806 11.3306 44.2372ZM13.2104 31.8138C13.2242 31.8138 13.4437 31.6917 13.6981 31.5424C15.6921 30.3726 18.0917 29.4105 20.5128 28.8104C21.2172 28.6358 22.5698 28.3501 22.6922 28.3501C22.7022 28.3501 22.7015 28.3241 22.6905 28.2923C22.6581 28.1984 22.4938 26.5059 22.4205 25.5098C22.217 22.7478 22.2249 19.7029 22.4424 17.0627C22.4673 16.7604 22.4799 16.5051 22.4704 16.4954C22.4439 16.4685 21.6305 17.3503 20.9928 18.0973C17.5933 22.0799 15.0414 26.4978 13.3383 31.3488C13.1714 31.8242 13.1742 31.8138 13.2104 31.8138ZM13.6563 81.1663C13.7672 81.2649 14.161 81.6265 14.5312 81.9699C18.0021 85.1888 22.1032 87.824 26.411 89.6035C27.0551 89.8696 28.2368 90.3164 28.5058 90.3956C28.5883 90.4198 28.5519 90.3318 28.2831 89.8568C26.9056 87.4225 25.8235 84.3701 25.2774 81.3779C25.2204 81.0654 25.1625 80.7983 25.1488 80.7843C25.135 80.7703 24.5967 80.8133 23.9526 80.8799C20.6652 81.2195 17.288 81.2692 14.276 81.0221C13.8403 80.9863 13.4772 80.9638 13.4691 80.972C13.4611 80.9803 13.5453 81.0677 13.6563 81.1663ZM14.404 56.4989C16.0669 59.7614 18.3146 62.5148 21.1639 64.7795C21.8007 65.2857 23.1743 66.2178 23.9315 66.6577C24.5534 67.0189 25.6183 67.5767 25.6372 67.5511C25.6431 67.5432 25.7047 67.2874 25.7741 66.9825C25.9535 66.1953 26.2937 64.9473 26.5888 63.9942C26.7281 63.5444 26.842 63.157 26.842 63.1332C26.842 63.1095 26.7552 63.0548 26.6492 63.0117C25.4352 62.5184 22.7016 61.1794 21.1706 60.3282C18.7744 58.996 16.0761 57.2396 14.2175 55.8023C14.0989 55.7106 14.0024 55.6532 14.0029 55.6747C14.0034 55.6962 14.1839 56.0671 14.404 56.4989ZM21.3529 38.9261C21.4364 40.6285 21.6826 42.2724 22.1069 43.958C22.2648 44.5852 22.6982 45.9885 22.7521 46.0468C22.7682 46.0642 23.0571 45.9062 23.3941 45.6957C24.2351 45.1706 25.3377 44.5415 26.0707 44.1687C26.4076 43.9974 26.6907 43.8503 26.6998 43.8418C26.7203 43.8226 26.7197 43.8209 26.1942 42.436C25.0943 39.5377 24.2633 36.7369 23.6011 33.6961C23.3751 32.6587 23.0344 30.8042 22.9201 29.9896C22.8809 29.7102 22.8366 29.4296 22.8216 29.3661L22.7942 29.2506L22.7506 29.3661C22.6537 29.6228 22.2087 31.132 22.0834 31.6291C21.5143 33.8862 21.2402 36.6244 21.3529 38.9261ZM22.6072 23.547C22.6831 25.0015 22.7328 25.743 22.8069 26.5258C22.8549 27.0338 22.9076 27.5909 22.924 27.7636C22.9402 27.9364 22.9686 28.0611 22.9869 28.0407C23.0053 28.0204 23.117 27.7751 23.2352 27.4957C23.4832 26.9093 24.092 25.658 24.4383 25.0229C27.2212 19.918 31.816 15.3934 37.2886 12.3689C37.6316 12.1793 37.9123 12.0127 37.9124 11.9986C37.9128 11.9434 36.3024 11.6768 35.2357 11.5554C34.2429 11.4424 31.6898 11.442 30.6986 11.5546C29.4861 11.6924 27.9159 11.9658 27.3411 12.1391C27.1188 12.2061 25.7809 13.3 24.5508 14.4205C23.7911 15.1124 22.804 16.0984 22.804 16.1653C22.804 16.2 22.774 16.6022 22.7373 17.059C22.6193 18.5285 22.577 19.7851 22.5855 21.559C22.5902 22.5127 22.5999 23.4073 22.6072 23.547ZM22.8987 15.6389C22.9162 15.6321 23.1936 15.3667 23.5151 15.0492C24.2168 14.3562 25.0557 13.6016 25.8975 12.9064C26.239 12.6244 26.5017 12.3876 26.4813 12.3801C26.3652 12.3374 23.3077 13.4745 23.1515 13.6185C23.0839 13.6808 22.8358 15.6635 22.8987 15.6389ZM23.0156 46.8004C23.3797 47.6938 23.5342 48.0395 23.9149 48.813C24.8086 50.6285 25.9039 52.3165 27.219 53.9049C27.4959 54.2393 28.1575 54.9598 28.6892 55.506L29.6559 56.4989L29.8196 56.1987C29.9096 56.0336 30.075 55.7323 30.1873 55.529L30.3913 55.1596L30.2731 54.5361C30.0382 53.2974 29.9441 52.2165 29.9898 51.2841L30.0191 50.6877L29.774 50.245C28.9001 48.6663 27.7851 46.351 27.0427 44.5731C26.9448 44.3387 26.8461 44.1464 26.8233 44.1459C26.7549 44.1441 25.2706 44.943 24.4999 45.3963C23.3694 46.0613 22.8943 46.3747 22.8987 46.4526C22.9009 46.4914 22.9534 46.648 23.0156 46.8004ZM23.2128 29.9203C23.8201 33.835 24.7116 37.3871 26.0121 41.0736C26.2655 41.7922 26.9658 43.6363 26.9988 43.6724C27.005 43.6792 27.2327 43.5788 27.5046 43.4493C29.0623 42.7069 30.9178 41.96 32.6222 41.389L33.026 41.2538L33.0364 39.7782C33.0512 37.6697 33.1849 36.312 33.5637 34.4232C33.8395 33.048 34.382 31.2182 34.8713 30.0127C35.0002 29.6952 35.1374 29.3566 35.1763 29.2603C35.2152 29.164 35.2394 29.0785 35.23 29.0704C35.2042 29.0479 33.7934 28.7841 33.1259 28.677C31.2485 28.3757 29.9561 28.2807 27.7494 28.2816C25.8213 28.2824 25.0581 28.3279 23.598 28.5291C23.114 28.5958 23.0526 28.6143 23.0454 28.6964C23.041 28.7473 23.1163 29.298 23.2128 29.9203ZM23.2505 28.2577C23.2957 28.2577 23.5455 28.2277 23.8056 28.191C25.0181 28.0201 26.035 27.9616 27.7948 27.9614C30.3257 27.9611 32.2462 28.1493 34.6589 28.6337C35.0529 28.7129 35.3824 28.7697 35.391 28.7601C35.3997 28.7505 35.5235 28.505 35.6661 28.2146C37.2342 25.021 39.4519 22.222 42.2011 19.9666C42.7558 19.5115 43.7252 18.7926 44.1738 18.5036C44.3111 18.4152 44.5867 18.2378 44.7863 18.1095C45.3245 17.7636 46.4114 17.1587 47.1033 16.82C47.4385 16.6559 47.7128 16.5072 47.7128 16.4894C47.7128 16.4493 46.3513 15.5281 45.7391 15.1539C43.6642 13.8858 41.217 12.8335 38.9422 12.2314L38.3612 12.0776L38.1482 12.1811C37.0293 12.7245 34.6633 14.2129 33.4303 15.1491C31.9588 16.2664 30.9221 17.1765 29.6262 18.4888C27.2866 20.8579 25.5515 23.2634 24.1456 26.0871C23.7736 26.8342 23.4221 27.6028 23.2533 28.0383C23.1716 28.249 23.1715 28.2577 23.2505 28.2577ZM25.1024 77.2353C25.1701 78.3946 25.3688 80.2962 25.429 80.3611C25.4827 80.419 27.8565 80.0365 29.3828 79.7239C32.3358 79.1191 35.4528 78.2078 38.3663 77.0974C39.1132 76.8127 40.157 76.3951 40.2151 76.3575C40.2213 76.3535 40.0816 76.0298 39.9046 75.6382C39.242 74.1721 38.7217 72.844 38.1628 71.192L37.837 70.229L36.2981 70.2164C33.8783 70.1965 32.0525 69.9638 29.9273 69.4042C28.6862 69.0774 27.1502 68.5441 26.2556 68.1295C26.0702 68.0436 25.9037 67.9894 25.8854 68.009C25.8441 68.0535 25.6083 69.3241 25.4588 70.3078C25.3217 71.2095 25.1819 72.5803 25.1198 73.633C25.0784 74.3341 25.0673 76.6342 25.1024 77.2353ZM25.513 80.9992C26.0665 84.2397 27.2108 87.4376 28.7901 90.1575C29.0521 90.6088 29.0011 90.575 29.7911 90.8199C31.9467 91.4881 34.2984 91.9504 36.8237 92.2026C37.8053 92.3006 40.4501 92.34 41.4969 92.2723C44.6842 92.0659 47.5988 91.423 50.3278 90.3244L51.0225 90.0446L50.3318 89.4921C47.6632 87.3574 45.2423 84.6733 43.1689 81.5507C42.9605 81.2368 42.7776 80.9619 42.7624 80.9398C42.7472 80.9177 42.5533 80.9651 42.3314 81.0452C42.1095 81.1252 41.5484 81.3017 41.0845 81.4374C37.5708 82.4649 33.8327 82.6538 30.1087 81.9921C29.0988 81.8126 27.5099 81.398 26.4712 81.0428C25.9553 80.8665 25.5214 80.7221 25.507 80.7221C25.4791 80.7221 25.4811 80.8124 25.513 80.9992ZM26.1955 67.8182C28.4646 68.85 31.1018 69.5472 33.8746 69.8483C34.7668 69.9452 37.7311 70.0009 37.7311 69.9207C37.7311 69.8916 37.6392 69.5544 37.5269 69.1712C37.4146 68.7881 37.3228 68.4688 37.3228 68.4616C37.3228 68.4544 37.1237 68.3179 36.8804 68.1583C35.9918 67.5752 35.2882 66.9843 34.4871 66.1482L33.9426 65.58L33.1259 65.3423C31.4333 64.8497 28.6134 63.852 27.3321 63.2926L27.1644 63.2194L26.9608 63.854C26.6244 64.9027 25.9346 67.4681 25.9346 67.6705C25.9346 67.6865 26.052 67.7529 26.1955 67.8182ZM26.8481 80.8939C28.2384 81.3382 29.2961 81.5975 30.5625 81.8045C32.0456 82.0469 32.5485 82.0829 34.4417 82.0817C35.9967 82.0807 36.3129 82.0679 37.0502 81.9762C38.8533 81.752 40.173 81.4647 41.7691 80.9489C42.0811 80.8481 42.3919 80.7402 42.46 80.7092L42.5837 80.6529L42.3299 80.2372C41.8736 79.4901 41.2194 78.3133 40.8023 77.4893C40.5773 77.0448 40.3864 76.6726 40.3782 76.6622C40.37 76.6518 40.1947 76.7117 39.9886 76.7954C35.6145 78.5711 31.2645 79.8062 27.0462 80.47C26.622 80.5367 26.2368 80.6061 26.1902 80.624C26.1316 80.6466 26.3342 80.7297 26.8481 80.8939ZM27.5619 45.0223C28.5826 47.3295 29.9874 50.1587 30.067 50.0673C30.0833 50.0486 30.1215 49.867 30.1519 49.6637C30.4246 47.8435 31.2444 45.8748 32.3363 44.4186C32.5159 44.1791 32.7926 43.8353 32.9513 43.6544L33.2398 43.3257L33.1719 42.7077C33.1346 42.3678 33.1039 41.9805 33.1037 41.8472C33.1033 41.6635 33.0869 41.6047 33.0357 41.6047C32.852 41.6047 30.6638 42.413 29.3951 42.9496C27.9954 43.5416 27.1839 43.9388 27.1729 44.0372C27.1678 44.0837 27.3428 44.527 27.5619 45.0223ZM27.8463 63.1696C28.8844 63.5872 29.8707 63.9531 30.9675 64.3274C32.1817 64.7418 33.5604 65.1703 33.5882 65.1419C33.5985 65.1314 33.4775 64.9386 33.3194 64.7134C32.0319 62.8795 31.2802 60.7525 31.1673 58.6233C31.1412 58.1325 31.127 58.0613 31.043 58.0011C30.9908 57.9637 30.6974 57.7195 30.391 57.4585C30.0847 57.1974 29.8174 56.9838 29.7971 56.9838C29.7584 56.9838 29.132 58.2783 28.7418 59.1648C28.262 60.2545 27.8271 61.3465 27.4093 62.5099L27.2574 62.9328L27.8463 63.1696ZM27.955 11.6778C27.9682 11.6778 28.249 11.6273 28.5789 11.5655C30.1689 11.2678 31.3027 11.1634 32.9444 11.1635C34.7432 11.1635 36.0138 11.2893 37.7092 11.635L38.3907 11.774L39.1384 11.4066C44.0099 9.01258 49.7699 7.59721 55.2637 7.44406L56.3492 7.41377L57.2147 6.72324C57.6906 6.34343 58.0858 6.02748 58.0929 6.02115C58.143 5.97621 56.5222 5.46662 55.5166 5.21113C53.2853 4.64428 51.2952 4.40925 48.7336 4.41008C46.6812 4.41078 45.4925 4.51016 43.5159 4.84647C38.3497 5.72539 33.0708 7.96912 28.5094 11.2246C27.9778 11.604 27.8876 11.6778 27.955 11.6778ZM29.5652 91.4074C31.3141 93.9995 33.5135 96.2272 35.9616 97.8861C36.9656 98.5664 36.8751 98.5299 37.8218 98.6381C39.2139 98.7972 40.2759 98.872 41.565 98.9016L42.79 98.9297L43.5159 98.2945C46.1493 95.9902 48.4687 93.5617 50.564 90.915C51.0175 90.3422 51.0264 90.3264 50.8582 90.3984C50.7627 90.4393 50.3375 90.6045 49.9133 90.7655C44.2499 92.9149 37.6688 93.1589 31.175 91.4602C30.6509 91.3232 30.0206 91.1475 29.7742 91.0699C29.5279 90.9922 29.3186 90.9287 29.3092 90.9287C29.2581 90.9287 29.3187 91.0421 29.5652 91.4074ZM30.4685 57.1878C30.7659 57.4397 31.0414 57.6642 31.0807 57.6866C31.2006 57.7549 31.1696 57.4089 31.0236 57.0479C30.9528 56.8729 30.8175 56.4908 30.723 56.1987C30.6285 55.9066 30.5379 55.6525 30.5217 55.6342C30.4982 55.6075 29.9263 56.6448 29.9276 56.7117C29.9279 56.7217 30.1713 56.9359 30.4685 57.1878ZM30.3139 53.1737C30.3739 53.6963 30.4901 54.4113 30.5529 54.6455C30.5864 54.7702 30.6147 54.7334 31.0323 54.022C31.2764 53.6062 31.4796 53.2557 31.4839 53.243C31.4883 53.2303 31.2113 52.7438 30.8684 52.1619L30.2449 51.104L30.2502 51.8848C30.2531 52.3143 30.2817 52.8943 30.3139 53.1737ZM30.6425 51.1652C31.3494 52.4145 31.6711 52.9197 31.7218 52.8602C31.7481 52.8294 32.0013 52.4457 32.2844 52.0074L32.7992 51.2105L32.7357 50.645C32.6388 49.7815 32.6501 47.5261 32.7553 46.7311C32.8533 45.9914 33.0568 44.9686 33.2148 44.4219C33.3309 44.0201 33.3497 43.8811 33.3043 43.7606C33.2744 43.6812 33.1037 43.8594 32.6578 44.4353C31.3842 46.08 30.57 48.1236 30.3168 50.3108C30.2909 50.5348 30.3012 50.5619 30.6425 51.1652ZM30.9363 56.0602L31.1695 56.776L31.2298 56.3604C31.3195 55.7417 31.5039 54.9036 31.6814 54.3072C31.8061 53.888 31.829 53.756 31.7915 53.6721C31.7654 53.6139 31.725 53.5662 31.7017 53.5662C31.6513 53.5662 30.6976 55.2072 30.7008 55.2883C30.7021 55.3191 30.8081 55.6664 30.9363 56.0602ZM31.4545 59.0852C31.6519 60.7584 32.1815 62.3608 33.0062 63.7801C33.3025 64.29 33.9447 65.1893 34.07 65.2696C34.1727 65.3355 34.7924 65.5079 36.0007 65.8067L36.6978 65.979L36.6725 65.8342C36.6483 65.6957 36.3481 64.2249 36.3024 64.0213C36.2903 63.9675 36.1628 63.8337 36.019 63.724C35.2116 63.1085 34.0104 61.9068 33.3031 61.0068C32.8655 60.45 32.2701 59.5586 31.9285 58.9486C31.801 58.721 31.6967 58.5229 31.6967 58.5082C31.6967 58.4936 31.6355 58.4448 31.5606 58.3998L31.4245 58.3179L31.4313 58.6323C31.435 58.8052 31.4455 59.009 31.4545 59.0852ZM31.6252 57.844C31.8444 58.3149 31.8439 58.3143 32.8537 59.001C33.782 59.6322 35.6255 60.7247 35.7623 60.7247C35.7861 60.7247 35.7648 60.3691 35.7128 59.9008L35.6213 59.0769L35.1418 58.4576C34.085 57.0929 33.4364 56.1852 32.475 54.7261L32.0372 54.0616L31.9121 54.472C31.7362 55.049 31.5759 55.8053 31.4942 56.4435C31.3898 57.2602 31.3989 57.3581 31.6252 57.844ZM31.934 53.3249C31.9814 53.365 32.0375 53.2755 32.2039 52.8936C32.3195 52.6285 32.4078 52.4117 32.4 52.4117C32.3807 52.4117 31.9268 53.1345 31.8977 53.2117C31.8847 53.2462 31.901 53.2971 31.934 53.3249ZM32.5187 59.4777C33.2025 60.561 33.9582 61.5037 34.8334 62.3655C35.3062 62.8311 36.1872 63.6048 36.2138 63.5777C36.2216 63.5697 36.1692 63.1999 36.0973 62.7559C36.0255 62.3118 35.9399 61.7528 35.9072 61.5136L35.8478 61.0786L35.6665 60.9794C34.1369 60.1416 33.2799 59.6271 32.5021 59.0795C32.3087 58.9434 32.1513 58.8474 32.1524 58.8662C32.1534 58.8851 32.3183 59.1602 32.5187 59.4777ZM32.5227 54.259C33.4423 55.6455 34.2907 56.8467 35.0951 57.901L35.5306 58.4719L35.5443 58.2109C35.5562 57.9819 35.5418 57.9288 35.4267 57.7785C34.8829 57.0688 34.1374 55.6984 33.7438 54.6848C33.4845 54.0174 33.2465 53.2609 33.0821 52.5824L32.9359 51.9784L32.6577 52.56C32.3374 53.2296 32.1947 53.5823 32.1985 53.695C32.1999 53.7385 32.3458 53.9923 32.5227 54.259ZM32.9277 50.241C32.993 50.9748 32.9631 50.9697 33.4143 50.3247C33.6335 50.0114 33.9594 49.5601 34.1386 49.3218C34.3178 49.0835 34.4644 48.868 34.4644 48.8428C34.4644 48.8176 34.371 48.4828 34.2567 48.0989C33.9877 47.1943 33.7354 46.1814 33.5739 45.3571C33.503 44.9952 33.4311 44.699 33.4143 44.699C33.3301 44.699 33.0048 46.5023 32.9256 47.4087C32.8691 48.0539 32.8703 49.5955 32.9277 50.241ZM33.2625 52.3538C33.5304 53.5318 33.9493 54.7031 34.4896 55.7846C34.7663 56.3385 35.2411 57.1532 35.4309 57.3995L35.5199 57.5149L35.4917 57.2378C35.4184 56.5165 35.3621 54.1032 35.3871 52.7474L35.4145 51.2589L35.1975 50.7384C35.0781 50.4521 34.9209 50.0569 34.848 49.86C34.7752 49.6632 34.7007 49.5021 34.6824 49.5021C34.6641 49.5021 34.5465 49.6277 34.421 49.7811C33.7871 50.5566 33.1469 51.5501 33.1518 51.7509C33.1535 51.8222 33.2034 52.0935 33.2625 52.3538ZM33.3868 41.1311C33.5241 41.1006 34.7502 40.7296 34.7604 40.7154C34.7648 40.7092 34.9234 40.4652 35.1127 40.173C35.6323 39.3713 36.1789 38.6987 36.9201 37.9487C37.4821 37.3799 37.5978 37.2393 37.6414 37.0712C38.013 35.6415 39.1585 32.2184 39.7668 30.7196L39.9017 30.3874L39.2814 30.1789C38.4461 29.8981 37.6971 29.6791 36.6649 29.4139C35.3742 29.0822 35.5309 29.0727 35.3412 29.4937C34.6509 31.0252 33.9693 33.3593 33.6523 35.2776C33.3783 36.9363 33.2847 38.1033 33.2847 39.8643V41.1537L33.3868 41.1311ZM33.4 42.4975C33.4321 42.7981 33.4667 43.0523 33.4768 43.0626C33.526 43.1127 33.7825 42.7461 33.899 42.4591C33.9711 42.2813 34.1371 41.9184 34.2678 41.6526C34.3986 41.3869 34.4984 41.1622 34.4896 41.1533C34.4809 41.1443 34.2164 41.2146 33.9019 41.3095L33.3301 41.4819L33.3358 41.7165C33.3389 41.8455 33.3678 42.197 33.4 42.4975ZM33.7212 44.8145C33.9157 45.8629 34.2649 47.2871 34.5642 48.2524L34.6708 48.5961L35.1946 47.9291L35.7184 47.2622L35.7759 46.708C35.9034 45.4774 36.2202 43.407 36.5065 41.9331C36.5824 41.5422 36.6348 41.2124 36.623 41.2003C36.561 41.1372 35.3149 41.9066 34.6711 42.4054C34.0141 42.9146 33.905 43.0486 33.7444 43.5445C33.6663 43.7859 33.604 44.0353 33.606 44.0987C33.6081 44.1622 33.6599 44.4843 33.7212 44.8145ZM34.4757 42.2146C34.9004 41.8711 35.6966 41.3558 36.2401 41.0726C36.6283 40.8703 36.7286 40.7974 36.7527 40.6994C36.8035 40.4934 36.8917 40.4836 35.5871 40.8283L34.8723 41.0171L34.5322 41.7005C34.3452 42.0763 34.1922 42.3974 34.1922 42.414C34.1922 42.4305 34.3198 42.3408 34.4757 42.2146ZM34.9718 66.2936C35.6412 66.9582 36.8485 67.928 37.1562 68.0481C37.1976 68.0643 37.1498 67.8045 37.0027 67.2132C36.8853 66.7411 36.7794 66.3447 36.7673 66.3325C36.733 66.2975 34.5434 65.7549 34.4984 65.7702C34.4763 65.7777 34.6893 66.0132 34.9718 66.2936ZM35.179 50.0055C35.3199 50.3713 35.44 50.6519 35.4457 50.629C35.4515 50.6061 35.4786 50.2029 35.506 49.733C35.5334 49.2631 35.5665 48.7851 35.5795 48.6708L35.6032 48.463L35.2606 48.8283C35.0723 49.0292 34.9191 49.2267 34.9204 49.267C34.9216 49.3074 35.038 49.6397 35.179 50.0055ZM35.3704 48.3193C35.5392 48.1509 35.6467 48.0067 35.6372 47.9616C35.6267 47.9112 35.5323 48.0053 35.3545 48.2437L35.0876 48.6015L35.3704 48.3193ZM35.9913 40.3973C36.7958 40.1893 36.9121 40.1387 36.9137 39.9964C36.9141 39.9627 37.0274 39.4764 37.1655 38.9157C37.3036 38.3551 37.4101 37.8767 37.4023 37.8527C37.3812 37.7882 36.4732 38.7607 36.0511 39.3C35.7389 39.6989 35.1449 40.5515 35.1449 40.6007C35.1449 40.6092 35.5258 40.5177 35.9913 40.3973ZM36.1091 28.9481C36.7724 29.0983 38.2279 29.5078 39.1538 29.8047C39.5897 29.9445 39.9647 30.0589 39.9873 30.0589C40.0098 30.0589 40.1578 29.7523 40.3162 29.3777C42.0593 25.254 44.2904 21.2636 46.8426 17.7048C47.1159 17.3238 47.333 17.0048 47.3251 16.996C47.3101 16.9793 46.385 17.4458 45.9441 17.6922C42.0493 19.869 38.7453 23.1531 36.5569 27.0229C36.3091 27.461 35.644 28.7732 35.644 28.8238C35.644 28.8343 35.8533 28.8902 36.1091 28.9481ZM35.7359 56.0602C35.8203 57.9443 35.8184 57.9292 35.9971 58.1627C36.0855 58.2783 36.1718 58.3564 36.1889 58.3364C36.206 58.3164 36.2452 58.0922 36.276 57.8382C36.3765 57.009 36.6524 55.7428 36.9496 54.7473L37.0313 54.4736L36.7438 53.9622C36.5857 53.6809 36.2933 53.1234 36.0942 52.7234C35.8949 52.3234 35.7224 51.996 35.7107 51.996C35.6789 51.996 35.699 55.2356 35.7359 56.0602ZM35.9971 51.9498C36.2396 52.4725 36.8532 53.6616 37.0562 54.0021L37.1371 54.1378L37.1886 54.0021C37.2169 53.9275 37.2886 53.7314 37.3479 53.5663L37.4558 53.2663L37.2079 52.6774C36.6589 51.3727 36.3962 50.1434 36.3395 48.6131C36.3237 48.1876 36.2976 47.8395 36.2815 47.8395C36.2654 47.8395 36.1785 47.9174 36.0883 48.0127L35.9242 48.1859L35.8529 49.225C35.8137 49.7965 35.7698 50.5135 35.7555 50.8183L35.7293 51.3725L35.9971 51.9498ZM35.9132 58.7975C35.9315 58.9314 35.9825 59.0577 36.0432 59.1195L36.1431 59.2211V59.053C36.1431 58.9606 36.1539 58.8562 36.1672 58.8211C36.1804 58.7861 36.12 58.6752 36.0329 58.5749C35.8599 58.3753 35.8563 58.382 35.9132 58.7975ZM36.1473 47.5996C36.3358 47.4454 36.387 47.3327 36.3622 47.1264C36.3473 47.0027 36.347 47.0028 36.1847 47.2016C36.0906 47.3169 36.0106 47.4736 35.9947 47.5738L35.9674 47.7468L36.1473 47.5996ZM36.0524 60.1705C36.0808 60.3568 36.0848 60.3425 36.0902 60.0319C36.0936 59.8414 36.0766 59.6544 36.0524 59.6163C36.0011 59.5355 36.0011 59.8347 36.0524 60.1705ZM36.2509 46.6223C36.4359 46.4076 36.4486 46.3733 36.5487 45.8141C36.8436 44.1672 37.5035 42.4146 38.3988 40.9004C38.5753 40.602 38.7054 40.3578 38.688 40.3578C38.6254 40.3578 37.701 40.6842 37.359 40.8271L37.0095 40.9732L36.9616 41.2005C36.7092 42.3985 36.3129 44.8142 36.1679 46.0383C36.1273 46.3813 36.0859 46.7034 36.0758 46.7542C36.0639 46.8144 36.1249 46.7685 36.2509 46.6223ZM36.4761 61.0705C36.5952 61.1499 37.5121 61.5715 37.6823 61.6251C37.7607 61.6497 37.6433 61.4884 37.274 61.064C36.9889 60.7363 36.6696 60.3648 36.5644 60.2385L36.3731 60.0088L36.3716 60.5043C36.3701 60.9735 36.3755 61.0034 36.4761 61.0705ZM36.8775 60.1305C37.1597 60.47 37.6296 61.0164 37.9216 61.3447L38.4526 61.9415L38.8518 62.0964C39.428 62.3199 41.2517 62.8953 41.384 62.8953C41.3932 62.8953 41.3144 62.7059 41.209 62.4743L41.0174 62.0532L40.6564 61.9193C39.3574 61.4372 38.0115 60.5673 36.9354 59.5144L36.4153 59.0055V59.1916C36.4153 59.294 36.4039 59.4083 36.3898 59.4455C36.3739 59.4878 36.5565 59.7444 36.8775 60.1305ZM36.4868 62.1445C36.5208 62.43 36.6094 62.9704 36.6836 63.3452C36.793 63.8978 36.837 64.0399 36.9161 64.0961C37.5826 64.5693 38.5446 65.1147 39.3418 65.4714C40.1709 65.8423 41.5784 66.2837 42.3816 66.4247L42.5631 66.4566L42.2002 66.1194C42.0005 65.9339 41.5207 65.4801 41.1339 65.1109C40.7472 64.7417 40.3311 64.3468 40.2094 64.2332C40.0877 64.1197 39.5881 63.6008 39.0993 63.08C38.6104 62.5593 38.1894 62.1252 38.1636 62.1154C38.1379 62.1056 37.7595 61.9422 37.3228 61.7524C36.8861 61.5625 36.5033 61.3968 36.4721 61.3842C36.4025 61.3562 36.4044 61.4515 36.4868 62.1445ZM36.9938 59.2526C37.7898 60.0425 38.5419 60.609 39.4694 61.1174C39.8763 61.3405 40.8207 61.7517 40.8523 61.7195C40.8619 61.7098 40.7984 61.5183 40.7113 61.2941C40.4505 60.6222 40.2316 59.96 40.0022 59.1501C39.787 58.3899 39.7829 58.3808 39.5014 58.0417C39.0372 57.4824 38.2999 56.4605 37.7389 55.5989L37.213 54.7912L37.1531 54.9985C36.8919 55.902 36.6903 56.842 36.554 57.792C36.4148 58.7623 36.3785 58.642 36.9938 59.2526ZM36.5813 49.2019C36.7125 50.3246 36.8768 51.1108 37.1367 51.8602C37.31 52.3597 37.5164 52.8538 37.5619 52.878C37.5811 52.8882 37.7158 52.6264 37.8611 52.2962C38.1915 51.5455 38.3329 51.2595 38.7744 50.4489L39.1265 49.8023L39.2225 48.9224C39.3272 47.9627 39.4793 47.0077 39.682 46.0392C39.7536 45.6967 39.8079 45.4121 39.8026 45.4066C39.7859 45.3897 38.773 45.9899 38.3209 46.2845C37.9789 46.5074 36.9513 47.2657 36.6136 47.5444C36.5652 47.5844 36.553 47.7576 36.5583 48.3295C36.562 48.7332 36.5723 49.1257 36.5813 49.2019ZM36.6825 47.1408C36.7296 47.106 37.0308 46.8806 37.3517 46.6399C37.9215 46.2127 39.3378 45.3152 39.7116 45.1446L39.8989 45.0591L40.087 44.372C40.1904 43.9942 40.3748 43.3833 40.4969 43.0143C40.6189 42.6455 40.703 42.3437 40.6836 42.3437C40.6151 42.3437 38.1379 44.937 37.4015 45.7797C36.6489 46.6409 36.5968 46.7241 36.5968 47.0658C36.5968 47.1931 36.6037 47.1991 36.6825 47.1408ZM36.8142 45.9691C36.8624 45.9183 37.1831 45.5585 37.5268 45.1695C38.1415 44.474 39.6279 42.9287 40.5239 42.0539L40.98 41.6085L41.3516 40.7211C41.5559 40.233 41.7139 39.8244 41.7027 39.8129C41.6642 39.7737 40.4296 39.944 39.7739 40.0789C39.0318 40.2315 39.123 40.1642 38.681 40.8851C38.0707 41.8804 37.574 42.9651 37.2183 44.0792C37.0242 44.6874 36.8237 45.4682 36.7568 45.8767C36.7268 46.0601 36.7272 46.0608 36.8142 45.9691ZM36.9122 65.4821C37.0468 66.0833 37.0463 66.082 37.1421 66.082C37.1916 66.082 37.2317 66.0768 37.2313 66.0704C37.2309 66.0641 37.1397 65.8199 37.0288 65.5278C36.8108 64.9542 36.7925 64.947 36.9122 65.4821ZM37.1375 65.0428C37.2858 65.4808 37.5344 66.1239 37.5709 66.1642C37.5947 66.1905 39.4583 66.5545 40.2492 66.6873C41.0817 66.8272 42.3899 67.02 42.8807 67.075C43.0305 67.0918 43.1938 67.1163 43.2437 67.1295C43.3089 67.1467 43.2822 67.0991 43.1488 66.9605C42.9685 66.7732 42.9472 66.7646 42.4002 66.6608C40.5304 66.3058 38.6398 65.5346 37.0846 64.4923C36.9214 64.383 36.9243 64.4132 37.1375 65.0428ZM37.1072 40.6347C37.1135 40.6346 37.3228 40.552 37.5723 40.4512C38.0589 40.2547 38.0565 40.223 37.5638 40.3369C37.1108 40.4415 37.0959 40.4482 37.0959 40.5456C37.0959 40.5947 37.101 40.6348 37.1072 40.6347ZM37.3631 67.4007C37.4816 67.8593 37.5898 68.2646 37.6037 68.3013C37.6281 68.3661 38.6912 68.9494 38.9021 69.0137C38.9853 69.0391 38.9328 68.9429 38.6465 68.5452C38.2418 67.9833 37.8597 67.3569 37.5957 66.8222C37.4278 66.4825 37.3556 66.4053 37.2056 66.4053C37.1131 66.4053 37.1242 66.4758 37.3631 67.4007ZM37.3568 40.065C37.4254 40.05 37.8659 39.9558 38.3355 39.8558C38.8052 39.7557 39.196 39.6666 39.2041 39.6579C39.2121 39.6491 39.3545 39.4653 39.5205 39.2494C40.6889 37.73 42.3914 36.2328 44.0604 35.2568C44.507 34.9956 44.7183 34.8366 44.7183 34.7615C44.7183 34.6586 43.5525 34.7838 42.6961 34.9787C41.8336 35.175 40.8475 35.5357 40.045 35.9485C39.3203 36.3213 37.9725 37.2476 37.87 37.4433C37.8202 37.5383 37.232 39.9076 37.232 40.013C37.232 40.0752 37.2588 40.0863 37.3568 40.065ZM37.6063 98.9054C37.8446 99.0923 39.4655 99.8859 40.368 100.258L40.8498 100.456L41.4796 99.9685C41.826 99.7004 42.1911 99.4072 42.2909 99.3171L42.4724 99.1532L41.7918 99.1478C41.4175 99.1449 41.0704 99.1358 41.0205 99.1277C40.9706 99.1196 40.6337 99.1001 40.2719 99.0843C39.6318 99.0565 38.3371 98.9471 37.8105 98.8764C37.667 98.8571 37.5496 98.8457 37.5496 98.8511C37.5496 98.8565 37.5752 98.8809 37.6063 98.9054ZM37.8987 69.361C37.9864 69.6531 38.0652 69.8997 38.0738 69.9091C38.091 69.9276 39.1951 69.8348 39.4639 69.7923L39.6315 69.7657L39.5366 69.6352C39.4757 69.5513 39.3025 69.4439 39.0515 69.3345C38.8368 69.241 38.4625 69.0632 38.2197 68.9394C37.9768 68.8157 37.7675 68.7144 37.7546 68.7144C37.7128 68.7144 37.7364 68.8204 37.8987 69.361ZM37.9329 53.6287C38.2431 54.1828 38.7266 54.8488 39.1242 55.2698C39.2533 55.4063 39.2523 55.4328 39.1522 54.5172C39.0956 54.0003 39.0751 53.3876 39.0728 52.1453C39.0702 50.7976 39.0585 50.4858 39.0131 50.5489C38.9103 50.6919 38.1017 52.3807 37.9186 52.8351L37.7386 53.2816L37.9329 53.6287ZM38.0083 67.0491C38.2869 67.5761 38.6864 68.1927 39.0723 68.6913C39.5418 69.2981 39.5788 69.3278 40.0818 69.5012L40.538 69.6583L41.3464 69.5041C42.5573 69.273 44.7625 68.6962 44.9955 68.5496C45.0194 68.5346 44.88 68.3954 44.6858 68.2404C44.4915 68.0853 44.2091 67.8525 44.058 67.723L43.7835 67.4875L43.2413 67.4278C41.9158 67.2818 40.1698 67.007 38.6612 66.707C38.212 66.6177 37.8292 66.5444 37.8105 66.5442C37.7496 66.5435 37.7744 66.6068 38.0083 67.0491ZM38.0817 36.894C39.4406 35.9189 40.3218 35.4459 41.565 35.0245C42.5365 34.6952 43.8577 34.4463 44.6346 34.4463C44.9301 34.4463 44.9622 34.4365 45.0516 34.3193C45.105 34.2495 45.3576 33.9376 45.613 33.6264L46.0775 33.0605L45.4446 32.7377C44.0776 32.0407 42.2954 31.2606 40.8163 30.712L40.2038 30.4848L40.1029 30.7137C39.9546 31.0503 39.175 33.1703 38.9341 33.8921C38.709 34.5666 38.178 36.2851 38.0949 36.6083C38.0667 36.7178 38.0305 36.8425 38.0144 36.8854C37.9878 36.9562 37.9939 36.957 38.0817 36.894ZM38.2735 70.5849C38.3197 70.7119 38.4642 71.1275 38.5947 71.5085C39.2031 73.2857 40.4207 76.1961 40.5556 76.1961C40.7715 76.1961 44.0709 74.609 45.6937 73.7246C46.5883 73.237 46.6521 73.1943 46.4855 73.1941C46.4243 73.1941 46.0374 73.1236 45.6257 73.0376C43.5797 72.6099 41.7258 71.674 40.2265 70.3118C39.9545 70.0647 39.8635 70.007 39.7728 70.0243C39.7104 70.0362 39.3735 70.0702 39.0242 70.0998C38.6748 70.1294 38.343 70.1627 38.2869 70.1739C38.1638 70.1982 38.1612 70.2761 38.2735 70.5849ZM39.149 11.973C41.18 12.4962 43.693 13.5785 45.7845 14.8307C46.22 15.0915 47.4538 15.9072 47.8417 16.1909C47.9086 16.2398 47.9566 16.1978 48.2112 15.8676C50.1426 13.3612 52.9071 10.4181 55.2916 8.32953C55.5526 8.10093 55.8254 7.86683 55.8978 7.80933C55.9703 7.75183 56.0194 7.69451 56.0071 7.68195C55.9746 7.64888 54.1387 7.7407 53.1573 7.82443C48.792 8.19694 44.4807 9.29246 40.4987 11.041C39.7785 11.3572 38.82 11.8245 38.82 11.8594C38.82 11.8753 38.9681 11.9264 39.149 11.973ZM40.2153 63.7767C40.9576 64.5241 41.9156 65.4508 42.3442 65.836C43.1087 66.5231 43.1281 66.5369 43.3784 66.5687C43.5187 66.5866 43.6425 66.5921 43.6534 66.5809C43.6643 66.5698 43.5519 66.3996 43.4036 66.2027C42.9565 65.6091 42.4318 64.7966 42.0012 64.031C41.7771 63.6326 41.5873 63.2872 41.5794 63.2636C41.5715 63.2399 41.2689 63.1376 40.9071 63.0362C40.5452 62.9348 39.9444 62.7476 39.5719 62.6202C39.1994 62.4926 38.8881 62.395 38.8801 62.4031C38.8722 62.4112 39.473 63.0293 40.2153 63.7767ZM39.3664 53.9357C39.3884 54.2278 39.4379 54.7474 39.4764 55.0903L39.5464 55.7138L39.7353 55.8754C41.0423 56.9938 42.2846 57.5949 43.9016 57.8915C44.4287 57.9882 45.7917 58.001 46.3289 57.9143C47.2132 57.7717 48.2399 57.419 48.9041 57.0297C50.3833 56.1629 51.3375 54.8958 51.3558 53.7741C51.36 53.5139 51.3374 53.3986 51.24 53.1834C51.1358 52.9531 51.0897 52.9028 50.9084 52.8212C50.7231 52.7378 50.6725 52.7329 50.487 52.7803C50.3711 52.81 50.2084 52.8868 50.1255 52.9511C50.0426 53.0154 49.9201 53.0829 49.8533 53.1012C49.786 53.1196 49.7315 53.1674 49.7312 53.2085C49.7303 53.326 49.685 53.3431 49.5448 53.2793C49.0319 53.0459 48.7567 52.3632 48.9913 51.9063C49.4388 51.0347 50.8214 51.1548 52.0791 52.1747C53.0931 52.9969 53.8629 54.2711 54.2452 55.76C54.4609 56.5999 54.4952 56.8939 54.4933 57.8844C54.4918 58.6397 54.473 58.9091 54.3899 59.3623C54.1422 60.7135 53.493 62.1566 52.6603 63.2073C52.5344 63.3661 52.4314 63.503 52.4314 63.5114C52.4314 63.5512 53.5433 63.3409 54.4374 63.1319C54.8015 63.0468 56.9481 60.8508 58.1327 59.3517L58.4797 58.9125L58.4709 58.6062C58.4506 57.9015 58.2329 56.8648 57.9459 56.1062C57.002 53.6114 55.0458 51.7947 52.6128 51.1536C51.9264 50.9727 50.8905 50.9245 50.3013 51.046C49.3286 51.2466 48.6291 51.7164 48.4638 52.2801C48.3839 52.5528 48.4322 52.79 48.6052 52.9748C48.7382 53.1169 48.9802 53.243 49.1199 53.243C49.1641 53.243 49.211 53.2712 49.224 53.3057C49.2423 53.3543 49.1945 53.3665 49.0133 53.3597C48.6405 53.3457 48.3787 53.1626 48.2367 52.8166C48.1295 52.5556 48.1494 52.3228 48.3058 52.0041C48.8256 50.9452 50.7041 50.4488 52.5366 50.8861C54.4636 51.346 56.1605 52.5706 57.3065 54.3283C58.0509 55.4701 58.5732 56.9385 58.6745 58.1739C58.6915 58.3815 58.7224 58.5408 58.7432 58.5277C58.7639 58.5146 59.0402 58.108 59.357 57.624L59.933 56.7441L59.9675 56.3444C60.0649 55.2138 59.9878 52.3818 59.8297 51.2802C59.8042 51.1024 59.7829 50.9347 59.7824 50.9076C59.7809 50.8287 58.9533 50.1643 58.4766 49.8593C55.8139 48.1558 52.3888 48.1677 49.9152 49.889C48.4798 50.8877 47.6456 52.5249 48.1104 53.4306C48.2024 53.61 48.2866 53.7023 48.4269 53.7778C48.5319 53.8343 48.6535 53.9169 48.6971 53.9612C48.7723 54.0379 48.7648 54.0406 48.5413 54.0188C48.2282 53.9882 48.01 53.8164 47.8555 53.4788C47.5612 52.836 47.8224 51.7929 48.5032 50.8924C48.9555 50.294 49.829 49.5823 50.5898 49.1923C53.3532 47.7758 56.8991 48.1916 59.3821 50.2233C59.5492 50.3601 59.6946 50.472 59.7052 50.472C59.7408 50.472 59.4451 48.877 59.3326 48.463C59.2133 48.0239 57.0608 45.8369 55.5976 44.6682L55.1114 44.2799L54.6292 44.3298C53.2121 44.4766 52.0564 44.8839 50.8804 45.6512C49.1073 46.8081 47.7905 48.7873 47.4619 50.7896C47.3472 51.488 47.3863 52.4649 47.5516 53.0351C47.7967 53.8802 48.3832 54.5823 48.844 54.5823C48.8938 54.5823 48.9564 54.6239 48.9831 54.6747C49.0283 54.7606 49.0176 54.767 48.8281 54.767C48.5887 54.767 48.4457 54.7109 48.1631 54.506C47.4608 53.9966 47.0293 52.5981 47.1644 51.2696C47.3251 49.6905 47.9188 48.3104 48.9919 47.0214C50.3156 45.4316 52.4213 44.3244 54.5133 44.1184L54.8484 44.0855L54.7402 43.9993C54.561 43.8568 53.2373 42.9638 53.0666 42.8703C52.9181 42.789 52.782 42.7833 50.9795 42.7838C49.4443 42.7842 48.9032 42.8009 48.3253 42.8658C47.1559 42.997 47.3026 42.9342 46.87 43.4889C45.6132 45.1002 44.973 47.0305 45.0518 48.971C45.1227 50.7169 45.6205 52.1554 46.5755 53.3745C47.3891 54.413 48.4239 55.0395 49.3321 55.0433C49.4367 55.0438 49.5343 55.064 49.5491 55.0883C49.5638 55.1126 49.6109 55.1214 49.6538 55.1079C49.7167 55.0881 49.7152 55.094 49.6462 55.1388C49.5021 55.2323 49.0329 55.2445 48.6941 55.1635C47.5143 54.8817 46.3016 53.7304 45.5795 52.2067C44.266 49.4347 44.6706 45.9912 46.6064 43.4668C46.7657 43.259 46.8961 43.0807 46.8961 43.0705C46.8961 43.0427 45.7587 43.2571 45.2213 43.3863C44.6579 43.5217 44.6498 43.5279 43.4314 44.7443C42.5517 45.6224 41.927 46.322 41.2507 47.1864L40.8172 47.7402L40.8656 48.2401C40.9667 49.2867 41.2735 50.3653 41.7291 51.2765C42.0161 51.8508 42.1982 52.1429 42.5803 52.6426C43.7046 54.1128 45.3022 55.1386 47.0502 55.5127C47.3916 55.5858 47.6707 55.6108 48.1438 55.6109C48.9784 55.6111 49.4267 55.5275 49.9359 55.277C50.0701 55.2109 50.1106 55.2778 50.006 55.3926C49.885 55.5255 49.6551 55.6143 49.0966 55.7435C48.7419 55.8256 48.5899 55.8347 47.9396 55.8126C47.5279 55.7987 47.0583 55.7565 46.8961 55.7189C44.0948 55.0698 41.8397 52.8871 40.9769 49.9898C40.8217 49.4686 40.6349 48.4993 40.6349 48.2154C40.6349 48.1357 40.619 48.0704 40.5996 48.0704C40.5646 48.0704 39.5186 49.649 39.4061 49.8716C39.3344 50.0134 39.3042 53.1093 39.3664 53.9357ZM39.489 49.2019C39.5137 49.1765 39.6626 48.9583 39.8199 48.717C39.9772 48.4757 40.2147 48.1278 40.3477 47.9439C40.5598 47.6505 40.5895 47.5825 40.5896 47.3897C40.5901 46.7999 40.7713 45.5105 40.9342 44.9382C40.9643 44.8327 40.9624 44.8321 40.8111 44.8974C40.2798 45.1268 40.135 45.2257 40.0894 45.3901C39.8455 46.2697 39.3633 49.3314 39.489 49.2019ZM39.6367 39.6044C39.6991 39.5877 40.2401 39.4989 40.839 39.407C41.4379 39.3151 41.9528 39.2326 41.9831 39.2236C42.0135 39.2146 42.1233 39.0349 42.2271 38.8242C42.6374 37.9917 43.2649 36.9111 43.8693 35.9963L44.2335 35.445L44.0108 35.5758C42.5909 36.4102 41.0434 37.7486 39.9767 39.065C39.4803 39.6776 39.504 39.64 39.6367 39.6044ZM39.7516 56.9376C39.9758 58.1414 40.0214 58.276 40.3253 58.6294C41.1471 59.5849 42.7166 61.099 43.7529 61.9362L44.1714 62.2742L44.6017 62.2422C48.0006 61.9892 51.0219 59.4737 51.7756 56.2693C51.8915 55.7764 51.9787 55.003 51.9527 54.6977C51.9441 54.5961 51.9259 54.3815 51.9123 54.2208C51.8184 53.1111 51.2121 52.1519 50.5244 52.0252C50.3162 51.9868 49.9917 52.1487 49.8802 52.3467C49.8004 52.4884 49.6985 52.9243 49.7362 52.9627C49.747 52.9737 49.8219 52.9177 49.9026 52.8383C50.6074 52.1453 51.56 52.6032 51.5673 53.6386C51.5733 54.488 51.1337 55.3908 50.3087 56.223C48.445 58.103 45.3223 58.7324 42.5418 57.7885C41.6368 57.4813 40.6675 56.9459 39.9429 56.353C39.6378 56.1032 39.6367 56.1028 39.6404 56.2314C39.6425 56.3023 39.6925 56.6201 39.7516 56.9376ZM40.5697 70.2847C41.3661 70.9749 42.096 71.4571 43.0549 71.9264C44.0707 72.4237 45.4322 72.8364 46.4922 72.9683L46.9277 73.0226L47.2182 72.8619C47.5169 72.6966 48.6988 71.9793 49.0894 71.7262L49.3091 71.5839L48.4583 71.0151C47.9904 70.7023 47.5937 70.4504 47.5766 70.4554C47.5596 70.4604 47.1902 70.4992 46.7558 70.5415C45.8151 70.6333 44.0494 70.6096 43.2339 70.4943C42.5292 70.3947 41.6598 70.2164 41.0558 70.0477C40.6575 69.9364 40.5115 69.914 40.385 69.9449L40.2232 69.9845L40.5697 70.2847ZM40.3872 59.5575C40.5601 60.1304 40.9431 61.2031 41.1199 61.6099L41.2337 61.8717L41.5808 61.9655C42.2868 62.1566 43.6007 62.3345 43.6884 62.251C43.7084 62.2319 43.6749 62.183 43.614 62.1424C43.2417 61.8941 42.2354 60.9739 41.3041 60.0301C40.7114 59.4295 40.2275 58.9608 40.2286 58.9885C40.2297 59.0163 40.3011 59.2723 40.3872 59.5575ZM40.6462 44.678C41.0284 44.4963 41.0715 44.4626 41.1292 44.3001C41.5466 43.1233 42.2288 41.8973 42.9888 40.9582C43.1018 40.8185 43.3858 40.5037 43.6199 40.2586L44.0455 39.813L43.8034 39.7927C43.6558 39.7803 43.5259 39.7947 43.4706 39.8297C43.3722 39.8917 41.9466 41.1539 41.4499 41.6188C41.1615 41.8887 41.135 41.9311 40.9824 42.3668C40.6984 43.1774 40.2265 44.7303 40.2265 44.8541C40.2265 44.867 40.4154 44.7877 40.6462 44.678ZM40.5328 30.2707C42.5035 31.0106 44.1832 31.7426 45.7332 32.537L46.2717 32.8131L47.2078 31.8594C47.7226 31.3348 48.3582 30.7185 48.6202 30.4898C50.8213 28.5683 53.0569 27.1628 55.6729 26.0558C55.996 25.9191 56.2688 25.7987 56.2791 25.7882C56.3052 25.7616 55.5119 24.5882 54.895 23.7411C53.8845 22.3533 53.0019 21.3081 51.7542 20.022C50.5533 18.784 49.5015 17.8328 48.4232 17.0095L47.9767 16.6686L47.8758 16.7941C47.8203 16.8632 47.6019 17.1587 47.3904 17.4508C45.7656 19.6951 44.3322 21.9773 43.054 24.3552C42.5469 25.2986 41.4571 27.5129 41.1105 28.3039C40.8435 28.9134 40.3173 30.1543 40.3173 30.1746C40.3173 30.1829 40.4143 30.2262 40.5328 30.2707ZM41.0588 77.3276C41.7353 78.654 42.823 80.5374 42.9125 80.5374C43.0119 80.5374 44.1745 80.0314 44.9374 79.6561C46.9065 78.6874 48.5863 77.5708 50.3443 76.0622C50.9219 75.5666 52.4244 74.0928 52.6622 73.7887L52.7931 73.6211L52.1108 73.2433C51.4782 72.893 51.4177 72.8689 51.2833 72.913C51.0222 72.9987 49.9244 73.1867 49.3915 73.237C49.1045 73.2641 48.4757 73.2864 47.9941 73.2865L47.1185 73.2866L46.3835 73.6967C44.8333 74.5614 42.9431 75.5056 41.4643 76.1539C41.0347 76.3422 40.6829 76.5171 40.6825 76.5425C40.6822 76.5679 40.8515 76.9212 41.0588 77.3276ZM41.1172 46.9178C41.8442 46.0067 42.7388 45.0285 43.6887 44.106C44.2055 43.6041 44.2267 43.6102 43.1756 43.9592C42.368 44.2274 41.3366 44.6379 41.2508 44.7253C41.1293 44.8489 40.8988 46.0547 40.8365 46.8927L40.8055 47.3084L41.1172 46.9178ZM41.6895 69.9767C42.8345 70.2518 43.9382 70.377 45.2196 70.377C46.1143 70.377 47.2046 70.3068 47.2689 70.2451C47.2868 70.2279 47.1969 70.1415 47.0692 70.053C46.9414 69.9645 46.4992 69.6375 46.0865 69.3264C45.6737 69.0152 45.3103 68.7606 45.2789 68.7606C45.2475 68.7606 44.9672 68.8429 44.656 68.9435C43.8698 69.1976 42.7848 69.4835 41.939 69.6592C41.5459 69.741 41.2141 69.8183 41.2016 69.8309C41.1892 69.8436 41.4087 69.9092 41.6895 69.9767ZM41.3897 100.65C42.0417 100.927 44.1336 101.504 45.2489 101.713C47.1141 102.064 48.6364 102.2 50.6861 102.199C52.399 102.198 53.287 102.135 54.9948 101.891C57.9976 101.464 61.4676 100.44 64.2052 99.174C64.3299 99.1163 64.5443 99.0209 64.6816 98.962C65.5066 98.608 67.6543 97.4376 68.8557 96.6875C69.774 96.1142 71.5326 94.8957 71.5326 94.8328C71.5326 94.8245 71.4561 94.8361 71.3625 94.8584C71.0585 94.931 69.935 95.1248 69.4002 95.197C68.1715 95.3628 67.4277 95.4037 65.9973 95.3844C64.3784 95.3625 63.2733 95.2487 61.6871 94.9406L60.9384 94.7952L60.426 95.057C57.1726 96.7198 52.7508 98.1072 48.8697 98.683C47.0184 98.9578 44.7983 99.1492 43.4637 99.1493L43.0032 99.1493L42.6471 99.4418C42.4512 99.6027 42.0502 99.9242 41.7559 100.156L41.2209 100.578L41.3897 100.65ZM41.5583 62.5988L41.7554 63.0108L42.5449 63.1832C43.4085 63.3717 44.1616 63.5059 44.9503 63.6118C45.7882 63.7243 45.7902 63.7231 45.3087 63.4013C45.079 63.2477 44.7115 62.988 44.492 62.824L44.093 62.5258L43.7818 62.5258C43.3182 62.5257 42.3442 62.4 41.8338 62.2744C41.5863 62.2136 41.3787 62.1689 41.3725 62.1753C41.3662 62.1816 41.4499 62.3722 41.5583 62.5988ZM41.3786 44.3296C41.3883 44.3296 41.6647 44.2262 41.9928 44.0999C42.6774 43.8362 43.6575 43.5115 44.2206 43.3616C44.5949 43.2621 44.63 43.2406 45.2815 42.7102C46.0304 42.1005 46.8454 41.5008 47.5993 41.0044C47.8738 40.8237 48.1144 40.6597 48.134 40.64C48.2161 40.5571 46.3921 40.1153 45.2512 39.9418C44.311 39.7988 44.4071 39.771 43.8521 40.3462C43.1558 41.0679 42.7532 41.5811 42.2811 42.3487C42.0374 42.745 41.6773 43.473 41.5006 43.9266C41.3585 44.2916 41.347 44.3296 41.3786 44.3296ZM41.4787 41.1429C41.4924 41.1429 41.7627 40.9091 42.0793 40.6233C42.396 40.3375 42.7467 40.0262 42.8586 39.9315L43.0622 39.7592L42.5602 39.7583L42.0582 39.7574L41.9752 39.9306C41.882 40.1251 41.5541 40.8794 41.4933 41.039C41.4716 41.0962 41.465 41.1429 41.4787 41.1429ZM42.1233 63.7289C42.6547 64.6931 43.2602 65.6136 43.8199 66.3082L44.0952 66.6498L44.9625 66.6217C46.487 66.5723 47.6586 66.3208 48.929 65.7703C49.1363 65.6804 49.2895 65.5904 49.2693 65.5702C49.2492 65.55 49.0669 65.4614 48.8644 65.3733C48.3712 65.1589 47.1502 64.5344 46.6563 64.2439C46.2685 64.0158 46.2436 64.0081 45.7262 63.957C44.6025 63.8458 42.8922 63.559 42.1162 63.3516C42.0201 63.3259 41.934 63.3125 41.9248 63.3218C41.9157 63.3311 42.0051 63.5143 42.1233 63.7289ZM43.1647 39.089L43.9705 38.9945L44.696 38.4163C45.9776 37.3951 47.2563 36.4519 48.394 35.6887L48.9036 35.3469L48.501 35.2196C47.9354 35.0408 47.192 34.8776 46.5648 34.7944C45.7604 34.6877 45.6964 34.6942 45.1876 34.9332L44.7409 35.143L44.4174 35.6144C43.697 36.6643 42.359 38.9594 42.359 39.1454C42.359 39.1664 42.7216 39.141 43.1647 39.089ZM43.052 39.4803C43.2534 39.4803 43.4099 39.4592 43.4279 39.4297C43.4498 39.3935 43.3564 39.3885 43.1016 39.4122C42.9053 39.4304 42.7361 39.4532 42.7257 39.4628C42.7153 39.4724 42.8621 39.4803 43.052 39.4803ZM43.4719 81.4634C45.5711 84.6121 48.1098 87.3889 50.8507 89.5347L51.3344 89.9133L51.6256 89.532C52.0022 89.0389 52.6056 88.1852 53.2337 87.2571C55.3119 84.1859 57.198 80.6851 58.7673 76.9859C59.0295 76.3676 59.0389 76.3348 58.9535 76.3346C58.8671 76.3343 57.3091 75.7355 56.5012 75.3921C55.5151 74.9728 54.8043 74.6439 53.8566 74.1685L53.0499 73.7638L52.6158 74.2259C50.3966 76.5888 48.1244 78.3242 45.4442 79.7033C44.8855 79.9908 43.6503 80.5519 43.1127 80.7626C43.0368 80.7923 43.0778 80.8723 43.4719 81.4634ZM44.0604 98.8953C49.1523 98.7064 54.0965 97.5973 58.6245 95.6282C59.3836 95.2981 60.575 94.7222 60.5488 94.6981C60.5385 94.6887 60.2545 94.6037 59.9176 94.5094C57.2872 93.7727 54.656 92.536 52.2527 90.9067L51.4161 90.3396L50.9419 90.9459C49.0461 93.3694 46.6152 95.9648 44.3773 97.9546C44.0525 98.2434 43.6748 98.5796 43.5379 98.7018L43.2891 98.9239L44.0604 98.8953ZM43.6754 67.0112C43.7892 67.1047 43.9567 67.1926 44.0554 67.2108L44.232 67.2432L44.0856 67.055C43.9319 66.8576 43.8166 66.8037 43.6015 66.8289L43.4718 66.844L43.6754 67.0112ZM43.9999 39.5248C44.0915 39.5257 44.1946 39.5375 44.229 39.551C44.2635 39.5644 44.3724 39.5006 44.4709 39.4092C44.631 39.2608 44.638 39.2457 44.5368 39.2686C44.4744 39.2828 44.3519 39.2947 44.2645 39.2951C44.164 39.2957 44.0558 39.3376 43.9696 39.4096L43.8335 39.5231L43.9999 39.5248ZM44.4552 67.083L44.6502 67.2758L45.5576 67.3464C46.0567 67.3853 46.7626 67.431 47.1263 67.4481L47.7876 67.4791L48.6018 67.0692C49.4499 66.6421 50.4793 66.0757 50.4797 66.0358C50.4798 66.0231 50.2939 65.9432 50.0667 65.8583L49.6535 65.7039L49.2492 65.8951C48.0346 66.4696 46.601 66.7984 45.0451 66.8594L44.2603 66.8902L44.4552 67.083ZM44.5248 67.7188C45.1227 68.1941 45.118 68.1917 44.804 67.8638C44.6212 67.6728 44.4748 67.5569 44.429 67.5668C44.3726 67.5789 44.3964 67.6167 44.5248 67.7188ZM44.6583 62.6371C44.9556 62.8577 46.0729 63.6048 46.2155 63.6783C46.4293 63.7884 46.9402 63.8212 48.4437 63.8214C49.7233 63.8215 50.6218 63.7734 51.5115 63.6573C52.0148 63.5917 52.0227 63.5888 52.1812 63.4101C53.2034 62.2584 53.9022 60.7748 54.1856 59.1545C54.2807 58.6109 54.2933 57.221 54.208 56.6836C53.8604 54.4931 52.7082 52.6446 51.2146 51.8816C50.4692 51.5009 49.7508 51.4761 49.3682 51.818C49.0687 52.0857 49.0647 52.4747 49.3573 52.8779L49.5049 53.0813L49.5299 52.7547C49.5602 52.36 49.7153 52.057 49.9696 51.8961C50.1996 51.7505 50.6478 51.7473 50.9114 51.8895C51.3944 52.1499 51.8626 52.8759 52.0525 53.6586C52.1842 54.202 52.1698 55.6035 52.0263 56.1987C51.5397 58.2167 50.3656 59.907 48.6429 61.0694C47.8704 61.5906 47.2233 61.897 46.3063 62.1758C45.8935 62.3013 44.9452 62.4797 44.6911 62.4797C44.5069 62.4797 44.4988 62.5186 44.6583 62.6371ZM44.8155 38.9261C45.0436 38.9261 45.0967 38.9048 45.3865 38.6977C46.8876 37.6246 48.5112 36.8787 50.367 36.4094L50.9568 36.2603L50.5916 36.0732C50.1038 35.8235 49.3753 35.5085 49.2854 35.5085C49.135 35.5085 46.7958 37.1656 45.3535 38.2939C44.9667 38.5965 44.6308 38.8625 44.6071 38.8851C44.5816 38.9093 44.6668 38.9261 44.8155 38.9261ZM45.1379 39.6551C45.781 39.733 46.9973 39.9917 47.7756 40.2161C48.1337 40.3194 48.4509 40.404 48.4804 40.404C48.5099 40.404 48.8239 40.2397 49.1783 40.0391C49.5326 39.8384 50.0624 39.553 50.3556 39.405C50.6489 39.2569 50.8887 39.1198 50.8887 39.1002C50.8887 39.0505 48.2008 39.0576 47.0776 39.1103C45.0198 39.2069 45.1022 39.197 44.875 39.3736C44.7639 39.46 44.6729 39.546 44.6729 39.5648C44.6729 39.5835 44.8821 39.6241 45.1379 39.6551ZM45.2765 67.9664C45.4572 68.1492 45.6398 68.2988 45.6822 68.2988C45.7246 68.2988 46.061 68.1793 46.4298 68.0332L47.1002 67.7677L46.7373 67.7365C45.9909 67.6725 44.9757 67.6056 44.962 67.6196C44.9542 67.6276 45.0957 67.7836 45.2765 67.9664ZM45.2855 43.0809C45.3105 43.0819 45.5759 43.0322 45.8753 42.9706C46.1747 42.9091 46.5932 42.8333 46.8053 42.8023L47.191 42.746L47.5993 42.3652C48.0063 41.9858 48.856 41.3405 49.1771 41.167C49.3158 41.0921 49.3987 41.0043 49.3307 41.0043C49.3222 41.0043 49.1366 40.9413 48.9182 40.8643L48.5212 40.7243L48.1056 40.9893C47.0271 41.677 45.1413 43.0757 45.2855 43.0809ZM45.4733 34.4463C45.5643 34.4463 45.8143 34.3757 46.0291 34.2894C46.244 34.203 46.6238 34.0648 46.8734 33.9821C47.1229 33.8995 47.3423 33.8185 47.3609 33.8022C47.3923 33.7746 46.3872 33.1993 46.3076 33.1993C46.2693 33.1993 45.3081 34.3719 45.3081 34.4187C45.3081 34.4339 45.3825 34.4463 45.4733 34.4463ZM45.7391 38.8617C46.3841 38.7913 48.9321 38.7317 50.2178 38.7569L51.6566 38.7852L51.9457 38.6532C52.1047 38.5806 52.4883 38.4235 52.7981 38.304C53.108 38.1845 53.3766 38.0721 53.3951 38.0542C53.4435 38.0074 52.6464 37.3705 51.938 36.89C51.4764 36.5769 51.2949 36.4784 51.1793 36.4784C50.9717 36.4784 49.7564 36.7993 49.1193 37.0223C47.9943 37.4162 46.8943 37.9562 46.0246 38.5416L45.5123 38.8865L45.7391 38.8617ZM46.2852 68.8707C46.7456 69.2489 47.1964 69.5787 47.6954 69.9025L48.0637 70.1416L48.5802 70.0236C50.2332 69.646 51.8106 68.9952 53.1573 68.1353C53.8296 67.7061 53.8473 67.681 53.4522 67.716C52.6251 67.7894 50.2013 67.8437 49.0058 67.8157L47.6901 67.7849L47.2817 67.9664C47.0571 68.0662 46.6692 68.2253 46.4197 68.3198C46.1701 68.4143 45.9512 68.5059 45.9333 68.5232C45.9152 68.5405 46.0736 68.6969 46.2852 68.8707ZM46.794 34.5563C47.4424 34.6545 48.1309 34.8162 48.723 35.0093C49.1138 35.1368 49.1794 35.1466 49.2788 35.0924C49.3408 35.0587 49.3915 35.0155 49.3915 34.9964C49.3915 34.9669 48.52 34.4235 47.9129 34.0746L47.7275 33.9679L46.9942 34.2087C46.5909 34.3411 46.2609 34.4553 46.2609 34.4625C46.2609 34.4696 46.5008 34.5118 46.794 34.5563ZM46.6565 33.0178C46.7255 33.0541 47.0169 33.2155 47.3041 33.3765L47.8262 33.6691L48.4387 33.55C48.7756 33.4845 49.1839 33.4107 49.3461 33.3859C49.9227 33.2979 51.1012 33.2364 51.6459 33.2659L52.199 33.2959L52.8936 32.9081C54.5666 31.9744 56.2692 31.1226 57.8532 30.4268C58.2774 30.2405 58.6343 30.0801 58.6463 30.0705C58.705 30.0234 57.5627 27.869 56.8562 26.6944C56.4809 26.0704 56.4506 26.0332 56.3365 26.0564C56.1249 26.0995 54.7044 26.7359 53.9513 27.125C51.8852 28.1924 49.7462 29.7168 48.1412 31.2656C47.6426 31.7467 46.5627 32.8628 46.5434 32.9169C46.5366 32.936 46.5875 32.9814 46.6565 33.0178ZM47.661 64.5033C48.1067 64.7365 48.7346 65.0406 49.0562 65.1792L49.641 65.4311L49.8906 65.2892C50.402 64.9986 50.9606 64.5873 51.5693 64.0532L51.7281 63.9138L51.592 63.9127C51.5171 63.9121 51.1394 63.9462 50.7526 63.9885C50.2442 64.044 49.6062 64.0663 48.45 64.0692C47.5704 64.0712 46.8507 64.0762 46.8507 64.0762C46.8507 64.0762 47.2154 64.2701 47.661 64.5033ZM47.8837 73.077C48.448 73.1266 49.7739 73.0137 50.6619 72.8405C51.1897 72.7376 51.2038 72.7248 50.9475 72.5813C50.8279 72.5142 50.475 72.3033 50.1635 72.1127C49.6054 71.7711 49.5955 71.7672 49.483 71.8438C49.4202 71.8865 48.9557 72.1746 48.4508 72.4839L47.5328 73.0462L47.8837 73.077ZM47.8545 42.647C49.0378 42.5281 49.4636 42.5082 50.8524 42.5068C51.7183 42.506 52.4109 42.4892 52.3916 42.4695C52.3187 42.3953 50.6639 41.5663 50.1704 41.3568L49.6562 41.1385L49.2039 41.417C48.6809 41.739 48.2043 42.0972 47.8489 42.4352L47.5993 42.6726L47.8545 42.647ZM48.9572 34.3383L49.7203 34.8022L50.3612 34.4041C50.7137 34.1851 51.1757 33.9024 51.3878 33.7758L51.7735 33.5457L51.229 33.5306C50.5897 33.5128 49.6617 33.5866 48.9605 33.711C48.083 33.8666 48.0833 33.807 48.9572 34.3383ZM48.6579 16.8125C49.2513 17.2598 50.2398 18.1153 51.0233 18.8595C52.8696 20.6133 54.5675 22.6457 56.0389 24.8632C56.3085 25.2696 56.5447 25.6202 56.5637 25.6423C56.5827 25.6644 56.9487 25.565 57.3771 25.4213C60.184 24.4803 63.3529 24.0594 66.2696 24.2404C68.776 24.396 71.4066 24.9529 73.5403 25.7796L73.8465 25.8982V25.7856C73.8465 25.494 73.4117 23.5327 73.1197 22.5079C72.5196 20.4009 71.6335 18.2992 70.5923 16.5133C70.3869 16.161 70.2658 16.0002 70.1798 15.9661C70.1129 15.9394 69.5992 15.7841 69.0383 15.621C66.9194 15.0046 64.8657 14.6119 62.5011 14.3708C61.3589 14.2544 57.965 14.2546 56.8324 14.3712C54.4494 14.6165 52.3092 15.0697 50.3216 15.7501C49.6191 15.9906 48.3938 16.4667 48.3403 16.52C48.3236 16.5366 48.4666 16.6682 48.6579 16.8125ZM48.371 16.2312C51.269 15.0349 53.9994 14.3751 57.2044 14.0965C58.2767 14.0033 60.8381 13.9904 61.8912 14.0729C64.4608 14.2741 67.0322 14.7485 69.4001 15.4584C69.737 15.5594 70.0205 15.634 70.0301 15.6241C70.0398 15.6143 69.9192 15.4134 69.7622 15.1777C68.0168 12.5577 65.7766 10.3151 63.1703 8.57874C62.7942 8.32811 62.4239 8.1033 62.3476 8.07919C61.8691 7.92794 58.4566 7.66015 57.0051 7.65997L56.5199 7.65988L56.2111 7.92395C53.6031 10.1542 51.0704 12.7629 49.0023 15.3494C48.3193 16.2036 48.2696 16.273 48.371 16.2312ZM49.9813 67.5123C51.9233 67.5131 54.1697 67.4078 54.3121 67.3092C54.3632 67.2739 54.4737 67.1853 54.5577 67.1125L54.7104 66.98L54.104 66.8975C53.3396 66.7936 52.2244 66.5508 51.4401 66.3176L50.8345 66.1376L50.4419 66.3709C50.226 66.4991 49.6614 66.8083 49.1873 67.0579L48.3253 67.5116L49.9813 67.5123ZM49.0285 70.6443C49.3904 70.822 49.7712 70.9997 49.8748 71.0394L50.0633 71.1116L50.9864 70.4756C52.2704 69.591 54.0624 68.2598 54.6545 67.7505L54.8133 67.614L54.5231 67.6401C54.2599 67.6639 54.1983 67.6914 53.8652 67.9348C52.5358 68.9057 50.8058 69.6956 48.9831 70.1641L48.3706 70.3215L49.0285 70.6443ZM49.0814 71.0685C49.551 71.3762 49.5961 71.3961 49.6982 71.3405L49.8083 71.2805L49.702 71.2354C49.6435 71.2106 49.366 71.0815 49.0852 70.9485C48.8045 70.8155 48.5748 70.7134 48.5748 70.7217C48.5748 70.7299 48.8028 70.886 49.0814 71.0685ZM49.3011 40.7249L49.7098 40.8737L49.9023 40.7815C51.3428 40.0912 52.9893 39.7112 54.5402 39.7112H55.0844L54.8808 39.5073L54.6772 39.3035L53.6564 39.2276C53.0949 39.1859 52.3701 39.1478 52.0457 39.1429L51.4559 39.1339L50.6293 39.5577C49.643 40.0634 48.8924 40.4873 48.8924 40.5388C48.8924 40.5593 49.0763 40.643 49.3011 40.7249ZM49.7431 35.3842C49.8367 35.4229 50.0766 35.5309 50.2762 35.6242C50.7127 35.8279 50.7041 35.8156 50.1636 35.4628C49.8236 35.2409 49.7266 35.1971 49.658 35.2346C49.5437 35.2968 49.5472 35.3031 49.7431 35.3842ZM49.6907 53.9665C49.7622 53.9665 49.776 53.9085 49.7139 53.8694C49.6915 53.8554 49.6628 53.8715 49.6501 53.9052C49.6374 53.9389 49.6557 53.9665 49.6907 53.9665ZM49.9324 53.6481C50.1469 53.9387 50.2265 54.1648 50.1958 54.397C50.1833 54.4925 50.186 54.5888 50.2019 54.6111C50.2715 54.7085 50.3379 54.6568 50.3843 54.4692C50.468 54.1311 50.3779 53.8452 50.0832 53.5131L49.9179 53.3269L50.1424 53.3603C50.7306 53.4477 51.021 53.8165 50.896 54.3176C50.8423 54.5327 50.8873 54.6331 50.9963 54.5411C51.1087 54.4461 51.1747 54.0668 51.1169 53.8483C51.0531 53.6072 50.8295 53.3455 50.5942 53.2367C50.3729 53.1344 49.9894 53.1215 49.954 53.2153C49.9407 53.2509 49.8903 53.2905 49.8421 53.3034C49.72 53.3359 49.7299 53.3738 49.9324 53.6481ZM50.6934 72.082C51.1328 72.3466 51.5389 72.5722 51.5958 72.5833C51.6528 72.5943 51.8385 72.5583 52.0086 72.5032C52.5844 72.3166 53.115 72.1197 53.0955 72.0999C53.0849 72.0891 52.8563 72.0491 52.5876 72.0109C51.9938 71.9267 51.0836 71.7195 50.5994 71.5582C50.1797 71.4185 50.1274 71.4153 49.9946 71.5211C49.8954 71.6001 49.9027 71.6059 50.6934 72.082ZM50.3783 65.7126L50.7753 65.8601L50.9568 65.7564C51.5944 65.392 53.8738 63.753 54.0593 63.5254C54.1011 63.4741 54.027 63.4788 53.693 63.5485C53.4627 63.5967 53.0182 63.6792 52.7053 63.7321L52.1364 63.8282L51.8642 64.0923C51.7145 64.2377 51.4695 64.4614 51.3198 64.5896C51.0333 64.8348 50.0926 65.4816 50.0224 65.4816C49.9998 65.4816 49.9813 65.5004 49.9813 65.5234C49.9813 65.5464 50.16 65.6315 50.3783 65.7126ZM50.2873 41.1181C50.9524 41.4102 51.7519 41.8106 52.4047 42.1785C53.0251 42.5283 53.119 42.5672 53.4068 42.5948C54.4532 42.6948 56.1246 42.965 57.0061 43.1766C57.2139 43.2265 57.3944 43.2673 57.4072 43.2673C57.4441 43.2673 57.0779 42.6045 56.6829 41.9562C56.3433 41.3988 55.5039 40.2119 55.3109 40.0161C55.2298 39.934 55.1677 39.9302 54.3157 39.9558C52.9625 39.9966 51.9365 40.1974 50.7299 40.6577C50.4804 40.7529 50.2098 40.8652 50.1285 40.9072L49.9808 40.9836L50.2873 41.1181ZM50.761 35.487C51.1681 35.7597 51.5465 36.0132 51.6018 36.0502C51.6902 36.1093 51.7963 36.1079 52.478 36.0381C53.0887 35.9757 53.5066 35.9642 54.4419 35.9839C55.9736 36.0163 56.9703 36.1567 58.2949 36.527C58.7952 36.6668 58.9479 36.6873 59.041 36.627C59.1699 36.5436 57.6719 35.4068 56.787 34.9166C55.6924 34.3101 54.259 33.8388 52.8959 33.637L52.385 33.5614L52.0792 33.7348C51.7978 33.8944 50.0678 34.9461 50.0351 34.9774C50.0272 34.9849 50.3539 35.2143 50.761 35.487ZM50.3499 55.195C50.3809 55.1636 50.3949 55.1264 50.3809 55.1122C50.3669 55.098 50.3416 55.1236 50.3245 55.1691C50.2999 55.2349 50.3051 55.2403 50.3499 55.195ZM50.4284 55.0809C50.4583 55.129 50.4768 55.1273 50.5219 55.072C50.5687 55.0146 50.5624 55.0044 50.4838 55.0104C50.432 55.0143 50.3903 55.0193 50.3903 55.0193C50.3903 55.0193 50.4078 55.048 50.4284 55.0809ZM50.8661 71.3868C51.5209 71.5933 52.3166 71.7579 53.0283 71.8342L53.6488 71.9007L54.0759 71.6976C54.3476 71.5683 54.5494 71.4382 54.6308 71.3399C55.1255 70.7421 57.0564 67.4923 56.968 67.4065C56.9558 67.3946 56.5885 67.4271 56.1518 67.4787L55.3578 67.5726L54.9041 67.9423C53.8095 68.834 51.9256 70.2217 50.524 71.1683C50.4132 71.2432 50.4159 71.245 50.8661 71.3868ZM50.798 54.701C50.8567 54.701 50.8721 54.6854 50.8427 54.6555C50.8133 54.6256 50.7827 54.6256 50.7533 54.6555C50.7239 54.6854 50.7392 54.701 50.798 54.701ZM51.4218 66.061C52.3324 66.333 53.493 66.5791 54.4511 66.7034L54.9495 66.7681L55.4735 66.2287C56.4738 65.1992 57.2036 64.1104 57.7145 62.8852C58.0254 62.1395 58.0311 62.1807 57.6403 62.3452C57.194 62.5331 55.9857 62.9456 55.2936 63.1464C54.9838 63.2363 54.6947 63.336 54.651 63.3681C54.6074 63.4002 54.3716 63.5927 54.1269 63.7959C53.4501 64.3581 52.8057 64.8379 51.9436 65.4216C51.5132 65.7131 51.161 65.9586 51.161 65.9673C51.161 65.9759 51.2784 66.0181 51.4218 66.061ZM51.7182 90.1933C53.2488 91.3014 55.1749 92.3985 56.9348 93.1646C57.822 93.551 59.4276 94.1127 60.3565 94.3618L60.9543 94.522L61.6269 94.1544C67.2208 91.0969 71.6541 86.8094 74.561 81.6458C75.0313 80.8103 75.8588 79.0761 76.1172 78.3843C76.161 78.267 76.1582 78.2645 76.0139 78.292C74.1481 78.6463 70.6322 78.7077 67.971 78.4325C66.8778 78.3195 64.5883 77.9548 64.0006 77.8001C63.9784 77.7943 63.8803 77.9566 63.7827 78.1608C61.4011 83.1422 57.4363 87.1541 52.3974 89.6817C51.967 89.8976 51.6154 90.0847 51.6162 90.0974C51.6169 90.1101 51.6628 90.1533 51.7182 90.1933ZM52.4546 73.0982C52.7418 73.2567 52.995 73.3795 53.0171 73.3711C53.0646 73.3531 53.9128 72.3306 53.9779 72.2128C54.0561 72.0714 53.682 72.1102 53.2455 72.2888C53.0348 72.375 52.6531 72.5129 52.3973 72.5951C52.1415 72.6774 51.9323 72.7595 51.9323 72.7774C51.9323 72.7954 52.1673 72.9397 52.4546 73.0982ZM52.008 89.5894C52.0245 89.5894 52.3472 89.4247 52.7253 89.2233C56.983 86.9562 60.2735 83.8051 62.6579 79.7112C63.0629 79.016 63.7005 77.7488 63.653 77.7339C63.6323 77.7274 63.1764 77.6083 62.6399 77.4691C61.5804 77.1943 60.5823 76.9036 59.8153 76.6464C59.5469 76.5564 59.3174 76.4991 59.3053 76.519C59.2932 76.539 59.1531 76.8641 58.9941 77.2417C57.2412 81.4007 54.9364 85.5067 52.3547 89.0698C52.1476 89.3555 51.9916 89.5894 52.008 89.5894ZM52.2542 36.5195C52.3777 36.6056 52.8199 36.9329 53.2366 37.2469C53.6535 37.5608 54.0173 37.8177 54.0453 37.8177C54.0732 37.8177 54.4242 37.7147 54.8253 37.5887C55.64 37.3329 56.765 37.0454 57.5696 36.8874C57.8629 36.8298 58.1027 36.768 58.1027 36.7501C58.1027 36.7052 57.3907 36.5412 56.6282 36.4103C55.7663 36.2625 55.0342 36.2013 54.1265 36.2013C53.3493 36.2013 52.1159 36.2801 52.0603 36.3334C52.0434 36.3497 52.1306 36.4334 52.2542 36.5195ZM53.1471 38.8736C53.6393 38.9053 54.1237 38.9422 54.2235 38.9554L54.405 38.9795L54.0543 38.6295C53.8614 38.437 53.6727 38.2795 53.635 38.2795C53.577 38.2795 52.2991 38.7682 52.2642 38.8038C52.2576 38.8104 52.655 38.8418 53.1471 38.8736ZM52.9191 33.3851C52.9877 33.3857 53.2903 33.4358 53.5915 33.4964C55.6639 33.9131 57.5139 34.8407 59.1038 36.2599L59.4471 36.5663L60.2154 36.4953C60.638 36.4562 61.0287 36.4155 61.0836 36.4048C61.1818 36.3857 61.1795 36.3739 60.9406 35.6583C60.5869 34.599 60.2863 33.7809 59.9256 32.8956C59.5875 32.066 59.0377 30.7966 58.8928 30.5112L58.806 30.3401L57.8078 30.7911C56.688 31.297 55.8952 31.6774 54.9268 32.1734C53.9377 32.68 52.7951 33.3103 52.7947 33.3494C52.7945 33.3685 52.8504 33.3846 52.9191 33.3851ZM54.0534 73.9302C54.8947 74.355 56.1773 74.9429 57.0819 75.3185C57.7079 75.5784 59.1125 76.1073 59.1299 76.0897C59.2034 76.0149 60.1474 73.4263 60.5564 72.1782C60.8181 71.3795 61.3241 69.6971 61.3241 69.6256C61.3241 69.6053 61.2781 69.6146 61.222 69.6463C61.1659 69.678 61.1046 69.6995 61.0859 69.6941C61.0672 69.6887 61.057 69.7026 61.0632 69.7251C61.0881 69.8147 60.128 70.4363 59.3099 70.8603C58.7614 71.1446 58.6037 71.2129 57.8532 71.4911C57.0552 71.787 55.8796 72.0209 54.7329 72.1121L54.3804 72.1401L54.0184 72.595C53.8194 72.8452 53.5748 73.146 53.475 73.2634C53.3751 73.3809 53.2934 73.4926 53.2934 73.5117C53.2934 73.5309 53.6354 73.7192 54.0534 73.9302ZM53.8922 43.0882C54.0237 43.1741 54.3783 43.4227 54.68 43.6409L55.2287 44.0374L55.7694 44.0689C56.4131 44.1063 57.1099 44.2069 57.5885 44.3315C57.7798 44.3813 57.9438 44.4144 57.953 44.405C57.9622 44.3956 57.8884 44.2097 57.7891 43.9917C57.5813 43.536 57.6805 43.5895 56.6208 43.3622C55.5661 43.1359 53.7288 42.8549 53.6733 42.9114C53.6621 42.9228 53.7606 43.0024 53.8922 43.0882ZM54.5354 38.7356C54.6945 38.8961 54.8545 39.0202 54.891 39.0114C54.931 39.0017 54.8167 38.8806 54.6017 38.7052C54.4062 38.5455 54.2462 38.4214 54.2462 38.4294C54.2462 38.4373 54.3764 38.5751 54.5354 38.7356ZM54.8407 38.4951C55.15 38.7486 55.4542 38.988 55.5166 39.0271C55.5813 39.0676 55.8543 39.1222 56.1518 39.1543C57.3699 39.2855 59.3265 39.5957 60.864 39.9013C61.2472 39.9775 61.5687 40.0318 61.5784 40.022C61.588 40.0122 61.4511 39.746 61.2742 39.4305C60.9263 38.8101 60.4059 38.0471 60.0083 37.5742C59.7918 37.3168 59.7168 37.2618 59.4412 37.1585C58.8212 36.9259 58.7916 36.922 58.3014 37.0059C57.3093 37.1757 55.6422 37.5886 54.6819 37.9022L54.2782 38.034L54.8407 38.4951ZM54.9989 71.8814C56.9658 71.7424 58.9474 71.0217 60.6521 69.8254C61.491 69.2366 61.4233 69.3377 61.6913 68.2757C62.0208 66.9705 62.1303 66.5023 62.1107 66.4823C62.1013 66.4728 61.895 66.5125 61.6521 66.5706C61.4094 66.6286 60.9719 66.7212 60.6801 66.7764L60.1496 66.8766L59.744 67.3914C58.518 68.9476 56.7887 70.4511 55.2217 71.3235C54.8599 71.5249 54.7732 71.5933 54.6423 71.7801L54.5491 71.9132L54.9989 71.8814ZM54.8587 67.3094C54.9585 67.2953 55.0834 67.2835 55.1362 67.2833C55.1889 67.283 55.2897 67.2366 55.3602 67.1802L55.4882 67.0777L55.3776 67.0463C55.1416 66.9792 55.0335 67.0049 54.8549 67.1703L54.6772 67.335L54.8587 67.3094ZM55.142 71.116C55.2445 71.116 56.3415 70.3709 56.9515 69.887C57.6593 69.3255 58.439 68.5769 59.1346 67.7907C59.3625 67.5332 59.78 66.9887 59.7629 66.9714C59.7518 66.9601 58.607 67.1363 57.6542 67.2959C57.3401 67.3485 57.3137 67.3621 57.2333 67.5137C57.1862 67.6026 57.023 67.9143 56.8707 68.2064C56.5128 68.893 55.8652 69.9901 55.4462 70.6195C55.2644 70.8925 55.1275 71.116 55.142 71.116ZM55.2827 39.5649C55.4374 39.7354 55.4801 39.7572 55.6571 39.756L55.8569 39.7546L55.6527 39.575C55.5247 39.4623 55.3893 39.3878 55.2897 39.3751C55.2024 39.364 55.1258 39.3588 55.1196 39.3637C55.1133 39.3686 55.1868 39.4591 55.2827 39.5649ZM55.2401 62.9198C55.2978 62.9011 55.5419 62.8281 55.7825 62.7576C56.2702 62.6145 57.1657 62.2888 57.7146 62.0549L58.075 61.9012L58.1567 61.6247C58.2867 61.1847 58.4178 60.4226 58.4625 59.8473C58.4852 59.5552 58.499 59.3115 58.4933 59.3056C58.4875 59.2997 58.2976 59.5283 58.0712 59.8135C57.479 60.5597 56.7764 61.3312 55.9004 62.1972C55.4794 62.6133 55.1823 62.9384 55.2401 62.9198ZM55.3917 66.7918C55.6895 66.873 55.78 66.8342 56.2572 66.4209C57.4407 65.3957 58.1794 64.6929 58.2277 64.546C58.2548 64.4637 58.3899 64.0613 58.5278 63.6519C58.8116 62.8099 59.1197 61.7445 59.0887 61.7129C59.0773 61.7013 58.8894 61.7808 58.6712 61.8895L58.2745 62.0871L58.1047 62.5501C57.7871 63.416 57.1985 64.4953 56.631 65.2521C56.2959 65.6991 56.1814 65.8325 55.7155 66.319C55.3278 66.7239 55.2987 66.7664 55.3917 66.7918ZM56.0277 44.6832C56.8128 45.3202 57.7974 46.2587 58.6812 47.2124C58.9121 47.4614 59.1009 47.6391 59.1009 47.6072C59.1009 47.4453 58.6926 46.1949 58.3554 45.3241L58.1236 44.7253L57.8539 44.6418C57.2841 44.4652 55.7844 44.2303 55.6102 44.2903C55.5845 44.2992 55.7724 44.476 56.0277 44.6832ZM55.9764 40.4533C56.4535 41.0981 57.0374 42.014 57.4222 42.7213L57.7625 43.3466L58.6018 43.5916C59.0635 43.7263 59.6607 43.915 59.929 44.0109C60.3147 44.1488 60.408 44.1689 60.3746 44.1073C60.29 43.9513 57.8929 41.5697 57.0819 40.8359C56.1939 40.0325 56.2078 40.0425 55.9417 40.0086C55.8054 39.9913 55.685 39.9863 55.674 39.9974C55.663 40.0085 55.7991 40.2137 55.9764 40.4533ZM56.3673 67.1593C57.0787 67.073 57.0901 67.065 56.5125 67.0581C56.0244 67.0522 55.8796 67.0826 55.8796 67.1906C55.8796 67.2059 56.0991 67.1919 56.3673 67.1593ZM56.219 39.6546C56.3963 39.8135 56.4674 39.844 56.7748 39.8932C58.4147 40.1554 60.2934 40.8754 61.8799 41.8495C62.1579 42.0202 62.3676 42.1232 62.3676 42.0891C62.3676 41.9724 61.8309 40.4887 61.764 40.4207C61.7588 40.4153 61.3462 40.3274 60.8473 40.2254C59.7215 39.9951 58.2652 39.7505 57.1046 39.5968C56.618 39.5324 56.1739 39.4723 56.1178 39.4633C56.0616 39.4543 56.0157 39.4527 56.0157 39.4597C56.0157 39.4667 56.1072 39.5544 56.219 39.6546ZM56.7685 66.8209H57.2693L57.351 66.6477C57.4853 66.3628 57.8759 65.4429 57.8759 65.4113C57.8759 65.3952 57.7687 65.4789 57.6377 65.5972C57.5067 65.7156 57.1851 66.0012 56.9231 66.232C56.6611 66.4627 56.4064 66.6897 56.3572 66.7362C56.27 66.8187 56.2806 66.8209 56.7685 66.8209ZM57.0216 26.3886C57.4998 27.1804 58.1195 28.2957 58.5349 29.1121C58.7546 29.5439 58.9408 29.9054 58.9487 29.9155C58.9565 29.9256 59.0706 29.8909 59.2021 29.8385C59.3336 29.7861 59.9004 29.5632 60.4617 29.3432C64.2565 27.8561 68.3133 26.7432 72.1678 26.132C72.6794 26.0508 73.1285 25.974 73.166 25.9613C73.285 25.9208 71.6255 25.3845 70.6932 25.1623C68.5825 24.6591 66.9862 24.4692 64.863 24.4688C62.8448 24.4684 61.0694 24.6796 59.2083 25.1416C58.3424 25.3565 56.8765 25.8135 56.7766 25.8996C56.7584 25.9153 56.8687 26.1353 57.0216 26.3886ZM57.3878 40.7067C58.4538 41.6855 59.5855 42.7988 60.36 43.6307L61.1161 44.443L62.0028 44.8246C62.4904 45.0344 62.8945 45.2063 62.9007 45.2066C62.9538 45.2088 62.8216 44.0917 62.6823 43.3597C62.52 42.5075 62.5555 42.572 62.076 42.2558C61.1194 41.625 59.9918 41.0675 58.8887 40.68C58.2179 40.4443 56.787 40.0759 56.787 40.1389C56.787 40.1478 57.0574 40.4034 57.3878 40.7067ZM57.5923 7.42642C58.6351 7.43418 60.3045 7.54483 61.5283 7.68726L61.7551 7.71363L61.5056 7.56313C61.1267 7.33457 59.7906 6.68749 59.089 6.39274L58.4645 6.13043L58.3177 6.2359C57.8828 6.54829 56.8777 7.3601 56.8777 7.39894C56.8777 7.41113 57.1993 7.42351 57.5923 7.42642ZM57.7738 66.7865C58.3428 66.7337 59.1519 66.6153 59.6227 66.516C60.0628 66.4232 60.1866 66.3791 60.2687 66.2859C60.4414 66.0896 61.0981 64.9351 61.396 64.3039C61.9368 63.1583 62.3461 61.8975 62.573 60.6785L62.6031 60.5169L62.469 60.6554C62.3952 60.7316 62.0276 61.1369 61.6521 61.556C60.8666 62.4328 59.6321 63.716 58.8712 64.4467C58.3672 64.9308 58.3406 64.9659 58.1935 65.343C58.1093 65.5589 57.9421 65.9613 57.822 66.2372C57.7019 66.513 57.6037 66.7531 57.6037 66.7706C57.6037 66.7881 57.6803 66.7952 57.7738 66.7865ZM58.1224 44.1217L58.3146 44.5374L58.6284 44.647C59.0815 44.8053 60.0547 45.2871 60.5401 45.5935C61.3235 46.0879 61.7953 46.4667 62.4924 47.1606C62.7233 47.3904 62.9135 47.5592 62.9153 47.5358C62.917 47.5123 62.9285 47.3961 62.9406 47.2776C62.9655 47.0359 62.9775 47.0532 62.0016 45.9229C60.9959 44.7581 60.8759 44.633 60.7021 44.5688C59.7247 44.2075 57.9807 43.6522 57.9446 43.6907C57.9367 43.6992 58.0167 43.8931 58.1224 44.1217ZM58.4702 61.7169C58.5301 61.698 58.7161 61.6126 58.8835 61.5272C59.2182 61.3566 59.1919 61.403 59.3506 60.7016C59.5438 59.848 59.8722 57.7943 59.8722 57.4399C59.8722 57.301 59.8441 57.3313 59.5389 57.7984C59.3556 58.0789 59.1004 58.45 58.9718 58.6229C58.7439 58.9293 58.7379 58.9452 58.7379 59.2488C58.7379 59.875 58.5331 61.3209 58.3957 61.6652C58.3659 61.7396 58.3762 61.7466 58.4702 61.7169ZM58.5432 45.1147C58.7062 45.4909 59.1466 46.8064 59.3291 47.4623C59.5233 48.1605 59.5302 48.1754 59.8162 48.5245C60.36 49.1884 60.9377 49.9859 61.5396 50.9037C61.8702 51.408 62.1408 51.8099 62.1408 51.797C62.1408 51.7842 62.2226 51.4652 62.3227 51.0882C62.5539 50.217 62.7143 49.4059 62.8209 48.5688L62.9049 47.9088L62.4661 47.456C61.4576 46.4155 60.3041 45.613 59.0216 45.0598C58.7383 44.9376 58.4973 44.8376 58.4861 44.8376C58.4489 44.8376 58.4723 44.951 58.5432 45.1147ZM58.6385 64.2346C58.674 64.2346 60.7105 62.155 61.3294 61.4867C61.5412 61.2581 61.9251 60.8254 62.1826 60.5251C62.6574 59.9716 62.727 59.8394 62.7295 59.4868L62.7306 59.3342L62.3563 59.6295C61.6465 60.1897 60.3807 61.0181 59.7076 61.363L59.4296 61.5054L59.3304 61.8887C59.2053 62.3719 58.9082 63.3558 58.737 63.8536C58.665 64.0631 58.6207 64.2346 58.6385 64.2346ZM59.3902 30.8902C60.0411 32.3096 60.4594 33.3697 61.1201 35.2742L61.4955 36.3561L63.0091 36.3657C64.6098 36.3758 65.4028 36.4333 66.7686 36.6382C68.8656 36.9528 71.037 37.5681 72.895 38.3743C73.1968 38.5053 73.4502 38.6051 73.458 38.5961C73.4889 38.5603 73.6704 37.6098 73.8007 36.8016C73.9503 35.8738 74.0808 34.8058 74.1733 33.7535C74.2528 32.8492 74.253 29.1435 74.1736 28.327C74.1072 27.6451 73.9342 26.2093 73.9159 26.1893C73.9092 26.1821 73.5489 26.2292 73.1152 26.2941C69.1391 26.889 65.3851 27.8489 61.619 29.2337C60.6083 29.6053 59.1008 30.2104 59.1028 30.2436C59.1036 30.2563 59.2329 30.5472 59.3902 30.8902ZM59.5483 76.2489C60.1776 76.4939 63.5188 77.4431 63.7519 77.4431C63.793 77.4431 63.862 77.3512 63.9163 77.2237C64.9988 74.6857 65.6339 72.1896 65.9346 69.2917C66.0142 68.5248 66.0552 65.5258 65.987 65.456C65.9689 65.4374 65.6423 65.5153 65.2611 65.6293L64.5681 65.8364L64.1825 66.4132C63.6144 67.263 63.1542 67.8258 62.4126 68.5778L61.7503 69.2493L61.5567 69.9633C61.2713 71.0155 60.3002 73.939 59.8343 75.1486L59.4285 76.2023L59.5483 76.2489ZM59.5743 61.171C59.8734 61.0542 61.8164 59.8106 62.1234 59.5394C62.1762 59.4928 62.2871 59.4027 62.3697 59.3392C62.4523 59.2757 62.5804 59.1726 62.6543 59.1103L62.7887 58.9968L62.7623 58.1173C62.7243 56.8529 62.554 55.8334 62.2027 54.767C62.0528 54.312 61.776 53.6586 61.7332 53.6586C61.7146 53.6586 61.6632 53.7574 61.6189 53.878C61.4827 54.2489 60.8125 55.6383 60.4993 56.1987C60.2381 56.6664 60.1989 56.7685 60.1714 57.0531C60.0435 58.3793 59.7649 60.1201 59.5292 61.0671C59.5004 61.1827 59.5068 61.1974 59.5743 61.171ZM59.7394 49.1788C59.7858 49.3947 59.869 49.8416 59.9243 50.1718L60.0249 50.7722L60.3271 51.0995C60.7059 51.5097 61.186 52.1467 61.4878 52.6391L61.7195 53.0173L61.8673 52.6C61.9486 52.3705 62.0033 52.1514 61.9889 52.1132C61.9453 51.9976 61.3362 51.0369 60.9482 50.472C60.4565 49.7558 59.5802 48.61 59.6503 48.7747C59.653 48.781 59.6931 48.9629 59.7394 49.1788ZM59.8155 36.9587C59.8842 37.0281 60.0964 37.1538 60.2871 37.238C60.4778 37.3222 60.8423 37.4988 61.097 37.6306C61.3516 37.7623 61.5717 37.8582 61.586 37.8436C61.6003 37.829 61.5339 37.5574 61.4383 37.2401C61.2648 36.6637 61.2645 36.6631 61.1242 36.6636C60.9433 36.6643 59.7272 36.7953 59.7065 36.8164C59.6978 36.8252 59.7469 36.8893 59.8155 36.9587ZM60.1766 52.1577C60.2202 52.5555 60.245 53.3296 60.2501 54.4521L60.2579 56.1461L60.4066 55.8838C60.6288 55.4918 61.1526 54.3958 61.3903 53.8257L61.5997 53.323L61.3825 52.9341C61.1605 52.5367 60.6116 51.7683 60.2835 51.3956L60.1005 51.1878L60.1056 51.3725C60.1084 51.4741 60.1404 51.8274 60.1766 52.1577ZM60.5257 37.8193C60.8563 38.2465 61.268 38.8968 61.5982 39.5134C61.8973 40.072 61.9727 40.1622 62.1472 40.1698C62.2236 40.1731 62.196 40.0411 61.818 38.5977L61.7259 38.2461L61.3095 38.0159C60.8615 37.7681 60.366 37.5306 60.3439 37.5531C60.3364 37.5607 60.4182 37.6805 60.5257 37.8193ZM60.614 66.2667C60.7411 66.2667 62.1231 65.7471 62.2492 65.6519C62.3357 65.5866 62.5567 64.5162 62.828 62.8491C63.0336 61.5855 63.2741 59.7527 63.2334 59.7588C63.2189 59.7609 63.138 59.8443 63.0537 59.9441C62.9223 60.0997 62.8888 60.1915 62.8184 60.5904C62.4939 62.4296 61.75 64.3808 60.8046 65.8725C60.6623 66.0972 60.5802 66.2667 60.614 66.2667ZM61.4906 66.3096C61.8317 66.2373 62.138 66.1676 62.1712 66.1546C62.2228 66.1345 62.2627 65.8972 62.2145 65.8972C62.2051 65.8972 62.0775 65.9515 61.9309 66.0177C61.5912 66.1712 61.0529 66.3583 60.9498 66.3587C60.9061 66.3589 60.8704 66.3775 60.8704 66.4C60.8704 66.4226 61.1495 66.3819 61.4906 66.3096ZM61.9933 94.7312C64.3948 95.1865 66.575 95.2732 69.0145 95.0106C69.7177 94.9348 70.352 94.8292 71.3719 94.618C72.0414 94.4794 72.0545 94.4744 72.3473 94.2398C73.5139 93.3054 74.5592 92.3932 75.5926 91.4076C76.5769 90.4689 76.4806 90.6228 76.5489 89.8805C76.6894 88.3547 76.7268 87.3312 76.7242 85.0865C76.7214 82.6991 76.6752 81.6877 76.4762 79.6599C76.4277 79.1646 76.3878 78.723 76.3876 78.6785C76.387 78.499 76.3026 78.6214 76.1168 79.0711C76.0093 79.3315 75.7002 79.9913 75.43 80.5374C72.6575 86.1404 67.9778 90.9085 61.9706 94.2512C61.64 94.4352 61.3695 94.5918 61.3695 94.5993C61.3695 94.6068 61.6502 94.6662 61.9933 94.7312ZM62.0874 45.5574C62.3788 45.8899 62.6928 46.2535 62.7853 46.3656L62.9534 46.5695L62.9554 46.0553L62.9575 45.5412L62.3563 45.2653C61.7838 45.0026 61.5469 44.906 61.5543 44.9384C61.5561 44.9464 61.796 45.225 62.0874 45.5574ZM61.8013 37.4408C61.9093 37.805 62.0043 38.1096 62.0125 38.1176C62.0206 38.1257 62.2519 38.2827 62.5264 38.4665C63.2889 38.977 64.0488 39.617 64.7508 40.3399C65.2926 40.8978 65.4174 41.0034 65.5902 41.05C67.0643 41.4476 69.958 42.4458 71.6596 43.1436L72.1723 43.3538L72.2162 43.2363C72.5394 42.3707 73.4326 39.052 73.3798 38.9121C73.3326 38.7868 71.5375 38.0811 70.3104 37.7056C67.8607 36.9559 65.5294 36.6175 62.81 36.6171C61.6826 36.6169 61.5966 36.6226 61.6007 36.6977C61.6031 36.7422 61.6934 37.0765 61.8013 37.4408ZM61.9014 68.8068C61.9547 68.8068 62.7601 67.9643 63.0987 67.5545C63.3777 67.2167 63.9714 66.3909 64.1377 66.109L64.2445 65.9282L64.1341 65.9592C64.0734 65.9762 63.6868 66.0755 63.2751 66.1798C62.8633 66.2841 62.5101 66.3848 62.4901 66.4035C62.4702 66.4222 62.3935 66.6953 62.3196 67.0103C62.183 67.5935 61.917 68.6444 61.8795 68.7491C61.8681 68.7808 61.878 68.8068 61.9014 68.8068ZM62.0517 53.7279C62.4104 54.4831 62.7925 55.8521 62.9155 56.8222C62.9444 57.0508 62.9811 57.5911 62.9968 58.023L63.0255 58.8081L63.2149 58.6233L63.4042 58.4386L63.4797 57.3995C63.5212 56.828 63.5585 56.0798 63.5626 55.7369L63.57 55.1134L63.1715 54.3052C62.7092 53.3675 62.2215 52.459 62.1801 52.4584C62.1643 52.4581 62.1408 52.4942 62.1279 52.5387C62.115 52.5831 62.0514 52.7649 61.9865 52.9426C61.9216 53.1203 61.8703 53.2865 61.8724 53.3121C61.8745 53.3375 61.9552 53.5247 62.0517 53.7279ZM62.1607 40.7272C62.1945 40.7907 62.2884 41.0356 62.3692 41.2713C62.45 41.5071 62.5222 41.6937 62.5297 41.6861C62.5599 41.6554 62.3018 40.5632 62.257 40.5316C62.1073 40.4262 62.0558 40.5307 62.1607 40.7272ZM62.3232 39.3879C62.5145 40.1641 62.5438 40.2455 62.6435 40.277C62.9301 40.3675 64.8271 40.8254 64.844 40.8082C64.8807 40.7709 63.8404 39.773 63.3763 39.4002C62.8686 38.9924 62.1501 38.4826 62.1271 38.5139C62.1192 38.5247 62.2075 38.918 62.3232 39.3879ZM62.492 52.4578C62.6059 52.6484 62.91 53.2199 63.1677 53.7279L63.6363 54.6516L63.6363 53.0582C63.6364 51.611 63.6034 50.5016 63.5191 49.1187C63.4889 48.6226 63.4876 48.6184 63.3035 48.383L63.1182 48.1462L63.04 48.7113C62.8986 49.7342 62.6463 50.9015 62.3881 51.7283C62.3269 51.9241 62.2787 52.0903 62.2808 52.0978C62.283 52.1053 62.378 52.2673 62.492 52.4578ZM63.4814 65.8312C64.2542 65.6299 64.4371 65.5667 64.5029 65.4778C64.5913 65.3585 65.1806 64.1628 65.1806 64.1028C65.1806 64.0822 65.1512 64.0653 65.1151 64.0653C65.0791 64.0653 65.0536 64.0878 65.0584 64.1153C65.0632 64.1429 65.0317 64.1625 64.9883 64.159C64.9449 64.1556 64.9188 64.1681 64.9302 64.187C64.9416 64.2058 64.9057 64.2635 64.8503 64.3152C64.6439 64.5078 63.5983 65.1959 63.1163 65.4564C62.8418 65.6048 62.6139 65.7282 62.6099 65.7308C62.6059 65.7335 62.5885 65.8123 62.5713 65.906L62.5401 66.0764L63.4814 65.8312ZM62.8384 41.7065L63.0261 42.6164L63.5249 43.0195C64.1396 43.5164 65.4983 44.8929 65.9574 45.4841C66.4692 46.1431 66.9292 46.8222 67.2682 47.4195C67.527 47.8754 67.8791 48.3409 67.9278 48.2914C67.9356 48.2835 67.9233 48.0486 67.9003 47.7696C67.7809 46.3161 67.4285 45.0345 66.7701 43.6599C66.4247 42.9389 65.7696 41.8779 65.4209 41.4749C65.2536 41.2816 65.2292 41.2707 64.5648 41.0937C64.1886 40.9935 63.6016 40.8417 63.2604 40.7564C62.648 40.6035 62.64 40.6027 62.6453 40.699C62.6483 40.7526 62.7352 41.206 62.8384 41.7065ZM62.7142 65.4354C62.8373 65.4354 64.1041 64.6613 64.5395 64.3201C64.5985 64.2738 64.668 64.2492 64.6939 64.2655C64.7202 64.282 64.7274 64.2728 64.7103 64.2446C64.6935 64.2168 64.7083 64.1773 64.7433 64.1566C64.7783 64.136 64.8897 64.05 64.9909 63.9655C65.0921 63.8809 65.1915 63.8103 65.2118 63.8086C65.28 63.8028 65.4209 63.522 65.5775 63.08C65.7579 62.5708 65.7589 62.603 65.5188 61.3798C65.2789 60.1581 64.7549 58.1484 64.6477 58.0393C64.6289 58.0201 64.3902 58.2884 64.1174 58.6355L63.6213 59.2665L63.5208 60.1226C63.3505 61.5735 63.1745 62.7228 62.8651 64.4032C62.6671 65.4785 62.6734 65.4354 62.7142 65.4354ZM63.1347 59.3899C63.2503 59.2574 63.3192 59.1287 63.3325 59.0204C63.3438 58.929 63.3463 58.8463 63.3382 58.8366C63.3301 58.8268 63.2481 58.8863 63.156 58.9686C63.0102 59.0988 62.9865 59.1491 62.9729 59.3557L62.9573 59.5932L63.1347 59.3899ZM63.2925 44.3065L63.4797 45.5072L63.729 45.6376C64.8551 46.2266 65.7216 46.7443 66.7346 47.4333C66.953 47.5819 67.1316 47.6909 67.1316 47.6757C67.1316 47.5545 66.2998 46.2998 65.7857 45.6458C65.1641 44.8548 63.9585 43.6528 63.173 43.0408C63.0751 42.9645 63.0623 42.8295 63.2925 44.3065ZM63.3007 48.005L63.4625 48.1859L63.4374 48.0011C63.4235 47.8995 63.4119 47.7724 63.4117 47.7187C63.4114 47.665 63.3658 47.5624 63.3104 47.4907L63.2097 47.3604L63.1789 47.4729C63.113 47.7132 63.1382 47.8232 63.3007 48.005ZM63.604 8.51742C64.8347 9.36457 65.983 10.3285 67.0659 11.4237C68.2358 12.6068 69.1965 13.7933 70.1136 15.1878L70.5236 15.8113L70.9714 15.9655C73.433 16.8132 76.164 18.1126 78.5425 19.5678C81.0946 21.1292 83.8744 23.2939 85.8472 25.2561L86.2555 25.6622L87.0949 25.7611C87.5566 25.8154 88.0517 25.8764 88.1952 25.8965C88.3455 25.9176 88.456 25.9155 88.456 25.8916C88.456 25.8137 87.7803 24.4942 87.409 23.8472C83.1611 16.445 75.3561 10.9579 65.9057 8.72972C65.1177 8.54397 63.1389 8.15723 63.1389 8.189C63.1389 8.19358 63.3482 8.34137 63.604 8.51742ZM63.258 46.9389C63.3143 47.0173 63.32 47.0058 63.3164 46.8207C63.3143 46.7079 63.298 46.5117 63.2803 46.3847C63.2504 46.1701 63.2458 46.1636 63.2164 46.2924C63.1673 46.5071 63.1888 46.8426 63.258 46.9389ZM63.5988 46.5695C63.6425 46.9505 63.6794 47.3072 63.6808 47.3622C63.6822 47.4172 63.8733 47.7081 64.1054 48.0088C65.1213 49.3248 66.0265 50.5864 66.7672 51.7189C67.0247 52.1126 67.2506 52.4522 67.2692 52.4734C67.3524 52.5688 67.6773 51.3237 67.8096 50.4027C67.9516 49.4136 67.9413 49.249 67.7062 48.7438C67.483 48.2641 67.473 48.2545 66.5418 47.6227C65.5082 46.9215 63.6432 45.8235 63.5521 45.8626C63.5341 45.8704 63.5551 46.1884 63.5988 46.5695ZM63.7997 58.5772C63.8619 58.501 64.0379 58.2723 64.1907 58.0691L64.4686 57.6997L64.076 58.0912C63.7846 58.3818 63.6838 58.5128 63.685 58.5992L63.6867 58.7157L63.7997 58.5772ZM63.7664 58.0922C63.8436 58.0922 64.4317 57.3914 64.4165 57.3175C64.3946 57.2102 63.8991 55.9173 63.8857 55.9323C63.8796 55.9391 63.8608 56.1837 63.844 56.4758C63.8271 56.7679 63.7945 57.2355 63.7714 57.5149C63.7204 58.1334 63.7208 58.0922 63.7664 58.0922ZM63.7625 48.3928C63.7768 48.5586 63.8505 48.7054 64.1331 49.1317C65.1328 50.6399 65.8315 52.2561 66.2544 54.0389C66.3251 54.337 66.3948 54.5812 66.4092 54.5816C66.4411 54.5824 66.8982 53.6126 67.0611 53.1985L67.1785 52.9L66.613 52.0416C65.8041 50.8137 63.8256 48.0704 63.7489 48.0704C63.7378 48.0704 63.7324 48.0964 63.7367 48.1281C63.7411 48.1599 63.7527 48.279 63.7625 48.3928ZM63.873 49.987C63.8944 50.2664 63.9183 51.5861 63.926 52.9197L63.9401 55.3443L64.2579 56.1525C64.4327 56.597 64.5912 57.0023 64.61 57.0531C64.6407 57.136 64.6675 57.1194 64.8709 56.8915C64.9955 56.7518 65.1177 56.6432 65.1424 56.6501C65.1672 56.6571 65.175 56.6425 65.1599 56.6176C65.1448 56.5927 65.2719 56.3791 65.4424 56.1431C65.6129 55.907 65.8585 55.5435 65.9882 55.3354L66.224 54.9571L66.1551 54.6234C65.8668 53.2282 65.4095 51.921 64.7709 50.6657C64.4815 50.097 63.898 49.1326 63.8432 49.1326C63.8149 49.1326 63.8211 49.3106 63.873 49.987ZM64.1299 77.5355C64.1509 77.5355 64.3601 77.5762 64.5949 77.626C68.0866 78.3666 72.1881 78.5393 75.5878 78.0889C75.9599 78.0396 76.2709 77.9927 76.2788 77.9846C76.3005 77.9625 76.1357 76.8095 75.958 75.7402C75.6675 73.9926 75.2074 71.8251 74.844 70.4925C74.0931 67.7386 73.4417 65.7384 72.5882 63.565C72.4485 63.2094 72.3276 62.9099 72.3196 62.8997C72.3115 62.8894 72.0341 63.0074 71.7032 63.162C71.3723 63.3166 70.9646 63.5062 70.7971 63.5834C69.9875 63.9569 67.6664 64.8576 66.6779 65.1819L66.2922 65.3084L66.2883 66.8844C66.2842 68.5193 66.234 69.2716 66.0386 70.631C65.7154 72.8785 65.1342 74.9914 64.272 77.0535C64.0775 77.5186 64.0725 77.5355 64.1299 77.5355ZM64.8744 65.4542C64.9305 65.4358 65.198 65.3526 65.4688 65.2695C65.7395 65.1863 65.9714 65.1077 65.9841 65.0948C66.0104 65.068 65.8717 63.491 65.8403 63.459C65.812 63.4303 65.5436 63.7086 65.5436 63.7667C65.5436 63.831 65.0844 64.8437 64.9126 65.1583C64.7462 65.4632 64.7417 65.4979 64.8744 65.4542ZM64.9556 58.0922C65.1995 58.8107 65.5555 60.1987 65.7492 61.1865C65.8897 61.9028 65.9007 61.9468 65.9312 61.9158C66.0157 61.8298 66.3227 60.1044 66.4049 59.2535C66.4932 58.3389 66.433 55.851 66.3195 55.7257C66.3024 55.7069 66.1472 55.8939 65.9746 56.1414C65.802 56.3888 65.4812 56.8356 65.2619 57.1343C65.0425 57.433 64.8645 57.7136 64.8662 57.7578C64.868 57.802 64.9082 57.9525 64.9556 58.0922ZM65.89 41.6968C66.1414 42.0224 66.6908 42.9256 66.9187 43.3878C67.6497 44.8706 68.0552 46.378 68.1573 47.992L68.1888 48.4908L68.7605 48.9658C69.0749 49.2271 69.3601 49.4754 69.3944 49.5176C69.4286 49.5599 69.4836 49.5945 69.5164 49.5945C69.5834 49.5945 70.304 48.1251 70.7395 47.1006C71.0931 46.2688 71.4668 45.358 71.5491 45.1274C71.5834 45.0315 71.7166 44.6642 71.8452 44.3113C71.9738 43.9584 72.0735 43.6641 72.0667 43.6573C72.0599 43.6507 71.7451 43.5195 71.3672 43.366C69.9157 42.7765 67.8492 42.0501 66.3603 41.6061C66.0983 41.5279 65.8482 41.4527 65.8045 41.4389C65.6893 41.4024 65.7093 41.4628 65.89 41.6968ZM66.0294 62.7914C66.0402 62.8485 66.062 62.8953 66.0779 62.8953C66.1222 62.8953 66.3763 62.5947 66.7413 62.1102C67.9509 60.5048 68.7102 58.6189 68.9962 56.5097C69.0395 56.1911 69.0393 56.0781 68.9955 55.9786C68.9099 55.7843 67.659 53.6583 67.6319 53.6611C67.5808 53.6665 66.4901 55.412 66.5136 55.4507C66.5798 55.5597 66.6779 56.9432 66.6779 57.7672C66.6779 59.227 66.5004 60.6424 66.1548 61.939C65.9997 62.5209 65.9903 62.585 66.0294 62.7914ZM66.1129 63.4264C66.1226 63.4518 66.1603 63.8122 66.1967 64.2273C66.233 64.6425 66.2694 64.9887 66.2775 64.9968C66.2966 65.0158 67.1752 64.7211 67.918 64.4465C69.158 63.9882 70.6843 63.3485 71.7703 62.8319C72.184 62.6351 72.2096 62.6149 72.1719 62.5161C72.0728 62.2566 71.3149 60.5446 71.021 59.9165C70.6167 59.0521 70.0908 58.0009 69.6116 57.0993L69.2435 56.4065L69.2053 56.6374C68.8986 58.4908 68.4518 59.7596 67.6005 61.1941C67.2517 61.7818 66.5033 62.7658 66.4352 62.7262C66.4065 62.7095 66.3966 62.7113 66.4133 62.7302C66.4416 62.7624 66.3549 62.8886 66.1675 63.0879C66.0942 63.1659 66.0702 63.3148 66.1129 63.4264ZM67.0937 53.9464C67.4412 53.4142 67.46 53.3729 67.4034 53.2653C67.3703 53.2023 67.3344 53.1597 67.3236 53.1707C67.3129 53.1816 67.2045 53.4234 67.0829 53.7079C66.9613 53.9925 66.8307 54.2737 66.7925 54.3328C66.7544 54.3921 66.7234 54.4568 66.7235 54.4768C66.7236 54.4967 66.8902 54.258 67.0937 53.9464ZM67.5533 52.9195L67.6443 53.0658L67.772 52.857C67.8422 52.7422 68.0647 52.3612 68.2666 52.0104C68.5911 51.4464 68.6304 51.3538 68.6058 51.2109C68.5749 51.0311 68.1677 49.7714 68.1473 49.7922C68.1402 49.7994 68.1015 50.0333 68.0613 50.3118C67.9672 50.9643 67.8095 51.6616 67.6162 52.2807L67.4624 52.7733L67.5533 52.9195ZM68.2403 54.0512C68.4719 54.4322 68.7558 54.9102 68.8712 55.1134L69.0809 55.4829L69.0814 54.6977C69.0818 53.8505 69.0438 53.4033 68.8945 52.504C68.7639 51.7169 68.7553 51.6975 68.6401 51.9274C68.5893 52.0286 68.3823 52.3884 68.1799 52.727C67.9777 53.0655 67.8138 53.346 67.8157 53.3504C67.8176 53.3548 68.0086 53.6702 68.2403 54.0512ZM68.3557 49.6868C68.4515 49.9281 68.588 50.3176 68.6588 50.5523C68.7297 50.7869 68.8016 50.9792 68.8186 50.9795C68.8621 50.9802 69.4104 49.925 69.3923 49.8754C69.3748 49.8273 68.3697 48.9637 68.2545 48.8978C68.1126 48.8165 68.1616 49.1984 68.3557 49.6868ZM68.921 51.4931C68.9306 51.503 68.9914 51.7813 69.056 52.1115C69.2403 53.0523 69.3094 53.8139 69.3094 54.9012V55.8904L69.5823 56.3846C70.5049 58.0554 71.9315 61.0433 72.4446 62.3794C72.4855 62.4861 72.4925 62.4834 73.2683 62.0738C74.5917 61.3748 76.3718 60.3117 76.4163 60.1936C76.4681 60.0562 75.4818 57.824 74.9314 56.833C74.0694 55.2809 73.1654 53.9577 72.0367 52.5964C71.5475 52.0063 70.1002 50.478 69.8014 50.236L69.6354 50.1015L69.2844 50.7601C69.0914 51.1224 68.9267 51.4314 68.9185 51.4469C68.9103 51.4624 68.9114 51.4832 68.921 51.4931ZM70.2083 50.2641C72.3618 52.3003 74.2766 54.8934 75.6134 57.5842C75.9617 58.2852 76.5012 59.5152 76.6112 59.8587C76.6416 59.954 76.6824 60.0319 76.7016 60.0319C76.7343 60.0319 77.6285 59.4239 78.1293 59.0613C80.4619 57.3719 82.78 55.2007 84.514 53.0813C85.0572 52.4174 85.6445 51.6202 85.6201 51.5799C85.5957 51.5397 84.41 50.6339 83.8962 50.2629C80.454 47.7776 76.7742 45.69 72.7447 43.9365C72.5255 43.8411 72.3401 43.771 72.3326 43.7807C72.3251 43.7905 72.2545 43.9891 72.1757 44.2223C71.7334 45.5305 70.9688 47.3586 70.1992 48.9477C69.9594 49.4429 69.7659 49.8483 69.7659 49.8483C69.7659 49.8483 69.9664 50.0355 70.2083 50.2641ZM70.9966 16.6426C72.1344 18.6316 73.0723 21.0352 73.6819 23.5239C73.8588 24.2464 74.1188 25.5369 74.1188 25.693C74.1188 25.7489 74.1288 25.8048 74.1411 25.8173C74.1534 25.8298 74.3627 25.8141 74.6061 25.7824C76.9463 25.4776 80.3653 25.3345 82.8749 25.4363C84.1922 25.4897 85.1747 25.5505 85.6204 25.6061L85.8472 25.6344L85.643 25.4176C85.3976 25.1569 84.0493 23.9279 83.5106 23.4738C80.1308 20.6247 76.5112 18.4329 72.5412 16.8313C71.7031 16.4932 70.7551 16.1442 70.7401 16.1683C70.7359 16.1751 70.8513 16.3886 70.9966 16.6426ZM72.5222 43.4931C72.5643 43.5158 72.7315 43.5909 72.8937 43.6598C76.9002 45.3635 81.2958 47.9039 84.815 50.5495C85.0958 50.7606 85.3254 50.9195 85.3254 50.9027C85.3254 50.8562 84.6686 49.5875 84.3612 49.0403C84.0008 48.3988 83.1616 47.1105 82.6916 46.4771C81.4482 44.8016 79.8107 43.1087 78.2022 41.8358C77.0688 40.9389 75.7962 40.1129 74.4586 39.4059C73.6869 38.9981 73.6229 38.9826 73.6202 39.2032C73.6176 39.4271 72.8624 42.2089 72.5578 43.1171C72.4543 43.4256 72.4515 43.455 72.5222 43.4931ZM72.7404 63.1031C73.821 65.7048 75.0175 69.597 75.7076 72.7555C75.9846 74.0234 76.3684 76.1453 76.4573 76.901C76.4746 77.0474 76.5058 77.178 76.5267 77.1911C76.585 77.2278 77.0548 75.6775 77.297 74.649C77.8016 72.5061 78.0055 70.55 77.9613 68.2757C77.9258 66.4463 77.7677 65.0916 77.389 63.3707C77.1994 62.5093 76.684 60.7258 76.5722 60.5445C76.5404 60.4929 76.4512 60.5313 76.1309 60.7349C75.2442 61.2983 74.0119 62.0037 73.1319 62.4515C72.8512 62.5944 72.6224 62.7371 72.6234 62.7687C72.6245 62.8002 72.6771 62.9507 72.7404 63.1031ZM72.8567 94.2366C73.2602 94.1595 74.9196 93.5608 75.8655 93.1509L76.1831 93.0133L76.2809 92.3289C76.3347 91.9525 76.393 91.4783 76.4105 91.2751L76.4424 90.9056L76.0179 91.3221C75.1177 92.2052 74.1496 93.074 73.1897 93.8602C72.7343 94.2331 72.7058 94.2654 72.8567 94.2366ZM74.3122 39.0412C79.0419 41.3993 83.0146 45.5043 85.4301 50.5295C85.6346 50.9549 85.8221 51.2961 85.8469 51.2877C85.8717 51.2794 86.103 50.9522 86.3609 50.5606C87.8693 48.2694 88.9632 45.9402 89.7427 43.3597C89.9262 42.7526 90.1348 41.9267 90.1348 41.8077C90.1348 41.6999 89.5095 40.5245 88.9212 39.5265C86.9337 36.1546 84.4675 33.2204 81.5596 30.768C80.0221 29.4714 77.9147 28.0821 76.1347 27.1917C75.3159 26.7822 74.2915 26.322 74.2507 26.3453C74.2359 26.3538 74.2504 26.5433 74.2829 26.7665C74.4746 28.0814 74.5937 30.2958 74.5507 31.7446C74.4857 33.9281 74.2271 36.2815 73.8432 38.1807C73.7951 38.4184 73.7561 38.6471 73.7564 38.6887C73.7568 38.7395 73.9402 38.8558 74.3122 39.0412ZM74.5499 26.1658C74.5997 26.1922 74.8651 26.3124 75.1396 26.4329C75.4141 26.5534 75.996 26.8355 76.4327 27.0598C79.19 28.4757 81.7251 30.3618 84.0324 32.714C86.323 35.0492 88.31 37.7686 89.8968 40.7399C90.084 41.0905 90.2428 41.3714 90.2496 41.364C90.3077 41.3019 90.5771 39.5362 90.6884 38.4873C90.7667 37.7497 90.7668 34.7963 90.6886 34.0768C90.5476 32.7805 90.211 30.8371 90.0693 30.5003C89.9195 30.1446 87.8932 27.7227 86.7007 26.474L86.2102 25.9604L85.8018 25.9293C85.5772 25.9121 85.0056 25.8673 84.5314 25.8297C84.0573 25.792 82.8221 25.7487 81.7865 25.7333C79.388 25.6977 77.5878 25.7766 75.253 26.0196C74.4257 26.1057 74.4334 26.1041 74.5499 26.1658ZM76.5386 92.8222C76.5974 92.8222 77.5344 92.3479 78.0358 92.0644C80.3572 90.7516 82.2281 89.3135 84.1759 87.3448C88.7424 82.7292 91.9527 76.6027 93.5148 69.5226C93.6946 68.7079 94.0019 67.0011 93.974 66.9726C93.9643 66.9627 93.911 67.0291 93.8557 67.1203C93.3529 67.9485 91.9556 69.773 91.8489 69.7409C91.8257 69.7339 91.8178 69.7464 91.8313 69.7687C91.8812 69.8508 90.5085 71.302 89.6584 72.066C89.2186 72.4612 88.2017 73.2866 88.1546 73.2866C88.136 73.2866 88.0686 73.3361 88.0048 73.3966C87.8708 73.5239 87.5259 73.7725 86.9086 74.1868C86.5512 74.4265 86.4677 74.5046 86.445 74.6201C86.3937 74.8813 85.7268 76.6736 85.3173 77.6509C84.104 80.5468 82.5394 83.325 80.6316 85.9713C80.4331 86.2467 80.214 86.5447 80.1446 86.6336C78.9987 88.1025 78.2257 89.0168 77.2157 90.0974L76.8056 90.5361L76.7752 90.8594C76.7324 91.3139 76.5744 92.5935 76.5456 92.7183C76.5325 92.7754 76.5293 92.8222 76.5386 92.8222ZM76.6936 77.934C76.7373 77.9211 76.9567 77.8775 77.1813 77.8371C79.5993 77.4017 82.1256 76.555 84.2819 75.4571C84.8991 75.1429 85.9349 74.5657 86.04 74.4775C86.0712 74.4513 86.0967 74.4418 86.0967 74.4564C86.0967 74.471 86.1437 74.4372 86.201 74.3812C86.2714 74.3125 86.3666 74.0698 86.4944 73.633C87.3388 70.7471 87.7861 68.1979 87.9613 65.2738C88.0276 64.1668 87.9891 61.6649 87.8899 60.6323C87.6043 57.6605 86.9776 54.9717 85.9798 52.4372L85.7626 51.8855L85.6688 52.0156C84.7314 53.3152 82.7644 55.492 81.4462 56.6888C80.1906 57.8287 78.9107 58.8471 77.567 59.7752C77.2051 60.0251 76.8835 60.2535 76.8522 60.2827C76.8071 60.3247 76.8332 60.4499 76.9781 60.8881C77.8772 63.6074 78.2957 66.4086 78.2336 69.2917C78.205 70.6146 78.1624 71.1618 77.9951 72.3531C77.7763 73.9116 77.4364 75.3625 76.9298 76.9002C76.7562 77.4271 76.6142 77.8806 76.6142 77.9078C76.6142 77.935 76.6499 77.9468 76.6936 77.934ZM76.7524 79.296C77.0287 81.7504 77.1383 85.0644 77.0226 87.4697C76.9702 88.5581 76.8951 89.715 76.8593 89.9819L76.8346 90.1666L77.0255 89.9588C77.1305 89.8445 77.331 89.6263 77.4711 89.4739C78.634 88.2085 80.1161 86.3423 80.9924 85.0403C81.1633 84.7863 81.408 84.4226 81.5361 84.2321C82.8337 82.3033 84.2055 79.7095 85.1755 77.3507C85.6463 76.206 86.1637 74.771 86.1212 74.7278C86.11 74.7164 85.9395 74.8033 85.7423 74.921C85.1258 75.2889 83.4811 76.15 83.3948 76.15C83.3851 76.15 83.2615 76.2038 83.1203 76.2696C81.6594 76.9497 79.365 77.6682 77.4422 78.0477L76.6595 78.2022L76.6654 78.3884C76.6685 78.4908 76.7077 78.8992 76.7524 79.296ZM86.2836 52.504C87.2902 55.0657 87.9385 57.992 88.1916 61.1173C88.2642 62.0133 88.2644 64.8836 88.192 65.8049C87.9837 68.4526 87.5568 70.8314 86.8419 73.3275C86.7299 73.7183 86.6491 74.0489 86.6622 74.0623C86.6753 74.0756 86.7235 74.052 86.7694 74.0097C86.8152 73.9675 86.8664 73.9469 86.8831 73.9638C86.8998 73.9808 86.9134 73.9719 86.9134 73.944C86.9134 73.8862 87.0836 73.8172 87.1857 73.8337C87.2383 73.8421 87.2404 73.8354 87.1951 73.8042C87.1522 73.7745 87.1887 73.7276 87.3312 73.629C88.9766 72.4916 90.7887 70.7863 92.1363 69.107C92.811 68.2662 93.8807 66.7061 94.0553 66.3079C94.1994 65.9796 94.4299 63.2827 94.4714 61.4405L94.4974 60.2859L94.1714 59.8934C92.2546 57.5859 89.996 55.2688 87.8208 53.3785C87.2347 52.8691 86.0484 51.8854 86.054 51.9133C86.0555 51.9207 86.1589 52.1865 86.2836 52.504ZM86.7356 52.0591C88.5378 53.512 90.5332 55.3764 92.1298 57.0993C92.6007 57.6073 93.0232 58.0661 93.0689 58.1187C93.1146 58.1714 93.3998 58.504 93.7028 58.8577C94.0058 59.2114 94.3074 59.5632 94.3731 59.6394L94.4925 59.7779L94.466 59.0621C94.275 53.9006 93.2463 49.0325 91.3918 44.5143C91.0328 43.6398 90.7256 42.942 90.5088 42.5085L90.3455 42.182L90.3017 42.3437C90.1279 42.987 89.8421 43.9677 89.7654 44.1844C89.7147 44.3277 89.6217 44.5905 89.5589 44.7683C88.8389 46.8047 87.7176 49.0036 86.3848 50.9927C86.2014 51.2664 86.0524 51.495 86.0536 51.5007C86.0549 51.5064 86.3618 51.7577 86.7356 52.0591ZM86.8077 26.2256C87.5124 26.941 88.6876 28.2771 89.4075 29.1814C89.6401 29.4735 89.8473 29.7317 89.8679 29.7551C89.9131 29.8065 89.742 29.2216 89.4905 28.4655C89.2853 27.8486 88.707 26.3702 88.6471 26.3092C88.5981 26.2594 86.9506 26.0307 86.7778 26.0498L86.6485 26.064L86.8077 26.2256ZM90.7295 42.3916C93.1264 47.37 94.5383 53.2844 94.7019 59.0321L94.7319 60.0874L95.0119 60.4407C95.1659 60.635 95.4778 61.0382 95.7051 61.3368C95.9323 61.6353 96.1314 61.8578 96.1475 61.8313C96.1981 61.7481 96.5726 60.544 96.7359 59.9399C97.1676 58.3425 97.4605 56.6559 97.6303 54.7901C97.708 53.9361 97.7073 50.8577 97.6293 49.9639C97.0963 43.8599 95.1375 38.203 91.6882 32.8068C91.2543 32.1278 90.5328 31.07 90.5156 31.0875C90.5094 31.0938 90.5322 31.2347 90.5663 31.4004C90.856 32.8069 90.9988 34.1529 91.029 35.7625C91.0657 37.7131 90.9552 39.0687 90.6104 40.8944C90.5235 41.3546 90.4524 41.7503 90.4524 41.7737C90.4524 41.797 90.5771 42.0751 90.7295 42.3916ZM94.5636 65.4354C94.9093 64.8239 95.5922 63.3346 95.8706 62.5852L95.9944 62.252L95.5187 61.6153C95.2571 61.2652 94.9731 60.8968 94.8876 60.7966L94.7321 60.6145L94.7021 61.7664C94.6733 62.8722 94.5927 64.1157 94.4929 64.9967C94.4192 65.6469 94.4247 65.6811 94.5636 65.4354Z" stroke="#8370FF" stroke-opacity="0.3" stroke-width="0.4"/>
</svg>
