<svg width="222" height="210" viewBox="0 0 222 210" fill="none" xmlns="http://www.w3.org/2000/svg">
<path d="M34.4474 196.649C34.1202 197.769 33.8631 198.686 33.5826 199.552C33.3021 200.417 33.3956 201.334 32.5775 201.843C31.5023 201.588 31.4789 200.468 31.0348 199.704C30.5907 198.941 30.2401 198.05 29.8427 197.158C29.1649 197.158 28.7675 197.693 28.2533 197.897C27.9139 198.058 27.5619 198.186 27.2015 198.279C26.36 198.279 25.8925 197.795 26.1964 196.904C26.5003 196.013 26.7574 195.555 27.0145 194.867C27.0905 194.608 27.153 194.345 27.2015 194.078C26.1496 193.161 24.5836 193.391 23.7889 192.016C23.8534 191.584 24.0382 191.183 24.3182 190.869C24.5983 190.555 24.9602 190.342 25.3549 190.259C26.1654 190.072 26.9108 189.64 27.5053 189.012C27.1761 187.996 26.7937 187.001 26.36 186.033C26.1351 185.55 25.9474 185.048 25.799 184.531C25.7774 184.373 25.787 184.211 25.8273 184.058C25.8677 183.904 25.9377 183.762 26.0328 183.64C26.1638 183.57 26.3077 183.534 26.4535 183.534C26.5993 183.534 26.7432 183.57 26.8742 183.64C27.5755 184.073 28.2533 184.582 28.9311 185.065L29.9596 185.804C30.6346 184.299 31.0693 182.681 31.2452 181.018C31.3325 180.421 31.4896 179.839 31.7126 179.286C31.7772 179.17 31.8682 179.075 31.9767 179.008C32.0852 178.942 32.2076 178.907 32.3321 178.907C32.4565 178.907 32.5789 178.942 32.6874 179.008C32.7959 179.075 32.8869 179.17 32.9515 179.286C33.197 179.978 33.4077 180.683 33.5826 181.399L34.6811 185.855C35.2187 185.244 35.6161 184.76 36.0602 184.302C36.2756 184.071 36.5194 183.874 36.7848 183.716C36.8718 183.676 36.9658 183.658 37.06 183.663C37.1542 183.668 37.2461 183.696 37.3291 183.745C37.4121 183.794 37.4839 183.863 37.5394 183.946C37.5949 184.029 37.6325 184.124 37.6496 184.225C37.7594 184.831 37.677 185.459 37.4159 186.007L36.5043 188.171C36.5043 188.681 36.925 188.833 37.2523 189.012C38.3269 189.68 39.4731 190.202 40.6649 190.565C41.109 190.565 41.6933 190.743 41.7167 191.634C39.8521 192.356 38.0713 193.313 36.4108 194.485C36.8082 195.02 37.1822 195.504 37.5561 196.038C37.7218 196.192 37.8299 196.406 37.8601 196.641C37.8902 196.875 37.8403 197.114 37.7198 197.311C37.4159 197.769 37.0185 197.846 36.3874 197.54L34.4474 196.649Z" fill="#F7F5E9"/>
<path d="M200.589 87.2524C201.548 87.7616 202.366 88.1944 203.207 88.6018C203.535 88.78 203.885 88.9073 204.212 89.1109C204.29 89.1667 204.353 89.2423 204.397 89.3312C204.44 89.42 204.463 89.5193 204.463 89.6201C204.463 89.7209 204.44 89.8202 204.397 89.909C204.353 89.9979 204.29 90.0736 204.212 90.1293C203.934 90.2744 203.645 90.3936 203.348 90.4857L200.543 91.3513C200.66 91.6771 200.8 91.992 200.963 92.2933C201.524 93.1844 202.132 94.05 202.693 94.8392C202.918 95.1571 203.114 95.4982 203.277 95.8575C203.37 95.983 203.422 96.1379 203.427 96.2988C203.431 96.4596 203.387 96.6176 203.301 96.7486C203.081 96.9658 202.802 97.0998 202.506 97.1305C202.258 97.1256 202.015 97.0463 201.805 96.9014C201.057 96.4431 200.286 95.9848 199.468 95.5011L197.714 94.2027C197.504 94.5258 197.316 94.8663 197.154 95.2211C196.78 96.4431 196.429 97.767 196.032 98.8871C195.975 98.9995 195.895 99.0953 195.797 99.1662C195.699 99.2372 195.587 99.2812 195.471 99.2945C195.353 99.2727 195.242 99.2225 195.145 99.1476C195.048 99.0727 194.967 98.975 194.91 98.8617C194.759 98.4936 194.687 98.0932 194.699 97.6906C194.628 96.409 194.441 95.1382 194.138 93.8972C194.138 93.7444 193.905 93.6172 193.718 93.4135L192.315 94.7373C191.894 95.1447 191.497 95.5775 191.076 95.9594C190.656 96.3412 190.235 96.3922 189.884 96.0867C189.711 95.9412 189.589 95.7356 189.538 95.504C189.487 95.2725 189.51 95.0289 189.604 94.8137C189.908 93.999 190.235 93.1844 190.562 92.2678C190.889 91.3513 191.193 90.6894 191.544 89.7219C191.264 89.5043 190.975 89.3005 190.679 89.1109C190.048 88.5508 189.393 88.0416 188.786 87.4561C188.178 86.8705 188.295 86.285 189.16 86.0049C189.633 85.8602 190.118 85.7664 190.609 85.7249C191.146 85.7249 191.707 85.7249 192.362 85.5976C192.391 85.1739 192.391 84.7484 192.362 84.3247C192.175 83.4845 191.941 82.6444 191.754 81.7788C191.647 81.3913 191.608 80.9855 191.637 80.5822C191.661 80.4194 191.717 80.2643 191.802 80.1279C191.887 79.9915 191.998 79.8771 192.128 79.793C192.269 79.7418 192.42 79.7289 192.566 79.7555C192.713 79.7821 192.851 79.8475 192.97 79.9457C193.255 80.2021 193.514 80.4924 193.741 80.8113C194.257 81.5228 194.872 82.1414 195.564 82.6444C196.098 81.3787 196.536 80.0674 196.873 78.7237C197.13 78.9783 197.364 79.131 197.411 79.3092C197.714 80.3531 197.948 81.3969 198.205 82.4407C198.205 82.9499 198.462 83.4591 198.579 83.9682C199.351 83.9682 199.748 83.4081 200.309 83.1281C200.84 82.7844 201.386 82.47 201.945 82.1861C202.085 82.1427 202.232 82.1363 202.374 82.1673C202.516 82.1983 202.65 82.2658 202.763 82.3643C202.86 82.4893 202.93 82.637 202.966 82.7959C203.003 82.9548 203.005 83.1207 202.974 83.2808C202.846 83.7299 202.648 84.1518 202.389 84.5283C201.758 85.3685 201.197 86.2595 200.589 87.2524Z" fill="#F7F5E9"/>
<path d="M2.28483 92.6243C2.28483 91.6568 2.00435 91.0713 1.93423 90.3584C1.92266 90.0965 2.00669 89.8402 2.16796 89.6456C2.27349 89.5893 2.38941 89.5601 2.50689 89.5601C2.62436 89.5601 2.74028 89.5893 2.84581 89.6456C3.41592 89.9606 3.96992 90.309 4.50536 90.6894L5.8143 88.1435C6.00129 87.7616 6.23503 87.3797 6.67914 87.5579C6.85076 87.638 6.99853 87.7685 7.10587 87.9349C7.21321 88.1013 7.27588 88.2969 7.28686 88.4999C7.28686 89.4419 7.56735 90.3584 7.73097 91.4022C8.50231 91.0458 8.80617 90.333 9.36714 89.9511C9.46858 89.8951 9.58068 89.866 9.69438 89.866C9.80807 89.866 9.92017 89.8951 10.0216 89.9511C10.1121 90.0336 10.1813 90.1404 10.2223 90.2609C10.2633 90.3815 10.2747 90.5116 10.2554 90.6385C10.0684 91.2749 9.81125 91.8859 9.53076 92.5988C10.3722 93.1334 11.2838 92.3442 12.1253 92.9807C11.985 94.5337 10.3488 94.9155 9.78787 96.2394L11.1669 98.0979C11.2005 98.1739 11.2178 98.2571 11.2178 98.3413C11.2177 98.4256 11.2001 98.5088 11.1664 98.5846C11.1327 98.6605 11.0837 98.7271 11.0231 98.7795C10.9625 98.8319 10.8918 98.8687 10.8163 98.8871H9.60088C9.31584 99.7772 9.21215 100.724 9.29702 101.662C9.29702 102.12 9.29702 102.655 8.87629 102.91C8.45556 103.164 8.17507 102.731 7.82446 102.019C7.63897 101.301 7.34682 100.622 6.95963 100.007C6.68881 100.561 6.37608 101.089 6.02467 101.586C5.93556 101.714 5.82316 101.821 5.69448 101.9C5.56579 101.979 5.42358 102.028 5.2767 102.044C5.12406 101.989 4.98534 101.896 4.87168 101.772C4.75802 101.649 4.67259 101.497 4.62223 101.331C4.51404 100.813 4.45143 100.284 4.43524 99.7527C4.01451 99.4727 3.82752 99.7527 3.61715 100.033C3.40678 100.313 2.72894 100.975 2.23809 101.357C2.13859 101.419 2.02573 101.452 1.91085 101.452C1.79597 101.452 1.68311 101.419 1.58362 101.357C1.49714 101.275 1.42899 101.173 1.38442 101.058C1.33984 100.943 1.32003 100.819 1.3265 100.695C1.60699 99.931 1.93423 99.2181 2.26146 98.4798L0.999267 97.4869L2.75231 95.6793C2.28483 95.2211 1.74723 94.8392 1.25638 94.4318C0.847448 94.1381 0.45701 93.8149 0.0876824 93.4644C0.0302406 93.356 0 93.2331 0 93.108C0 92.9828 0.0302406 92.8599 0.0876824 92.7515C0.150471 92.6399 0.235677 92.5453 0.336892 92.4748C0.438106 92.4042 0.552693 92.3596 0.672031 92.3442C0.882397 92.3442 1.13951 92.3442 1.37325 92.497L2.28483 92.6243Z" fill="#F7F5E9"/>
<path d="M111.324 132.391C109.712 133.995 109.712 133.995 108.706 133.715C108.59 132.824 109.221 132.111 109.361 131.169C109.057 131.169 108.753 130.838 108.426 130.711C108.099 130.583 107.701 130.711 107.351 130.431C107 130.151 106.556 129.514 107.094 129.03C107.631 128.547 108.286 128.063 108.964 127.528C108.722 127.222 108.511 126.889 108.332 126.535C108.226 126.232 108.226 125.897 108.332 125.594C108.332 125.594 108.777 125.39 108.987 125.415C109.197 125.441 110.039 125.695 110.576 125.848C110.904 124.652 111.207 123.557 111.535 122.488C111.582 122.371 111.653 122.266 111.742 122.183C111.831 122.099 111.936 122.038 112.049 122.004C112.289 122.043 112.506 122.179 112.657 122.386C112.867 122.717 112.984 123.099 113.171 123.455C113.358 123.811 113.521 123.99 113.755 124.346L114.971 123.735C115.275 123.582 115.625 123.48 115.812 123.735C115.894 124.034 115.894 124.353 115.812 124.652C115.812 125.033 115.555 125.415 115.391 125.924L116.747 126.459C116.984 126.528 117.212 126.631 117.425 126.765C117.57 126.83 117.697 126.935 117.794 127.07C117.89 127.204 117.953 127.364 117.977 127.533C118 127.702 117.983 127.875 117.928 128.034C117.872 128.194 117.779 128.336 117.659 128.445C117.144 129.005 116.537 129.489 115.882 130.074C116.093 130.711 116.326 131.322 116.537 131.933C116.747 132.544 116.256 132.671 115.999 132.595C115.492 132.448 114.992 132.269 114.503 132.06C114.269 132.773 114.082 133.409 113.895 134.02C113.795 134.403 113.67 134.777 113.521 135.141C113.474 135.248 113.399 135.339 113.306 135.402C113.213 135.466 113.105 135.5 112.996 135.5C112.886 135.5 112.778 135.466 112.685 135.402C112.592 135.339 112.518 135.248 112.47 135.141C112.142 134.25 111.722 133.308 111.324 132.391Z" fill="#F7F5E9"/>
<path d="M188.832 157.417L187.22 158.639C186.378 158.105 186.355 158.105 186.495 157.468C186.635 156.832 186.729 156.704 186.846 156.348C186.962 155.991 186.144 155.762 185.794 155.508C185.483 155.293 185.186 155.055 184.906 154.795C184.828 154.713 184.77 154.611 184.739 154.498C184.708 154.385 184.704 154.266 184.727 154.151C184.751 154.036 184.801 153.929 184.873 153.841C184.945 153.753 185.037 153.687 185.139 153.649C185.396 153.649 185.63 153.649 185.887 153.522L187.266 153.064C187.547 152.325 186.588 151.842 187.056 151.154C187.187 150.983 187.336 150.829 187.5 150.696L188.902 151.18C189.037 151.063 189.155 150.926 189.253 150.772C189.44 150.34 189.557 149.881 189.767 149.449C189.825 149.332 189.912 149.234 190.016 149.166C190.121 149.098 190.241 149.062 190.363 149.062C190.485 149.062 190.605 149.098 190.71 149.166C190.815 149.234 190.901 149.332 190.959 149.449C191.24 150.11 191.45 150.823 191.731 151.587C192.315 151.74 193.04 150.772 193.554 151.842L193.04 153.344C193.463 153.611 193.869 153.909 194.255 154.235C194.406 154.323 194.529 154.459 194.608 154.623C194.688 154.788 194.722 154.975 194.704 155.16C194.687 155.345 194.619 155.521 194.51 155.664C194.401 155.808 194.255 155.913 194.091 155.966C193.714 156.115 193.322 156.218 192.923 156.271C192.923 156.806 192.923 157.315 192.923 157.824C192.923 158.334 192.572 158.868 191.988 158.665C191.698 158.533 191.417 158.379 191.146 158.206C190.866 158.894 190.585 159.505 190.352 160.116C190.118 160.727 190.095 160.956 189.65 160.905C189.206 160.854 189.276 160.396 189.276 159.912C189.276 159.428 188.973 158.461 188.832 157.417Z" fill="#F7F5E9"/>
<path d="M143.113 45.8308C143.239 46.2736 143.34 46.7242 143.417 47.1801C143.627 48.4785 143.23 48.835 141.874 48.4022C141.735 48.887 141.571 49.3629 141.383 49.8279C141.335 49.9355 141.261 50.0262 141.168 50.0897C141.075 50.1532 140.967 50.1869 140.857 50.1869C140.748 50.1869 140.64 50.1532 140.547 50.0897C140.454 50.0262 140.379 49.9355 140.331 49.8279C140.128 49.3378 139.949 48.8364 139.794 48.3258C139.186 48.784 138.648 49.446 137.714 48.8859C137.713 48.1758 137.848 47.4734 138.111 46.8237C138.298 46.009 138.111 45.3726 137.433 44.9652C137.098 44.7796 136.798 44.5294 136.545 44.2269C136.463 44.1328 136.402 44.0199 136.365 43.8965C136.329 43.7732 136.318 43.6424 136.334 43.5141C136.457 43.2229 136.662 42.9821 136.919 42.8267C137.163 42.7489 137.423 42.7489 137.667 42.8267L138.976 43.0558C139.326 42.0884 139.63 41.1464 140.004 40.2299C140.07 40.0821 140.161 39.9499 140.273 39.8407C140.386 39.7314 140.517 39.6474 140.659 39.5934C140.847 39.555 141.042 39.597 141.203 39.7107C141.364 39.8244 141.479 40.0012 141.523 40.2044C141.781 40.9427 141.991 41.7319 142.225 42.4702C143.043 42.4702 143.791 42.4702 144.562 42.4702C144.634 42.4976 144.7 42.5415 144.756 42.5988C144.811 42.6561 144.854 42.7257 144.883 42.8027C144.912 42.8798 144.925 42.9627 144.922 43.0459C144.919 43.129 144.9 43.2105 144.866 43.2849C144.398 44.0232 143.814 44.787 143.113 45.8308Z" fill="#F7F5E9"/>
<path d="M84.8416 6.16586C85.0086 6.73821 85.126 7.32633 85.1923 7.92252C85.1923 8.08425 85.1587 8.24388 85.0939 8.3894C85.0291 8.53493 84.9349 8.66255 84.8183 8.76266C84.6873 8.83239 84.5434 8.86864 84.3975 8.86864C84.2517 8.86864 84.1078 8.83239 83.9768 8.76266C83.5023 8.42285 83.0494 8.0486 82.6211 7.64247C81.6628 7.8716 81.3356 9.06817 80.4473 9.39914C80.353 9.39281 80.2609 9.3658 80.1764 9.31971C80.0919 9.27363 80.0169 9.20942 79.9558 9.13095C79.8946 9.05249 79.8487 8.96137 79.8207 8.86309C79.7927 8.7648 79.7832 8.66136 79.7929 8.55899C79.7972 8.09358 79.8601 7.63101 79.9799 7.18421C80.1389 6.82208 80.1696 6.40876 80.066 6.02351C79.9625 5.63826 79.7321 5.30818 79.4189 5.09658C79.0719 4.80811 78.751 4.48416 78.4606 4.12915C78.4086 4.04772 78.3757 3.95376 78.3646 3.85536C78.3534 3.75697 78.3644 3.65711 78.3966 3.56439C78.4289 3.47167 78.4813 3.38887 78.5494 3.32315C78.6176 3.25744 78.6994 3.21076 78.7878 3.18717L80.7045 3.00895L81.1953 1.50688C81.3355 1.125 81.429 0.743114 81.5927 0.386689C81.6508 0.269734 81.7369 0.172062 81.8418 0.103997C81.9467 0.0359313 82.0666 0 82.1887 0C82.3108 0 82.4307 0.0359313 82.5356 0.103997C82.6405 0.172062 82.7266 0.269734 82.7847 0.386689C82.976 0.650682 83.1333 0.941911 83.2522 1.25229C83.486 1.81239 83.6496 2.37248 83.8366 2.88166C84.6547 3.59451 85.7766 2.88166 86.5012 3.61997C86.6414 4.94383 85.8233 5.55484 84.8416 6.16586Z" fill="#F7F5E9"/>
<path d="M93.4433 40.9936C92.8355 40.6881 92.1577 40.3826 91.5266 40.0007C91.3396 40.0007 91.1059 39.5425 91.1526 39.3897C91.2505 39.0979 91.4413 38.854 91.6902 38.7023C91.993 38.6621 92.2991 38.6621 92.6018 38.7023L94.1445 38.1931C94.5886 37.1748 94.9859 36.3346 95.3599 35.4945C95.5002 35.1635 95.7573 34.858 96.0845 35.0362C96.203 35.1291 96.3032 35.2467 96.3795 35.3822C96.4557 35.5177 96.5064 35.6684 96.5286 35.8255C96.5667 36.4613 96.5667 37.0991 96.5286 37.7349L98.866 38.295C98.9927 38.3047 99.1137 38.3557 99.2133 38.4414C99.3128 38.5272 99.3864 38.6437 99.4242 38.7757C99.4621 38.9076 99.4626 39.049 99.4255 39.1812C99.3885 39.3135 99.3157 39.4305 99.2166 39.517C98.6557 40.1535 98.0479 40.7136 97.3935 41.3755C97.3935 42.1138 97.6973 42.903 97.7674 43.6923C97.769 43.8554 97.7385 44.017 97.678 44.1663C97.6175 44.3156 97.5285 44.4491 97.4168 44.5579C97.2527 44.6607 97.0595 44.6942 96.8742 44.6519C96.6889 44.6097 96.5242 44.4947 96.4117 44.3287L95.0093 42.7503L93.3731 44.6597C92.8355 44.6597 92.742 44.3542 92.8122 43.9469C93.293 43.0551 93.5131 42.025 93.4433 40.9936Z" fill="#F7F5E9"/>
<path d="M114.293 61.1061C113.685 60.6988 113.194 60.4188 112.75 60.0623C112.306 59.7059 112.376 59.5786 112.423 59.4259C112.473 59.2744 112.55 59.1354 112.651 59.0173C112.751 58.8992 112.872 58.8043 113.007 58.7385C113.562 58.5946 114.124 58.4842 114.69 58.4075C114.901 57.7456 115.088 57.1091 115.275 56.4726C115.462 55.8362 115.625 55.327 115.836 54.7669C115.892 54.6668 115.971 54.5842 116.065 54.5269C116.159 54.4696 116.265 54.4395 116.373 54.4395C116.481 54.4395 116.587 54.4696 116.681 54.5269C116.775 54.5842 116.854 54.6668 116.911 54.7669C117.096 55.1123 117.245 55.4796 117.355 55.8616C117.495 56.4472 117.612 57.0327 117.752 57.6692C118.274 57.6297 118.797 57.6297 119.318 57.6692C119.434 57.6845 119.546 57.7294 119.643 57.8001C119.741 57.8709 119.822 57.9655 119.879 58.0765C119.908 58.1975 119.913 58.3239 119.892 58.4469C119.872 58.57 119.828 58.6868 119.762 58.7894C119.365 59.2222 118.897 59.5786 118.383 60.0369C118.441 60.4737 118.519 60.9071 118.617 61.3353C118.617 61.7426 118.851 62.1245 118.968 62.5064C119.088 62.7491 119.126 63.0303 119.075 63.3004C119.023 63.5705 118.886 63.8123 118.687 63.983C118.36 64.2885 117.963 64.1867 117.425 63.5502C117.066 62.988 116.549 62.568 115.952 62.3536C115.321 62.7101 115.438 63.5502 115.064 64.0339C114.899 64.3005 114.649 64.491 114.363 64.5686C113.919 64.5686 113.685 64.2121 113.638 63.8048C113.58 63.4084 113.58 63.0046 113.638 62.6082C113.831 62.095 114.05 61.5935 114.293 61.1061Z" fill="#F7F5E9"/>
<path d="M167.843 143.135C167.679 143.822 167.562 144.484 167.398 145.146C167.31 145.468 167.201 145.783 167.071 146.088C167.004 146.204 166.91 146.299 166.8 146.365C166.69 146.431 166.566 146.465 166.44 146.465C166.314 146.465 166.19 146.431 166.08 146.365C165.97 146.299 165.877 146.204 165.809 146.088C165.505 145.502 165.271 144.891 164.944 144.204C163.986 144.204 162.957 144.408 162.256 143.287C162.256 142.218 163.168 141.836 163.518 141.123C163.869 140.411 162.443 139.341 163.074 138.247C163.741 138.624 164.459 138.882 165.201 139.01C165.876 138.891 166.525 138.641 167.118 138.272C167.279 138.17 167.452 138.093 167.632 138.043C167.707 138.024 167.785 138.022 167.861 138.036C167.937 138.05 168.01 138.081 168.075 138.126C168.141 138.171 168.197 138.229 168.241 138.298C168.286 138.367 168.317 138.445 168.333 138.527C168.474 139.112 168.544 139.698 168.661 140.411C168.965 140.665 169.362 140.971 169.712 141.327C169.774 141.404 169.82 141.495 169.847 141.594C169.874 141.692 169.881 141.795 169.867 141.897C169.854 141.998 169.821 142.095 169.77 142.182C169.719 142.268 169.652 142.341 169.572 142.396C169.081 142.575 168.544 142.855 167.843 143.135Z" fill="#F7F5E9"/>
<path d="M144.539 167.372C143.576 167.536 142.594 167.28 141.804 166.659C141.856 166.364 141.95 166.08 142.084 165.819C142.391 165.384 142.719 164.968 143.066 164.571C143.066 164.036 142.903 163.502 142.856 162.967C142.809 162.433 143.23 162.28 143.464 162.356C144.071 162.509 144.656 162.713 145.357 162.916C145.824 162.636 146.339 162.28 146.876 161.974C146.971 161.917 147.078 161.888 147.186 161.889C147.295 161.89 147.401 161.922 147.495 161.981C147.589 162.04 147.667 162.124 147.723 162.225C147.778 162.327 147.808 162.442 147.811 162.56C147.811 163.018 147.811 163.502 147.811 163.96C148.349 164.342 148.886 164.673 149.377 165.055C149.431 165.11 149.474 165.177 149.502 165.252C149.531 165.326 149.544 165.407 149.541 165.488C149.541 165.666 149.33 165.895 149.19 165.92L147.437 166.15C147.037 166.788 146.817 167.54 146.806 168.314C146.717 168.841 146.592 169.36 146.432 169.867C146.385 169.952 146.32 170.024 146.243 170.077C146.166 170.13 146.079 170.162 145.988 170.172C145.757 170.121 145.546 169.997 145.38 169.816C145.24 169.637 145.24 169.306 145.17 169.077L144.539 167.372Z" fill="#F7F5E9"/>
<path d="M162.209 111.337C162.724 110.242 163.565 111.158 164.196 110.675C164.407 110.216 164.64 109.682 164.921 109.147C164.988 109.031 165.082 108.936 165.192 108.87C165.302 108.804 165.426 108.77 165.552 108.77C165.678 108.77 165.802 108.804 165.912 108.87C166.022 108.936 166.115 109.031 166.183 109.147C166.306 109.377 166.415 109.615 166.51 109.86L166.791 110.471C167.305 110.242 167.796 110.013 168.31 109.834C168.399 109.819 168.49 109.827 168.575 109.858C168.661 109.889 168.738 109.942 168.801 110.013C168.84 110.095 168.86 110.187 168.86 110.28C168.86 110.373 168.84 110.465 168.801 110.547C168.52 111.082 168.217 111.591 167.819 112.228C168.062 112.563 168.288 112.911 168.497 113.271C168.569 113.371 168.619 113.487 168.645 113.611C168.671 113.734 168.672 113.862 168.647 113.986C168.623 114.11 168.573 114.226 168.503 114.327C168.433 114.428 168.343 114.511 168.24 114.57C167.907 114.749 167.564 114.902 167.211 115.028C167.177 115.367 167.107 115.7 167.001 116.021C166.947 116.132 166.871 116.229 166.778 116.304C166.685 116.379 166.577 116.43 166.463 116.454C166.344 116.429 166.231 116.378 166.13 116.303C166.03 116.229 165.944 116.133 165.879 116.021C165.756 115.793 165.669 115.543 165.622 115.283C165.622 115.028 165.505 114.773 165.435 114.468C164.594 114.315 163.986 115.461 163.098 114.901C162.887 113.984 162.887 113.984 163.355 112.559L162.724 112.024C162.513 111.769 162.35 111.515 162.209 111.337Z" fill="#F7F5E9"/>
<path d="M153.655 180.585C154.356 180.203 154.847 180.279 155.174 180.763C155.314 181.019 155.518 181.227 155.762 181.362C156.006 181.497 156.28 181.554 156.553 181.527C156.857 181.527 157.067 181.909 156.974 182.265C156.828 182.726 156.656 183.177 156.459 183.614C156.646 184.2 156.857 184.836 157.044 185.473C157.113 185.68 157.123 185.904 157.074 186.117C157.024 186.331 156.916 186.523 156.765 186.668C156.613 186.814 156.425 186.906 156.225 186.934C156.025 186.961 155.821 186.922 155.641 186.822L154.847 186.44C154.286 186.822 154.029 187.688 153.257 187.28C152.486 186.873 152.93 186.211 152.813 185.651C152.462 184.353 150.756 184.531 151.107 182.952L153.281 182.189L153.655 180.585Z" fill="#F7F5E9"/>
<path d="M220.083 145.782C220.714 146.139 221.603 145.935 222 146.801C221.486 147.539 221.486 147.539 220.364 148.15C220.364 148.507 220.364 148.888 220.364 149.27C220.364 149.652 220.364 150.39 219.92 150.721C219.476 151.052 219.032 150.518 218.658 150.161L218.424 149.958C218.019 150.323 217.589 150.655 217.138 150.951C217.041 151.006 216.933 151.035 216.823 151.035C216.713 151.035 216.604 151.006 216.507 150.951C216.431 150.854 216.376 150.739 216.347 150.615C216.319 150.492 216.318 150.362 216.344 150.238C216.568 149.57 216.825 148.915 217.115 148.277L215.759 147.259C215.479 147.055 215.222 146.775 215.432 146.444C215.622 146.198 215.888 146.035 216.18 145.986C216.552 146.006 216.921 146.074 217.278 146.19C217.886 145.604 217.91 144.739 218.26 144.051C218.312 143.945 218.389 143.855 218.484 143.793C218.579 143.731 218.687 143.698 218.798 143.698C218.908 143.698 219.017 143.731 219.112 143.793C219.206 143.855 219.284 143.945 219.335 144.051C219.663 144.56 219.826 145.12 220.083 145.782Z" fill="#F7F5E9"/>
<path d="M59.5277 205.84C60.1821 204.949 61.0002 205.127 61.865 204.949C62.0556 204.484 62.2742 204.033 62.5195 203.6C62.5659 203.512 62.6294 203.436 62.7055 203.379C62.7817 203.321 62.8687 203.282 62.9602 203.265C63.0517 203.248 63.1456 203.253 63.2351 203.28C63.3245 203.307 63.4074 203.355 63.4779 203.421C63.7817 203.752 64.0388 204.134 64.3427 204.491C64.7002 204.453 65.0603 204.453 65.4179 204.491C65.5441 204.5 65.6658 204.546 65.77 204.624C65.8742 204.702 65.957 204.809 66.0097 204.935C66.0624 205.06 66.083 205.198 66.0694 205.335C66.0557 205.472 66.0083 205.603 65.9321 205.713C65.7217 206.095 65.4413 206.451 65.1608 206.858C65.2877 207.487 65.3658 208.125 65.3945 208.768C65.3939 208.958 65.3585 209.146 65.2902 209.321C65.222 209.495 65.1224 209.654 64.9972 209.786C64.8557 209.924 64.6727 210 64.4829 210C64.2932 210 64.1101 209.924 63.9687 209.786C63.6882 209.557 63.4077 209.251 63.1039 208.971L61.6781 209.608C60.9535 209.048 61.4677 208.259 61.2106 207.673C60.9535 207.087 59.8315 206.833 59.5277 205.84Z" fill="#F7F5E9"/>
<path d="M123.689 100.389C123.429 100.979 123.132 101.549 122.801 102.095C122.712 102.219 122.598 102.319 122.469 102.39C122.339 102.46 122.198 102.499 122.053 102.502C121.801 102.36 121.602 102.126 121.492 101.84C121.492 101.637 121.492 101.306 121.492 101.051C121.352 100.186 121.258 99.3199 120.206 99.1163C119.809 99.1163 119.879 98.1997 120.206 97.9961C120.601 97.8131 121.008 97.66 121.422 97.5378C121.422 96.7486 121.422 96.0103 121.632 95.2974C121.653 95.197 121.697 95.1042 121.761 95.0283C121.824 94.9525 121.905 94.8962 121.995 94.8652C122.085 94.8343 122.181 94.8297 122.273 94.8519C122.366 94.8742 122.451 94.9225 122.52 94.9919C122.941 95.5011 123.292 96.0358 123.783 96.6722C124.086 96.5545 124.399 96.4692 124.718 96.4176C125.012 96.3636 125.314 96.4367 125.559 96.6213C125.816 96.9014 125.559 97.2323 125.349 97.4614L124.624 98.1743C124.811 98.5816 124.998 98.9381 125.162 99.269C125.325 99.6 125.466 100.033 125.162 100.389C124.858 100.746 124.507 100.669 124.157 100.389C124.001 100.375 123.845 100.375 123.689 100.389Z" fill="#F7F5E9"/>
<path d="M18.1558 152.325C17.2208 152.631 16.9403 153.675 16.0053 153.598C15.7589 152.771 15.7589 151.88 16.0053 151.052C14.9301 150.39 14.9301 150.39 14.5562 149.601C14.6964 149.092 15.1405 149.245 15.4677 149.118C15.795 148.99 16.8234 148.608 16.9637 147.565C16.9637 146.928 17.5247 146.852 18.109 147.234L18.2492 147.361C18.7616 147.52 19.2498 147.76 19.6984 148.074C20.2127 148.608 19.4647 149.194 19.5348 149.754C19.5907 150.091 19.6688 150.422 19.7686 150.747C19.9088 151.18 20.0958 151.612 20.2127 152.071C20.2359 152.185 20.2319 152.304 20.2009 152.417C20.1699 152.529 20.1131 152.631 20.0358 152.713C19.9585 152.794 19.8632 152.853 19.7592 152.883C19.6551 152.914 19.5457 152.914 19.4413 152.885C19.0206 152.758 18.6466 152.504 18.1558 152.325Z" fill="#F7F5E9"/>
<path d="M97.2298 102.248C97.2298 102.4 97.2298 102.553 97.2298 102.655C96.9651 103.005 96.7908 103.425 96.7251 103.873C96.6593 104.32 96.7045 104.779 96.8559 105.201C97.0662 105.608 96.5286 106.117 96.0845 106.016C95.717 105.91 95.3576 105.774 95.0093 105.608C94.6904 106.031 94.3469 106.43 93.9809 106.805C93.6536 107.136 93.303 107.059 92.9992 106.627V106.067C92.9992 104.641 92.9992 104.641 91.9006 103.953C91.7837 103.953 91.6435 103.953 91.5967 103.75C91.4577 103.539 91.3693 103.294 91.3396 103.037C91.3396 103.037 91.55 102.706 91.7136 102.655C91.8772 102.604 92.3213 102.655 92.6252 102.528C92.9072 102.529 93.1793 102.414 93.3872 102.207C93.5951 101.999 93.7236 101.714 93.7471 101.408C93.7971 101.148 93.8838 100.899 94.0042 100.669C94.2146 100.313 94.8925 100.236 94.9392 100.669C95.1729 101.917 96.0378 101.968 96.9026 102.044C97.0428 102.044 97.1363 102.171 97.2298 102.248Z" fill="#F7F5E9"/>
<path d="M64.4362 187.662L63.6648 188.121C62.7533 188.528 62.239 188.121 62.3325 187.026C62.3792 186.629 62.4574 186.237 62.5663 185.855C62.1318 185.729 61.7092 185.558 61.3041 185.346C61.2127 185.263 61.1415 185.157 61.0967 185.037C61.0519 184.917 61.0348 184.787 61.047 184.658C61.0819 184.542 61.1429 184.436 61.2245 184.352C61.3061 184.267 61.4058 184.206 61.5144 184.174C62.052 184.174 62.613 184.174 63.2441 184.174C63.5246 183.767 63.8051 183.334 64.1089 182.927C64.1801 182.817 64.2746 182.727 64.3845 182.664C64.4943 182.602 64.6163 182.57 64.74 182.57C64.8638 182.57 64.9858 182.602 65.0956 182.664C65.2055 182.727 65.3 182.817 65.3711 182.927C65.5032 183.151 65.6129 183.39 65.6984 183.64C65.6984 183.818 65.8153 184.022 65.862 184.174C66.2594 184.76 67.1943 184.378 67.4047 185.371L66.423 186.44V187.611C66.4386 187.814 66.392 188.016 66.2904 188.187C66.1889 188.357 66.0382 188.486 65.862 188.553C65.6825 188.615 65.4895 188.611 65.3124 188.542C65.1352 188.473 64.9835 188.343 64.8803 188.171L64.4362 187.662Z" fill="#F7F5E9"/>
<path d="M60.2055 83.4081C59.7146 83.7136 59.2939 83.9937 58.8732 84.2228C58.792 84.2728 58.6995 84.2965 58.6065 84.2913C58.5134 84.2861 58.4236 84.2521 58.3476 84.1934C58.2716 84.1346 58.2125 84.0535 58.1773 83.9595C58.142 83.8656 58.1321 83.7626 58.1486 83.6627C58.1956 83.324 58.274 82.9914 58.3823 82.6698L57.2136 81.4733C57.6577 80.4294 58.6628 80.6586 59.551 80.0476L60.3224 78.5455C61.4911 78.0872 61.4677 79.3347 62.0287 79.8184L63.4545 80.0985C63.4545 80.3785 63.4545 80.6331 63.4545 80.7349C63.4545 80.8368 62.6364 81.5242 62.1689 81.9824C62.1689 82.568 62.3793 83.1535 62.426 83.7391C62.4607 83.9414 62.4214 84.1504 62.3166 84.3216C62.2118 84.4928 62.0498 84.6126 61.865 84.6556C61.7168 84.6676 61.5679 84.6468 61.4272 84.5942C61.2866 84.5417 61.1572 84.4587 61.047 84.3501C60.7195 84.0903 60.435 83.7718 60.2055 83.4081Z" fill="#F7F5E9"/>
<path d="M138.064 109.325C138.672 109.325 139.163 109.325 139.654 109.325C139.746 109.343 139.832 109.387 139.902 109.454C139.973 109.521 140.025 109.607 140.054 109.704C140.083 109.801 140.087 109.905 140.066 110.004C140.045 110.103 139.999 110.194 139.934 110.267C139.631 110.601 139.311 110.915 138.976 111.209C138.976 111.998 139.77 112.89 138.672 113.755L137.176 113.144C137.052 113.227 136.935 113.32 136.825 113.424C136.101 114.112 135.633 114.035 135.54 113.144C135.535 112.815 135.438 112.495 135.263 112.227C135.087 111.959 134.842 111.755 134.558 111.642C134.418 111.642 134.324 111.337 134.137 111.082C134.394 110.827 134.605 110.445 134.909 110.344C135.201 110.248 135.467 110.078 135.687 109.848C135.906 109.618 136.072 109.334 136.171 109.02C136.568 107.874 136.989 107.823 137.714 108.714C137.84 108.911 137.957 109.115 138.064 109.325Z" fill="#F7F5E9"/>
<path d="M30.7076 90.613L31.9698 88.9327C32.2035 89.0855 32.5307 89.1619 32.671 89.391C32.91 89.8908 33.1131 90.41 33.2787 90.944L34.1669 91.0967L34.8448 91.2495C35.172 92.4206 34.0033 92.0387 33.6994 92.8025C33.6994 93.108 33.6994 93.6426 33.5124 94.1773C33.4935 94.2763 33.454 94.3693 33.397 94.4491C33.3399 94.5289 33.2668 94.5934 33.1833 94.6376C33.0998 94.6819 33.0081 94.7047 32.9152 94.7043C32.8224 94.704 32.7308 94.6804 32.6476 94.6355C32.2736 94.4064 31.9464 94.1263 31.549 93.8463C31.2452 94.2791 31.0114 94.661 30.7309 94.9919C30.6651 95.0562 30.5867 95.1033 30.5016 95.1298C30.4166 95.1562 30.3272 95.1613 30.2401 95.1447C30.0531 95.1447 29.8194 94.7628 29.8194 94.5337C29.8307 94.1417 29.9018 93.7546 30.0297 93.388C30.1124 93.2242 30.1629 93.0434 30.1781 92.8572C30.1933 92.6709 30.1727 92.4833 30.1178 92.3061C30.0628 92.129 29.9747 91.9662 29.8589 91.8281C29.7432 91.6901 29.6024 91.5797 29.4454 91.5041C29.3429 91.431 29.2553 91.3357 29.1883 91.224C29.1313 91.0425 29.1313 90.8455 29.1883 90.6639C29.235 90.5806 29.3001 90.5114 29.3777 90.4624C29.4552 90.4135 29.5428 90.3865 29.6324 90.3839C29.9947 90.4366 30.3537 90.5132 30.7076 90.613Z" fill="#F7F5E9"/>
<path d="M15.8885 144.026C15.8885 144.28 15.8885 144.509 15.8885 144.662C15.7388 144.936 15.5196 145.157 15.2574 145.299C15.1362 145.336 15.0084 145.339 14.8858 145.308C14.7632 145.276 14.6498 145.212 14.5562 145.12C14.2952 144.617 14.0986 144.078 13.9718 143.517C13.1304 139.698 12.2421 135.879 11.4708 132.06C10.1385 125.237 8.87629 118.414 7.56735 111.693C7.40373 110.751 7.19336 109.834 7.02975 108.918C6.98295 108.649 6.98295 108.372 7.02975 108.103C7.04562 107.9 7.12706 107.709 7.25966 107.564C7.39226 107.42 7.56748 107.331 7.75434 107.314C7.90168 107.321 8.0462 107.36 8.17889 107.43C8.31159 107.5 8.42963 107.599 8.52568 107.721C8.76016 108.118 8.92648 108.558 9.01653 109.02C10.7618 117.608 12.5304 126.247 14.3224 134.937C14.86 137.661 15.3041 140.385 15.7716 143.109C15.8417 143.389 15.8417 143.72 15.8885 144.026Z" fill="#F7F5E9"/>
<path d="M117.869 134.046C118.185 134.135 118.486 134.281 118.757 134.479C119.552 135.268 120.347 136.108 121.095 137.025C123.432 139.774 125.956 142.524 128.341 145.324C131.613 149.143 134.862 152.979 138.088 156.832C138.952 157.85 139.724 158.945 140.425 160.014C140.663 160.322 140.86 160.664 141.009 161.032C141.056 161.144 141.08 161.266 141.08 161.389C141.08 161.512 141.056 161.633 141.009 161.745C140.91 161.795 140.803 161.821 140.694 161.821C140.585 161.821 140.477 161.795 140.378 161.745C140.084 161.529 139.81 161.281 139.56 161.007C136.869 158.356 134.325 155.533 131.94 152.554C127.429 147.208 122.965 141.785 118.5 136.388C118.143 135.937 117.837 135.441 117.589 134.911C117.542 134.784 117.776 134.428 117.869 134.046Z" fill="#F7F5E9"/>
<path d="M64.2959 82.6698C64.5096 82.7145 64.7204 82.774 64.927 82.848C65.6049 83.179 66.2827 83.51 66.9372 83.9173C74.674 88.4744 82.3874 93.1589 89.9605 98.0979C90.4289 98.4169 90.8744 98.7744 91.2929 99.1672C91.2929 99.1672 91.2929 99.6 91.2929 99.7273C91.2373 99.8032 91.1659 99.8636 91.0846 99.9034C91.0033 99.9433 90.9144 99.9614 90.8254 99.9564C90.25 99.7217 89.688 99.4497 89.1424 99.1417C85.3091 96.9013 81.4758 94.661 77.6658 92.3697C73.8559 90.0784 69.672 87.4306 65.675 84.9357C65.0439 84.5209 64.4492 84.0437 63.8986 83.51C63.8986 83.51 63.8986 83.1535 63.8986 82.9753C63.8986 82.7971 64.1089 82.8226 64.2959 82.6698Z" fill="#F7F5E9"/>
<path d="M143.136 110.649C145.1 110.649 147.04 110.496 149.003 110.471C150.967 110.445 152.907 110.471 154.847 110.471C156.226 110.471 157.581 110.471 158.96 110.471C159.209 110.497 159.448 110.584 159.662 110.726C159.729 110.784 159.784 110.858 159.825 110.941C159.865 111.024 159.889 111.115 159.895 111.209C159.895 111.362 159.895 111.642 159.708 111.668C159.151 111.837 158.579 111.948 158.002 111.998C156.53 111.998 155.08 111.998 153.608 112.151H142.342C142.205 112.2 142.058 112.2 141.921 112.151C141.781 111.998 141.57 111.769 141.57 111.566C141.576 111.459 141.607 111.356 141.66 111.267C141.713 111.178 141.787 111.105 141.874 111.056C142.295 110.93 142.725 110.845 143.16 110.802L143.136 110.649Z" fill="#F7F5E9"/>
<path d="M19.5816 157.646C19.9322 157.952 20.236 158.079 20.3763 158.308C20.6409 158.774 20.8603 159.269 21.0307 159.785C22.9007 165.08 24.7628 170.393 26.6171 175.722C26.92 176.614 27.1775 177.523 27.3885 178.446C27.4473 178.902 27.4473 179.365 27.3885 179.821C27.3885 180.152 26.8275 180.305 26.6171 180.076C26.3915 179.858 26.2017 179.599 26.0561 179.312C25.612 178.268 25.1679 177.199 24.794 176.129L19.6517 160.396C19.4469 159.974 19.3341 159.507 19.3219 159.03C19.3098 158.553 19.3986 158.08 19.5816 157.646Z" fill="#F7F5E9"/>
<path d="M116.537 66.9108C116.841 67.089 117.144 67.1399 117.215 67.2927C117.42 67.7149 117.562 68.1705 117.635 68.642C118.882 75.431 120.097 82.22 121.282 89.0091C121.436 89.8812 121.507 90.7687 121.492 91.6568C121.467 91.7502 121.423 91.8358 121.362 91.9067C121.301 91.9775 121.225 92.0315 121.141 92.0642C120.912 92.0797 120.685 91.9976 120.51 91.835C120.256 91.3764 120.067 90.8786 119.949 90.3584C119.435 87.4306 118.944 84.5029 118.5 81.5751C118.056 78.6473 117.729 76.2542 117.331 73.581C117.074 71.697 116.77 69.8385 116.513 67.98C116.498 67.6235 116.505 67.2661 116.537 66.9108Z" fill="#F7F5E9"/>
<path d="M197.387 153.318C197.084 153.345 196.779 153.345 196.476 153.318C196.364 153.297 196.258 153.25 196.165 153.18C196.072 153.109 195.995 153.018 195.938 152.911C195.934 152.784 195.958 152.659 196.007 152.544C196.055 152.429 196.128 152.328 196.219 152.249C196.536 152.042 196.884 151.896 197.247 151.816C202.366 150.492 207.438 148.888 212.65 147.997C213.016 147.972 213.383 147.972 213.749 147.997C214.17 147.997 214.637 148.354 214.567 148.634C214.452 148.928 214.276 149.19 214.053 149.398C214.053 149.525 213.726 149.525 213.539 149.576C211.505 150.161 209.472 150.772 207.438 151.282C204.773 151.918 202.109 152.504 199.444 153.089L197.387 153.318Z" fill="#F7F5E9"/>
<path d="M54.2685 83.2554C54.4555 83.4845 54.6892 83.6627 54.7126 83.8664C54.7161 83.9942 54.6951 84.1213 54.6508 84.2397C54.6065 84.3581 54.54 84.4651 54.4555 84.5538C54.108 84.8386 53.7215 85.062 53.3102 85.2157C48.6354 87.1336 43.8671 89.0346 39.0053 90.9185C38.6781 90.9185 38.3041 91.1222 37.9301 91.224C37.7526 91.2874 37.5599 91.2785 37.388 91.1989C37.216 91.1193 37.0764 90.9745 36.9952 90.7912C36.8315 90.4602 36.9952 90.0274 37.4393 89.8238C38.421 89.3655 39.3793 88.9073 40.361 88.4999L53.1466 83.6118L54.2685 83.2554Z" fill="#F7F5E9"/>
<path d="M151.2 160.93C151.06 160.65 150.85 160.447 150.85 160.218C150.905 159.957 151.027 159.719 151.2 159.53C151.598 159.021 152.042 158.537 152.486 158.054L161.835 147.641C162.222 147.257 162.636 146.908 163.074 146.597C163.074 146.597 163.378 146.597 163.495 146.724C163.531 146.822 163.531 146.932 163.495 147.03C163.359 147.32 163.194 147.593 163.004 147.845L153.655 158.614C153.078 159.276 152.494 159.912 151.902 160.523C151.683 160.688 151.448 160.825 151.2 160.93Z" fill="#F7F5E9"/>
<path d="M83.486 10.392C83.6963 10.392 83.9067 10.5702 83.9768 10.723C84.2796 11.23 84.5379 11.7671 84.7481 12.3269C87.4361 19.4554 90.0774 26.5839 92.742 33.7124C92.956 34.2759 93.1356 34.8543 93.2796 35.4436C93.2853 35.5361 93.2737 35.6289 93.2456 35.7164C93.2175 35.8039 93.1734 35.8843 93.116 35.9528C92.9057 35.9528 92.5784 35.9528 92.4849 35.7236C92.1986 35.2016 91.9486 34.657 91.737 34.0943C89.01 26.9827 86.2986 19.8627 83.6028 12.7343C83.3946 12.1075 83.2458 11.4591 83.1587 10.7994C83.1587 10.7994 83.3457 10.5702 83.486 10.392Z" fill="#F7F5E9"/>
<path d="M186.939 94.9919C187.64 95.5011 187.64 95.9339 187.22 96.3158C186.611 96.8924 185.971 97.428 185.303 97.9197C180.877 101.077 176.444 104.217 172.003 107.339C171.636 107.577 171.244 107.766 170.834 107.9C170.774 107.899 170.715 107.882 170.662 107.851C170.61 107.82 170.564 107.775 170.531 107.721C170.531 107.543 170.367 107.289 170.531 107.161C170.713 106.895 170.934 106.663 171.185 106.474L179.319 100.364C181.025 99.1163 182.732 97.8179 184.461 96.6468C185.209 96.0612 186.098 95.552 186.939 94.9919Z" fill="#F7F5E9"/>
<path d="M118.5 99.2945C118.687 99.8037 118.5 100.058 118.15 100.16C117.505 100.38 116.85 100.559 116.186 100.695L102.84 103.241L100.245 103.622C100.069 103.672 99.8838 103.672 99.7075 103.622C99.5672 103.622 99.3569 103.368 99.3569 103.215C99.3569 103.062 99.3569 102.63 99.5906 102.553C100.035 102.328 100.508 102.173 100.993 102.095L110.156 100.415C111.979 100.084 113.802 99.7273 115.625 99.4218C116.568 99.1892 117.543 99.146 118.5 99.2945Z" fill="#F7F5E9"/>
<path d="M166.463 122.92C166.463 125.899 166.464 128.878 166.253 131.856C166.198 132.891 166.081 133.92 165.903 134.937C165.893 135.023 165.866 135.105 165.823 135.178C165.781 135.251 165.724 135.313 165.657 135.359C165.59 135.405 165.514 135.435 165.435 135.445C165.357 135.456 165.277 135.448 165.201 135.421C165.087 135.381 164.982 135.314 164.894 135.227C164.805 135.139 164.735 135.031 164.687 134.911C164.629 134.447 164.629 133.976 164.687 133.511C164.687 131.271 164.687 129.03 164.687 126.79C164.687 124.55 164.804 122.615 164.897 120.502C164.969 119.907 165.11 119.325 165.318 118.771C165.362 118.68 165.427 118.604 165.508 118.551C165.588 118.498 165.68 118.47 165.774 118.47C165.868 118.47 165.96 118.498 166.04 118.551C166.121 118.604 166.186 118.68 166.23 118.771C166.385 119.057 166.473 119.38 166.487 119.713C166.487 120.782 166.487 121.877 166.487 122.946L166.463 122.92Z" fill="#F7F5E9"/>
<path d="M119.435 125.823C119.178 125.594 118.921 125.492 118.851 125.288C118.799 125.173 118.772 125.047 118.772 124.919C118.772 124.791 118.799 124.665 118.851 124.55C119.176 124.139 119.545 123.772 119.949 123.455C123.502 120.705 127.078 118.007 130.631 115.283L130.958 115.079C131.613 114.646 132.174 114.544 132.267 114.875C132.361 115.206 131.964 115.868 131.59 116.199C130.725 116.963 129.86 117.727 128.948 118.44C126.19 120.654 123.455 122.844 120.674 125.033C120.277 125.325 119.863 125.588 119.435 125.823Z" fill="#F7F5E9"/>
<path d="M109.525 122.488C109.384 122.742 109.361 122.895 109.267 122.971C109.217 123 109.161 123.015 109.104 123.015C109.047 123.015 108.991 123 108.94 122.971C108.618 122.777 108.326 122.528 108.075 122.233C106.135 119.687 104.195 117.294 102.302 114.799C101.063 113.195 99.9646 111.54 98.679 109.885C98.2817 109.3 97.9311 108.663 97.5805 108.027C97.5805 108.027 97.5804 107.62 97.7674 107.518C97.8434 107.475 97.9275 107.453 98.0129 107.453C98.0982 107.453 98.1824 107.475 98.2583 107.518C98.5183 107.703 98.7541 107.926 98.9595 108.18L108.566 120.909C108.94 121.393 109.221 122.004 109.525 122.488Z" fill="#F7F5E9"/>
<path d="M25.2381 92.2169C25.6855 92.2238 26.1314 92.2749 26.5704 92.3697C26.734 92.3697 26.8976 92.7515 26.9444 92.9807C26.9534 93.0809 26.9362 93.1819 26.8949 93.272C26.8535 93.362 26.7897 93.4376 26.7106 93.4899C26.3421 93.7255 25.9387 93.8891 25.5185 93.9736C23.4383 94.2791 21.3346 94.5337 19.2543 94.7883C17.8986 94.9665 16.5429 95.1956 15.1873 95.3484C14.7685 95.4105 14.3439 95.4105 13.9251 95.3484C13.7359 95.3155 13.5622 95.2151 13.431 95.0631C13.2999 94.911 13.2188 94.7159 13.2005 94.5082C13.1944 94.3001 13.2536 94.0959 13.3683 93.9293C13.4831 93.7627 13.6464 93.6436 13.8316 93.5917C14.0661 93.4971 14.3089 93.4288 14.5562 93.388L20.4698 92.6752L25.2381 92.2169Z" fill="#F7F5E9"/>
<path d="M46.0643 187.917H45.3163C44.7319 187.917 44.3346 187.56 44.3813 187.179C44.4132 186.978 44.5071 186.795 44.6474 186.661C44.7877 186.527 44.966 186.449 45.1527 186.44C45.9006 186.288 46.6252 186.135 47.3498 186.058C50.0612 185.702 52.7726 185.371 55.484 185.065C56.2621 185.005 57.0432 185.005 57.8214 185.065C58.0523 185.143 58.2457 185.317 58.359 185.549C58.38 185.631 58.3858 185.717 58.376 185.801C58.3661 185.886 58.3409 185.967 58.3016 186.041C58.2624 186.114 58.21 186.178 58.1476 186.23C58.0852 186.281 58.014 186.318 57.9382 186.338C57.5434 186.527 57.1265 186.656 56.6994 186.72L49.3132 187.535L45.9941 187.968L46.0643 187.917Z" fill="#F7F5E9"/>
<path d="M120.16 55.1997C120.604 54.8433 120.978 54.4614 121.375 54.2068L134.137 46.5691L134.815 46.2382C135.096 46.0854 135.4 45.9836 135.657 46.2382C135.914 46.4927 135.657 46.8492 135.259 47.2056C134.962 47.4578 134.65 47.6875 134.324 47.893L121.983 55.5307C121.716 55.705 121.434 55.85 121.141 55.9634C120.697 56.0144 120.44 55.8616 120.16 55.1997Z" fill="#F7F5E9"/>
<path d="M171.232 144.357C171.418 144.328 171.607 144.328 171.793 144.357C172.307 144.586 172.821 144.815 173.312 145.095L181.844 150.212C182.335 150.498 182.797 150.839 183.223 151.231C183.307 151.322 183.371 151.435 183.407 151.559C183.444 151.683 183.453 151.815 183.433 151.943C183.409 152.024 183.371 152.099 183.32 152.164C183.269 152.228 183.207 152.281 183.138 152.319C183.068 152.357 182.992 152.379 182.914 152.385C182.837 152.39 182.759 152.379 182.685 152.351C182.321 152.274 181.967 152.145 181.633 151.969C180.745 151.511 179.857 151.052 178.969 150.543L172.447 146.572C171.912 146.237 171.404 145.854 170.928 145.426C170.842 145.198 170.842 144.942 170.928 144.713C170.858 144.56 171.092 144.459 171.232 144.357Z" fill="#F7F5E9"/>
<path d="M113.031 55.8616C112.806 55.9044 112.577 55.9044 112.353 55.8616C112.112 55.7928 111.893 55.6517 111.722 55.4543C107.888 51.8221 104.071 48.1561 100.268 44.456C100.027 44.1651 99.8221 43.8396 99.6607 43.4886C99.6321 43.4298 99.6171 43.3642 99.6171 43.2976C99.6171 43.2311 99.6321 43.1655 99.6607 43.1067C99.801 42.9794 99.988 42.8267 100.128 42.8776C100.424 42.9621 100.702 43.1092 100.946 43.3104C101.624 43.9214 102.279 44.5324 102.91 45.1689L111.885 54.0286C112.191 54.2203 112.452 54.4847 112.651 54.8022C112.849 55.1196 112.979 55.4818 113.031 55.8616Z" fill="#F7F5E9"/>
<path d="M42.5815 197.082C42.8146 196.944 43.0758 196.872 43.3412 196.872C43.6066 196.872 43.8677 196.944 44.1008 197.082C45.6903 197.846 47.3031 198.559 48.7756 199.348C51.2766 200.57 53.7543 201.894 56.2319 203.116C56.6293 203.32 57.237 203.472 57.1435 204.185C57.05 204.898 56.5124 204.745 55.6943 204.338L43.6567 198.202C43.2126 197.999 42.6984 197.846 42.5815 197.082Z" fill="#F7F5E9"/>
<path d="M152.065 163.96C154.455 162.953 156.94 162.236 159.475 161.822C166.253 160.37 173.032 158.996 179.81 157.621C181.002 157.392 182.147 157.213 183.339 157.112C183.76 157.112 184.345 157.315 184.274 157.494C183.306 158.002 182.274 158.354 181.212 158.537C173.663 160.116 166.136 161.694 158.586 163.222C156.787 163.604 154.987 163.884 153.234 164.113C152.322 164.24 151.528 164.622 152.065 163.96Z" fill="#F7F5E9"/>
<path d="M134.792 107.925L134.184 108.612C133.693 108.256 133.226 107.951 132.782 107.594L127.686 103.19C127.443 102.981 127.217 102.751 127.008 102.502C126.798 102.248 126.634 101.968 126.845 101.611C127.055 101.255 127.406 101.204 127.803 101.611L132.338 105.481C132.875 105.939 133.389 106.398 133.904 106.907C134.418 107.416 134.465 107.543 134.792 107.925Z" fill="#F7F5E9"/>
<path d="M152.439 178.497L151.691 178.726C151.481 178.217 151.247 177.759 151.083 177.275L149.143 171.496C149.051 171.223 148.981 170.942 148.933 170.656C148.933 170.35 148.933 170.07 149.167 169.892C149.401 169.714 149.751 169.892 149.915 170.325L151.668 175.417C151.855 176.028 152.042 176.639 152.205 177.25C152.311 177.659 152.39 178.076 152.439 178.497Z" fill="#F7F5E9"/>
</svg>
