<svg width="162" height="210" viewBox="0 0 162 210" fill="none" xmlns="http://www.w3.org/2000/svg">
<path d="M136.345 144.312L133.404 143.958C124.545 142.853 115.798 141.415 107.088 139.912L77.5709 134.871C76.2974 134.645 75.0534 134.364 73.8487 134.031C73.5881 134.031 73.4393 133.566 73.4765 133.323C73.5137 133.08 74.0348 133.036 74.2954 133.036C75.1241 133.088 75.9453 133.177 76.752 133.301L126.22 140.929C129.086 141.371 131.915 141.99 134.744 142.543C135.431 142.659 136.093 142.822 136.717 143.029C137.052 143.162 137.461 143.538 137.387 143.693C137.312 143.847 136.717 144.091 136.345 144.312Z" fill="#F7F5E9"/>
<path d="M67.2232 85.7208C67.4268 85.9177 67.6012 86.1249 67.7443 86.3398C67.9162 86.7527 68.0159 87.1751 68.0421 87.6001C67.7815 91.0713 67.5209 94.5426 67.2232 98.0359C67.2232 98.456 67.2232 98.8761 67.2232 99.2962C66.9626 103.718 66.7021 107.941 66.3671 112.275C66.3671 114.331 65.9576 116.387 65.6598 118.421C65.5692 118.99 65.3437 119.548 64.9898 120.079C64.8726 120.188 64.7137 120.279 64.5261 120.344C64.3385 120.41 64.1275 120.448 63.9104 120.455C63.707 120.402 63.529 120.32 63.3926 120.215C63.2561 120.111 63.1655 119.989 63.1287 119.858C63.1287 117.227 63.1287 114.596 63.1287 111.987C63.1287 111.412 63.3893 110.86 63.4265 110.285C63.7243 106.968 63.7243 103.652 64.3571 100.313C64.9898 96.9747 64.3571 93.9235 65.4365 90.7618C65.5486 89.8418 65.5486 88.9181 65.4365 87.9981C65.4102 87.5616 65.5584 87.1277 65.869 86.7319C66.1796 86.336 66.6436 85.9895 67.2232 85.7208Z" fill="#F7F5E9"/>
<path d="M59.2204 76.8105C58.2154 76.501 57.0243 76.2135 55.8704 75.8377L20.2116 64.1195C18.76 63.6331 17.3455 63.0803 15.9311 62.5718C15.5678 62.3984 15.2199 62.2139 14.8889 62.0191C14.1816 61.7095 13.8094 61.1347 14.2561 60.9799C14.4958 60.8875 14.764 60.8243 15.0451 60.7939C15.3262 60.7636 15.6147 60.7666 15.8938 60.803C17.0075 61.0601 18.0895 61.363 19.1322 61.7095L26.9488 64.2964L56.9499 74.688C57.9947 75.0266 58.9798 75.4266 59.8904 75.8819C60.2998 76.1472 60.0765 76.501 59.2204 76.8105Z" fill="#F7F5E9"/>
<path d="M25.6833 144.268C26.01 144.604 26.182 144.985 26.182 145.373C26.182 145.761 26.01 146.142 25.6833 146.479C23.7849 149.375 21.9611 152.293 19.9511 155.19C17.1222 159.199 14.194 163.216 11.1666 167.24C10.5628 168.01 9.85318 168.749 9.04498 169.451C9.04498 169.561 8.37498 169.605 8.11442 169.561C7.85387 169.517 7.51887 169.23 7.59331 169.097C7.74636 168.394 8.03358 167.705 8.44942 167.041C10.6828 163.614 12.9161 160.187 15.2983 156.804C17.6805 153.421 20.4349 149.64 23.0405 146.081C23.6733 145.373 24.0083 144.577 25.6833 144.268Z" fill="#F7F5E9"/>
<path d="M98.6759 181.655C98.9736 181.81 99.4203 181.921 99.4203 182.053C99.4911 182.469 99.4279 182.889 99.2342 183.291C98.4525 184.706 97.5964 186.099 96.7031 187.492C94.2712 191.325 91.8146 195.157 89.3331 198.989C89.0641 199.455 88.6611 199.888 88.142 200.272C87.9236 200.375 87.6731 200.451 87.4048 200.497C87.1366 200.542 86.8558 200.556 86.5787 200.537C86.2203 200.499 85.8989 200.383 85.6783 200.211C85.4577 200.039 85.3539 199.824 85.3876 199.608C85.3593 199.25 85.4348 198.891 85.6109 198.547C89.3331 193.396 93.0553 188.266 96.7775 183.07C97.0739 182.686 97.4225 182.316 97.8198 181.965C98.0854 181.843 98.3724 181.74 98.6759 181.655Z" fill="#F7F5E9"/>
<path d="M129.682 176.305C129.272 175.973 128.677 175.686 128.751 175.464C128.936 174.84 129.249 174.231 129.682 173.651C131.543 170.91 133.404 168.146 135.34 165.405C138.02 161.557 140.774 157.732 143.529 153.885C143.914 153.383 144.375 152.902 144.906 152.448C144.906 152.448 145.39 152.448 145.576 152.448C145.762 152.448 146.022 152.647 146.022 152.736C145.924 153.216 145.75 153.69 145.501 154.151C143.603 157.113 141.779 160.076 139.695 162.995C137.424 166.422 135.191 169.826 132.883 173.254C132.317 174.103 131.658 174.931 130.91 175.73C130.724 175.951 130.277 176.061 129.682 176.305Z" fill="#F7F5E9"/>
<path d="M152.871 18.5291C153.467 19.5822 153.608 20.7074 153.281 21.8013C152.983 24.0123 152.611 26.2233 152.201 28.4343C151.569 32.1708 150.936 35.8853 150.229 39.6218C150.038 40.427 149.764 41.2244 149.41 42.0097C149.237 42.1837 148.956 42.3106 148.628 42.3634C148.512 42.384 148.389 42.3883 148.269 42.3758C148.15 42.3633 148.037 42.3345 147.939 42.2916C147.842 42.2487 147.762 42.1929 147.708 42.1286C147.653 42.0643 147.624 41.9933 147.623 41.9212C147.511 40.861 147.511 39.7977 147.623 38.7374C147.921 36.7696 148.33 34.824 148.702 32.8562C149.075 30.8884 149.559 28.4343 149.968 26.3338C150.266 24.7198 150.489 23.1058 150.824 21.4918C151.022 20.6509 151.295 19.8169 151.643 18.9934C151.829 18.8386 152.387 18.728 152.871 18.5291Z" fill="#F7F5E9"/>
<path d="M129.272 70.7524C128.044 70.5092 127.858 70.0891 128.305 69.5585C129.719 67.8339 131.096 66.1094 132.622 64.429C135.898 60.7367 139.248 57.0886 142.598 53.3741C143.08 52.8928 143.641 52.4411 144.273 52.0254C144.395 51.9573 144.546 51.9092 144.709 51.886C144.872 51.8627 145.042 51.8651 145.204 51.8928C145.576 52.0254 146.097 52.2907 146.097 52.4897C146.023 52.9749 145.796 53.4475 145.427 53.8826C142.784 56.8896 140.141 59.8744 137.387 62.8592C135.265 65.0702 132.995 67.3917 130.724 69.6248C130.304 70.0284 129.818 70.4061 129.272 70.7524Z" fill="#F7F5E9"/>
<path d="M124.694 121.959C125.476 121.561 126.071 121.583 126.518 121.959C126.936 122.211 127.299 122.493 127.597 122.799L143.268 137.988C143.67 138.34 143.972 138.728 144.161 139.138C144.178 139.273 144.143 139.409 144.059 139.536C143.975 139.662 143.845 139.775 143.677 139.868C143.481 139.926 143.264 139.956 143.045 139.956C142.825 139.956 142.608 139.926 142.412 139.868C141.953 139.641 141.573 139.363 141.295 139.05C135.886 133.655 130.488 128.238 125.104 122.799C124.888 122.535 124.75 122.25 124.694 121.959Z" fill="#F7F5E9"/>
<path d="M123.094 98.2349C123.094 102.126 123.094 106.018 123.094 109.909C123.094 110.639 122.572 111.036 121.828 110.948C121.084 110.86 120.86 110.395 120.823 109.975C120.786 109.555 120.823 108.98 120.823 108.494C120.823 101.551 120.823 94.631 120.823 87.6885C120.823 87.0252 120.041 86.1187 121.791 85.7429C123.131 86.2072 122.572 86.981 122.572 87.6443C122.572 91.1819 122.572 94.6973 122.572 98.2349H123.094Z" fill="#F7F5E9"/>
<path d="M93.7625 77.6065H107.311C107.915 77.5945 108.518 77.6393 109.098 77.7391C109.246 77.7797 109.379 77.8379 109.488 77.9101C109.597 77.9824 109.679 78.0672 109.731 78.1592C109.728 78.2619 109.686 78.3629 109.609 78.4547C109.532 78.5466 109.421 78.6269 109.284 78.6898C108.674 78.8907 108.004 79.0184 107.311 79.0657C97.7825 79.2647 88.2909 79.6627 78.7248 79.5521H78.1665C76.9381 79.5521 76.082 79.2426 76.2309 78.9109C76.3429 78.7077 76.5556 78.5293 76.8412 78.3991C77.1268 78.2689 77.472 78.193 77.8315 78.1813C79.0226 78.1813 80.2137 78.0266 81.5537 78.0044C85.7226 77.8939 89.8914 77.8276 94.0603 77.7391L93.7625 77.6065Z" fill="#F7F5E9"/>
<path d="M34.1327 138.276C34.5198 137.964 34.9698 137.682 35.4727 137.436C40.1379 135.726 44.8154 134.009 49.5054 132.284C50.2255 132.058 51.0065 131.908 51.8132 131.842C52.0738 131.842 52.5204 131.974 52.6693 132.129C52.7425 132.223 52.7805 132.325 52.7805 132.428C52.7805 132.531 52.7425 132.633 52.6693 132.726C52.3496 133.03 51.9322 133.293 51.441 133.5L36.1055 138.917C35.2121 139.293 34.5049 139.005 34.1327 138.276Z" fill="#F7F5E9"/>
<path d="M112.039 177.698C112.568 177.75 113.09 177.823 113.602 177.919C116.021 178.317 118.441 178.737 120.786 179.201C121.47 179.327 122.095 179.547 122.61 179.842C122.741 179.945 122.826 180.066 122.859 180.193C122.891 180.32 122.87 180.451 122.796 180.572C122.568 180.813 122.196 180.994 121.754 181.08C121.415 181.145 121.05 181.145 120.711 181.08L111.964 179.312C111.502 179.247 111.078 179.109 110.736 178.914C110.481 178.694 110.362 178.428 110.401 178.162C110.401 178.029 110.885 177.897 111.182 177.83C111.451 177.754 111.742 177.709 112.039 177.698Z" fill="#F7F5E9"/>
<path d="M156.705 11.0559L158.157 15.4779C155.849 15.4779 154.77 14.2619 153.095 13.7976C150.936 15.301 151.271 17.5341 148.628 18.7502C148.032 18.6252 147.53 18.3791 147.21 18.0555C146.89 17.7318 146.772 17.3514 146.879 16.9814C146.907 15.5415 146.607 14.106 145.985 12.7142C144.794 12.7142 144.161 13.289 143.231 13.5101C142.931 13.6244 142.582 13.6852 142.226 13.6852C141.869 13.6852 141.521 13.6244 141.221 13.5101C140.966 13.3596 140.8 13.1644 140.746 12.9534C140.692 12.7424 140.754 12.5268 140.923 12.3383L142.3 10.3042C141.744 10.039 141.16 9.79532 140.551 9.57458L137.722 8.64597C136.084 8.07112 136.121 7.23094 137.722 6.72242C138.474 6.51433 139.26 6.35138 140.067 6.236C140.96 6.05912 141.891 5.94858 142.821 5.81592C143.045 5.81592 143.231 5.68326 143.491 5.61693C142.97 4.90941 142.412 4.2019 141.965 3.40595C141.931 3.27375 141.95 3.13858 142.021 3.01167C142.092 2.88477 142.214 2.7698 142.375 2.67632C142.575 2.62646 142.79 2.60078 143.007 2.60078C143.225 2.60078 143.44 2.62646 143.64 2.67632C144.571 2.94164 145.464 3.27329 146.357 3.58283C147.623 2.89742 147.549 1.96881 148.107 1.21708C148.326 0.902794 148.587 0.599623 148.889 0.310575C149.021 0.213557 149.189 0.135335 149.378 0.081607C149.568 0.0278794 149.776 0 149.987 0C150.197 0 150.405 0.0278794 150.595 0.081607C150.785 0.135335 150.952 0.213557 151.085 0.310575C151.468 0.655661 151.78 1.0268 152.015 1.41607C152.499 2.23413 152.909 3.03008 153.392 3.84814C153.502 3.99667 153.64 4.13755 153.802 4.26823C155.254 4.26823 156.11 3.38384 157.524 3.2954C157.756 3.33092 157.973 3.3963 158.158 3.48691C158.343 3.57752 158.492 3.69116 158.595 3.8198C158.698 3.94844 158.752 4.08894 158.753 4.23137C158.755 4.37381 158.704 4.5147 158.603 4.6441C158.252 5.25445 157.842 5.85239 157.375 6.43499C158.157 7.14251 159.534 7.34149 160.576 7.76158C162.475 8.51331 162.475 9.30927 160.576 9.97256C159.348 10.3263 158.12 10.6137 156.705 11.0559Z" fill="#F7F5E9"/>
<path d="M155.142 148.535C153.43 149.397 154.844 150.878 152.611 151.475C150.675 150.48 151.606 148.601 149.224 147.54C148.219 147.54 147.623 148.38 146.655 148.69C146.502 148.728 146.338 148.749 146.171 148.749C146.005 148.749 145.84 148.728 145.687 148.69C145.522 148.636 145.385 148.555 145.293 148.458C145.201 148.36 145.157 148.249 145.166 148.137C145.39 147.606 145.725 147.075 145.985 146.611C145.278 145.859 144.087 145.926 143.119 145.683C142.151 145.439 140.997 145.683 140.997 144.798C140.997 143.914 142.189 144.223 142.896 144.002C143.603 143.781 145.017 143.449 146.32 143.118C145.799 142.455 145.352 141.902 144.943 141.327C144.839 141.214 144.778 141.089 144.763 140.961C144.749 140.833 144.782 140.704 144.86 140.584C144.938 140.464 145.059 140.356 145.215 140.266C145.371 140.177 145.557 140.109 145.762 140.067L149.856 141.017L151.234 137.767C153.541 138.298 152.611 139.978 154.36 140.708L156.742 139.978C158.343 140.841 156.742 141.614 156.742 142.477L159.869 143.361C160.306 143.476 160.729 143.609 161.135 143.759C161.304 143.831 161.441 143.925 161.536 144.035C161.632 144.144 161.681 144.266 161.681 144.389C161.681 144.512 161.632 144.634 161.536 144.744C161.441 144.853 161.304 144.948 161.135 145.019C160.312 145.302 159.453 145.546 158.566 145.749L156.147 146.412L158.492 148.115C158.492 148.667 157.971 148.911 157.152 148.844C156.333 148.778 155.849 148.645 155.142 148.535Z" fill="#F7F5E9"/>
<path d="M113.118 77.0979L117.026 75.5724C116.542 74.9754 116.096 74.4227 115.686 73.8478C115.608 73.7523 115.575 73.6457 115.593 73.5399C115.61 73.4341 115.676 73.3332 115.784 73.2485C115.892 73.1637 116.038 73.0984 116.204 73.0598C116.371 73.0212 116.553 73.0108 116.729 73.0297C117.622 73.1624 118.515 73.3614 119.632 73.5825L121.791 70.7524C122.258 71.2396 122.681 71.7415 123.056 72.2559C123.287 72.6444 123.461 73.0438 123.577 73.4498C124.955 73.7594 125.96 72.4107 127.3 73.4498L126.555 75.6608L129.459 76.9211C129.124 78.0044 127.337 77.8939 126.555 78.4466V80.7018L123.764 80.5692L122.2 82.7802C122.019 82.8485 121.811 82.8882 121.597 82.8957C121.382 82.9031 121.168 82.878 120.974 82.8228C120.781 82.7675 120.614 82.6838 120.49 82.5796C120.366 82.4755 120.288 82.3543 120.265 82.2274C120.084 81.7027 119.972 81.1705 119.93 80.6355C118.813 80.2596 118.255 80.8124 117.51 80.945C117.265 81.0102 116.994 81.0336 116.727 81.0126C116.461 80.9917 116.209 80.9272 116.001 80.8263C115.793 80.7254 115.635 80.5922 115.547 80.4414C115.459 80.2906 115.442 80.1282 115.5 79.9722C115.654 79.4269 115.866 78.8878 116.133 78.3582L113.118 77.0979Z" fill="#F7F5E9"/>
<path d="M68.3398 129.962L66.3298 130.825L66.7765 131.82C66.7765 132.306 67.1859 132.837 66.2926 133.168C65.3993 133.5 64.7665 133.168 64.1337 132.815C63.5009 132.461 62.9426 132.151 62.1982 131.753C60.9326 132.417 60.2998 133.611 58.1037 133.213C57.809 132.843 57.656 132.439 57.656 132.03C57.656 131.621 57.809 131.217 58.1037 130.847C57.0615 130.471 55.7215 131.112 55.0143 130.139L56.5032 129.034L53.8232 127.862L56.7265 127.177L56.4287 126.182C57.4337 125.518 58.141 126.182 58.9226 126.314C59.1087 126.314 59.3693 126.137 59.4437 126.027C59.7415 125.297 59.2204 124.479 60.0393 123.816C61.5654 123.816 61.8259 124.7 62.5332 124.877C63.2404 125.054 64.5804 124.501 65.0271 125.12C65.1805 125.61 65.1805 126.112 65.0271 126.602L67.9304 126.867C67.8538 127.224 67.7419 127.579 67.5954 127.928C67.5954 128.304 66.3298 128.481 66.8137 128.99C67.2976 129.498 67.6326 129.476 68.0421 129.741C68.1525 129.81 68.2521 129.884 68.3398 129.962Z" fill="#F7F5E9"/>
<path d="M89.3331 205.777L86.7648 207.214C86.9444 207.872 87.0439 208.537 87.0626 209.204C87.012 209.368 86.9028 209.525 86.7423 209.662C86.5818 209.799 86.3737 209.914 86.132 210C85.8714 210 85.1642 210 84.8664 209.845C84.2827 209.489 83.7358 209.113 83.2287 208.718C82.3831 209.002 81.5134 209.26 80.6231 209.491C79.7298 209.69 79.3204 209.337 79.0598 208.828L80.4742 207.236C80.0648 206.33 77.8315 206.087 78.2781 204.871C79.5065 204.384 81.0326 204.871 82.9309 204.406L83.3776 203.986C83.9359 203.588 84.0848 202.814 85.3503 203.013C86.6159 203.212 85.9459 203.853 86.2809 204.274C86.5359 204.577 86.9053 204.842 87.3603 205.047C87.989 205.317 88.6481 205.561 89.3331 205.777Z" fill="#F7F5E9"/>
<path d="M10.1244 58.3046C10.1244 58.5036 10.1244 58.7026 9.78942 58.7468C9.08963 58.9575 8.49275 59.2715 8.05604 59.6587C7.61934 60.0459 7.35746 60.4932 7.29554 60.9578C7.26103 61.1042 7.18554 61.2462 7.0722 61.3779C6.99771 61.5118 6.85944 61.6301 6.67413 61.7183C6.48881 61.8066 6.2644 61.861 6.02807 61.875C5.79175 61.8891 5.55363 61.8621 5.34257 61.7974C5.13151 61.7327 4.95655 61.6331 4.83888 61.5105C4.56249 61.2396 4.31389 60.9591 4.09443 60.6704C2.64277 60.5598 1.45166 61.8643 0 60.6704L2.08444 58.8131L0 56.978C1.005 56.0494 1.97277 56.978 2.71722 56.8675C4.35499 56.6464 4.61554 55.2313 6.81165 55.5409L7.0722 57.4644L10.1244 58.3046Z" fill="#F7F5E9"/>
<path d="M121.754 113.513C123.391 113.513 123.242 114.287 123.801 114.508C124.359 114.729 125.699 113.889 126.592 114.773L125.178 116.387L126.481 118.067C125.476 119.062 124.396 118.178 123.168 118.067L121.158 118.996C120.86 118.996 120.525 118.841 120.488 118.753C119.93 117.935 119.781 116.962 117.92 116.719C117.734 116.719 117.473 116.365 117.547 116.188C117.593 116.088 117.678 115.997 117.794 115.92C117.911 115.843 118.056 115.784 118.217 115.746C119.148 115.525 120.488 115.746 121.009 115.083C121.305 114.568 121.554 114.044 121.754 113.513Z" fill="#F7F5E9"/>
<path d="M66.9998 81.2104C66.1065 81.3651 65.5482 81.4757 64.9898 81.542C64.4315 81.6083 64.5432 81.542 64.1709 81.4094C64.1709 80.5471 65.3621 79.9501 65.7715 79.1984L64.9154 77.7833C66.9626 77.9823 68.1537 77.2527 69.3448 76.4346C69.8287 76.7442 70.3498 76.9432 70.3498 77.1201C70.2729 77.5053 70.4141 77.8947 70.7511 78.227C71.0881 78.5593 71.6017 78.8155 72.2109 78.9552C72.4715 78.9552 72.5459 79.2868 72.6948 79.4416C72.8437 79.5964 72.4715 79.7732 72.2854 79.8174C70.8337 80.1049 69.717 80.5471 69.9032 81.6083C69.8911 81.8192 69.7886 82.0246 69.6054 82.2053C69.5311 82.3002 69.4176 82.3823 69.2754 82.4441C69.1332 82.5058 68.967 82.5451 68.7923 82.5584C68.6176 82.5716 68.4401 82.5584 68.2763 82.5198C68.1126 82.4813 67.9679 82.4187 67.8559 82.338C67.5258 81.9747 67.2397 81.5978 66.9998 81.2104Z" fill="#F7F5E9"/>
<path d="M6.51387 175.398L4.42943 176.592C4.12454 176.228 3.96586 175.827 3.96586 175.42C3.96586 175.014 4.12454 174.613 4.42943 174.248C4.2061 173.541 2.34499 173.452 2.56833 172.59C4.25697 172.373 5.77608 171.829 6.88609 171.043C7.35355 171.336 7.87837 171.596 8.44942 171.816C9.01198 171.9 9.5843 171.96 10.1616 171.993C10.3396 172.012 10.5056 172.059 10.6424 172.129C10.7791 172.2 10.8814 172.29 10.9386 172.392C10.9957 172.494 11.0056 172.603 10.9671 172.708C10.9286 172.813 10.8433 172.91 10.72 172.988C10.5785 173.102 10.4162 173.206 10.2361 173.298C9.77479 173.464 9.42785 173.721 9.25736 174.025C9.08687 174.329 9.10394 174.659 9.30553 174.956C9.30553 175.266 9.0822 175.686 8.89609 176.194L6.51387 175.398Z" fill="#F7F5E9"/>
<path d="M145.836 48.9079V47.515L143.826 46.4316C144.836 46.1451 145.807 45.8125 146.73 45.4367C147.353 44.9983 147.901 44.5243 148.367 44.0217C148.876 44.4364 149.477 44.8083 150.154 45.1272C150.842 45.3043 151.569 45.4234 152.313 45.4809C151.382 46.697 149.931 47.6919 151.01 49.0185C150.493 49.0696 149.964 49.0696 149.447 49.0185C148.895 48.8447 148.286 48.7448 147.662 48.7257C147.038 48.7066 146.415 48.7688 145.836 48.9079Z" fill="#F7F5E9"/>
<path d="M102.249 178.516C102.253 178.107 102.178 177.699 102.026 177.3C101.714 176.918 101.34 176.555 100.909 176.216C101.604 175.95 102.275 175.662 102.919 175.354C103.442 175.02 103.927 174.665 104.371 174.293C104.922 174.761 105.573 175.184 106.306 175.553C107.009 175.71 107.752 175.793 108.502 175.796C108.912 176.658 107.572 176.791 107.2 177.255C106.828 177.72 106.753 178.184 106.455 178.781C105.817 178.602 105.141 178.476 104.445 178.405C103.709 178.403 102.974 178.44 102.249 178.516Z" fill="#F7F5E9"/>
<path d="M131.804 180.616C131.307 181.024 130.907 181.471 130.612 181.943C130.616 182.474 130.741 183.002 130.985 183.512L128.267 183.159C127.672 183.358 127.337 184.132 125.997 183.711C125.587 183.114 125.997 182.518 125.997 181.898L124.657 181.014C124.843 180.837 124.955 180.638 125.104 180.616C126.295 180.417 127.3 180.174 127.486 179.312C127.486 179.312 128.007 179.09 128.454 178.914L129.459 180.284L131.804 180.616Z" fill="#F7F5E9"/>
<path d="M30.7827 138.386C30.9814 138.889 31.2683 139.378 31.6388 139.846C32.1601 140.187 32.7473 140.492 33.3882 140.752C32.2109 141.32 31.3644 142.093 30.9688 142.963C30.3868 142.802 29.7745 142.684 29.1449 142.609C28.4317 142.662 27.7318 142.766 27.0605 142.919C26.9443 142.546 26.9443 142.164 27.0605 141.791C27.3397 141.517 27.4616 141.196 27.4079 140.877C27.3542 140.558 27.1278 140.258 26.7627 140.022C26.316 139.735 26.7627 139.16 27.2838 139.293C28.9588 139.735 29.2566 138.652 30.7827 138.386Z" fill="#F7F5E9"/>
</svg>
