<svg width="162" height="210" viewBox="0 0 162 210" fill="none" xmlns="http://www.w3.org/2000/svg">
<path d="M149.791 176.209L152.916 183.153C152.916 183.153 153.228 183.33 153.374 183.285C154.124 183.064 154.832 182.224 155.666 183.02C156.499 183.816 156.124 184.435 155.999 185.231L155.645 187.045L157.457 188.04C158.666 188.681 159.895 189.278 161.082 189.964C162.27 190.649 162.291 191.71 161.228 192.551C160.622 192.974 159.989 193.351 159.332 193.679C158.541 194.165 157.728 194.629 157.041 195.005C156.561 196.332 157.353 197.084 157.666 197.991C157.978 198.897 158.353 199.782 158.791 200.887C158.275 201.128 157.726 201.278 157.166 201.33C156.342 201.187 155.528 200.987 154.728 200.733C153.978 201.263 154.061 202.236 153.936 202.944C153.754 204.549 153.383 206.124 152.832 207.632C152.041 207.809 151.832 207.234 151.624 206.769C150.478 204.293 149.374 201.794 148.145 199.096C147.645 199.428 147.228 199.649 146.853 199.959C146.413 200.416 145.947 200.844 145.457 201.241C145.279 201.333 145.083 201.381 144.884 201.381C144.686 201.381 144.49 201.333 144.311 201.241C143.963 200.878 143.755 200.388 143.728 199.87C143.797 199.326 143.944 198.796 144.166 198.3C144.374 197.593 144.582 196.863 144.791 196.089L142.707 195.116C142.061 194.806 141.374 194.519 140.749 194.143C140.124 193.767 139.207 193.281 139.27 192.197C139.332 191.113 140.312 190.804 141.353 190.539C142.454 190.166 143.532 189.723 144.582 189.212C144.582 187.575 143.541 186.492 143.228 185.121C143.228 184.745 143.228 184.059 143.395 183.949C143.603 183.817 143.836 183.735 144.077 183.708C144.318 183.681 144.561 183.711 144.791 183.794C145.647 184.266 146.469 184.806 147.249 185.408C148.561 182.688 148.228 179.46 149.791 176.209Z" fill="#F7F5E9"/>
<path d="M9.3751 18.7864C8.92751 19.6153 8.44079 20.4198 7.91678 21.1967C7.80838 21.3418 7.66469 21.4528 7.50122 21.5177C7.33774 21.5825 7.16069 21.5987 6.98917 21.5646C6.81765 21.5305 6.65816 21.4473 6.52792 21.324C6.39768 21.2007 6.30163 21.042 6.25013 20.865C6.07483 20.1385 5.9495 19.3995 5.87513 18.6537C5.87513 18.123 5.87513 17.5923 5.70847 16.9289H3.10432C2.58349 16.9289 2.06266 16.9289 1.54184 16.9289C0.687676 16.6856 0.000181178 16.0665 0.000181178 15.4915C-0.0044346 15.1613 0.0792294 14.8365 0.241472 14.5547C0.403714 14.2729 0.637888 14.0457 0.91684 13.8994C1.37517 13.634 1.896 13.5013 2.3335 13.2139C2.91099 12.8515 3.46754 12.4527 4.00015 12.0198C3.39599 11.3564 2.91682 10.8257 2.45849 10.2728C2.0301 9.79758 1.64635 9.27916 1.31267 8.72492C1.20708 8.57558 1.1432 8.39772 1.12834 8.21166C1.11349 8.02561 1.14825 7.83887 1.22865 7.6728C1.30906 7.50672 1.43186 7.36801 1.58303 7.27251C1.7342 7.17702 1.90763 7.1286 2.0835 7.13278C3.10432 7.02222 4.16681 7.02222 5.3543 6.95588C5.4793 6.40305 5.68763 5.806 5.7918 5.18683C5.95847 3.99273 6.06263 2.77651 6.2293 1.5824C6.2293 0.919013 6.47929 0.211395 7.20846 0.0344906C7.93762 -0.142414 8.35428 0.3883 8.66678 1.00747C9.1251 2.00255 9.5626 2.99764 10.0626 3.97061C10.3345 4.47295 10.6409 4.95336 10.9793 5.40796C11.7501 4.54555 12.3542 3.81582 13.0626 3.19666C13.1975 3.11249 13.3485 3.06166 13.5045 3.04796C13.6605 3.03426 13.8173 3.05804 13.9634 3.11753C14.1096 3.17702 14.2412 3.27069 14.3485 3.39158C14.4558 3.51247 14.5361 3.65747 14.5834 3.81582C14.7292 5.23106 14.7709 6.6463 14.8542 8.23844C15.838 8.57551 16.8046 8.9667 17.75 9.41043C18.0035 9.4943 18.2282 9.65542 18.3961 9.87377C18.564 10.0921 18.6678 10.358 18.6944 10.6385C18.721 10.9189 18.6694 11.2014 18.546 11.451C18.4225 11.7005 18.2327 11.906 18 12.0419C17.3542 12.5726 16.625 13.0149 15.9167 13.5013C15.9167 14.9829 16.8125 15.9559 17.25 17.15C17.3148 17.35 17.3371 17.5627 17.3155 17.7729C17.2939 17.9832 17.2289 18.1857 17.125 18.3662C16.9786 18.4939 16.8076 18.5859 16.624 18.6356C16.4403 18.6852 16.2487 18.6914 16.0625 18.6537C15.4418 18.497 14.8353 18.2824 14.2501 18.0124C14.3751 19.7815 14.5209 21.3073 14.5626 22.8331C14.5582 23.0413 14.5112 23.2461 14.4249 23.4332C14.3385 23.6203 14.2149 23.7852 14.0626 23.9166C13.5626 24.2925 13.0417 23.9166 12.6876 23.5407C12.3334 23.1648 12.1251 22.634 11.8126 22.1918C11.0834 21.1082 10.4168 20.1131 9.3751 18.7864Z" fill="#F7F5E9"/>
<path d="M44.2082 201.794C43.0832 201.285 42.229 200.91 41.3957 200.489C41.2924 200.409 41.2083 200.305 41.1504 200.183C41.0924 200.062 41.0622 199.929 41.0622 199.793C41.0622 199.657 41.0924 199.523 41.1504 199.402C41.2083 199.281 41.2924 199.176 41.3957 199.096C42.3123 198.588 43.2498 198.145 43.9998 197.769C44.479 196.907 43.9998 196.531 43.7498 196.067C43.6147 195.846 43.5599 195.581 43.5956 195.32C43.6314 195.06 43.7552 194.822 43.944 194.651C44.1329 194.481 44.3738 194.389 44.6217 194.393C44.8697 194.397 45.1078 194.497 45.2915 194.674C45.5342 194.829 45.7928 194.956 46.0623 195.05C46.6643 193.754 47.0384 192.353 47.1665 190.914C47.2915 190.362 47.5415 189.787 48.1456 189.853C48.3368 189.896 48.5181 189.979 48.679 190.096C48.8399 190.214 48.9772 190.364 49.0831 190.538C49.6039 191.467 50.0414 192.44 50.5414 193.435L53.2289 191.821C53.8331 193.391 52.1248 194.032 52.4164 195.315C53.9997 195.713 55.7497 195.315 57.208 196.089C57.6872 197.283 56.5622 197.659 56.3122 198.543L57.2705 200.003C56.6039 201.086 55.3956 200.003 54.6456 201.02C55.0414 203.231 57.333 204.337 57.5205 206.88C57.0456 206.976 56.558 206.976 56.0831 206.88C54.9997 206.46 53.9997 205.907 52.8747 205.376L52.3956 207.057C51.2914 207.588 50.8331 206.172 49.9789 206.106C48.8123 207.389 47.6873 208.671 46.479 209.865C46.2706 210.086 45.7081 209.998 45.3748 209.865C45.0415 209.733 45.0415 209.29 45.104 209.025C45.255 208.276 45.4498 207.537 45.6873 206.814C46.024 205.67 46.1651 204.472 46.104 203.276C45.104 203.475 44.6248 204.801 43.5207 204.271C42.7915 203.121 44.1248 202.59 44.2082 201.794Z" fill="#F7F5E9"/>
<path d="M70.8329 133.553C69.3329 133.553 68.1038 133.553 66.8538 133.553C66.458 133.553 66.1038 133.067 65.6455 132.757C67.1455 131.541 68.4788 130.546 69.8121 129.374C69.6246 127.561 69.4371 125.725 69.2913 123.89C69.2924 123.731 69.3312 123.574 69.404 123.435C69.4768 123.296 69.5813 123.179 69.7079 123.094C70.0727 122.962 70.4682 122.962 70.8329 123.094C71.1812 123.326 71.4909 123.617 71.7496 123.956L73.5204 126.013L75.3121 124.73C75.7476 124.442 76.1999 124.183 76.6662 123.956C76.8338 123.883 77.0167 123.859 77.1962 123.886C77.3756 123.912 77.545 123.989 77.6871 124.109C77.8292 124.228 77.9388 124.385 78.0047 124.564C78.0706 124.744 78.0904 124.938 78.062 125.128C77.9277 125.771 77.7394 126.4 77.4995 127.008C77.187 127.826 76.812 128.6 76.4371 129.44L79.1662 132.691C79.8162 133.371 80.4088 134.111 80.937 134.902C81.0095 135.147 81.0265 135.407 80.9867 135.661C80.9469 135.914 80.8514 136.154 80.7079 136.362C80.5829 136.583 79.937 136.627 79.6037 136.516C79.1379 136.272 78.6979 135.975 78.2912 135.632L75.5621 133.796L73.9579 137.777C71.3121 137.666 71.7079 135.212 70.8329 133.553Z" fill="#F7F5E9"/>
<path d="M57.8539 92.0027C58.5199 91.4245 59.2154 90.8856 59.9372 90.3884C60.1183 90.3063 60.3132 90.264 60.5101 90.264C60.707 90.264 60.9019 90.3063 61.083 90.3884C61.2008 90.449 61.3056 90.5346 61.3911 90.6398C61.4765 90.7451 61.5407 90.8678 61.5797 91.0004C61.6188 91.133 61.6318 91.2727 61.618 91.4108C61.6043 91.549 61.564 91.6827 61.4997 91.8037C61.0622 92.9314 60.5413 94.015 60.0205 95.2091C60.3244 95.7651 60.6656 96.2972 61.0413 96.8012C61.2675 97.0349 61.4162 97.3401 61.465 97.671C61.5138 98.002 61.4602 98.3408 61.3122 98.6366C60.9372 99.3663 60.333 99.3 59.708 99.0789L58.6247 98.7251C57.458 99.3221 57.6664 101.113 56.1456 101.379C55.0622 100.715 55.1247 99.1673 54.0622 98.0838C53.4164 97.9511 52.6039 97.8405 51.8123 97.6415C51.6301 97.606 51.4612 97.5165 51.3251 97.3832C51.189 97.2499 51.0913 97.0784 51.0433 96.8886C50.9953 96.6988 50.999 96.4984 51.054 96.3107C51.109 96.123 51.213 95.9557 51.3539 95.8283C52.0414 95.187 52.8331 94.6784 53.6456 94.0592C53.6456 93.1526 53.6456 92.2902 53.6456 91.4278C53.663 91.2062 53.7318 90.9926 53.8458 90.8061C53.9599 90.6195 54.1155 90.4658 54.2991 90.3585C54.4826 90.2513 54.6882 90.1939 54.8977 90.1914C55.1072 90.1889 55.314 90.2414 55.4997 90.3442C56.3117 90.8522 57.0975 91.4058 57.8539 92.0027Z" fill="#F7F5E9"/>
<path d="M140.895 185.519C140.776 185.785 140.622 186.03 140.437 186.249C140.207 186.448 139.853 186.669 139.624 186.58C139.029 186.408 138.466 186.132 137.957 185.762C135.02 183.551 132.062 181.339 129.187 178.885C117.048 168.89 104.909 158.865 92.7703 148.811C89.6661 146.224 86.7286 143.416 83.7287 140.696C83.382 140.452 83.0787 140.145 82.8328 139.789C82.6662 139.435 82.5203 138.86 82.687 138.595C82.8209 138.445 82.9897 138.336 83.1762 138.277C83.3628 138.219 83.5606 138.214 83.7495 138.263C84.6068 138.642 85.4239 139.117 86.187 139.678C88.4786 141.381 90.8119 143.084 93.0203 144.919L128.874 174.706C131.395 176.917 133.937 178.929 136.457 181.074C137.666 182.113 138.832 183.285 139.978 184.325C140.323 184.687 140.63 185.087 140.895 185.519Z" fill="#F7F5E9"/>
<path d="M52.5831 84.3516C52.8119 84.9594 52.9863 85.5887 53.1039 86.2312C53.1196 86.4392 53.0881 86.6482 53.0119 86.8405C52.9358 87.0329 52.8173 87.2031 52.6664 87.3369C52.4883 87.4304 52.2922 87.4791 52.0935 87.4791C51.8948 87.4791 51.6987 87.4304 51.5206 87.3369C51.0649 87.0745 50.6727 86.7036 50.3748 86.2533C48.0415 82.6268 45.6248 79.0223 43.3957 75.1968C38.7151 67.3688 34.0693 59.5112 29.4583 51.6243C27.5833 48.44 25.8541 45.1672 24.0416 41.9608L18.8959 33.0493C18.3838 32.22 17.9511 31.3385 17.6042 30.4178C17.5357 30.1657 17.5246 29.9 17.5716 29.6425C17.6187 29.3849 17.7227 29.1429 17.875 28.9363C18.1079 28.8642 18.3534 28.8506 18.592 28.8967C18.8307 28.9427 19.056 29.0471 19.25 29.2016C19.8652 29.7891 20.3983 30.4667 20.8333 31.2139C23.2292 34.9731 25.5625 38.7545 27.9166 42.5358C29.9999 45.9191 32.0832 49.3024 34.1666 52.752C36.2499 56.2017 38.4999 60.0051 40.6665 63.6538C42.8332 67.3024 45.2081 71.3049 47.4373 75.1747C49.2081 78.0936 50.7914 81.101 52.5831 84.3516Z" fill="#F7F5E9"/>
<path d="M53.1039 187.642C53.0039 186.065 53.291 184.488 53.9372 183.064C55.7983 178.037 57.6803 173.025 59.583 168.027C61.6663 162.521 63.8955 156.971 66.0621 151.553C67.1455 148.811 68.2705 146.091 69.4163 143.371C69.6428 142.76 69.9516 142.186 70.3329 141.669C70.5621 141.403 71.0413 141.403 71.3954 141.293C71.5215 141.669 71.6259 142.053 71.7079 142.443C71.6989 142.667 71.6419 142.886 71.5413 143.084C69.6454 148.568 67.708 154.14 65.8121 159.514C64.6247 162.919 63.5413 166.391 62.2913 169.774C60.4163 174.794 58.458 179.769 56.4997 184.745C56.0524 185.739 55.5298 186.693 54.9372 187.597C54.5206 188.217 53.9164 188.305 53.1039 187.642Z" fill="#F7F5E9"/>
<path d="M70.2079 119.423C69.2704 119.423 68.8121 119.6 68.5621 119.423C68.0474 119.065 67.6077 118.598 67.2705 118.052C64.7705 113.732 62.3052 109.413 59.8747 105.094C59.208 103.922 59.2289 102.882 59.8747 102.772C60.8122 102.551 61.1247 103.391 61.4997 103.988C62.6247 105.713 63.708 107.438 64.7705 109.207C66.1038 111.418 67.4163 113.629 68.6871 115.841C69.1246 116.791 69.4996 117.809 70.2079 119.423Z" fill="#F7F5E9"/>
</svg>
