<svg width="162" height="195" viewBox="0 0 162 195" fill="none" xmlns="http://www.w3.org/2000/svg">
<path d="M145.116 155.629C144.385 154.746 143.8 154.068 143.277 153.35C143.049 153.064 142.865 152.745 142.734 152.405C142.567 151.83 143.235 151.132 143.8 151.317C144.52 151.561 145.219 151.863 145.889 152.22C146.746 152.672 147.582 153.185 148.564 153.74C148.829 153.219 149.066 152.684 149.274 152.138C149.734 150.578 150.11 148.997 150.591 147.436C150.793 147.024 151.045 146.638 151.343 146.287C153.433 147.58 153.433 150.023 154.937 151.769C155.627 151.769 156.149 151.153 156.818 150.927C157.173 150.804 157.549 150.66 157.842 150.927C157.952 151.08 158.012 151.263 158.012 151.45C158.012 151.638 157.952 151.821 157.842 151.974C157.591 152.426 157.298 152.857 157.027 153.288C156.755 153.719 156.421 154.294 156.107 154.808C157.758 156.45 160.287 156.286 162 157.99C161.661 158.351 161.282 158.675 160.872 158.955C159.681 159.592 158.448 160.146 157.236 160.741C156.839 160.947 156.463 161.173 156.024 161.439C156.421 162.63 156.839 163.719 157.173 164.848C157.241 165.013 157.273 165.19 157.266 165.368C157.259 165.546 157.214 165.721 157.133 165.88C157.051 166.04 156.937 166.18 156.796 166.292C156.655 166.405 156.492 166.486 156.316 166.532L153.746 165.115C153.537 165.813 153.391 166.367 153.182 166.901C153.081 167.257 152.926 167.596 152.722 167.907C152.653 167.993 152.567 168.065 152.469 168.118C152.372 168.171 152.264 168.204 152.153 168.216C152.042 168.227 151.93 168.217 151.823 168.185C151.716 168.153 151.617 168.101 151.531 168.03C151.116 167.61 150.744 167.149 150.424 166.655C149.713 165.546 149.045 164.396 148.334 163.144C147.509 163.747 146.752 164.435 146.077 165.197C145.492 165.751 144.907 166.347 144.28 166.86C144.073 167.023 143.815 167.112 143.549 167.112C143.283 167.112 143.025 167.023 142.818 166.86C142.634 166.722 142.505 166.526 142.452 166.306C142.399 166.085 142.424 165.853 142.525 165.649C142.851 164.823 143.221 164.014 143.632 163.226C144.092 162.405 144.656 161.624 145.262 160.68C144.824 160.433 144.468 160.187 144.092 160.002C143.194 159.612 142.274 159.284 141.397 158.852C140.874 158.606 140.185 158.38 140.331 157.62C140.477 156.861 141 156.902 141.543 156.799C142.131 156.689 142.711 156.539 143.277 156.347C143.779 156.265 144.301 156.039 145.116 155.629Z" fill="#F7F5E9"/>
<path d="M12.8864 179.488L13.7849 178.769C14.2029 178.461 14.5999 178.112 15.0387 177.824C15.2562 177.675 15.5152 177.595 15.7805 177.595C16.0458 177.595 16.3048 177.675 16.5223 177.824C16.7361 177.986 16.8876 178.214 16.9521 178.472C17.0167 178.729 16.9904 179 16.8776 179.241C16.5223 180.35 16.0835 181.438 15.6447 182.609C15.9581 183.183 16.5432 183.245 17.1074 183.409C18.0535 183.648 18.982 183.95 19.8866 184.313C20.0744 184.359 20.2437 184.459 20.3725 184.601C20.5013 184.743 20.5835 184.92 20.6083 185.108C20.6331 185.297 20.5995 185.488 20.5117 185.658C20.424 185.827 20.2862 185.967 20.1164 186.058C19.5619 186.437 18.9662 186.753 18.3403 187.002C17.921 187.155 17.4869 187.265 17.0447 187.331L15.8119 187.598C15.9999 188.091 16.1671 188.542 16.3552 188.994C16.6085 189.529 16.8317 190.078 17.0238 190.637C17.0922 190.796 17.1274 190.967 17.1274 191.14C17.1274 191.313 17.0922 191.484 17.0238 191.643C16.88 191.743 16.7151 191.809 16.5414 191.838C16.3678 191.866 16.1898 191.856 16.0208 191.807C15.2254 191.562 14.4441 191.274 13.6805 190.945C13.1895 191.544 12.8462 192.247 12.6775 192.998C12.4476 193.552 12.2804 194.107 12.0297 194.641C11.9579 194.751 11.859 194.841 11.7421 194.904C11.6253 194.967 11.4942 195 11.361 195C11.2278 195 11.0968 194.967 10.9799 194.904C10.8631 194.841 10.7642 194.751 10.6923 194.641C10.4087 194.203 10.1773 193.734 10.0028 193.244C9.60576 192.218 9.25053 191.191 8.81171 189.959L5.7818 192.341L4.04743 191.581C4.04743 190.103 4.96685 189.015 5.28029 187.598C4.17281 187.372 3.00263 187.167 1.93694 186.838C1.42768 186.714 0.936265 186.528 0.474223 186.284C0.341717 186.212 0.229377 186.109 0.147185 185.984C0.0649935 185.859 0.0154958 185.716 0.00309014 185.567C-0.00931553 185.419 0.015755 185.27 0.0760741 185.134C0.136393 184.997 0.230093 184.877 0.348847 184.785C1.01054 184.355 1.70983 183.984 2.43844 183.676C3.06532 183.43 3.73399 183.307 4.52804 183.081C4.2355 182.526 3.96385 182.034 3.7131 181.52C3.46235 181.007 2.79367 180.227 3.46235 179.467C4.13102 178.707 4.69521 179.2 5.34298 179.467C5.99076 179.734 6.74301 179.919 7.43258 180.124C7.97587 179.857 7.97587 179.385 8.05946 178.954C8.24752 177.948 8.39379 176.9 8.58186 175.894C8.61566 175.637 8.72738 175.396 8.90251 175.202C9.07765 175.008 9.3081 174.87 9.56397 174.806C9.86053 174.74 10.1712 174.775 10.4447 174.906C10.7182 175.036 10.9382 175.255 11.0685 175.525C11.3401 176.059 11.5073 176.634 11.7371 177.188C11.9614 178.022 12.3521 178.803 12.8864 179.488Z" fill="#F7F5E9"/>
<path d="M76.1176 115.796L78.7505 115.652C79.252 116.104 79.3565 116.514 78.9595 116.884C78.351 117.395 77.7163 117.874 77.0579 118.321L78.4371 119.553C79.5863 120.58 79.3983 121.606 77.9355 121.976C76.8699 122.284 75.846 122.489 74.5504 122.756C74.3205 123.68 74.0907 124.604 73.8399 125.508C73.8139 125.674 73.7413 125.829 73.6303 125.957C73.5193 126.084 73.3742 126.179 73.2115 126.23C73.0487 126.282 72.8747 126.287 72.7088 126.247C72.543 126.206 72.392 126.121 72.2727 126C71.9838 125.764 71.7243 125.496 71.4996 125.2L70.4966 123.824C70.1242 124.03 69.7679 124.264 69.4309 124.522C68.9085 125.035 68.4697 125.672 67.9264 126.165C67.7864 126.274 67.6253 126.354 67.4528 126.399C67.2804 126.445 67.1002 126.456 66.9234 126.432C66.4846 126.432 66.5055 125.898 66.5681 125.508C66.798 124.05 67.0279 122.613 67.2577 121.114C66.6099 120.785 66.0248 120.498 65.4607 120.169C65.0632 119.964 64.6855 119.723 64.3323 119.451C64.2402 119.359 64.1727 119.246 64.1357 119.123C64.0987 118.999 64.0934 118.868 64.1203 118.742C64.1472 118.616 64.2054 118.499 64.2898 118.4C64.3742 118.302 64.4821 118.225 64.6039 118.178C65.121 118.065 65.6443 117.983 66.1711 117.931C66.865 117.95 67.5467 117.749 68.1144 117.356C67.4816 115.956 67.1202 114.452 67.0488 112.921C67.119 112.832 67.2093 112.759 67.3125 112.709C67.4157 112.66 67.5293 112.634 67.6443 112.634C67.7593 112.634 67.8728 112.66 67.9761 112.709C68.0793 112.759 68.1695 112.832 68.2398 112.921C68.6826 113.329 69.0947 113.768 69.4727 114.235L71.1862 116.289C71.9175 115.426 72.5235 114.666 73.2757 113.989C73.8334 113.403 74.4494 112.873 75.1146 112.408C75.2886 112.278 75.4874 112.184 75.6992 112.131C75.911 112.078 76.1314 112.067 76.3475 112.1C77.0161 112.346 76.5982 112.962 76.5355 113.455C76.4728 113.948 76.243 114.831 76.1176 115.796Z" fill="#F7F5E9"/>
<path d="M120.856 164.047C120.856 164.992 120.856 165.833 120.856 166.675C120.856 167.024 120.856 167.332 120.417 167.414C120.257 167.446 120.09 167.418 119.951 167.334C119.811 167.25 119.709 167.117 119.665 166.963C119.456 166.532 119.289 166.08 119.121 165.628C118.954 165.176 118.996 164.786 118.495 164.458L117.659 164.704C117.074 164.827 116.489 164.971 115.904 165.053C115.74 165.075 115.574 165.046 115.428 164.968C115.283 164.891 115.167 164.77 115.097 164.623C115.027 164.476 115.007 164.311 115.039 164.152C115.071 163.993 115.155 163.848 115.277 163.739C115.574 163.433 115.904 163.158 116.259 162.918C116.593 162.651 116.969 162.446 117.304 162.22C117.304 161.665 116.865 161.44 116.53 161.193C116.196 160.947 115.778 160.782 115.423 160.536C115.282 160.451 115.176 160.321 115.123 160.167C115.069 160.013 115.072 159.846 115.13 159.694C115.178 159.539 115.279 159.405 115.416 159.315C115.554 159.225 115.718 159.185 115.883 159.201C116.53 159.201 117.157 159.345 117.784 159.427C118.055 159.009 118.206 158.527 118.223 158.031C118.312 157.294 118.465 156.566 118.683 155.855C118.707 155.733 118.768 155.621 118.857 155.534C118.947 155.447 119.062 155.388 119.186 155.366C119.31 155.344 119.438 155.359 119.553 155.41C119.669 155.46 119.766 155.544 119.832 155.649C120.06 155.94 120.249 156.257 120.396 156.594C120.689 157.23 120.919 157.887 121.148 158.503C121.365 158.57 121.595 158.583 121.818 158.54C122.04 158.497 122.248 158.399 122.423 158.257C122.841 158.031 123.238 157.908 123.593 158.257C123.948 158.606 123.593 159.058 123.426 159.407C123.259 159.756 122.757 160.392 122.444 160.885C122.131 161.378 122.089 161.419 121.859 161.768L123.489 163.267C123.728 163.471 123.92 163.723 124.053 164.006C124.081 164.129 124.082 164.257 124.057 164.381C124.032 164.504 123.981 164.622 123.907 164.725C123.816 164.771 123.716 164.796 123.614 164.796C123.512 164.796 123.412 164.771 123.322 164.725C122.82 164.56 122.339 164.294 121.838 164.088C121.512 164.052 121.184 164.038 120.856 164.047Z" fill="#F7F5E9"/>
<path d="M107.796 31.2018L104.097 33.4398C103.721 34.0763 105.038 34.9798 103.951 35.8216L102.384 35.144C102.279 35.144 102.112 35.2672 102.049 35.3699C101.736 35.9653 101.485 36.5813 101.151 37.1357C101.005 37.3615 100.629 37.6079 100.44 37.5669C100.101 37.4559 99.808 37.2397 99.6047 36.9509C99.4375 36.7456 99.4793 36.3965 99.4375 36.0885C99.3957 35.7805 99.4375 35.2262 99.3121 34.6718C98.7719 34.9538 98.2135 35.2008 97.6404 35.411C97.5694 35.4345 97.4935 35.4406 97.4194 35.4287C97.3454 35.4169 97.2755 35.3873 97.2157 35.3428C97.1559 35.2982 97.1082 35.24 97.0766 35.1731C97.045 35.1063 97.0305 35.0328 97.0345 34.9592C97.1313 34.4125 97.2568 33.8711 97.4106 33.3372L96.2404 32.9881L95.1747 32.6596C94.715 32.4953 94.2971 32.2079 94.3807 31.7151C94.4857 31.3773 94.7172 31.0911 95.0284 30.9143C95.3543 30.7375 95.6973 30.5931 96.0523 30.4831C96.4494 30.2984 96.8255 30.0725 97.2225 29.8672C97.2225 28.9227 96.2195 28.2246 96.7419 27.2185C97.6822 26.5409 98.33 27.4854 99.1867 27.7934C99.7502 27.0148 100.155 26.1362 100.378 25.2063C100.455 25.0504 100.57 24.915 100.712 24.8114C100.853 24.7078 101.018 24.639 101.193 24.6109C101.369 24.6242 101.541 24.6774 101.693 24.7664C101.845 24.8555 101.974 24.9779 102.07 25.1242C102.424 25.9419 102.731 26.7781 102.99 27.6291L104.453 27.4238C105.184 28.1424 104.453 28.7379 104.453 29.4771L107.796 31.2018Z" fill="#F7F5E9"/>
<path d="M140.603 124.953C141.626 123.844 140.958 122.263 142.212 121.381C143.444 121.832 143.444 123.126 144.134 124.132L145.785 123.762C146.209 123.637 146.642 123.541 147.08 123.475C147.211 123.48 147.339 123.516 147.451 123.581C147.564 123.647 147.659 123.738 147.727 123.848C147.796 123.957 147.835 124.082 147.843 124.21C147.85 124.339 147.825 124.467 147.77 124.584C147.714 124.724 147.636 124.856 147.54 124.974C147.247 125.282 146.913 125.59 146.495 126C146.8 126.285 147.121 126.552 147.456 126.801C148.301 127.186 149.023 127.789 149.546 128.546C149.531 128.656 149.491 128.761 149.429 128.853C149.368 128.945 149.286 129.023 149.19 129.08C149.093 129.137 148.985 129.172 148.873 129.183C148.762 129.194 148.649 129.18 148.543 129.142C148.196 129.009 147.82 128.969 147.453 129.027C147.085 129.085 146.74 129.238 146.453 129.47C146.495 130.031 146.495 130.594 146.453 131.154C146.427 131.291 146.372 131.422 146.293 131.539C146.214 131.655 146.112 131.755 145.994 131.832C145.913 131.88 145.823 131.911 145.73 131.925C145.637 131.939 145.541 131.934 145.45 131.911C145.359 131.888 145.273 131.847 145.197 131.791C145.122 131.735 145.059 131.665 145.012 131.585C144.719 131.236 144.51 130.846 144.238 130.497C143.967 130.148 143.632 129.696 143.319 129.306C142.191 129.819 142.086 131.359 140.811 131.462C140.278 130.455 140.173 129.281 140.519 128.197C139.662 127.93 138.868 127.725 138.116 127.438C137.865 127.438 137.531 127.006 137.552 126.842C137.622 126.495 137.823 126.187 138.116 125.98C138.994 125.569 139.997 125.241 140.603 124.953Z" fill="#F7F5E9"/>
<path d="M23.8986 156.491C23.1045 157.21 22.5195 157.805 21.809 158.298C21.6787 158.36 21.5358 158.392 21.3911 158.392C21.2464 158.392 21.1035 158.36 20.9732 158.298C20.8865 158.259 20.8093 158.203 20.7466 158.133C20.6838 158.063 20.6371 157.98 20.6094 157.891C20.5817 157.801 20.5737 157.707 20.586 157.615C20.5983 157.522 20.6305 157.433 20.6806 157.354C20.9523 156.676 21.2448 156.019 21.5791 155.3L20.2627 154.458C19.5363 154.038 18.8383 153.571 18.1731 153.062C18.0684 152.922 17.9956 152.762 17.9595 152.592C17.9234 152.422 17.925 152.246 17.9641 152.077C18.0412 151.92 18.1592 151.786 18.306 151.689C18.4528 151.591 18.6232 151.534 18.8 151.522C19.3193 151.45 19.8427 151.409 20.3672 151.399C21.2602 151.429 22.1416 151.193 22.8956 150.722C23.0837 149.777 23.2926 148.668 23.5852 147.642C23.6353 147.508 23.7132 147.386 23.8139 147.283C23.9147 147.181 24.036 147.1 24.1702 147.046C24.2596 147.018 24.354 147.01 24.447 147.022C24.5399 147.033 24.6292 147.065 24.7087 147.113C24.7881 147.162 24.8559 147.227 24.9072 147.304C24.9586 147.381 24.9923 147.468 25.0061 147.56C25.2986 148.545 25.5076 149.613 25.7583 150.66C26.5106 151.03 27.3255 150.66 28.1196 150.66C28.9136 150.66 29.3106 150.865 29.3106 151.707L26.3434 153.76C26.5733 154.623 26.7822 155.403 26.9703 156.183C27.1068 156.601 27.1635 157.039 27.1375 157.477C27.0273 157.818 26.7879 158.105 26.4688 158.277C26.3292 158.303 26.1856 158.298 26.0483 158.262C25.911 158.227 25.7835 158.162 25.6748 158.072C25.0688 157.62 24.5464 157.087 23.8986 156.491Z" fill="#F7F5E9"/>
<path d="M48.0543 177.866L48.7857 179.2C48.987 179.51 49.1685 179.833 49.329 180.165C49.4961 180.596 49.5797 181.11 49.12 181.356C48.776 181.48 48.3983 181.48 48.0543 181.356C47.7833 181.241 47.5301 181.089 47.3021 180.904L46.4035 180.329C45.108 180.904 45.1289 182.609 43.8124 183.04C42.7885 181.91 42.7885 181.91 43.0393 180.042C42.4333 178.625 40.1348 178.728 39.9258 176.695L43.3527 176.346L44.2095 172.753C44.8154 172.363 45.1916 172.548 45.4423 172.979C45.6931 173.41 46.111 174.272 46.4871 175.032L48.7439 174.519C49.0341 174.428 49.338 174.386 49.6424 174.396C49.9155 174.458 50.1587 174.61 50.332 174.827C50.332 174.827 50.332 175.278 50.2066 175.422C49.8305 175.874 49.3917 176.285 48.9946 176.716C48.5976 177.147 48.4305 177.393 48.0543 177.866Z" fill="#F7F5E9"/>
<path d="M81.4879 176.572C81.864 177.824 82.1983 178.872 82.5118 179.939C82.5496 180.024 82.5698 180.115 82.5714 180.208C82.5729 180.301 82.5557 180.393 82.5207 180.479C82.4856 180.565 82.4336 180.643 82.3675 180.709C82.3014 180.775 82.2226 180.827 82.1356 180.863C81.9733 180.929 81.7994 180.963 81.6237 180.963C81.448 180.963 81.274 180.929 81.1117 180.863C80.7056 180.547 80.328 180.196 79.9833 179.816C79.5654 179.405 79.1266 179.015 78.7714 178.687C78.1445 178.687 78.1236 179.18 77.9564 179.467C77.7893 179.755 77.3923 180.186 76.8699 180.021C76.3475 179.857 75.7415 179.221 75.8042 178.748C75.8668 178.276 76.0967 177.455 76.2848 176.695C75.5952 176.202 74.8638 175.71 74.1952 175.155C73.9862 174.991 73.7564 174.56 73.8399 174.416C73.9235 174.272 74.3623 173.78 74.634 173.78C75.3028 173.832 75.9664 173.935 76.6191 174.088C76.7851 174.127 76.9575 174.134 77.1264 174.108C77.2952 174.082 77.4571 174.024 77.6027 173.936C77.7484 173.848 77.875 173.733 77.9751 173.597C78.0753 173.461 78.147 173.306 78.1863 173.143C78.4162 172.609 78.646 172.075 78.8968 171.562C78.8968 171.562 79.1475 171.418 79.2938 171.357C79.9834 171.5 80.1505 172.055 80.3386 172.63C80.9028 174.211 81.0699 174.293 82.7625 174.19C83.1281 174.118 83.5045 174.118 83.87 174.19C83.9974 174.238 84.1112 174.315 84.2021 174.415C84.2929 174.515 84.3582 174.635 84.3924 174.765C84.3852 174.904 84.3456 175.039 84.2768 175.16C84.2079 175.281 84.1116 175.385 83.9954 175.463C83.6192 175.648 83.1177 175.669 82.7207 175.833C82.2941 176.053 81.8823 176.3 81.4879 176.572Z" fill="#F7F5E9"/>
<path d="M43.6662 128.69C44.9408 128.464 45.7558 127.335 47.1349 128.197L45.6722 131.216C45.9963 131.553 46.29 131.917 46.5498 132.304C46.8565 132.801 47.102 133.331 47.2812 133.885C47.5319 134.686 46.9677 135.158 46.1319 134.87C45.6297 134.708 45.1519 134.48 44.711 134.193C44.2836 133.893 43.8786 133.564 43.499 133.207C42.3079 134.09 42.3497 135.774 40.9079 136.061C40.0303 135.219 40.5109 134.193 40.3646 133.166L38.1705 132.345C37.9198 131.832 38.1705 131.585 38.5258 131.38C38.7595 131.192 39.0296 131.052 39.3198 130.969C39.5621 130.926 39.792 130.832 39.9939 130.693C40.1959 130.555 40.3651 130.375 40.49 130.167C40.6149 129.958 40.6927 129.726 40.7179 129.485C40.7431 129.245 40.7153 129.001 40.6363 128.772C40.5109 128.136 40.3228 127.356 41.0542 126.986C41.7855 126.616 42.3706 127.356 42.8721 127.869L43.6662 128.69Z" fill="#F7F5E9"/>
<path d="M97.118 5.0023C96.8464 4.50952 96.5538 4.03728 96.324 3.60609C96.4703 3.3597 96.5121 3.13385 96.6583 3.07225C97.4942 2.6616 98.3927 2.29201 98.7479 1.26539C98.8127 0.994551 98.9109 0.732524 99.0405 0.485151C99.1182 0.338849 99.2353 0.216279 99.379 0.130749C99.5227 0.0452197 99.6874 0 99.8554 0C100.023 0 100.188 0.0452197 100.332 0.130749C100.476 0.216279 100.593 0.338849 100.67 0.485151C101.067 1.22432 101.402 2.00456 101.778 2.82586C102.354 2.88144 102.926 2.97057 103.491 3.09278C104.16 3.23651 104.285 3.85248 103.763 4.34526C103.406 4.6648 103.021 4.95334 102.614 5.20763C102.614 5.92627 102.802 6.56277 102.802 7.26088C102.787 7.44715 102.723 7.62634 102.615 7.78053C102.508 7.93473 102.361 8.05854 102.19 8.1396C102.019 8.22065 101.829 8.25611 101.639 8.24243C101.449 8.22875 101.267 8.16642 101.109 8.06165C100.678 7.66834 100.286 7.23516 99.939 6.7681C99.3375 7.00806 98.715 7.19362 98.0793 7.32248C96.9718 7.48674 96.5121 6.74757 96.9509 5.57721C97.0136 5.35136 97.0553 5.16656 97.118 5.0023Z" fill="#F7F5E9"/>
<path d="M140.749 119.245C139.873 118.676 139.235 117.816 138.952 116.822C135.274 108.815 131.638 100.91 127.919 92.943C124.847 86.3521 121.65 79.7817 118.662 73.1497C114.065 63.0888 109.551 52.9868 105.017 42.8848C104.641 42.0224 104.39 41.0779 104.097 40.1745C104.097 40.0718 104.097 39.846 104.285 39.8254C104.473 39.8049 104.787 39.8254 104.87 39.8254C105.23 40.3819 105.558 40.9577 105.853 41.5502C109.029 48.2643 112.289 54.9579 115.381 61.7131C122.528 77.3178 129.646 92.9362 136.737 108.568L140.226 116.268C140.482 116.807 140.698 117.362 140.874 117.931C140.901 118.373 140.859 118.816 140.749 119.245Z" fill="#F7F5E9"/>
<path d="M73.1295 110.868C72.7533 110.519 72.5026 110.375 72.4817 110.231C72.4845 109.863 72.5408 109.496 72.6489 109.143C73.2131 107.377 73.7773 105.612 74.3623 103.866C75.3444 100.971 76.3475 98.0967 77.3087 95.2222C79.2729 89.3088 81.2301 83.3954 83.1804 77.4821C83.9536 75.1619 84.7058 72.8212 85.4999 70.501L91.9358 51.529C93.0015 48.4286 94.0254 45.3692 95.1956 42.2893C95.3021 41.9352 95.4567 41.5968 95.6553 41.2833C95.8016 41.0985 96.1359 41.0574 96.4912 40.8931C96.5292 41.1519 96.5292 41.4146 96.4912 41.6734C95.5091 44.8764 94.5478 48.059 93.503 51.2415C92.4582 54.4241 91.2045 58.1199 90.0343 61.5078C88.7388 65.3884 87.485 69.2691 86.1686 73.1292C84.8521 76.9893 83.5775 80.603 82.3655 84.3194C81.1535 88.0358 79.8371 91.9164 78.5415 95.7149C76.9813 100.342 75.4002 104.893 73.7981 109.369C73.6519 109.78 73.4429 110.17 73.1295 110.868Z" fill="#F7F5E9"/>
<path d="M85.479 176.367C85.8422 175.786 86.3836 175.333 87.0253 175.073C89.5328 173.738 91.9985 172.383 94.5269 171.09C98.8733 168.852 103.22 166.614 107.587 164.437C109.029 163.719 110.533 163.164 112.017 162.569C112.245 162.457 112.494 162.394 112.748 162.384C112.894 162.384 113.041 162.589 113.145 162.733C113.176 162.786 113.193 162.846 113.193 162.908C113.193 162.969 113.176 163.029 113.145 163.082C112.989 163.284 112.798 163.458 112.581 163.595C111.369 164.335 110.199 165.135 108.924 165.649C102.655 168.831 96.1359 171.952 89.7209 175.094C88.7388 175.586 87.7566 176.059 86.7536 176.469C86.3566 176.716 85.8969 176.983 85.479 176.367Z" fill="#F7F5E9"/>
<path d="M22.4568 185.812C22.7493 185.298 22.8329 184.99 22.9792 184.908C23.3154 184.707 23.6727 184.542 24.0449 184.415C29.0181 182.793 33.9704 180.986 38.9855 179.631C39.2595 179.561 39.5473 179.561 39.8213 179.631C39.9676 179.631 40.1765 179.96 40.1974 180.165C40.1752 180.41 40.0725 180.64 39.9049 180.822C39.7626 180.962 39.5803 181.055 39.3825 181.089C36.8541 181.931 34.3466 182.814 31.7973 183.615C29.248 184.415 26.8867 185.031 24.4419 185.791C23.7884 185.93 23.1131 185.937 22.4568 185.812Z" fill="#F7F5E9"/>
<path d="M52.2335 176.572C55.8067 176.572 59.2546 176.572 62.6815 176.572C65.2308 176.572 67.7801 176.572 70.3085 176.695C71.1342 176.736 71.9572 176.818 72.7742 176.942C73.1922 176.942 73.5056 177.229 73.5056 177.64C73.5084 177.734 73.4922 177.828 73.458 177.916C73.4238 178.005 73.3722 178.085 73.3063 178.154C73.2403 178.223 73.1612 178.278 73.0735 178.316C72.9858 178.355 72.8912 178.376 72.7951 178.379C71.7503 178.379 70.7055 178.543 69.6399 178.543C64.0815 178.543 58.5441 178.543 52.9231 178.132C52.6932 178.132 52.4634 178.132 52.2544 178.132C51.6693 178.132 51.2305 177.66 51.4186 177.332C51.6393 177.03 51.9157 176.773 52.2335 176.572Z" fill="#F7F5E9"/>
<path d="M38.4631 134.747C38.4631 134.932 38.4631 135.076 38.4631 135.158C38.2187 135.59 37.9392 136.002 37.6272 136.39C34.7227 139.778 31.8182 143.186 28.8927 146.656C28.6571 146.944 28.383 147.2 28.0778 147.416C27.9698 147.465 27.8521 147.491 27.733 147.491C27.6139 147.491 27.4962 147.465 27.3882 147.416C27.3212 147.329 27.2751 147.229 27.2534 147.122C27.2317 147.015 27.2349 146.905 27.2628 146.8C27.3919 146.45 27.5908 146.129 27.8479 145.855L37.4392 135.158C37.6008 134.976 37.8105 134.841 38.0452 134.768C38.1496 134.562 38.3377 134.706 38.4631 134.747Z" fill="#F7F5E9"/>
<path d="M64.7711 123.352C63.1412 124.214 61.9919 124.871 60.8218 125.405C57.8336 126.863 54.8246 128.321 51.8156 129.737C50.9469 130.123 50.0534 130.452 49.1409 130.723C49.0207 130.732 48.9004 130.708 48.7933 130.654C48.6863 130.599 48.5968 130.517 48.5349 130.415C48.451 130.256 48.4324 130.072 48.483 129.9C48.5336 129.728 48.6494 129.581 48.8066 129.491C49.4824 129.097 50.18 128.741 50.8962 128.423L62.6815 123.187C63.05 123.006 63.4447 122.882 63.8517 122.818C64.0397 122.859 64.2278 123.064 64.7711 123.352Z" fill="#F7F5E9"/>
<path d="M14.6208 174.19C14.4118 174.005 14.182 173.903 14.182 173.78C14.1917 173.39 14.255 173.003 14.37 172.63C14.8715 171.192 15.4148 169.755 15.9581 168.318C16.7731 166.265 17.6089 164.068 18.4447 161.953C18.6688 161.437 18.9271 160.936 19.2179 160.454C19.2728 160.396 19.3418 160.352 19.4186 160.327C19.4953 160.302 19.5772 160.296 19.6567 160.31C19.7313 160.343 19.7957 160.394 19.8435 160.459C19.8912 160.524 19.9205 160.6 19.9284 160.68C19.8871 161.071 19.8031 161.456 19.6776 161.83C18.8 164.252 17.797 166.84 16.8567 169.345C16.3343 170.741 15.8119 172.116 15.2477 173.451C15.1432 173.759 14.8297 173.944 14.6208 174.19Z" fill="#F7F5E9"/>
<path d="M143.8 134.788C144.14 135.008 144.449 135.27 144.719 135.569C144.889 135.897 145.002 136.251 145.053 136.616C145.764 139.408 146.516 142.18 147.143 144.993C147.348 146.002 147.481 147.025 147.54 148.052C147.525 148.188 147.475 148.318 147.394 148.429C147.314 148.541 147.206 148.63 147.08 148.689C146.939 148.706 146.796 148.691 146.662 148.645C146.528 148.598 146.406 148.522 146.307 148.422C146.083 148.122 145.927 147.779 145.847 147.416C145.597 146.492 145.409 145.547 145.2 144.623C144.74 142.57 144.301 140.517 143.862 138.34C143.674 137.458 143.528 136.595 143.423 135.712C143.444 135.507 143.632 135.199 143.8 134.788Z" fill="#F7F5E9"/>
<path d="M135.943 163.493L126.79 162.487C126.571 162.453 126.364 162.368 126.184 162.24C126.088 162.131 126.029 161.994 126.017 161.85C126.047 161.71 126.129 161.585 126.247 161.501C126.436 161.384 126.651 161.314 126.874 161.296C128.232 161.296 129.59 161.296 130.928 161.296C132.871 161.296 134.814 161.522 136.758 161.686C137.348 161.754 137.925 161.906 138.471 162.138C138.582 162.221 138.671 162.331 138.729 162.456C138.788 162.581 138.814 162.719 138.805 162.856C138.748 162.986 138.662 163.101 138.554 163.193C138.445 163.285 138.317 163.353 138.179 163.39C137.447 163.39 136.695 163.39 135.943 163.39V163.493Z" fill="#F7F5E9"/>
<path d="M100.524 22.9682C100.169 22.7835 99.8763 22.7424 99.6882 22.4755C99.5329 22.1483 99.4612 21.7889 99.4793 21.4283C99.4793 17.8762 99.4793 14.3241 99.4793 10.7719C99.4793 10.4229 99.8136 9.80691 100.002 9.78638C100.19 9.76585 100.503 10.2586 100.608 10.6487C100.708 11.1419 100.743 11.6457 100.712 12.1476C100.712 15.0632 100.712 17.9788 100.712 20.915C100.712 21.5104 100.608 22.1264 100.524 22.9682Z" fill="#F7F5E9"/>
</svg>
