<svg width="192" height="210" viewBox="0 0 192 210" fill="none" xmlns="http://www.w3.org/2000/svg">
<path d="M87.7031 7.31684C88.7574 4.73053 87.8496 2.05579 90.0752 0C92.6522 0.552632 92.7401 2.21053 93.5308 3.44842C94.3214 4.68632 95.1121 6.10105 95.8442 7.40526C98.3041 7.67053 100.178 6.52105 102.258 6.38842C102.46 6.43907 102.644 6.52305 102.798 6.63427C102.952 6.74548 103.071 6.88114 103.147 7.03141C103.222 7.18168 103.253 7.34278 103.236 7.50303C103.219 7.66328 103.155 7.81866 103.048 7.95789C102.55 8.90842 101.994 9.83684 101.438 10.8758L107.295 14.5674C106.592 15.1642 106.182 15.7168 105.537 15.9821C104.285 16.5142 102.994 16.9939 101.672 17.4189C101.49 17.7268 101.413 18.0642 101.449 18.4003C101.485 18.7363 101.632 19.0602 101.877 19.3421C102.287 20.2263 102.726 21.0884 103.048 21.9947C103.237 22.3348 103.282 22.7104 103.177 23.0705C103.072 23.4305 102.823 23.7573 102.463 24.0063C102.068 24.2156 101.598 24.3279 101.115 24.3279C100.633 24.3279 100.163 24.2156 99.7684 24.0063C98.9484 23.6747 98.3334 23.0116 96.9863 23.1663C96.4272 24.2521 96.0151 25.3779 95.7564 26.5263C95.5742 27.0112 95.2979 27.473 94.9364 27.8968C94.7926 28.0475 94.6035 28.1702 94.3845 28.2548C94.1656 28.3394 93.9231 28.3835 93.6772 28.3835C93.4312 28.3835 93.1888 28.3394 92.9698 28.2548C92.7509 28.1702 92.5617 28.0475 92.4179 27.8968C91.8235 27.3323 91.3036 26.7252 90.8659 26.0842C89.8409 24.6253 88.9038 23.1221 87.9374 21.42L86.1218 22.7021C85.6198 23.1936 85.0048 23.6129 84.3061 23.94C83.5601 24.1501 82.7387 24.1501 81.9926 23.94C81.6094 23.8172 81.3023 23.5891 81.1337 23.3017C80.9651 23.0143 80.9477 22.6894 81.0848 22.3926C81.3484 21.3758 81.6998 20.3811 81.9926 19.3642C81.9926 18.8558 82.1976 18.3474 82.3148 17.7063L79.6499 16.8884C79.0147 16.7183 78.3979 16.5114 77.805 16.2695C77.5949 16.1744 77.4183 16.0425 77.2902 15.885C77.1621 15.7275 77.0862 15.5489 77.0689 15.3645C77.0517 15.1801 77.0936 14.9953 77.1912 14.8258C77.2887 14.6562 77.439 14.5069 77.6292 14.3905C78.7421 13.7937 79.972 13.3295 81.1434 12.7989L83.2519 11.7379C82.6076 10.7874 81.9634 9.99158 81.4948 9.15158C81.1606 8.59211 80.9528 7.99439 80.8798 7.38316C80.881 7.2014 80.9343 7.02198 81.036 6.85723C81.1377 6.69248 81.2855 6.54629 81.4691 6.42869C81.6527 6.3111 81.8678 6.22488 82.0997 6.17595C82.3316 6.12703 82.5748 6.11656 82.8126 6.14526C84.2476 6.63158 85.7996 6.94105 87.7031 7.31684Z" fill="#F7F5E9"/>
<path d="M144.339 155.754C143.315 157.102 142.524 158.274 141.411 159.379C141.206 159.622 140.474 159.711 140.005 159.688C139.537 159.666 139.39 159.268 139.332 159.025C139.332 158.296 139.332 157.566 139.332 156.815C139.332 156.063 139.332 154.98 139.127 153.853L135.818 153.676C135.115 153.676 134.441 153.676 133.768 153.676C133.529 153.652 133.302 153.581 133.11 153.472C132.917 153.363 132.765 153.218 132.668 153.052C132.571 152.885 132.533 152.703 132.556 152.522C132.579 152.341 132.664 152.167 132.801 152.018C133.387 151.443 134.09 150.935 134.734 150.404L136.286 149.1L132.011 144.679C132.157 143.839 132.831 143.684 133.533 143.773C135.496 144.082 137.458 144.458 139.39 144.812C139.859 142.734 138.073 140.943 138.57 138.998C141.938 138.512 141.499 141.208 143.754 141.938C146.126 140.236 147.297 137.649 149.786 135.969C150.355 136.056 150.867 136.288 151.235 136.626C151.603 136.965 151.805 137.388 151.807 137.826C151.84 138.86 151.772 139.895 151.602 140.921C151.602 141.739 151.338 142.535 151.163 143.507C151.991 143.673 152.832 143.799 153.681 143.883C154.911 143.883 156.17 143.883 157.371 143.883C157.694 143.925 158 144.02 158.268 144.161C158.536 144.303 158.76 144.487 158.923 144.701C158.983 144.945 158.961 145.196 158.858 145.432C158.756 145.667 158.577 145.88 158.337 146.049C156.698 147 154.94 147.796 153.154 148.702C152.92 149.52 153.857 149.918 154.53 150.404C155.204 150.891 156.727 151.311 157.049 152.416C154.97 153.985 152.188 152.593 149.728 153.455C149.728 154.007 149.962 154.582 150.109 155.157C150.368 155.744 150.583 156.342 150.753 156.947C150.762 157.129 150.713 157.309 150.608 157.472C150.504 157.635 150.348 157.777 150.154 157.884C149.96 157.991 149.734 158.06 149.497 158.086C149.259 158.111 149.017 158.092 148.791 158.031C148.056 157.743 147.342 157.426 146.653 157.08C146.067 156.748 145.335 156.328 144.339 155.754Z" fill="#F7F5E9"/>
<path d="M183.142 67.8411L180.213 65.4316C178.427 66.2937 178.017 68.1505 175.85 68.7032C174.503 68.0621 175 67.0674 175.088 66.2053C175.176 65.3432 176.055 64.4589 175.088 63.3316C173.888 63.3316 172.54 63.3316 171.223 63.1105C171.014 63.1007 170.812 63.05 170.638 62.9633C170.463 62.8767 170.321 62.7571 170.227 62.6164C170.132 62.4757 170.088 62.3188 170.098 62.1613C170.108 62.0037 170.173 61.8508 170.286 61.7179C170.871 60.9221 171.574 60.1926 172.189 59.5074C170.578 58.0042 167.562 58.1811 166.039 56.2358L173.419 54.9979C173.419 54.1579 173.419 53.3621 173.653 52.5663C173.653 52.5663 173.829 52.4337 174.093 52.2789L176.787 52.7211L177.343 48.4547C178.222 48.0789 178.544 48.4547 178.837 48.7642C179.657 49.8253 180.447 50.9747 181.326 52.0579C182.38 51.24 183.259 50.5105 184.254 49.8474C184.694 49.5379 185.836 50.0021 185.806 50.4663C185.806 51.3947 185.484 52.3011 185.25 53.4284C186.036 53.5178 186.836 53.5178 187.622 53.4284C188.278 53.1956 188.991 53.0657 189.716 53.0467C190.44 53.0277 191.163 53.12 191.839 53.3179C191.63 53.8657 191.336 54.3926 190.96 54.8874C189.936 55.8379 188.764 56.6779 187.505 57.6726C189.028 58.2474 190.287 58.6674 191.458 59.1979C191.656 59.3279 191.807 59.493 191.899 59.6782C191.991 59.8634 192.021 60.063 191.985 60.2589C191.884 60.4351 191.727 60.5897 191.528 60.7092C191.329 60.8287 191.094 60.9094 190.843 60.9442C189.701 61.121 188.501 61.1211 186.948 61.2316C188.032 62.5137 188.911 63.4421 189.877 64.5695C190.375 65.2326 190.346 65.2326 189.408 66.5368L184.489 65.2989L183.142 67.8411Z" fill="#F7F5E9"/>
<path d="M50.336 85.1937C50.6523 85.9129 50.8778 86.653 51.0096 87.4042C50.9707 87.6473 50.8678 87.8821 50.7068 88.0947C50.5459 88.3073 50.3302 88.4934 50.0725 88.6421C49.8089 88.7747 49.0182 88.5316 48.6083 88.3326C48.1963 88.0427 47.8325 87.7161 47.5247 87.36L45.3577 88.6642C43.6006 87.5147 43.6006 87.5147 43.5127 84.9063C42.8099 84.0442 40.5843 84.4642 40.5843 82.8726L44.3034 81.7895C45.5334 80.9274 45.387 79.2916 47.2319 78.4516L48.8132 81.0821C53.1474 82.2537 53.1766 82.32 50.336 85.1937Z" fill="#F7F5E9"/>
<path d="M90.6023 203.545L87.8788 205.38C88.1131 206.22 88.406 207.016 88.5524 207.812C88.6988 208.607 87.9667 209.072 86.7367 208.851C86.2253 208.74 85.726 208.599 85.2432 208.431L82.754 210C80.0013 209.425 81.407 208.055 81.5534 206.817C80.5315 206.36 79.553 205.851 78.6249 205.292C78.3028 205.093 77.9807 204.429 78.1564 204.253C78.5426 203.871 79.1093 203.618 79.7377 203.545C80.4043 203.551 81.066 203.633 81.6998 203.788C83.1347 203.037 82.3148 201.224 84.6283 200.738C84.9797 201.025 85.4775 201.357 85.8582 201.733C86.1795 202.068 86.4636 202.423 86.7075 202.794C87.9667 203.015 89.6359 201.777 90.6023 203.545Z" fill="#F7F5E9"/>
<path d="M75.55 64.8347L72.2995 66.0284C72.2995 66.8905 72.2995 67.7084 72.0359 68.5042C71.7723 69.3 71.0109 69.6095 69.8981 69.1453C69.4589 68.9463 69.0782 68.6589 68.6389 68.4158L65.7104 69.4105C63.2505 68.2832 65.0955 67.2 65.7104 66.0947C64.9168 65.4483 64.1829 64.7614 63.5141 64.0389C63.2505 63.7516 63.192 63.0663 63.5141 62.9337C64.0312 62.6533 64.6676 62.5273 65.3005 62.58C65.9373 62.7206 66.5403 62.937 67.0868 63.2211C68.756 62.8011 68.6096 60.9 70.8938 60.8779C71.218 61.2737 71.5019 61.6875 71.7431 62.1158C71.9241 62.4967 72.0613 62.8887 72.153 63.2874C73.3244 63.7737 75.2865 62.9337 75.55 64.8347Z" fill="#F7F5E9"/>
<path d="M8.57627 74.9368C8.8984 77.5674 8.8984 77.5674 7.14132 78.8937L5.32568 77.3684C5.06212 77.3684 4.68142 77.1916 4.535 77.3684C3.59789 77.8989 2.45579 78.341 1.60654 77.3684C1.22584 76.9263 1.60654 76.0421 1.8701 75.0474C1.63583 74.8705 1.05013 74.4505 0.523012 73.9863C-0.414094 73.1684 -0.0626789 72.461 1.34298 72.2179C1.75246 72.1962 2.16345 72.1962 2.57293 72.2179H3.42218L6.67277 69.6758C8.45913 70.14 7.40488 71.2453 8.40056 72.1074C8.60555 72.1074 9.24981 72.2179 9.86479 72.3726C10.0663 72.4056 10.2523 72.4792 10.4029 72.5855C10.5536 72.6919 10.6632 72.8271 10.7203 72.9767C10.7773 73.1263 10.7797 73.2847 10.727 73.4353C10.6743 73.5858 10.5687 73.7227 10.4212 73.8316C9.98192 74.0968 9.30838 74.4505 8.57627 74.9368Z" fill="#F7F5E9"/>
<path d="M89.2845 175.228C89.7346 175.949 90.1354 176.687 90.4852 177.439C90.5442 177.626 90.5402 177.821 90.4737 178.006C90.4072 178.191 90.2803 178.361 90.1045 178.5C89.8985 178.618 89.6584 178.697 89.404 178.732C89.1495 178.767 88.8878 178.755 88.6402 178.699C87.8138 178.363 87.0297 177.971 86.2975 177.527C86.0632 177.682 85.7703 177.771 85.7118 177.925C85.4775 178.611 85.4189 179.495 84.0718 179.296C82.7248 179.097 83.164 178.345 83.1055 177.748C83.0469 177.152 83.1055 176.533 83.1055 175.825L80.7627 174.831C80.5577 173.46 82.3733 173.902 83.1055 173.106L84.3354 170.542C86.3268 170.542 86.356 172.001 87.6153 172.443L90.2216 172.664C91.188 173.924 89.0795 173.968 89.2845 175.228Z" fill="#F7F5E9"/>
<path d="M100.003 28.56C101.994 28.56 102.521 29.1126 102.931 29.7537C103.488 31.0358 103.927 32.34 104.366 33.6663C113.415 59.5516 125.802 93.8147 133.651 119.877C134.471 122.507 135.232 125.138 136.023 127.768C136.023 128.166 136.403 128.542 136.491 128.918C137.018 131.261 136.286 133.472 135.144 133.206C132.772 132.632 132.538 130.996 132.04 129.625C130.254 124.784 128.555 119.943 127.003 115.08C121.908 99.061 116.861 83.0347 111.863 67.001C109.257 58.601 103.078 41.8453 100.383 33.4232C99.9453 31.8246 99.8171 30.1864 100.003 28.56Z" fill="#F7F5E9"/>
<path d="M156.551 131.88C155.965 131.283 155.263 130.885 155.175 130.443C155.128 129.746 155.258 129.048 155.555 128.387C157.898 122.264 160.182 116.119 162.672 110.04C167.035 99.4737 171.369 89.0842 175.82 78.6063C176.728 76.3958 177.753 74.1853 178.749 71.9747C179.056 71.3348 179.448 70.7201 179.92 70.14C180.038 70.024 180.196 69.9354 180.378 69.8845C180.559 69.8337 180.756 69.8226 180.945 69.8526C181.158 69.94 181.337 70.0673 181.465 70.2222C181.593 70.3771 181.666 70.5544 181.677 70.7368C181.611 71.6693 181.425 72.5948 181.121 73.5C179.627 77.7663 178.192 82.0547 176.465 86.2547C171.525 98.6779 166.537 111.079 161.5 123.458C160.563 125.668 159.45 128.056 158.337 130.311C157.854 130.901 157.252 131.431 156.551 131.88Z" fill="#F7F5E9"/>
<path d="M109.198 20.6021C109.925 20.4257 110.699 20.3879 111.45 20.492C112.201 20.5961 112.906 20.839 113.503 21.1989C119.887 24.0726 126.359 26.8579 132.684 29.7758C142.309 34.1968 151.905 38.6989 161.471 43.2821C163.462 44.2326 165.366 45.3158 167.328 46.3989C167.879 46.7646 168.345 47.1981 168.704 47.6811C169.056 48.0789 168.265 48.9411 167.621 48.8526C166.752 48.7507 165.911 48.5416 165.131 48.2337C159.743 45.8684 154.296 43.5695 149.025 41.0495C137.106 35.3242 125.275 29.4884 113.444 23.6968C112.328 23.145 111.253 22.5472 110.223 21.9063C109.802 21.51 109.457 21.071 109.198 20.6021Z" fill="#F7F5E9"/>
<path d="M73.0316 58.9989C71.8309 58.9989 71.2452 58.5789 71.4209 57.8274C71.6332 56.9103 71.9467 56.0082 72.358 55.1305C76.2626 46.3768 80.2356 37.6305 84.2768 28.8916C84.7276 28.0148 85.2459 27.1586 85.8289 26.3274L87.176 26.6589C87.2486 26.9586 87.2486 27.2656 87.176 27.5653C82.92 37.4537 78.6444 47.3274 74.3494 57.1863C73.9801 57.8181 73.5392 58.4245 73.0316 58.9989Z" fill="#F7F5E9"/>
<path d="M96.7521 172.001C95.4928 170.675 95.4343 170.387 96.1957 169.945C97.0663 169.441 97.9757 168.976 98.9191 168.553C107.802 164.751 116.675 160.963 125.539 157.191C126.248 156.869 127.019 156.63 127.823 156.483C128.262 156.483 128.76 156.638 129.639 156.793C129.295 157.306 128.862 157.782 128.35 158.207C126.915 158.981 125.422 159.733 123.87 160.418C116.607 163.601 109.335 166.777 102.053 169.945C100.413 170.653 98.6556 171.272 96.7521 172.001Z" fill="#F7F5E9"/>
<path d="M13.2032 76.6389C13.6954 76.6654 14.1846 76.7171 14.6675 76.7937C21.9105 78.2674 29.1438 79.8368 36.3673 81.5021C36.9875 81.69 37.5468 81.9765 38.0072 82.3421C38.1537 82.3421 38.1537 82.74 38.0072 82.8947C37.9721 82.9887 37.909 83.0755 37.8227 83.1482C37.7365 83.221 37.6293 83.278 37.5094 83.3147C37.1158 83.3925 36.7023 83.3925 36.3087 83.3147C28.8997 81.8558 21.4908 80.3526 14.111 78.8937C13.3058 78.7169 12.5371 78.4565 11.8269 78.12C11.6857 78.0275 11.5752 77.9113 11.504 77.7808C11.4328 77.6504 11.403 77.5091 11.4169 77.3684C11.4169 77.1253 11.9147 76.9263 12.2368 76.7716C12.559 76.6168 12.764 76.6832 13.2032 76.6389Z" fill="#F7F5E9"/>
<path d="M84.3061 197.931C84.3061 197.223 84.0719 196.626 84.0719 196.007C84.0719 193.333 84.0719 190.636 84.2476 187.961C84.2476 186.016 84.6868 184.071 84.9211 182.125C84.9211 181.551 85.3604 181.042 86.0925 181.086C86.8246 181.131 87.176 181.661 87.176 182.236C87.176 184.446 87.176 186.789 87.176 189.044C87.0003 191.631 86.6489 194.195 86.356 196.759C86.1803 197.4 85.8289 197.931 84.3061 197.931Z" fill="#F7F5E9"/>
<path d="M54.0845 80.7284C53.5976 80.3902 53.1739 80.0035 52.8252 79.5789C52.7968 79.4297 52.8108 79.2776 52.8663 79.1327C52.9219 78.9879 53.0177 78.8536 53.1474 78.7389C55.4608 76.5284 57.8036 74.0968 60.1464 71.82C60.5147 71.5167 60.9638 71.2756 61.4642 71.1126C61.588 71.0691 61.7229 71.0466 61.8595 71.0466C61.9961 71.0466 62.131 71.0691 62.2548 71.1126C62.5516 71.3094 62.7569 71.5728 62.8405 71.8642C62.886 72.1659 62.793 72.4702 62.577 72.7263C60.4099 74.9811 58.155 77.3684 55.7537 79.5789C55.2507 80.0041 54.6914 80.3892 54.0845 80.7284Z" fill="#F7F5E9"/>
</svg>
