<svg width="222" height="210" viewBox="0 0 222 210" fill="none" xmlns="http://www.w3.org/2000/svg">
<path d="M12.4223 165.855C11.7681 167.546 11.3008 169.156 10.8102 170.765C10.5298 171.638 10.413 172.866 9.3616 172.757C8.31021 172.647 8.28684 171.447 8.07656 170.52C7.87434 169.622 7.7183 168.711 7.60928 167.792C7.44987 166.598 7.15932 165.434 6.7448 164.327C6.32335 164.67 5.87785 164.971 5.41303 165.227C5.15603 165.227 4.68874 165.391 4.54856 165.227C4.2671 164.909 4.09298 164.483 4.05791 164.027C4.05791 163.672 4.22146 163.318 4.31491 162.936C4.40837 162.554 4.59529 161.463 4.73547 160.671L1.72148 159.117C1.26734 158.881 0.836476 158.588 0.436442 158.244C0.301347 158.13 0.191328 157.98 0.115449 157.807C0.0395694 157.634 0 157.442 0 157.248C0 157.053 0.0395694 156.862 0.115449 156.689C0.191328 156.515 0.301347 156.366 0.436442 156.252C0.895847 155.849 1.38902 155.502 1.90839 155.215L4.71211 153.579C4.62349 152.474 4.24857 151.427 3.63735 150.578C3.49716 150.305 3.4738 149.705 3.63735 149.541C3.77446 149.392 3.93688 149.279 4.11401 149.209C4.29115 149.138 4.47902 149.112 4.66538 149.132C5.38706 149.395 6.09011 149.724 6.76816 150.114L8.77749 145.013C9.15132 144.058 9.52515 143.103 9.96907 142.285C10.0416 142.166 10.1359 142.068 10.245 141.997C10.3541 141.926 10.4753 141.885 10.5999 141.875C10.7157 141.904 10.8245 141.963 10.9177 142.048C11.0108 142.133 11.086 142.242 11.1373 142.366C11.441 143.567 11.698 144.767 11.9317 145.967C12.2821 147.932 12.6092 149.896 13.0064 152.133C13.5204 151.778 13.8475 151.587 14.1746 151.314C14.5367 150.937 14.9278 150.599 15.3429 150.305C15.481 150.226 15.6328 150.184 15.7868 150.184C15.9407 150.184 16.0926 150.226 16.2307 150.305C16.357 150.421 16.4572 150.57 16.5224 150.742C16.5875 150.913 16.6157 151.1 16.6045 151.287C16.5284 151.752 16.3778 152.197 16.1606 152.597C15.9036 153.279 15.5999 153.961 15.2494 154.724C15.6232 154.97 15.8802 155.188 16.1606 155.352C16.441 155.516 17.0952 155.706 17.5625 155.925C19.2681 156.77 19.455 158.353 18.0298 159.635C17.5625 160.044 17.0718 160.371 16.5812 160.753L15.3662 161.681C15.2385 162.649 15.3025 163.638 15.5531 164.573C15.6721 165.033 15.735 165.51 15.7401 165.991C15.7419 166.208 15.6965 166.422 15.6082 166.613C15.5199 166.804 15.3915 166.966 15.2351 167.083C15.0787 167.2 14.8993 167.269 14.7138 167.283C14.5284 167.298 14.3428 167.257 14.1746 167.164C13.885 166.987 13.6111 166.777 13.3569 166.537L12.4223 165.855Z" fill="#F7F5E9"/>
<path d="M116.487 118.66C116.3 117.896 116.16 117.46 116.066 117.023C115.879 116.014 116.23 115.523 117.094 115.659C117.562 115.659 118.029 115.905 118.52 116.041L119.828 113.531C120.045 113.122 120.295 112.738 120.576 112.386C120.688 112.243 120.83 112.135 120.988 112.074C121.145 112.012 121.314 111.999 121.477 112.034C121.641 112.07 121.794 112.153 121.922 112.277C122.051 112.4 122.15 112.56 122.211 112.74C122.585 113.886 122.865 115.086 123.239 116.478C123.85 116.027 124.481 115.617 125.132 115.25C125.271 115.176 125.422 115.138 125.576 115.138C125.729 115.138 125.88 115.176 126.019 115.25C126.132 115.377 126.222 115.53 126.282 115.699C126.342 115.868 126.372 116.049 126.37 116.232C126.23 117.078 125.996 117.896 125.809 118.769L130.178 120.351C129.972 120.817 129.712 121.249 129.407 121.634C128.216 122.67 127.071 123.652 125.692 124.744C125.879 125.48 126.043 126.189 126.23 126.899C126.674 128.59 126.23 129.081 124.758 128.945C124.602 128.926 124.446 128.926 124.291 128.945C124.127 130.363 124.828 132.055 123.426 133.119C122.678 133.119 122.445 132.573 122.164 132C121.827 130.99 121.327 130.064 120.692 129.272C119.781 129.654 120.062 131.454 118.683 131.209L118.052 128.481C116.3 129.463 115.178 131.427 113.193 131.373C113.052 131.373 112.936 131.154 112.655 130.909C113.239 129.327 113.823 127.662 114.384 126.08C113.823 125.016 112.375 126.08 112.048 124.471L113.426 122.97L111.744 120.461C111.529 120.186 111.341 119.884 111.183 119.56C111.131 119.432 111.104 119.293 111.104 119.151C111.104 119.01 111.131 118.87 111.183 118.742C111.283 118.609 111.405 118.502 111.541 118.427C111.678 118.352 111.827 118.31 111.978 118.305C112.889 118.305 113.753 118.633 114.664 118.715C115.272 118.739 115.881 118.72 116.487 118.66Z" fill="#F7F5E9"/>
<path d="M208.122 35.4829C207.884 34.8436 207.682 34.1876 207.514 33.5187C207.304 32.3184 207.911 31.6637 208.893 32.0183C209.874 32.373 211.066 32.8913 212.164 33.3278C213.823 31.9911 212.771 29.2358 214.313 27.8718C215.972 28.9902 216.112 31.2545 217.14 32.864L218.682 32.1275C219.407 32.4275 219.383 33.0277 219.243 33.6006C219.079 34.1871 218.884 34.7611 218.659 35.3192C219.396 35.7617 220.183 36.083 220.995 36.274C222.117 36.7105 222.327 37.6653 221.486 38.6747C221.019 39.2203 220.481 39.6841 219.991 40.1751L218.916 41.1845C218.98 42.2199 219.218 43.2304 219.617 44.158C219.72 44.416 219.742 44.7086 219.678 44.9834C219.614 45.2583 219.468 45.4976 219.266 45.6584C218.898 45.8219 218.49 45.8219 218.122 45.6584C217.656 45.4277 217.204 45.1635 216.766 44.8673C215.715 45.3583 215.505 46.5041 215.154 47.5953C215.154 47.9227 214.71 48.3591 214.523 48.3319C214.331 48.3064 214.145 48.2322 213.98 48.1144C213.815 47.9966 213.673 47.8381 213.566 47.6499C213.187 46.6302 212.867 45.5822 212.608 44.5126C212.484 44.0596 212.398 43.5937 212.351 43.1214C210.832 43.1214 209.734 45.1946 208.168 44.0216C207.958 42.5212 209.173 41.8119 209.477 40.5297L206.79 38.702C206.436 38.4678 206.126 38.1523 205.879 37.7744C205.744 37.5678 205.659 37.3224 205.633 37.0642C205.607 36.8059 205.642 36.5444 205.732 36.307C205.823 36.0696 205.967 35.8653 206.149 35.7155C206.331 35.5656 206.544 35.4759 206.766 35.4556C207.218 35.4392 207.671 35.4483 208.122 35.4829Z" fill="#F7F5E9"/>
<path d="M134.267 66.1731L135.505 62.8995C134.968 62.4084 134.501 62.0538 134.08 61.6173C133.599 61.0962 133.147 60.5404 132.725 59.9532C132.657 59.8324 132.618 59.6919 132.613 59.5472C132.608 59.4024 132.637 59.2588 132.698 59.1322C132.758 59.0055 132.847 58.9006 132.955 58.8289C133.062 58.7572 133.185 58.7215 133.309 58.7256C133.776 58.7256 134.267 58.9166 134.734 59.0257L136.276 59.4622C137.491 58.2346 136.72 56.1067 138.052 55.0155C139.103 56.0794 138.987 57.7435 139.618 58.9438C140.389 59.544 140.996 58.5619 141.697 58.6438C142 58.6855 142.281 58.8495 142.491 59.1075C142.575 59.2412 142.622 59.4014 142.626 59.567C142.631 59.7327 142.592 59.8958 142.515 60.035C141.767 61.0717 140.996 62.0538 140.178 63.1177C140.178 64.1816 140.295 65.3001 140.318 66.4459C140.318 66.6641 140.108 67.0733 139.945 67.1006C139.644 67.1785 139.33 67.1302 139.057 66.9642C138.805 66.7284 138.591 66.442 138.426 66.1185C138.192 65.7366 137.959 65.7366 137.585 65.9003C136.901 66.194 136.198 66.4221 135.482 66.5823C135.155 66.5277 134.828 66.3095 134.267 66.1731Z" fill="#F7F5E9"/>
<path d="M68.3331 201.728C69.9218 199.327 69.9218 199.327 71.0667 199.327V202.765L73.5433 203.938C73.5433 204.893 73.0059 205.22 72.5153 205.547C72.2976 205.65 72.1007 205.804 71.9372 206C71.7737 206.197 71.6471 206.431 71.5657 206.688C71.4843 206.945 71.4498 207.219 71.4645 207.492C71.4791 207.765 71.5426 208.032 71.6508 208.275C71.7183 208.542 71.7183 208.827 71.6508 209.094C71.5494 209.44 71.3624 209.744 71.1134 209.967C71.0013 210.005 70.8828 210.01 70.7685 209.982C70.6543 209.953 70.5479 209.892 70.4592 209.803C69.9686 209.203 69.5013 208.548 68.9405 207.784L66.7677 209.503C66.1135 208.685 66.1135 208.685 67.0948 205.602C66.6681 204.944 66.2704 204.261 65.9032 203.556C65.7067 203.16 65.6403 202.695 65.7163 202.246C65.8798 201.619 66.4406 201.564 66.9546 201.646L68.3331 201.728Z" fill="#F7F5E9"/>
<path d="M196.253 101.555C195.996 101.699 195.731 101.817 195.458 101.91C194.64 102.128 193.776 102.374 193.122 101.392C192.468 100.41 193.122 99.9459 193.449 99.2639C193.465 99.0551 193.465 98.8452 193.449 98.6364C192.865 98.0363 192.234 97.4634 191.673 96.7814C191.62 96.6588 191.592 96.5233 191.592 96.3858C191.592 96.2483 191.62 96.1128 191.673 95.9903C191.673 95.772 192.047 95.4992 192.211 95.5265C192.958 95.5265 193.659 95.772 194.547 95.963L195.855 93.7533C195.998 93.6897 196.15 93.6614 196.302 93.6701C196.454 93.6788 196.603 93.7244 196.739 93.8039C196.875 93.8834 196.996 93.9952 197.093 94.1321C197.19 94.269 197.262 94.4279 197.304 94.599C197.345 95.0812 197.542 95.5271 197.854 95.8462C198.167 96.1653 198.571 96.3339 198.986 96.3176C199.231 96.3626 199.463 96.4748 199.664 96.645C199.736 96.687 199.799 96.7484 199.847 96.8242C199.895 96.8999 199.928 96.9878 199.941 97.0809C199.955 97.1739 199.95 97.2693 199.926 97.3595C199.902 97.4497 199.86 97.532 199.804 97.5998C199.338 98.0691 198.838 98.4891 198.309 98.8547C198.309 99.564 198.612 100.301 198.682 101.01C198.741 101.681 198.741 102.357 198.682 103.029C198.649 103.16 198.589 103.281 198.508 103.38C198.426 103.48 198.326 103.556 198.215 103.601C198.097 103.634 197.975 103.634 197.857 103.6C197.739 103.567 197.63 103.502 197.538 103.41C197.187 102.81 196.743 102.156 196.253 101.555Z" fill="#F7F5E9"/>
<path d="M49.5482 115.005C48.7071 115.005 48.0529 115.523 47.3519 114.759L48.0061 112.658L46.4641 109.93C47.6323 109.112 48.6136 110.312 49.922 109.93C50.7164 109.33 51.3005 107.693 53.0061 107.666L52.5388 110.912C52.9827 111.076 53.4267 111.185 53.8238 111.349C54.221 111.513 54.665 111.785 55.1556 112.031C54.7117 113.477 53.45 113.34 52.6323 114.35C52.3323 115.04 52.2338 115.825 52.3519 116.587C52.3519 116.86 52.0949 117.269 51.8612 117.46C51.7756 117.527 51.6788 117.571 51.5772 117.591C51.4756 117.611 51.3716 117.605 51.2721 117.574C51.1726 117.543 51.0799 117.487 51.0002 117.411C50.9205 117.335 50.8556 117.24 50.8098 117.132C50.3659 116.505 49.9921 115.768 49.5482 115.005Z" fill="#F7F5E9"/>
<path d="M112.328 170.792C111.183 169.51 112.328 168.692 112.328 167.737C112.094 166.728 110.319 166.973 110.809 165.255L113.987 164.954C114.268 164.362 114.588 163.797 114.945 163.263C115.178 162.963 115.646 162.608 115.926 162.69C116.206 162.772 116.417 163.345 116.557 163.754C116.654 164.079 116.709 164.419 116.72 164.763C117.421 165.336 118.543 164.764 118.823 166.318C118.59 166.537 118.309 166.837 118.006 167.082C117.738 167.282 117.457 167.455 117.164 167.601C117.146 167.9 117.146 168.201 117.164 168.501C117.199 169.264 117.199 170.029 117.164 170.792C117.13 170.967 117.058 171.128 116.956 171.262C116.854 171.395 116.725 171.497 116.58 171.556C116.424 171.587 116.264 171.573 116.114 171.516C115.963 171.459 115.827 171.361 115.716 171.229C115.401 170.675 115.128 170.091 114.898 169.483L112.328 170.792Z" fill="#F7F5E9"/>
<path d="M205.038 2.50123L204.033 5.22924C204.033 5.50204 204.36 5.91124 204.524 6.32045C204.687 6.72965 204.827 7.32981 204.524 7.62989C204.157 7.7557 203.768 7.7557 203.402 7.62989C203.049 7.52255 202.711 7.35722 202.397 7.13885C201.813 7.79357 201.253 8.50286 200.645 9.07574C200.506 9.14959 200.354 9.18779 200.201 9.18779C200.048 9.18779 199.897 9.14959 199.757 9.07574C199.626 8.98435 199.512 8.86191 199.424 8.71628C199.335 8.57065 199.274 8.40504 199.243 8.23006C199.258 7.57937 199.32 6.93136 199.43 6.29317L199.196 6.04765C197.981 4.8746 197.981 4.65636 199.196 3.64699L199.71 3.29235C199.71 2.41939 199.71 1.46458 199.71 0.564338C199.761 0.437859 199.835 0.325524 199.926 0.234839C200.017 0.144154 200.124 0.0772085 200.239 0.0384746C200.354 -0.000259232 200.474 -0.00988883 200.593 0.0102293C200.711 0.0303474 200.825 0.07975 200.925 0.155136C201.267 0.553974 201.551 1.01457 201.767 1.51914C201.82 1.75086 201.918 1.9656 202.052 2.14763C202.186 2.32965 202.353 2.47435 202.541 2.57113C202.73 2.66791 202.934 2.71431 203.139 2.70693C203.345 2.69956 203.546 2.63859 203.729 2.52851C204.162 2.45253 204.602 2.44336 205.038 2.50123Z" fill="#F7F5E9"/>
<path d="M33.8474 137.702L32.0717 139.066L31.8848 135.874C31.5018 135.544 31.1352 135.188 30.7867 134.81C30.7007 134.706 30.6372 134.58 30.6017 134.442C30.5662 134.304 30.5596 134.158 30.5825 134.016C30.6054 133.875 30.6571 133.741 30.7333 133.628C30.8095 133.514 30.9079 133.424 31.0203 133.364C31.2451 133.245 31.48 133.153 31.7212 133.091C32.1645 132.984 32.5686 132.719 32.8781 132.333C33.1875 131.948 33.3874 131.46 33.4502 130.936C33.4502 130.691 33.7306 130.5 33.9642 130.2C34.5717 130.718 35.0623 131.427 35.6698 131.618C36.2773 131.809 37.0016 131.482 37.3287 132.655L35.6698 135.028C35.6698 135.737 35.8801 136.474 35.9268 137.211C35.9735 137.947 35.4829 138.547 34.6184 138.165C34.354 138.028 34.0966 137.873 33.8474 137.702Z" fill="#F7F5E9"/>
<path d="M105.132 199.164L105.529 202.328L107.982 203.474C107.679 205.002 106.277 204.783 105.482 205.711C105.478 206.063 105.431 206.412 105.342 206.748C105.342 207.075 105.015 207.484 104.781 207.566C104.64 207.597 104.494 207.594 104.353 207.556C104.212 207.519 104.08 207.448 103.964 207.348C103.705 206.96 103.486 206.539 103.309 206.093L100.973 206.42C100.576 205.22 101.534 204.756 101.651 203.692C101.651 203.529 101.487 203.283 101.394 203.038C101.185 202.543 101.005 202.033 100.856 201.51C100.856 201.292 100.996 200.992 101.113 200.664L103.286 201.237L105.132 199.164Z" fill="#F7F5E9"/>
<path d="M212.608 76.103C212.023 76.6214 211.509 77.1124 210.972 77.5216C210.808 77.658 210.411 77.7126 210.294 77.5216C210.106 77.243 209.978 76.9155 209.921 76.5668C209.904 76.524 209.895 76.4775 209.895 76.4304C209.895 76.3833 209.904 76.3368 209.921 76.294C210.036 76.0989 210.118 75.8792 210.16 75.6473C210.203 75.4154 210.206 75.176 210.169 74.9428C210.132 74.7095 210.056 74.4871 209.945 74.2883C209.834 74.0895 209.691 73.9182 209.523 73.7842C209.523 73.7842 209.523 73.4296 209.407 73.0204C209.704 72.7902 210.026 72.6068 210.365 72.4748C210.646 72.4191 210.907 72.2677 211.114 72.0396C211.322 71.8115 211.468 71.5169 211.533 71.1926C211.636 70.8267 211.795 70.485 212 70.1833C212.077 70.0698 212.174 69.978 212.285 69.9149C212.397 69.8519 212.519 69.8191 212.643 69.8191C212.766 69.8191 212.888 69.8519 213 69.9149C213.111 69.978 213.209 70.0698 213.285 70.1833C213.431 70.4091 213.564 70.6461 213.682 70.8925C213.864 71.3879 214.132 71.8333 214.47 72.1998C214.808 72.5664 215.208 72.8459 215.645 73.0204C215.353 73.5065 215.154 74.06 215.062 74.6436C214.969 75.2272 214.985 75.8272 215.108 76.4031C215.294 77.1942 214.407 77.7126 213.729 77.2488C213.051 76.785 212.981 76.4031 212.608 76.103Z" fill="#F7F5E9"/>
<path d="M35.039 192.071L34.3848 190.598C34.5016 190.352 34.5717 190.079 34.6651 190.052C35.1597 190.042 35.6388 189.849 36.0334 189.501C36.4281 189.153 36.718 188.668 36.8614 188.115C36.9946 187.796 37.1679 187.502 37.3754 187.242C37.7025 187.488 38.123 187.652 38.2632 187.952C38.6364 189.135 39.3793 190.11 40.3427 190.68L38.9875 192.262C39.0943 192.789 39.1415 193.33 39.1277 193.871C39.1132 194.093 39.0601 194.309 38.9717 194.506C38.8834 194.703 38.7615 194.877 38.6137 195.017C38.2399 195.345 37.866 195.017 37.5857 194.608C37.4188 194.372 37.2628 194.126 37.1184 193.871C36.6702 194.149 36.2009 194.377 35.7165 194.553C35.2427 194.611 34.7651 194.611 34.2913 194.553L35.039 192.071Z" fill="#F7F5E9"/>
<path d="M161.814 44.649L163.309 45.2219C163.358 45.3391 163.386 45.467 163.39 45.5975C163.394 45.7279 163.374 45.8579 163.333 45.9789C163.291 46.1 163.227 46.2093 163.147 46.2998C163.066 46.3903 162.97 46.4599 162.865 46.5041C162.688 46.5956 162.54 46.7507 162.443 46.947C162.347 47.1432 162.306 47.3703 162.328 47.5953C162.328 49.0684 161.93 49.2594 160.879 48.5501L160.201 48.0318L159.43 48.6319L158.683 49.0411C158.476 48.7752 158.295 48.4822 158.145 48.1682C158.145 47.9227 157.655 45.4402 157.585 45.1128C157.515 44.7854 157.585 44.9491 157.585 44.649L159.197 44.2126C159.454 43.6124 159.711 42.9304 160.038 42.3029C160.101 42.1845 160.188 42.0868 160.293 42.019C160.397 41.9512 160.514 41.9157 160.634 41.9157C160.753 41.9157 160.87 41.9512 160.975 42.019C161.079 42.0868 161.167 42.1845 161.229 42.3029C161.533 43.1214 161.65 43.8579 161.814 44.649Z" fill="#F7F5E9"/>
<path d="M182.655 50.8962L181.112 49.5049C180.791 49.7415 180.455 49.9511 180.108 50.1324C179.851 50.1324 179.454 50.4052 179.267 50.296C179.08 50.1869 178.823 49.5595 178.916 49.3685C179.687 47.9772 178.776 47.2952 178.052 46.6405C178.285 45.331 179.033 45.9039 179.617 45.9039C180.201 45.9039 180.108 43.967 181.416 43.967C181.701 44.4546 182.013 44.9194 182.351 45.3583C182.806 45.807 183.281 46.226 183.776 46.6132C183.542 47.5953 182.748 48.4955 183.262 49.7231C183.355 49.8868 182.912 50.4052 182.655 50.8962Z" fill="#F7F5E9"/>
<path d="M135.318 69.5558C135.541 69.8825 135.681 70.2753 135.722 70.6899C135.763 71.1045 135.705 71.5243 135.552 71.9019C134.734 74.6299 133.987 77.3579 133.216 80.0859C130.505 88.761 127.764 97.4452 124.991 106.138C124.582 107.413 124.114 108.66 123.59 109.876C123.52 109.965 123.432 110.032 123.333 110.07C123.235 110.108 123.131 110.116 123.029 110.094C122.889 110.094 122.655 109.794 122.678 109.63C122.727 109.008 122.837 108.395 123.006 107.803C124.524 102.592 126.043 97.3815 127.678 92.1983C129.618 85.8966 131.627 79.6222 133.613 73.3205C133.865 72.4901 134.161 71.6792 134.501 70.8925C134.731 70.4137 135.005 69.9655 135.318 69.5558Z" fill="#F7F5E9"/>
<path d="M17.2587 168.637C17.4933 168.708 17.7206 168.809 17.9363 168.937C18.5204 169.456 19.0811 170.029 19.6419 170.574C24.0577 174.939 28.2399 179.549 32.282 184.378C32.6847 184.855 33.0376 185.386 33.3334 185.96C33.3998 186.123 33.424 186.306 33.4029 186.485C33.3817 186.664 33.3163 186.832 33.2145 186.968C33.1128 187.104 32.9791 187.203 32.8301 187.251C32.681 187.3 32.523 187.297 32.3754 187.242C31.9185 187.022 31.4991 186.708 31.1371 186.315C27.5079 182.423 23.8708 178.522 20.226 174.612C19.1512 173.439 18.1466 172.184 17.1185 170.929C16.8241 170.553 16.5656 170.142 16.3475 169.701C16.3475 169.292 16.6279 168.665 17.2587 168.637Z" fill="#F7F5E9"/>
<path d="M75.0853 204.62C75.9792 203.989 77.0082 203.667 78.0526 203.692C82.1414 203.529 86.2301 202.928 90.3656 203.092C91.7441 203.092 93.1226 202.765 94.5244 202.683C95.9263 202.601 96.8609 202.683 98.216 202.683C98.5383 202.685 98.8477 202.832 99.0805 203.092C99.148 203.244 99.1833 203.412 99.1833 203.583C99.1833 203.754 99.148 203.923 99.0805 204.074C98.709 204.426 98.2666 204.661 97.7954 204.756C94.2674 205.056 90.7862 205.356 87.2114 205.547C83.6367 205.738 80.7862 205.711 77.5853 205.766C76.9349 205.784 76.2846 205.72 75.6461 205.575C75.4825 205.52 75.3424 205.084 75.0853 204.62Z" fill="#F7F5E9"/>
<path d="M64.5948 204.238C64.2677 204.429 63.9639 204.756 63.7069 204.702C62.9806 204.544 62.2687 204.307 61.5808 203.992L49.1743 198.373L43.4735 195.645C42.9361 195.372 42.3987 195.154 41.8847 194.826C41.3707 194.499 41.1604 194.335 41.2539 193.735C41.3473 193.135 41.8613 193.026 42.4922 193.299C43.894 193.871 45.2959 194.472 46.6744 195.099L62.2817 202.165C62.9724 202.475 63.6371 202.858 64.2677 203.31C64.4312 203.501 64.4546 203.856 64.5948 204.238Z" fill="#F7F5E9"/>
<path d="M116.557 159.58C116.557 159.417 116.3 159.28 116.3 159.144C116.3 156.17 116.3 153.197 116.3 150.223C116.3 148.777 116.604 147.359 116.604 145.913C116.732 142.656 117.131 139.422 117.795 136.256C117.882 135.79 118.04 135.346 118.263 134.946C118.343 134.846 118.441 134.768 118.55 134.716C118.659 134.664 118.776 134.64 118.893 134.646C119.01 134.689 119.119 134.759 119.211 134.853C119.303 134.947 119.378 135.062 119.431 135.192C119.512 135.559 119.512 135.943 119.431 136.31C119.291 137.838 119.034 139.366 118.917 140.893C118.543 145.176 118.239 149.487 117.889 153.797C117.749 155.406 117.562 157.016 117.375 158.625C117.369 158.877 117.281 159.115 117.129 159.293C116.977 159.471 116.772 159.573 116.557 159.58Z" fill="#F7F5E9"/>
<path d="M106.557 198.073C106.347 197.882 106.043 197.745 105.996 197.554C105.914 197.188 105.914 196.802 105.996 196.436C107.912 189.206 109.851 181.95 111.791 174.612C111.943 174.064 112.155 173.542 112.421 173.057C112.421 172.866 112.936 172.647 113.029 172.729C113.122 172.811 113.613 173.275 113.613 173.548C113.601 174.215 113.507 174.876 113.333 175.512C112.492 178.813 111.627 182.141 110.716 185.415C109.805 188.688 108.8 192.153 107.819 195.535C107.635 196.17 107.416 196.789 107.165 197.391C107.024 197.718 106.767 197.854 106.557 198.073Z" fill="#F7F5E9"/>
<path d="M29.8521 139.147C29.8283 139.419 29.7733 139.685 29.6885 139.939C29.4187 140.398 29.122 140.836 28.8007 141.248L21.7914 149.923C21.2638 150.539 20.7018 151.113 20.1092 151.642C20.0251 151.688 19.9334 151.712 19.8405 151.712C19.7476 151.712 19.6558 151.688 19.5718 151.642C19.509 151.612 19.4529 151.565 19.4078 151.506C19.3627 151.447 19.3299 151.376 19.3119 151.3C19.2938 151.223 19.291 151.143 19.3037 151.065C19.3163 150.987 19.3441 150.914 19.3849 150.851C19.734 150.166 20.1326 149.518 20.5765 148.914C23.0531 145.804 25.5764 142.721 28.0998 139.638C28.3797 139.303 28.713 139.034 29.0811 138.847C29.3381 138.711 29.6184 139.147 29.8521 139.147Z" fill="#F7F5E9"/>
<path d="M203.682 9.51222C204.113 10.1133 204.503 10.7517 204.851 11.4218C207 16.1959 209.103 20.9699 211.206 25.7439C211.449 26.2525 211.66 26.7814 211.837 27.3262C211.939 27.5385 211.974 27.7861 211.935 28.0255C211.897 28.265 211.787 28.481 211.626 28.6356C211.276 28.963 210.832 28.7993 210.435 28.09C210.196 27.7064 209.993 27.295 209.827 26.8624L203.519 11.831C203.379 11.4021 203.292 10.9519 203.262 10.4943C203.122 10.3033 203.379 10.0578 203.682 9.51222Z" fill="#F7F5E9"/>
<path d="M209.897 80.0587C209.651 80.6098 209.37 81.1387 209.056 81.6409C206.486 85.2783 203.908 88.8701 201.323 92.4166C201.064 92.7814 200.736 93.0709 200.365 93.2622C200.221 93.3367 200.066 93.3752 199.909 93.3752C199.752 93.3752 199.597 93.3367 199.453 93.2622C199.363 93.2064 199.284 93.1288 199.221 93.0346C199.158 92.9404 199.113 92.8317 199.089 92.7158C199.065 92.5998 199.062 92.4792 199.08 92.3618C199.099 92.2444 199.138 92.1329 199.196 92.0346C199.406 91.514 199.673 91.0279 199.991 90.5888C202.865 87.0424 205.715 83.496 208.612 79.9495C208.986 79.4039 209.43 79.1311 209.897 80.0587Z" fill="#F7F5E9"/>
<path d="M216.603 51.169C216.416 52.2875 216.252 53.5151 216.065 54.7427C215.481 58.1254 214.921 61.5082 214.313 64.8909C214.155 65.5174 213.893 66.1014 213.542 66.6096C213.542 66.7732 213.098 66.8278 212.888 66.746C212.678 66.6641 212.421 66.3913 212.421 66.1731C212.4 65.2597 212.455 64.3461 212.584 63.4451C213.051 60.717 213.565 58.2346 214.079 55.6157C214.36 54.2244 214.594 52.8876 214.897 51.4145C215.023 50.8646 215.22 50.3403 215.481 49.8596C215.481 49.6959 215.902 49.6686 216.136 49.6686C216.209 49.6976 216.276 49.7478 216.329 49.8145C216.382 49.8812 216.42 49.9623 216.439 50.0505C216.511 50.4197 216.565 50.793 216.603 51.169Z" fill="#F7F5E9"/>
<path d="M155.879 48.2773C155.69 48.6463 155.471 48.9934 155.225 49.3139C154.642 49.8539 154.034 50.3548 153.402 50.8144L145.482 56.5977C145.207 56.8062 144.918 56.9886 144.617 57.1433C144.455 57.2913 144.25 57.3598 144.045 57.3344C143.84 57.3089 143.652 57.1915 143.519 57.0069C143.454 56.8871 143.412 56.7527 143.395 56.6124C143.377 56.4721 143.385 56.3291 143.418 56.1927C143.451 56.0563 143.509 55.9296 143.586 55.8207C143.664 55.7119 143.761 55.6235 143.87 55.5611C147.304 52.8331 150.879 50.3779 154.22 47.7863C154.414 47.6112 154.652 47.5154 154.898 47.5135C155.246 47.7294 155.575 47.9853 155.879 48.2773Z" fill="#F7F5E9"/>
<path d="M185.785 48.2227C186.089 47.6771 186.183 47.2407 186.463 47.1043C187.334 46.6633 188.232 46.2985 189.15 46.0131L200.832 42.3848C202.07 42.0029 203.332 41.7028 204.594 41.4027C205.271 41.2117 205.995 41.4027 206.112 42.0029C206.229 42.603 205.879 42.9031 205.365 43.1214C204.851 43.3396 203.963 43.6942 203.238 43.9125C198.239 45.2765 193.239 46.6405 188.239 48.0045C187.425 48.1317 186.606 48.2046 185.785 48.2227Z" fill="#F7F5E9"/>
<path d="M39.0576 129.354C38.4034 129.49 37.9361 128.917 38.0763 128.481C38.1573 128.118 38.3093 127.782 38.5202 127.499L45.9267 119.015C46.1687 118.753 46.4678 118.573 46.7912 118.496C47.0994 118.486 47.4022 118.592 47.6557 118.796C47.7725 118.796 47.6557 119.342 47.6557 119.56C47.4939 120.004 47.2552 120.403 46.9547 120.733C44.6183 123.461 42.2819 126.189 39.9455 128.754C39.6715 128.995 39.3733 129.197 39.0576 129.354Z" fill="#F7F5E9"/>
<path d="M165.458 45.7403C167.142 45.4107 168.856 45.3556 170.552 45.5766C171.86 45.5766 173.145 45.8494 174.454 46.0403C174.847 46.1132 175.232 46.2414 175.599 46.4223C175.832 46.4223 175.856 47.3225 175.599 47.4316C175.265 47.6966 174.879 47.8564 174.477 47.8954C171.79 47.6499 169.08 47.3225 166.393 46.9951C166.072 46.9681 165.764 46.8357 165.505 46.6132C165.505 46.395 165.529 46.0949 165.458 45.7403Z" fill="#F7F5E9"/>
</svg>
