<svg width="222" height="210" viewBox="0 0 222 210" fill="none" xmlns="http://www.w3.org/2000/svg">
<path d="M126.539 140.921C125.871 140.081 125.254 139.374 124.688 138.711C124.629 138.61 124.599 138.499 124.601 138.387C124.603 138.274 124.638 138.164 124.701 138.066C124.765 137.968 124.856 137.884 124.965 137.823C125.075 137.762 125.201 137.725 125.331 137.716C126.18 137.716 127.054 137.716 127.902 137.871C128.361 137.064 128.748 136.229 129.059 135.373C129.47 134.599 129.059 133.516 130.293 132.853C130.878 134.528 131.744 136.122 132.864 137.583L135.049 136.986C135.923 138.158 135.049 139.197 135.255 140.457C136.103 140.744 136.926 140.965 137.826 141.275C138.015 141.333 138.181 141.436 138.304 141.572C138.427 141.708 138.503 141.871 138.522 142.043C138.541 142.215 138.502 142.388 138.411 142.542C138.319 142.695 138.179 142.823 138.006 142.911C137.286 143.419 136.489 143.861 135.743 144.325C136.54 146.359 136.54 146.359 136.232 147.376C135.332 147.707 134.818 146.956 134.098 146.801C132.375 147.995 133.327 150.139 131.861 151.487C130.55 151.178 130.421 150.249 130.19 149.387C129.959 148.525 129.65 147.796 129.419 147.177C129.187 146.558 128.545 147.066 128.133 147.177C127.285 147.332 126.951 147.177 126.899 146.469C126.872 146.065 126.872 145.659 126.899 145.254L124.457 144.635C124.034 144.522 123.629 144.366 123.249 144.171C123.143 144.105 123.056 144.019 122.996 143.919C122.937 143.819 122.906 143.708 122.906 143.596C122.906 143.483 122.937 143.373 122.996 143.273C123.056 143.173 123.143 143.087 123.249 143.021C123.66 142.756 124.123 142.513 124.56 142.269L126.539 140.921Z" fill="#F7F5E9"/>
<path d="M213.95 193.333C215.441 194.991 215.107 196.936 216.521 198.439L219.889 197.334C219.889 197.798 220.171 198.174 220.043 198.461C219.729 199.092 219.369 199.705 218.963 200.296L220.917 201.025C221.431 201.18 221.945 201.379 221.997 201.909C222.048 202.44 221.483 202.639 220.968 202.772C219.844 203.038 218.782 203.472 217.832 204.054C218.248 204.647 218.626 205.259 218.963 205.888C219.1 206.037 219.175 206.221 219.175 206.411C219.176 206.6 219.101 206.785 218.964 206.933C218.827 207.082 218.635 207.186 218.42 207.229C218.205 207.272 217.98 207.252 217.78 207.171C217.035 207.171 216.315 206.817 215.595 206.662L213.101 210C212.33 210 212.279 209.447 212.176 208.983C212.022 208.165 211.867 207.347 211.662 206.552C211.555 206.313 211.408 206.09 211.225 205.888C210.479 206.087 209.759 206.308 209.014 206.485C208.768 206.573 208.494 206.584 208.24 206.515C207.986 206.446 207.768 206.303 207.625 206.109C207.522 205.939 207.493 205.742 207.545 205.556C207.597 205.369 207.726 205.204 207.908 205.093C208.101 204.942 208.282 204.779 208.448 204.606C208.595 204.432 208.724 204.247 208.834 204.054C207.883 202.86 206.031 202.528 205.26 201.158C206.134 199.942 207.831 200.428 209.039 199.566C208.757 198.969 208.474 198.351 208.217 197.709C207.96 197.068 208.628 196.914 209.014 197.046C209.888 197.356 210.736 197.732 211.585 198.085C212.69 196.737 212.844 194.968 213.95 193.333Z" fill="#F7F5E9"/>
<path d="M50.4667 9.72632C51.1351 8.24526 52.7548 7.69263 53.5517 6.63158C53.1404 5.48211 51.3922 5.28316 51.1865 4.02316C52.5423 3.79043 53.9427 3.83587 55.2742 4.15579C55.4423 3.75461 55.5629 3.33988 55.6342 2.91789C55.6342 2.03368 55.6342 1.12737 55.7884 0C56.2084 0.171948 56.6124 0.371487 56.9967 0.596842C57.7733 1.39521 58.6933 2.08176 59.7219 2.63053C60.9559 2.23263 61.0073 0.773684 62.4984 0.42C62.8075 0.95317 62.9239 1.55367 62.8327 2.14421C62.8327 2.67474 62.8327 3.18316 62.8327 3.86842L64.6837 4.00105C64.9974 3.98685 65.3079 4.06125 65.5678 4.21291C65.8278 4.36457 66.0229 4.58516 66.1234 4.84105C66.1234 5.94632 64.7608 6.54316 64.2724 7.64842C64.5809 8.24526 64.9408 8.93053 65.275 9.61579C65.6092 10.3011 65.6092 10.5 65.275 10.8758C64.9408 11.2516 64.3495 11.1189 63.8353 10.8758C63.5304 10.8095 63.2214 10.7578 62.9098 10.7211C62.7812 11.1189 62.627 11.5168 62.4984 11.9368C62.3699 12.3568 62.8841 13.6168 61.7272 13.8821C60.5703 14.1474 60.3132 13.1747 59.6705 12.7105C59.0277 12.2463 58.7706 12.0253 58.385 11.7158C57.1767 12.0916 57.3567 13.9263 55.4028 13.3737L55.1457 10.1684C53.6289 9.21789 52.0349 10.4558 50.4667 9.72632Z" fill="#F7F5E9"/>
<path d="M4.13914 64.5916L3.67638 60.1705C5.57884 60.6789 6.0416 62.381 7.53272 63.1105L9.17809 61.6958C10.6178 61.9832 10.0008 63.1547 10.6949 63.9063L15.014 63.7958C14.7826 65.6526 12.983 66.2937 11.9547 67.5095C11.9547 68.4158 13.0087 68.7916 13.4715 69.4768C13.5406 69.605 13.5763 69.7445 13.5763 69.8858C13.5763 70.027 13.5406 70.1666 13.4715 70.2947C13.3645 70.3976 13.2339 70.4801 13.0878 70.5372C12.9418 70.5943 12.7835 70.6246 12.6231 70.6263C12.1615 70.6664 11.6964 70.6664 11.2348 70.6263C11.2348 71.7758 11.749 72.8368 11.0034 74.0968C9.4866 73.4337 8.84388 71.8863 7.1728 71.3779C6.71003 71.9526 6.24727 72.5937 5.70739 73.1463C5.57514 73.2278 5.42399 73.2838 5.26427 73.3105C5.10454 73.3372 4.94 73.334 4.78186 73.301C4.66341 73.2626 4.55732 73.2004 4.47238 73.1197C4.38743 73.039 4.32608 72.942 4.29339 72.8368C4.29339 72.1074 4.29339 71.3558 4.29339 70.5158L0 70.2284C0.17172 69.8754 0.405864 69.5473 0.694142 69.2558C1.51683 68.6147 2.41664 68.04 3.445 67.3547C2.69944 66.9126 2.13384 66.6032 1.59395 66.2495C1.4881 66.1833 1.40523 66.0936 1.35425 65.9899C1.30327 65.8863 1.28611 65.7727 1.30462 65.6613C1.32312 65.5499 1.3766 65.445 1.45929 65.3577C1.54198 65.2705 1.65075 65.2043 1.77392 65.1663C2.18526 65.0558 2.64802 65.0337 3.05936 64.9453C3.42646 64.8442 3.78691 64.7262 4.13914 64.5916Z" fill="#F7F5E9"/>
<path d="M111.654 97.2632C112.04 96.1358 113.017 96.3789 113.891 96.0253C114.045 95.6053 114.302 95.0526 114.482 94.5C114.662 93.9474 114.868 93.7705 115.33 93.7926C115.742 93.8359 116.123 93.9998 116.41 94.2568C116.784 94.7181 117.111 95.2063 117.387 95.7158C117.789 95.693 118.193 95.693 118.595 95.7158C118.929 95.7315 119.243 95.8583 119.469 96.0695C119.515 96.1999 119.524 96.3376 119.498 96.4718C119.471 96.606 119.408 96.7331 119.315 96.8432C118.833 97.1075 118.488 97.5223 118.354 98.0004C118.22 98.4786 118.306 98.9829 118.595 99.4074C118.66 99.625 118.66 99.8529 118.595 100.071C118.545 100.291 118.402 100.488 118.193 100.623C117.984 100.757 117.724 100.821 117.464 100.8C116.936 100.638 116.42 100.446 115.922 100.225C114.868 100.225 114.508 101.552 113.351 101.154V98.9432L111.654 97.2632Z" fill="#F7F5E9"/>
<path d="M80.289 121.269C80.5204 121.269 80.6747 121.071 80.8289 121.093C81.5628 121.221 82.3257 121.122 82.9838 120.815C83.6419 120.508 84.1533 120.012 84.4282 119.413C84.4282 119.28 84.8652 119.258 85.2766 119.147L86.1764 121.137C86.8962 121.645 88.0017 120.805 88.6187 121.888L87.2819 123.171C87.3082 123.379 87.3511 123.586 87.4104 123.789C87.5335 124.226 87.6195 124.669 87.6675 125.116C87.6765 125.265 87.635 125.414 87.5479 125.543C87.4609 125.673 87.332 125.778 87.1769 125.846C87.0219 125.913 86.8473 125.941 86.6742 125.925C86.5012 125.91 86.3372 125.851 86.2021 125.757C85.8103 125.468 85.449 125.15 85.1223 124.806C84.5705 125.186 83.9955 125.54 83.3998 125.867C83.1427 125.978 82.6028 126.022 82.4486 125.867C82.3016 125.743 82.1849 125.596 82.1055 125.432C82.026 125.269 81.9853 125.094 81.9858 124.917C82.0752 124.364 82.2127 123.817 82.3972 123.281C81.7802 122.375 80.1605 122.463 80.289 121.269Z" fill="#F7F5E9"/>
<path d="M163.2 170.343C163.329 171.095 163.432 171.692 163.56 172.266C163.627 172.487 163.602 172.72 163.489 172.926C163.377 173.132 163.183 173.298 162.943 173.394C162.403 173.637 161.941 173.394 161.452 172.819C161.239 172.521 161.05 172.211 160.887 171.891C159.781 171.891 159.241 172.974 158.033 172.465L158.624 170.255C158.033 169.724 157.442 169.194 156.722 168.508C157.776 168.044 158.778 168.508 159.858 168.044C160.141 167.506 160.458 166.982 160.809 166.475C160.886 166.36 160.996 166.264 161.13 166.198C161.263 166.132 161.414 166.097 161.568 166.097C161.722 166.097 161.873 166.132 162.006 166.198C162.139 166.264 162.25 166.36 162.326 166.475C162.609 167.027 162.815 167.602 163.046 168.177C163.278 168.752 164.769 167.978 164.974 169.127L164.254 169.614L163.2 170.343Z" fill="#F7F5E9"/>
<path d="M108.826 137.716C108.98 138.512 109.134 139.241 109.212 139.926C109.213 140.058 109.173 140.188 109.096 140.302C109.018 140.416 108.906 140.51 108.772 140.573C108.637 140.637 108.485 140.668 108.331 140.663C108.178 140.658 108.029 140.617 107.9 140.545C107.352 140.157 106.829 139.744 106.332 139.307L104.275 140.103C103.53 139.749 103.17 139.329 103.53 138.755C103.89 138.18 103.71 137.517 102.887 137.119C102.707 137.119 102.63 136.765 102.502 136.588C102.563 136.319 102.734 136.078 102.983 135.908C103.233 135.738 103.546 135.65 103.864 135.66C104.258 135.692 104.653 135.603 104.977 135.409C105.302 135.215 105.536 134.928 105.638 134.599C105.718 134.462 105.832 134.341 105.972 134.245C106.057 134.136 106.171 134.046 106.306 133.984C106.44 133.922 106.591 133.889 106.744 133.889C106.896 133.889 107.047 133.922 107.181 133.984C107.316 134.046 107.43 134.136 107.515 134.245C107.669 134.634 107.959 134.973 108.346 135.214C108.732 135.456 109.197 135.588 109.674 135.594C110.189 135.594 110.317 136.323 109.931 136.699C109.753 136.87 109.555 137.026 109.34 137.163L108.826 137.716Z" fill="#F7F5E9"/>
<path d="M130.447 115.964C130.734 116.016 131.018 116.083 131.296 116.163C132.452 116.583 132.53 117.003 131.604 117.755C131.398 117.909 131.193 118.02 130.833 118.241C130.886 119.029 130.886 119.819 130.833 120.606C130.808 120.779 130.734 120.945 130.618 121.087C130.501 121.23 130.345 121.346 130.164 121.424C129.856 121.424 129.419 121.225 129.085 121.026C128.75 120.827 128.853 120.628 128.699 120.452C128.535 120.263 128.354 120.086 128.159 119.921L127.156 120.231C126.694 120.363 126.205 120.761 125.717 120.407C125.228 120.054 125.408 119.479 125.717 118.993C125.832 118.791 125.872 118.564 125.831 118.342C125.789 118.12 125.668 117.915 125.485 117.755C125.177 117.423 124.714 117.114 125.228 116.473H127.054C127.414 115.677 127.696 114.992 128.056 114.262C128.13 114.171 128.228 114.096 128.342 114.045C128.456 113.993 128.583 113.967 128.712 113.967C128.841 113.967 128.968 113.993 129.082 114.045C129.196 114.096 129.294 114.171 129.367 114.262C129.83 114.726 130.087 115.279 130.447 115.964Z" fill="#F7F5E9"/>
<path d="M94.3775 53.0526L94.1204 51.0853C93.9242 50.9848 93.7353 50.8741 93.5548 50.7537C92.5265 50.0463 92.5522 49.6926 93.7348 49.1621C93.9988 49.0517 94.2742 48.9629 94.5575 48.8968C94.5575 48.4989 94.5575 48.0568 94.7889 47.6147C95.0203 47.1726 95.6373 46.8411 95.9458 47.2168C96.2391 47.62 96.694 47.9169 97.2245 48.0513C97.7551 48.1857 98.3245 48.1484 98.8252 47.9463C98.9537 47.9463 99.2108 48.1895 99.4936 48.3663L98.2339 49.9579C98.407 50.2526 98.5615 50.5551 98.6966 50.8642C98.9794 51.5053 98.6966 52.1021 97.9768 51.9032C96.6142 51.3063 95.7144 51.9916 94.3775 53.0526Z" fill="#F7F5E9"/>
<path d="M15.811 71.4442C16.8604 71.7654 17.8164 72.2782 18.6133 72.9474C24.552 77.3684 30.5422 81.6347 36.4296 86.0558C47.553 94.3968 58.6421 102.767 69.697 111.167C71.8565 112.825 73.9389 114.572 76.0728 116.252C76.3447 116.439 76.5792 116.663 76.7669 116.915C76.8294 117.192 76.8294 117.477 76.7669 117.755C76.4584 117.755 76.0471 117.755 75.8414 117.755C74.2474 116.694 72.6278 115.544 71.1109 114.505C58.2565 104.897 45.402 95.2663 32.5475 85.6137C27.4057 81.7232 22.2639 77.7442 17.1222 73.8095C16.5336 73.3585 15.9756 72.8787 15.4511 72.3726C15.5796 72.1958 15.7596 71.8421 15.811 71.4442Z" fill="#F7F5E9"/>
<path d="M165 171.559C165.471 171.534 165.943 171.594 166.386 171.735C166.828 171.876 167.232 172.094 167.571 172.377C170.142 173.991 172.713 175.516 175.284 177.174C184.642 183.304 193.983 189.442 203.306 195.587C204.065 196.093 204.779 196.647 205.44 197.245C205.672 197.466 205.646 197.886 205.723 198.24C205.249 198.25 204.778 198.179 204.337 198.031C203.895 197.883 203.493 197.661 203.152 197.378C197.65 193.885 192.123 190.415 186.647 186.9C181.171 183.385 175.695 179.826 170.27 176.245C168.599 175.14 167.005 174.035 165.411 172.775C165.026 172.421 164.537 172.134 165 171.559Z" fill="#F7F5E9"/>
<path d="M113.479 89.9684C113.479 90.2558 113.479 90.4105 113.325 90.5432C113.171 90.6758 112.374 91.2505 112.091 90.8747C111.672 90.4069 111.342 89.8846 111.114 89.3274C109.16 84.1547 107.181 79.0042 105.304 73.8537C103.427 68.7032 101.627 63.6189 99.8278 58.4905C99.5677 57.8499 99.3699 57.1919 99.2365 56.5232C99.2417 56.3852 99.2898 56.251 99.3757 56.1344C99.4616 56.0178 99.5822 55.923 99.725 55.86C99.9821 55.7495 100.548 55.86 100.651 55.86C101.104 56.5043 101.483 57.1854 101.782 57.8937C103.067 61.1653 104.327 64.4589 105.561 67.7747C107.978 74.6495 110.548 81.5021 112.965 88.421C113.119 88.9295 113.325 89.5042 113.479 89.9684Z" fill="#F7F5E9"/>
<path d="M92.7579 46.1116C92.7579 46.3547 92.6036 46.5095 92.4751 46.5979C92.3267 46.6495 92.1607 46.6495 92.0123 46.5979C91.6509 46.3921 91.3149 46.1551 91.0097 45.8905C89.2615 43.9895 87.4875 42.1326 85.8679 40.1874C80.0405 33.4232 74.2817 26.6147 68.5915 19.7621C67.6659 18.6568 66.809 17.5295 66.0206 16.38C65.9395 16.2365 65.9039 16.0771 65.9175 15.9179C65.931 15.7588 65.9932 15.6055 66.0977 15.4737C66.1676 15.3998 66.2558 15.3402 66.3559 15.2992C66.4559 15.2583 66.5653 15.2371 66.6761 15.2371C66.787 15.2371 66.8964 15.2583 66.9964 15.2992C67.0965 15.3402 67.1847 15.3998 67.2546 15.4737C67.7635 15.8864 68.2282 16.3377 68.6429 16.8221C75.4986 24.9716 82.4057 33.1358 89.3643 41.3147C90.3926 42.5305 91.3182 43.8126 92.2694 45.0947C92.4586 45.4239 92.6218 45.7636 92.7579 46.1116Z" fill="#F7F5E9"/>
<path d="M137.491 150.625C137.833 150.658 138.17 150.725 138.494 150.824C139.025 151.09 139.517 151.409 139.959 151.775C145.538 156.196 151.143 160.617 156.696 165.193C157.098 165.478 157.437 165.822 157.699 166.209C157.699 166.386 157.699 166.762 157.519 166.983C157.408 167.033 157.284 167.06 157.159 167.06C157.033 167.06 156.91 167.033 156.799 166.983C156.428 166.779 156.083 166.542 155.77 166.276L138.828 152.747C138.325 152.322 137.861 151.864 137.44 151.377C137.389 151.244 137.491 150.979 137.491 150.625Z" fill="#F7F5E9"/>
<path d="M102.836 133.14C102.527 133.339 102.27 133.604 102.013 133.626C101.664 133.624 101.324 133.531 101.036 133.361C99.9564 132.742 98.8509 132.123 97.7968 131.438C95.483 129.957 93.2206 128.454 90.9325 127.017C90.5748 126.798 90.262 126.529 90.007 126.221C89.9384 126.097 89.9028 125.961 89.9028 125.823C89.9028 125.686 89.9384 125.55 90.007 125.425C90.1209 125.33 90.26 125.26 90.4123 125.222C90.5646 125.183 90.7255 125.177 90.8811 125.204C91.4667 125.423 92.0263 125.689 92.5522 126C95.1231 127.569 97.694 129.183 100.265 130.797C100.958 131.248 101.611 131.744 102.219 132.278C102.467 132.541 102.674 132.831 102.836 133.14Z" fill="#F7F5E9"/>
<path d="M122.195 141.474L119.624 141.054L113.119 139.971C112.607 139.895 112.107 139.769 111.628 139.595C111.265 139.408 110.978 139.131 110.806 138.799C110.626 138.512 111.217 138.158 111.962 138.158C112.916 138.136 113.871 138.18 114.816 138.291C117.053 138.578 119.289 138.954 121.5 139.307C122.095 139.393 122.669 139.565 123.197 139.816C123.367 139.917 123.505 140.053 123.599 140.211C123.693 140.369 123.74 140.545 123.737 140.722C123.737 140.987 123.172 141.208 122.837 141.407C122.503 141.606 122.529 141.474 122.195 141.474Z" fill="#F7F5E9"/>
<path d="M118.93 103.121C119.264 103.298 119.649 103.364 119.804 103.585C120.459 104.395 121.06 105.236 121.603 106.105C122.914 108.051 124.174 110.018 125.408 111.985C125.62 112.222 125.809 112.474 125.974 112.737C126.085 112.94 126.127 113.166 126.095 113.389C126.063 113.612 125.959 113.823 125.794 113.997C125.485 114.284 124.714 113.997 124.328 113.422L118.672 104.58C118.524 104.312 118.462 104.014 118.493 103.718C118.467 103.519 118.724 103.364 118.93 103.121Z" fill="#F7F5E9"/>
<path d="M131.116 129.36C131.116 129.935 130.704 130.642 130.139 130.532C129.573 130.421 129.239 129.647 129.187 129.073C129.033 127.437 128.956 125.779 128.905 124.121C128.928 123.985 128.986 123.854 129.075 123.74C129.164 123.625 129.281 123.529 129.419 123.458C129.959 123.259 130.19 123.679 130.37 124.011C130.513 124.206 130.609 124.424 130.653 124.652C130.91 126 131.116 127.503 131.116 129.36Z" fill="#F7F5E9"/>
</svg>
